<svg width="35" height="32" viewBox="0 0 35 32" fill="none" xmlns="http://www.w3.org/2000/svg">
<path d="M34.4961 3.55749C34.495 2.6133 34.115 1.70809 33.4392 1.0405C32.7635 0.37291 31.8474 -0.00252515 30.8918 -0.00341797H4.10035C3.14482 -0.00252515 2.22867 0.37291 1.55295 1.0405C0.877231 1.70809 0.497143 2.6133 0.496094 3.55749V8.62058C0.497858 9.52471 0.849761 10.3939 1.47959 11.0497C0.849778 11.7057 0.497883 12.575 0.496094 13.4792V18.5417C0.498157 19.4396 0.845646 20.3031 1.46812 20.9571C0.845646 21.6112 0.498157 22.4747 0.496094 23.3726V28.4357C0.497143 29.3799 0.877231 30.2851 1.55295 30.9527C2.22867 31.6203 3.14482 31.9957 4.10035 31.9966H30.8918C31.8474 31.9957 32.7635 31.6203 33.4392 30.9527C34.115 30.2851 34.495 29.3799 34.4961 28.4357V23.3727C34.494 22.4748 34.1465 21.6113 33.5241 20.9572C34.1465 20.3031 34.494 19.4396 34.4961 18.5418V13.4792C34.4943 12.575 34.1424 11.7057 33.5126 11.0497C34.1424 10.3939 34.4943 9.52471 34.4961 8.62058V3.55749ZM2.78707 3.55749C2.78762 3.21354 2.92617 2.88384 3.17236 2.64068C3.41854 2.39752 3.75227 2.26075 4.10035 2.26035H30.8918C31.2399 2.26075 31.5736 2.39752 31.8198 2.64068C32.066 2.88384 32.2046 3.21354 32.2051 3.55749V8.62058C32.2046 8.96453 32.066 9.29423 31.8198 9.53739C31.5736 9.78055 31.2399 9.91732 30.8918 9.91772H4.10035C3.75227 9.91732 3.41854 9.78055 3.17236 9.53739C2.92617 9.29423 2.78762 8.96453 2.78707 8.62058V3.55749ZM32.2051 13.4792V18.5417C32.203 18.8683 32.0756 19.1819 31.8486 19.4193C31.6216 19.6567 31.312 19.8001 30.9822 19.8208C30.9799 19.8132 4.13397 19.8073 4.10052 19.8117C3.92936 19.8155 3.75917 19.7854 3.59994 19.7233C3.4407 19.6612 3.29565 19.5682 3.17328 19.4499C3.05092 19.3316 2.95372 19.1903 2.8874 19.0343C2.82108 18.8783 2.78697 18.7109 2.78707 18.5417V13.4792C2.7875 13.1351 2.926 12.8053 3.17219 12.562C3.41839 12.3188 3.75218 12.1819 4.10035 12.1815H30.8918C31.24 12.1819 31.5738 12.3188 31.82 12.562C32.0662 12.8053 32.2047 13.1351 32.2051 13.4792ZM32.2051 28.4357C32.2046 28.7797 32.066 29.1094 31.8198 29.3526C31.5736 29.5957 31.2399 29.7325 30.8918 29.7329H4.10035C3.75227 29.7325 3.41854 29.5957 3.17236 29.3526C2.92617 29.1094 2.78762 28.7797 2.78707 28.4357V23.3727C2.7869 23.2035 2.82096 23.036 2.88725 22.88C2.95354 22.724 3.05072 22.5827 3.17308 22.4644C3.29543 22.3461 3.4405 22.2531 3.59974 22.191C3.75898 22.1288 3.92919 22.0988 4.10035 22.1026C4.22877 22.102 30.8728 22.1138 30.9821 22.0935C31.3119 22.1142 31.6216 22.2576 31.8485 22.495C32.0755 22.7324 32.203 23.046 32.2051 23.3726V28.4357ZM5.42149 6.08876C5.42145 5.9401 5.45105 5.7929 5.50861 5.65556C5.56616 5.51821 5.65053 5.39342 5.75691 5.28831C5.86329 5.1832 5.98958 5.09982 6.12857 5.04295C6.26757 4.98608 6.41654 4.95683 6.56698 4.95687H12.215C12.5188 4.95687 12.8102 5.07612 13.025 5.28839C13.2398 5.50066 13.3605 5.78856 13.3605 6.08876C13.3605 6.38895 13.2398 6.67685 13.025 6.88912C12.8102 7.10139 12.5188 7.22064 12.215 7.22064H6.56698C6.41654 7.22068 6.26757 7.19143 6.12857 7.13456C5.98958 7.07769 5.86329 6.99432 5.75691 6.88921C5.65053 6.78409 5.56616 6.6593 5.50861 6.52196C5.45105 6.38461 5.42145 6.23741 5.42149 6.08876ZM24.632 4.95709C24.9289 4.96725 25.2103 5.09096 25.4167 5.30212C25.6231 5.51328 25.7385 5.79539 25.7385 6.08897C25.7385 6.38256 25.6231 6.66467 25.4167 6.87583C25.2103 7.08699 24.9289 7.21069 24.632 7.22086C24.3351 7.21069 24.0537 7.08699 23.8473 6.87584C23.6409 6.66468 23.5255 6.38257 23.5255 6.08898C23.5255 5.7954 23.6409 5.51328 23.8473 5.30212C24.0537 5.09096 24.3351 4.96726 24.632 4.95709ZM20.8391 4.95709C21.136 4.96725 21.4174 5.09096 21.6238 5.30212C21.8302 5.51328 21.9456 5.79539 21.9456 6.08897C21.9456 6.38256 21.8302 6.66467 21.6238 6.87583C21.4174 7.08699 21.136 7.21069 20.8391 7.22086C20.5422 7.21069 20.2608 7.08699 20.0544 6.87584C19.848 6.66468 19.7326 6.38257 19.7326 6.08898C19.7326 5.7954 19.848 5.51328 20.0544 5.30212C20.2608 5.09096 20.5422 4.96726 20.8391 4.95709ZM28.4249 4.95709C28.7218 4.96725 29.0032 5.09096 29.2096 5.30212C29.416 5.51328 29.5314 5.79539 29.5314 6.08897C29.5314 6.38256 29.416 6.66467 29.2096 6.87583C29.0032 7.08699 28.7218 7.21069 28.4249 7.22086C28.128 7.21069 27.8466 7.08699 27.6402 6.87584C27.4338 6.66468 27.3184 6.38257 27.3184 6.08898C27.3184 5.7954 27.4338 5.51328 27.6402 5.30212C27.8466 5.09096 28.128 4.96726 28.4249 4.95709ZM5.42149 16.0104C5.42145 15.8618 5.45105 15.7146 5.50861 15.5772C5.56616 15.4399 5.65053 15.3151 5.75691 15.21C5.86329 15.1049 5.98958 15.0215 6.12857 14.9646C6.26757 14.9078 6.41654 14.8785 6.56698 14.8786H12.215C12.5188 14.8786 12.8102 14.9978 13.025 15.2101C13.2398 15.4223 13.3605 15.7102 13.3605 16.0104C13.3605 16.3106 13.2398 16.5985 13.025 16.8108C12.8102 17.0231 12.5188 17.1423 12.215 17.1423H6.56698C6.41654 17.1424 6.26757 17.1131 6.12857 17.0562C5.98958 16.9994 5.86329 16.916 5.75691 16.8109C5.65053 16.7058 5.56616 16.581 5.50861 16.4436C5.45105 16.3063 5.42145 16.1591 5.42149 16.0104ZM24.632 14.8784C24.9289 14.8886 25.2103 15.0123 25.4167 15.2234C25.6231 15.4346 25.7385 15.7167 25.7385 16.0103C25.7385 16.3039 25.6231 16.586 25.4167 16.7971C25.2103 17.0083 24.9289 17.132 24.632 17.1422C24.3351 17.132 24.0537 17.0083 23.8473 16.7972C23.6409 16.586 23.5255 16.3039 23.5255 16.0103C23.5255 15.7167 23.6409 15.4346 23.8473 15.2234C24.0537 15.0123 24.3351 14.8886 24.632 14.8784ZM20.8391 14.8784C21.136 14.8886 21.4174 15.0123 21.6238 15.2234C21.8302 15.4346 21.9456 15.7167 21.9456 16.0103C21.9456 16.3039 21.8302 16.586 21.6238 16.7971C21.4174 17.0083 21.136 17.132 20.8391 17.1422C20.5422 17.132 20.2608 17.0083 20.0544 16.7972C19.848 16.586 19.7326 16.3039 19.7326 16.0103C19.7326 15.7167 19.848 15.4346 20.0544 15.2234C20.2608 15.0123 20.5422 14.8886 20.8391 14.8784ZM28.4249 14.8784C28.7218 14.8886 29.0032 15.0123 29.2096 15.2234C29.416 15.4346 29.5314 15.7167 29.5314 16.0103C29.5314 16.3039 29.416 16.586 29.2096 16.7971C29.0032 17.0083 28.7218 17.132 28.4249 17.1422C28.128 17.132 27.8466 17.0083 27.6402 16.7972C27.4338 16.586 27.3184 16.3039 27.3184 16.0103C27.3184 15.7167 27.4338 15.4346 27.6402 15.2234C27.8466 15.0123 28.128 14.8886 28.4249 14.8784ZM13.3605 25.9045C13.3605 26.0531 13.3309 26.2003 13.2734 26.3377C13.2158 26.475 13.1314 26.5998 13.0251 26.7049C12.9187 26.81 12.7924 26.8934 12.6534 26.9503C12.5144 27.0071 12.3654 27.0364 12.215 27.0364H6.56698C6.26318 27.0364 5.97182 26.9171 5.757 26.7048C5.54218 26.4926 5.42149 26.2047 5.42149 25.9045C5.42149 25.6043 5.54218 25.3164 5.757 25.1041C5.97182 24.8918 6.26318 24.7726 6.56698 24.7726H12.215C12.3654 24.7726 12.5144 24.8018 12.6534 24.8587C12.7924 24.9155 12.9187 24.9989 13.0251 25.104C13.1314 25.2091 13.2158 25.3339 13.2734 25.4713C13.3309 25.6086 13.3605 25.7558 13.3605 25.9045ZM24.632 27.0361C24.335 27.0259 24.0537 26.9022 23.8473 26.691C23.6409 26.4799 23.5255 26.1978 23.5255 25.9042C23.5255 25.6106 23.6409 25.3285 23.8473 25.1173C24.0537 24.9062 24.335 24.7825 24.632 24.7723C24.9289 24.7825 25.2102 24.9062 25.4167 25.1173C25.6231 25.3285 25.7385 25.6106 25.7385 25.9042C25.7385 26.1978 25.6231 26.4799 25.4167 26.691C25.2102 26.9022 24.9289 27.0259 24.632 27.0361ZM20.8391 27.0361C20.5422 27.0259 20.2608 26.9022 20.0544 26.691C19.848 26.4799 19.7326 26.1978 19.7326 25.9042C19.7326 25.6106 19.848 25.3285 20.0544 25.1173C20.2608 24.9062 20.5422 24.7825 20.8391 24.7723C21.136 24.7825 21.4174 24.9062 21.6238 25.1173C21.8302 25.3285 21.9456 25.6106 21.9456 25.9042C21.9456 26.1978 21.8302 26.4799 21.6238 26.691C21.4174 26.9022 21.136 27.0259 20.8391 27.0361ZM28.4249 27.0361C28.1279 27.0259 27.8466 26.9022 27.6402 26.691C27.4338 26.4799 27.3184 26.1978 27.3184 25.9042C27.3184 25.6106 27.4338 25.3285 27.6402 25.1173C27.8466 24.9062 28.1279 24.7825 28.4249 24.7723C28.7218 24.7825 29.0031 24.9062 29.2096 25.1173C29.416 25.3285 29.5314 25.6106 29.5314 25.9042C29.5314 26.1978 29.416 26.4799 29.2096 26.691C29.0031 26.9022 28.7218 27.0259 28.4249 27.0361Z" fill="white"/>
</svg>
