<?xml version="1.0" encoding="UTF-8"?>
<svg id="Calque_1" xmlns="http://www.w3.org/2000/svg" version="1.1" viewBox="0 0 18 18">
  <!-- Generator: Adobe Illustrator 29.1.0, SVG Export Plug-In . SVG Version: 2.1.0 Build 142)  -->
  <defs>
    <style>
      .st0 {
        fill: #fff;
      }

      .st1 {
        fill: none;
        stroke: #003235;
        stroke-width: 2px;
      }
    </style>
  </defs>
  <path class="st0" d="M9,1h0c4.4,0,8,3.6,8,8h0c0,4.4-3.6,8-8,8h0c-4.4,0-8-3.6-8-8h0C1,4.6,4.6,1,9,1Z"/>
  <path class="st1" d="M9,1h0c4.4,0,8,3.6,8,8h0c0,4.4-3.6,8-8,8h0c-4.4,0-8-3.6-8-8h0C1,4.6,4.6,1,9,1Z"/>
</svg>