<svg width="100" height="100" viewBox="0 0 43 53" fill="none" xmlns="http://www.w3.org/2000/svg">
    <path
        d="M6.6155 49C6.15517 49 5.77083 48.8535 5.4625 48.5606C5.15417 48.2677 5 47.9026 5 47.4653V31.5347C5 31.0974 5.15417 30.7323 5.4625 30.4394C5.77083 30.1465 6.15517 30 6.6155 30H15.3845C15.8448 30 16.2292 30.1465 16.5375 30.4394C16.8458 30.7323 17 31.0974 17 31.5347V47.4653C17 47.9026 16.8458 48.2677 16.5375 48.5606C16.2292 48.8535 15.8448 49 15.3845 49H6.6155ZM6 44.7616V47.4653C6 47.6116 6.06408 47.7456 6.19225 47.8674C6.32042 47.9891 6.4615 48.05 6.6155 48.05H15.3845C15.5385 48.05 15.6796 47.9891 15.8077 47.8674C15.9359 47.7456 16 47.6116 16 47.4653V44.7616H6ZM11 47.1366C11.2063 47.1366 11.3862 47.0638 11.5395 46.9183C11.6927 46.7726 11.7692 46.6018 11.7692 46.4058C11.7692 46.2096 11.6927 46.0388 11.5395 45.8933C11.3862 45.7478 11.2063 45.675 11 45.675C10.7937 45.675 10.6138 45.7478 10.4605 45.8933C10.3073 46.0388 10.2308 46.2096 10.2308 46.4058C10.2308 46.6018 10.3073 46.7726 10.4605 46.9183C10.6138 47.0638 10.7937 47.1366 11 47.1366ZM6 43.8116H16V33.325H6V43.8116ZM6 32.375H16V31.5347C16 31.3884 15.9359 31.2544 15.8077 31.1326C15.6796 31.0109 15.5385 30.95 15.3845 30.95H6.6155C6.4615 30.95 6.32042 31.0109 6.19225 31.1326C6.06408 31.2544 6 31.3884 6 31.5347V32.375Z"
        fill="#5E2FFB"/>
    <path
        d="M26.6155 49C26.1552 49 25.7708 48.8535 25.4625 48.5606C25.1542 48.2677 25 47.9026 25 47.4653V31.5347C25 31.0974 25.1542 30.7323 25.4625 30.4394C25.7708 30.1465 26.1552 30 26.6155 30H35.3845C35.8448 30 36.2292 30.1465 36.5375 30.4394C36.8458 30.7323 37 31.0974 37 31.5347V47.4653C37 47.9026 36.8458 48.2677 36.5375 48.5606C36.2292 48.8535 35.8448 49 35.3845 49H26.6155ZM26 44.7616V47.4653C26 47.6116 26.0641 47.7456 26.1923 47.8674C26.3204 47.9891 26.4615 48.05 26.6155 48.05H35.3845C35.5385 48.05 35.6796 47.9891 35.8077 47.8674C35.9359 47.7456 36 47.6116 36 47.4653V44.7616H26ZM31 47.1366C31.2063 47.1366 31.3862 47.0638 31.5395 46.9183C31.6927 46.7726 31.7692 46.6018 31.7692 46.4058C31.7692 46.2096 31.6927 46.0388 31.5395 45.8933C31.3862 45.7478 31.2063 45.675 31 45.675C30.7937 45.675 30.6138 45.7478 30.4605 45.8933C30.3073 46.0388 30.2308 46.2096 30.2308 46.4058C30.2308 46.6018 30.3073 46.7726 30.4605 46.9183C30.6138 47.0638 30.7937 47.1366 31 47.1366ZM26 43.8116H36V33.325H26V43.8116ZM26 32.375H36V31.5347C36 31.3884 35.9359 31.2544 35.8077 31.1326C35.6796 31.0109 35.5385 30.95 35.3845 30.95H26.6155C26.4615 30.95 26.3204 31.0109 26.1923 31.1326C26.0641 31.2544 26 31.3884 26 31.5347V32.375Z"
        fill="#5E2FFB"/>
    <path
        d="M17.6155 24C17.1552 24 16.7708 23.8535 16.4625 23.5606C16.1542 23.2677 16 22.9026 16 22.4653V6.53472C16 6.09741 16.1542 5.73229 16.4625 5.43937C16.7708 5.14646 17.1552 5 17.6155 5H26.3845C26.8448 5 27.2292 5.14646 27.5375 5.43937C27.8458 5.73229 28 6.09741 28 6.53472V22.4653C28 22.9026 27.8458 23.2677 27.5375 23.5606C27.2292 23.8535 26.8448 24 26.3845 24H17.6155ZM17 19.7616V22.4653C17 22.6116 17.0641 22.7456 17.1923 22.8674C17.3204 22.9891 17.4615 23.05 17.6155 23.05H26.3845C26.5385 23.05 26.6796 22.9891 26.8077 22.8674C26.9359 22.7456 27 22.6116 27 22.4653V19.7616H17ZM22 22.1366C22.2063 22.1366 22.3862 22.0638 22.5395 21.9183C22.6927 21.7726 22.7692 21.6018 22.7692 21.4058C22.7692 21.2096 22.6927 21.0388 22.5395 20.8933C22.3862 20.7478 22.2063 20.675 22 20.675C21.7937 20.675 21.6138 20.7478 21.4605 20.8933C21.3073 21.0388 21.2308 21.2096 21.2308 21.4058C21.2308 21.6018 21.3073 21.7726 21.4605 21.9183C21.6138 22.0638 21.7937 22.1366 22 22.1366ZM17 18.8116H27V8.325H17V18.8116ZM17 7.375H27V6.53472C27 6.38842 26.9359 6.2544 26.8077 6.13264C26.6796 6.01088 26.5385 5.95 26.3845 5.95H17.6155C17.4615 5.95 17.3204 6.01088 17.1923 6.13264C17.0641 6.2544 17 6.38842 17 6.53472V7.375Z"
        fill="#5E2FFB"/>
</svg>
