<svg width="5" height="17" viewBox="0 0 5 17" fill="none" xmlns="http://www.w3.org/2000/svg">
<path d="M2.64347 16.78C2.86234 16.78 3.07907 16.7369 3.28128 16.6532C3.48349 16.5694 3.66722 16.4466 3.82198 16.2919C3.97675 16.1371 4.09951 15.9534 4.18327 15.7512C4.26703 15.549 4.31014 15.3322 4.31014 15.1134C4.31014 14.8945 4.26703 14.6778 4.18327 14.4756C4.09951 14.2733 3.97675 14.0896 3.82198 13.9349C3.66722 13.7801 3.48349 13.6573 3.28128 13.5736C3.07907 13.4898 2.86234 13.4467 2.64347 13.4467C2.4246 13.4467 2.20788 13.4898 2.00567 13.5736C1.80346 13.6573 1.61973 13.7801 1.46496 13.9349C1.3102 14.0896 1.18743 14.2733 1.10367 14.4756C1.01992 14.6778 0.976807 14.8945 0.976807 15.1134C0.976807 15.3322 1.01992 15.549 1.10367 15.7512C1.18743 15.9534 1.3102 16.1371 1.46496 16.2919C1.61973 16.4466 1.80346 16.5694 2.00567 16.6532C2.20788 16.7369 2.4246 16.78 2.64347 16.78ZM2.64347 10.4467C3.0855 10.4467 3.50942 10.2711 3.82198 9.95854C4.13454 9.64598 4.31014 9.22206 4.31014 8.78003C4.31014 8.338 4.13454 7.91408 3.82198 7.60152C3.50942 7.28896 3.0855 7.11336 2.64347 7.11336C2.20145 7.11336 1.77752 7.28896 1.46496 7.60152C1.1524 7.91408 0.976807 8.338 0.976807 8.78003C0.976807 9.22206 1.1524 9.64598 1.46496 9.95854C1.77752 10.2711 2.20145 10.4467 2.64347 10.4467ZM2.64347 4.11336C3.0855 4.11336 3.50942 3.93777 3.82198 3.62521C4.13454 3.31264 4.31014 2.88872 4.31014 2.4467C4.31014 2.00467 4.13454 1.58075 3.82198 1.26818C3.50942 0.955624 3.0855 0.780029 2.64347 0.780029C2.20145 0.780029 1.77752 0.955624 1.46496 1.26818C1.1524 1.58075 0.976807 2.00467 0.976807 2.4467C0.976807 2.88872 1.1524 3.31264 1.46496 3.62521C1.77752 3.93777 2.20145 4.11336 2.64347 4.11336Z" fill="white"/>
</svg>
