<svg width="13" height="13" viewBox="0 0 13 13" fill="none" xmlns="http://www.w3.org/2000/svg">
<path d="M5.91758 9.29346H7.11758V5.69346H5.91758V9.29346ZM6.51758 4.49346C6.68758 4.49346 6.83008 4.43596 6.94508 4.32096C7.06008 4.20596 7.11758 4.06346 7.11758 3.89346C7.11758 3.72346 7.06008 3.58096 6.94508 3.46596C6.83008 3.35096 6.68758 3.29346 6.51758 3.29346C6.34758 3.29346 6.20508 3.35096 6.09008 3.46596C5.97508 3.58096 5.91758 3.72346 5.91758 3.89346C5.91758 4.06346 5.97508 4.20596 6.09008 4.32096C6.20508 4.43596 6.34758 4.49346 6.51758 4.49346ZM6.51758 12.2935C5.68758 12.2935 4.90758 12.136 4.17758 11.821C3.44758 11.506 2.81258 11.0785 2.27258 10.5385C1.73258 9.99846 1.30508 9.36346 0.990078 8.63346C0.675078 7.90346 0.517578 7.12346 0.517578 6.29346C0.517578 5.46346 0.675078 4.68346 0.990078 3.95346C1.30508 3.22346 1.73258 2.58846 2.27258 2.04846C2.81258 1.50846 3.44758 1.08096 4.17758 0.765957C4.90758 0.450957 5.68758 0.293457 6.51758 0.293457C7.34758 0.293457 8.12758 0.450957 8.85758 0.765957C9.58758 1.08096 10.2226 1.50846 10.7626 2.04846C11.3026 2.58846 11.7301 3.22346 12.0451 3.95346C12.3601 4.68346 12.5176 5.46346 12.5176 6.29346C12.5176 7.12346 12.3601 7.90346 12.0451 8.63346C11.7301 9.36346 11.3026 9.99846 10.7626 10.5385C10.2226 11.0785 9.58758 11.506 8.85758 11.821C8.12758 12.136 7.34758 12.2935 6.51758 12.2935Z" fill="white" fill-opacity="0.7"/>
</svg>
