<svg width="18" height="18" viewBox="0 0 18 18" fill="none" xmlns="http://www.w3.org/2000/svg">
<path d="M9.91129 12.0802C9.88207 12.0503 9.84261 12.0335 9.80148 12.0335C9.76036 12.0335 9.7209 12.0503 9.69168 12.0802L7.43336 14.4146C6.38777 15.4954 4.6231 15.6099 3.46868 14.4146C2.31231 13.2193 2.42309 11.3972 3.46868 10.3164L5.72699 7.98198C5.78724 7.9197 5.78724 7.81724 5.72699 7.75497L4.95349 6.95541C4.92427 6.9255 4.88481 6.90873 4.84369 6.90873C4.80256 6.90873 4.7631 6.9255 4.73388 6.95541L2.47556 9.28979C0.831387 10.9893 0.831387 13.7396 2.47556 15.4371C4.11974 17.1347 6.78036 17.1367 8.42259 15.4371L10.6809 13.1027C10.7412 13.0405 10.7412 12.938 10.6809 12.8757L9.91129 12.0802ZM14.9371 2.55787C13.2929 0.858315 10.6323 0.858315 8.99008 2.55787L6.72983 4.89224C6.70089 4.92245 6.68466 4.96324 6.68466 5.00575C6.68466 5.04826 6.70089 5.08905 6.72983 5.11925L7.50138 5.9168C7.56163 5.97907 7.66075 5.97907 7.721 5.9168L9.97931 3.58242C11.0249 2.50162 12.7896 2.38711 13.944 3.58242C15.1004 4.77773 14.9896 6.59983 13.944 7.68064L11.6857 10.015C11.6567 10.0452 11.6405 10.086 11.6405 10.1285C11.6405 10.171 11.6567 10.2118 11.6857 10.242L12.4592 11.0416C12.5194 11.1039 12.6185 11.1039 12.6788 11.0416L14.9371 8.7072C16.5793 7.00765 16.5793 4.25742 14.9371 2.55787ZM10.6129 6.19202C10.5837 6.16211 10.5442 6.14533 10.5031 6.14533C10.462 6.14533 10.4225 6.16211 10.3933 6.19202L5.99131 10.7402C5.96237 10.7704 5.94614 10.8112 5.94614 10.8537C5.94614 10.8962 5.96237 10.937 5.99131 10.9672L6.76092 11.7628C6.82117 11.8251 6.92029 11.8251 6.98053 11.7628L11.3806 7.21457C11.4408 7.15229 11.4408 7.04983 11.3806 6.98756L10.6129 6.19202Z" fill="#5e2ffb"/>
</svg>
