<svg width="80" height="80" viewBox="0 0 37 34" fill="none" xmlns="http://www.w3.org/2000/svg">
    <path
        d="M37 3.78346C36.9989 2.78027 36.5852 1.81848 35.8499 1.10916C35.1145 0.399849 34.1176 0.000948617 33.0777 0H3.92228C2.88243 0.000948617 1.88545 0.399849 1.15011 1.10916C0.414767 1.81848 0.00114191 2.78027 0 3.78346V9.163C0.00191962 10.1236 0.384874 11.0471 1.07027 11.744C0.384892 12.4409 0.00194707 13.3645 0 14.3252V19.7042C0.00224501 20.6582 0.380395 21.5756 1.05779 22.2706C0.380395 22.9656 0.00224501 23.883 0 24.837V30.2165C0.00114191 31.2197 0.414767 32.1815 1.15011 32.8908C1.88545 33.6002 2.88243 33.9991 3.92228 34H33.0777C34.1176 33.9991 35.1145 33.6002 35.8499 32.8908C36.5852 32.1815 36.9989 31.2197 37 30.2165V24.8371C36.9978 23.8831 36.6196 22.9656 35.9422 22.2707C36.6196 21.5757 36.9978 20.6582 37 19.7043V14.3252C36.9981 13.3645 36.6151 12.4409 35.9297 11.744C36.6151 11.0471 36.9981 10.1236 37 9.163V3.78346ZM2.49312 3.78346C2.49372 3.41802 2.6445 3.06771 2.91241 2.80935C3.18031 2.55099 3.54348 2.40567 3.92228 2.40525H33.0777C33.4565 2.40567 33.8197 2.55099 34.0876 2.80935C34.3555 3.06771 34.5063 3.41802 34.5069 3.78346V9.163C34.5063 9.52844 34.3555 9.87875 34.0876 10.1371C33.8197 10.3955 33.4565 10.5408 33.0777 10.5412H3.92228C3.54348 10.5408 3.18031 10.3955 2.91241 10.1371C2.6445 9.87875 2.49372 9.52844 2.49312 9.163V3.78346ZM34.5069 14.3252V19.7042C34.5045 20.0512 34.3659 20.3844 34.1189 20.6366C33.8719 20.8888 33.5349 21.0413 33.176 21.0632C33.1735 21.0551 3.95887 21.0489 3.92247 21.0536C3.73621 21.0576 3.55099 21.0257 3.37771 20.9596C3.20443 20.8936 3.04657 20.7948 2.91341 20.6691C2.78025 20.5434 2.67448 20.3933 2.60231 20.2276C2.53013 20.0619 2.49301 19.8839 2.49312 19.7042V14.3252C2.49359 13.9597 2.64431 13.6093 2.91223 13.3508C3.18015 13.0923 3.54339 12.9469 3.92228 12.9464H33.0777C33.4566 12.9469 33.8199 13.0923 34.0878 13.3508C34.3557 13.6093 34.5064 13.9597 34.5069 14.3252ZM34.5069 30.2166C34.5063 30.5821 34.3555 30.9324 34.0876 31.1907C33.8197 31.4491 33.4565 31.5944 33.0777 31.5948H3.92228C3.54348 31.5944 3.18031 31.4491 2.91241 31.1907C2.6445 30.9324 2.49372 30.5821 2.49312 30.2166V24.8371C2.49294 24.6573 2.53 24.4794 2.60214 24.3136C2.67428 24.1479 2.78004 23.9978 2.91319 23.872C3.04634 23.7463 3.2042 23.6475 3.3775 23.5815C3.55079 23.5155 3.73602 23.4836 3.92228 23.4876C4.06203 23.4871 33.057 23.4996 33.1759 23.478C33.5348 23.4999 33.8718 23.6524 34.1188 23.9046C34.3659 24.1568 34.5045 24.49 34.5069 24.837V30.2166ZM5.35999 6.47294C5.35995 6.31499 5.39216 6.15859 5.45479 6.01266C5.51742 5.86673 5.60924 5.73414 5.72501 5.62246C5.84077 5.51078 5.97821 5.42219 6.12946 5.36177C6.28072 5.30135 6.44284 5.27027 6.60655 5.27031H12.7529C13.0835 5.27031 13.4006 5.39701 13.6344 5.62255C13.8682 5.84809 13.9995 6.15398 13.9995 6.47294C13.9995 6.79189 13.8682 7.09778 13.6344 7.32332C13.4006 7.54886 13.0835 7.67556 12.7529 7.67556H6.60655C6.44284 7.6756 6.28072 7.64453 6.12946 7.5841C5.97821 7.52368 5.84077 7.4351 5.72501 7.32341C5.60924 7.21173 5.51742 7.07914 5.45479 6.93321C5.39216 6.78728 5.35995 6.63088 5.35999 6.47294ZM26.2655 5.27054C26.5887 5.28134 26.8948 5.41277 27.1195 5.63713C27.3441 5.86149 27.4697 6.16123 27.4697 6.47316C27.4697 6.7851 27.3441 7.08484 27.1195 7.3092C26.8948 7.53356 26.5887 7.66499 26.2655 7.67579C25.9424 7.66499 25.6362 7.53356 25.4116 7.30921C25.187 7.08485 25.0614 6.78511 25.0614 6.47318C25.0614 6.16124 25.187 5.8615 25.4116 5.63714C25.6362 5.41278 25.9424 5.28134 26.2655 5.27054ZM22.138 5.27054C22.4611 5.28134 22.7673 5.41277 22.9919 5.63713C23.2166 5.86149 23.3421 6.16123 23.3421 6.47316C23.3421 6.7851 23.2166 7.08484 22.9919 7.3092C22.7673 7.53356 22.4611 7.66499 22.138 7.67579C21.8149 7.66499 21.5087 7.53356 21.2841 7.30921C21.0594 7.08485 20.9339 6.78511 20.9339 6.47318C20.9339 6.16124 21.0594 5.8615 21.284 5.63714C21.5087 5.41278 21.8149 5.28134 22.138 5.27054ZM30.3931 5.27054C30.7162 5.28134 31.0224 5.41277 31.247 5.63713C31.4717 5.86149 31.5972 6.16123 31.5972 6.47316C31.5972 6.7851 31.4717 7.08484 31.247 7.3092C31.0224 7.53356 30.7162 7.66499 30.3931 7.67579C30.07 7.66499 29.7638 7.53356 29.5392 7.30921C29.3145 7.08485 29.189 6.78511 29.189 6.47318C29.189 6.16124 29.3145 5.8615 29.5392 5.63714C29.7638 5.41278 30.07 5.28134 30.3931 5.27054ZM5.35999 17.0147C5.35995 16.8568 5.39216 16.7004 5.45479 16.5544C5.51742 16.4085 5.60924 16.2759 5.72501 16.1642C5.84077 16.0526 5.97821 15.964 6.12946 15.9036C6.28072 15.8431 6.44284 15.8121 6.60655 15.8121H12.7529C13.0835 15.8121 13.4006 15.9388 13.6344 16.1643C13.8682 16.3899 13.9995 16.6958 13.9995 17.0147C13.9995 17.3337 13.8682 17.6396 13.6344 17.8651C13.4006 18.0906 13.0835 18.2173 12.7529 18.2173H6.60655C6.44284 18.2174 6.28072 18.1863 6.12946 18.1259C5.97821 18.0655 5.84077 17.9769 5.72501 17.8652C5.60924 17.7535 5.51742 17.6209 5.45479 17.475C5.39216 17.3291 5.35995 17.1727 5.35999 17.0147ZM26.2655 15.8119C26.5887 15.8227 26.8948 15.9542 27.1195 16.1785C27.3441 16.4029 27.4697 16.7026 27.4697 17.0146C27.4697 17.3265 27.3441 17.6262 27.1195 17.8506C26.8948 18.075 26.5887 18.2064 26.2655 18.2172C25.9424 18.2064 25.6362 18.075 25.4116 17.8506C25.187 17.6263 25.0614 17.3265 25.0614 17.0146C25.0614 16.7026 25.187 16.4029 25.4116 16.1785C25.6362 15.9542 25.9424 15.8227 26.2655 15.8119ZM22.138 15.8119C22.4611 15.8227 22.7673 15.9542 22.9919 16.1785C23.2166 16.4029 23.3421 16.7026 23.3421 17.0146C23.3421 17.3265 23.2166 17.6262 22.9919 17.8506C22.7673 18.075 22.4611 18.2064 22.138 18.2172C21.8149 18.2064 21.5087 18.075 21.2841 17.8506C21.0594 17.6263 20.9339 17.3265 20.9339 17.0146C20.9339 16.7026 21.0594 16.4029 21.284 16.1785C21.5087 15.9542 21.8149 15.8227 22.138 15.8119ZM30.3931 15.8119C30.7162 15.8227 31.0224 15.9542 31.247 16.1785C31.4717 16.4029 31.5972 16.7026 31.5972 17.0146C31.5972 17.3265 31.4717 17.6262 31.247 17.8506C31.0224 18.075 30.7162 18.2064 30.3931 18.2172C30.07 18.2064 29.7638 18.075 29.5392 17.8506C29.3145 17.6263 29.189 17.3265 29.189 17.0146C29.189 16.7026 29.3145 16.4029 29.5392 16.1785C29.7638 15.9542 30.07 15.8227 30.3931 15.8119ZM13.9995 27.5271C13.9995 27.6851 13.9673 27.8415 13.9047 27.9874C13.842 28.1333 13.7502 28.2659 13.6345 28.3776C13.5187 28.4893 13.3813 28.5779 13.23 28.6383C13.0787 28.6987 12.9166 28.7298 12.7529 28.7298H6.60655C6.27594 28.7298 5.95888 28.6031 5.7251 28.3775C5.49132 28.152 5.35999 27.8461 5.35999 27.5271C5.35999 27.2082 5.49132 26.9023 5.7251 26.6767C5.95888 26.4512 6.27594 26.3245 6.60655 26.3245H12.7529C12.9166 26.3245 13.0788 26.3556 13.23 26.416C13.3813 26.4764 13.5187 26.565 13.6345 26.6767C13.7502 26.7883 13.842 26.9209 13.9047 27.0669C13.9673 27.2128 13.9995 27.3692 13.9995 27.5271ZM26.2655 28.7295C25.9424 28.7187 25.6362 28.5872 25.4116 28.3629C25.187 28.1385 25.0614 27.8388 25.0614 27.5268C25.0614 27.2149 25.187 26.9152 25.4116 26.6908C25.6362 26.4664 25.9424 26.335 26.2655 26.3242C26.5887 26.335 26.8948 26.4664 27.1194 26.6908C27.3441 26.9152 27.4696 27.2149 27.4696 27.5268C27.4696 27.8388 27.3441 28.1385 27.1194 28.3629C26.8948 28.5872 26.5887 28.7187 26.2655 28.7295ZM22.138 28.7295C21.8148 28.7187 21.5087 28.5872 21.284 28.3629C21.0594 28.1385 20.9338 27.8388 20.9338 27.5268C20.9338 27.2149 21.0594 26.9152 21.284 26.6908C21.5087 26.4664 21.8148 26.335 22.138 26.3242C22.4611 26.335 22.7673 26.4664 22.9919 26.6908C23.2165 26.9152 23.3421 27.2149 23.3421 27.5268C23.3421 27.8388 23.2165 28.1385 22.9919 28.3629C22.7673 28.5872 22.4611 28.7187 22.138 28.7295ZM30.3931 28.7295C30.0699 28.7187 29.7638 28.5872 29.5392 28.3629C29.3145 28.1385 29.189 27.8388 29.189 27.5268C29.189 27.2149 29.3145 26.9152 29.5392 26.6908C29.7638 26.4664 30.0699 26.335 30.3931 26.3242C30.7162 26.335 31.0224 26.4664 31.247 26.6908C31.4717 26.9152 31.5972 27.2149 31.5972 27.5268C31.5972 27.8388 31.4717 28.1385 31.247 28.3629C31.0224 28.5872 30.7162 28.7187 30.3931 28.7295Z"
        fill="#5E2FFB"/>
</svg>
