<svg width="28" height="33" viewBox="0 0 28 33" fill="none" xmlns="http://www.w3.org/2000/svg">
<g clip-path="url(#clip0_835_2191)">
<path fill-rule="evenodd" clip-rule="evenodd" d="M3.02197 7.86419V24.9309C3.02197 25.6087 3.48716 26.2866 4.41135 26.8498C6.1551 27.9122 9.66341 28.6642 13.7095 28.6642C17.7555 28.6642 21.2638 27.9122 23.0076 26.8498C23.9318 26.2866 24.397 25.6087 24.397 24.9309V7.86419C24.397 7.18633 23.9318 6.50846 23.0076 5.94526C21.2638 4.88286 17.7555 4.13086 13.7095 4.13086C9.66341 4.13086 6.1551 4.88286 4.41135 5.94526C3.48716 6.50846 3.02197 7.18633 3.02197 7.86419ZM4.14697 22.4098V24.9309C4.14697 25.1559 4.28535 25.3623 4.4991 25.565C4.79441 25.8455 5.22979 26.101 5.77204 26.3346C7.56191 27.1063 10.4526 27.5975 13.7095 27.5975C16.9663 27.5975 19.857 27.1063 21.6469 26.3346C22.1892 26.101 22.6245 25.8455 22.9198 25.565C23.1336 25.3623 23.272 25.1559 23.272 24.9309V22.4098C23.1887 22.469 23.1004 22.5266 23.0076 22.5831C21.2638 23.6455 17.7555 24.3975 13.7095 24.3975C9.66341 24.3975 6.1551 23.6455 4.41135 22.5831C4.31854 22.5266 4.23022 22.469 4.14697 22.4098ZM4.14697 18.1431V20.6642C4.14697 20.8893 4.28535 21.0957 4.4991 21.2983C4.79441 21.5789 5.22979 21.8343 5.77204 22.0679C7.56191 22.8397 10.4526 23.3309 13.7095 23.3309C16.9663 23.3309 19.857 22.8397 21.6469 22.0679C22.1892 21.8343 22.6245 21.5789 22.9198 21.2983C23.1336 21.0957 23.272 20.8893 23.272 20.6642V18.1431C23.1887 18.2023 23.1004 18.2599 23.0076 18.3165C21.2638 19.3789 17.7555 20.1309 13.7095 20.1309C9.66341 20.1309 6.1551 19.3789 4.41135 18.3165C4.31854 18.2599 4.23022 18.2023 4.14697 18.1431ZM23.272 13.8765C23.1887 13.9357 23.1004 13.9933 23.0076 14.0498C21.2638 15.1122 17.7555 15.8642 13.7095 15.8642C9.66341 15.8642 6.1551 15.1122 4.41135 14.0498C4.31854 13.9933 4.23022 13.9357 4.14697 13.8765V16.3975C4.14697 16.6226 4.28535 16.829 4.4991 17.0317C4.79441 17.3122 5.22979 17.5677 5.77204 17.8013C7.56191 18.573 10.4526 19.0642 13.7095 19.0642C16.9663 19.0642 19.857 18.573 21.6469 17.8013C22.1892 17.5677 22.6245 17.3122 22.9198 17.0317C23.1336 16.829 23.272 16.6226 23.272 16.3975V13.8765ZM23.272 9.61032C23.1887 9.66899 23.1004 9.72659 23.0076 9.78312C21.2638 10.8455 17.7555 11.5975 13.7095 11.5975C9.66341 11.5975 6.1551 10.8455 4.41135 9.78312C4.31854 9.72659 4.23022 9.66899 4.14697 9.61032V12.1309C4.14697 12.3559 4.28535 12.5623 4.4991 12.765C4.79441 13.0455 5.22979 13.301 5.77204 13.5346C7.56191 14.3063 10.4526 14.7975 13.7095 14.7975C16.9663 14.7975 19.857 14.3063 21.6469 13.5346C22.1892 13.301 22.6245 13.0455 22.9198 12.765C23.1336 12.5623 23.272 12.3559 23.272 12.1309V9.61032ZM13.7095 5.19753C16.9663 5.19753 19.857 5.68873 21.6469 6.46047C22.1892 6.69407 22.6245 6.94953 22.9198 7.23006C23.1336 7.43273 23.272 7.63913 23.272 7.86419C23.272 8.08926 23.1336 8.29566 22.9198 8.49832C22.6245 8.77886 22.1892 9.03432 21.6469 9.26792C19.857 10.0397 16.9663 10.5309 13.7095 10.5309C10.4526 10.5309 7.56191 10.0397 5.77204 9.26792C5.22979 9.03432 4.79441 8.77886 4.4991 8.49832C4.28535 8.29566 4.14697 8.08926 4.14697 7.86419C4.14697 7.63913 4.28535 7.43273 4.4991 7.23006C4.79441 6.94953 5.22979 6.69407 5.77204 6.46047C7.56191 5.68873 10.4526 5.19753 13.7095 5.19753Z" fill="white"/>
</g>
<defs>
<clipPath id="clip0_835_2191">
<rect width="27" height="32" fill="white" transform="translate(0.209473 0.597656)"/>
</clipPath>
</defs>
</svg>
