<svg width="80" height="80" viewBox="0 0 34 40" fill="none" xmlns="http://www.w3.org/2000/svg">
    <path fill-rule="evenodd" clip-rule="evenodd"
          d="M0 6.08696V33.913C0 35.0183 0.739948 36.1235 2.21 37.0417C4.98369 38.7739 10.5642 40 17 40C23.4358 40 29.0163 38.7739 31.79 37.0417C33.2601 36.1235 34 35.0183 34 33.913V6.08696C34 4.98174 33.2601 3.87653 31.79 2.95827C29.0163 1.22609 23.4358 0 17 0C10.5642 0 4.98369 1.22609 2.21 2.95827C0.739948 3.87653 0 4.98174 0 6.08696ZM1.78947 29.8026V33.913C1.78947 34.28 2.00958 34.6165 2.34958 34.947C2.81932 35.4043 3.51184 35.8209 4.37437 36.2017C7.22142 37.46 11.8195 38.2609 17 38.2609C22.1805 38.2609 26.7786 37.46 29.6256 36.2017C30.4882 35.8209 31.1807 35.4043 31.6504 34.947C31.9904 34.6165 32.2105 34.28 32.2105 33.913V29.8026C32.0781 29.8991 31.9376 29.993 31.79 30.0852C29.0163 31.8174 23.4358 33.0435 17 33.0435C10.5642 33.0435 4.98369 31.8174 2.21 30.0852C2.06237 29.993 1.92189 29.8991 1.78947 29.8026ZM1.78947 22.8461V26.9565C1.78947 27.3235 2.00958 27.66 2.34958 27.9904C2.81932 28.4478 3.51184 28.8643 4.37437 29.2452C7.22142 30.5035 11.8195 31.3043 17 31.3043C22.1805 31.3043 26.7786 30.5035 29.6256 29.2452C30.4882 28.8643 31.1807 28.4478 31.6504 27.9904C31.9904 27.66 32.2105 27.3235 32.2105 26.9565V22.8461C32.0781 22.9426 31.9376 23.0365 31.79 23.1287C29.0163 24.8609 23.4358 26.087 17 26.087C10.5642 26.087 4.98369 24.8609 2.21 23.1287C2.06237 23.0365 1.92189 22.9426 1.78947 22.8461ZM32.2105 15.8896C32.0781 15.9861 31.9376 16.08 31.79 16.1722C29.0163 17.9043 23.4358 19.1304 17 19.1304C10.5642 19.1304 4.98369 17.9043 2.21 16.1722C2.06237 16.08 1.92189 15.9861 1.78947 15.8896V20C1.78947 20.367 2.00958 20.7035 2.34958 21.0339C2.81932 21.4913 3.51184 21.9078 4.37437 22.2887C7.22142 23.5469 11.8195 24.3478 17 24.3478C22.1805 24.3478 26.7786 23.5469 29.6256 22.2887C30.4882 21.9078 31.1807 21.4913 31.6504 21.0339C31.9904 20.7035 32.2105 20.367 32.2105 20V15.8896ZM32.2105 8.9339C32.0781 9.02955 31.9376 9.12347 31.79 9.21564C29.0163 10.9478 23.4358 12.1739 17 12.1739C10.5642 12.1739 4.98369 10.9478 2.21 9.21564C2.06237 9.12347 1.92189 9.02955 1.78947 8.9339V13.0435C1.78947 13.4104 2.00958 13.747 2.34958 14.0774C2.81932 14.5348 3.51184 14.9513 4.37437 15.3322C7.22142 16.5904 11.8195 17.3913 17 17.3913C22.1805 17.3913 26.7786 16.5904 29.6256 15.3322C30.4882 14.9513 31.1807 14.5348 31.6504 14.0774C31.9904 13.747 32.2105 13.4104 32.2105 13.0435V8.9339ZM17 1.73913C22.1805 1.73913 26.7786 2.54001 29.6256 3.79827C30.4882 4.17914 31.1807 4.59566 31.6504 5.05305C31.9904 5.38348 32.2105 5.72 32.2105 6.08696C32.2105 6.45391 31.9904 6.79043 31.6504 7.12087C31.1807 7.57826 30.4882 7.99477 29.6256 8.37564C26.7786 9.6339 22.1805 10.4348 17 10.4348C11.8195 10.4348 7.22142 9.6339 4.37437 8.37564C3.51184 7.99477 2.81932 7.57826 2.34958 7.12087C2.00958 6.79043 1.78947 6.45391 1.78947 6.08696C1.78947 5.72 2.00958 5.38348 2.34958 5.05305C2.81932 4.59566 3.51184 4.17914 4.37437 3.79827C7.22142 2.54001 11.8195 1.73913 17 1.73913Z"
          fill="#5E2FFB"/>
</svg>
