<svg width="82" height="28" viewBox="0 0 82 28" fill="none" xmlns="http://www.w3.org/2000/svg">
<path d="M79.9768 10.9465C78.4642 9.42037 76.0093 9.41945 74.4967 10.9456C73.1681 12.2868 73.0078 14.3594 74.0128 15.88C69.9579 19.4797 66.3111 21.5642 62.9551 22.52C62.7701 21.9772 62.4767 21.4639 62.0466 21.0306C60.5349 19.5045 58.0791 19.5027 56.5665 21.0306C56.0407 21.5605 55.709 22.2091 55.5495 22.8916C50.6854 21.9901 46.3398 18.9433 41.9877 15.4964C42.8406 14.0016 42.6502 12.066 41.3827 10.7883C39.8983 9.2879 37.509 9.2695 35.9909 10.7165C31.9815 7.64585 27.8181 5.00937 23.1836 4.30747C23.077 3.48231 22.7244 2.6829 22.0965 2.04908C20.5839 0.522015 18.129 0.521095 16.6164 2.04816C15.8118 2.86136 15.4491 3.94135 15.5002 5.00569C12.6079 5.96884 9.51794 7.77556 6.17738 10.6797C4.66201 9.55376 2.52336 9.66783 1.15105 11.0532C-0.362502 12.5812 -0.361591 15.0604 1.15014 16.5856C2.6646 18.1145 5.11762 18.1127 6.63026 16.5856C7.97159 15.2306 8.1183 13.1341 7.0795 11.6089C10.2014 8.90338 13.0763 7.20797 15.7681 6.29081C15.9567 6.75997 16.2392 7.19969 16.6164 7.57962C18.13 9.10668 20.5839 9.10576 22.0965 7.57778C22.6478 7.02123 22.9932 6.33681 23.1426 5.62019C27.4418 6.30737 31.3473 8.78931 35.22 11.7597C34.4637 13.2334 34.6806 15.0834 35.9035 16.3188C37.3496 17.7769 39.6422 17.8266 41.164 16.4982C45.629 20.0344 50.2416 23.2688 55.4712 24.1979C55.5596 25.0608 55.9122 25.8998 56.5665 26.5584C58.08 28.0873 60.5331 28.0855 62.0457 26.5584C62.8002 25.7967 63.1774 24.7995 63.1802 23.8005C66.7476 22.8088 70.6231 20.6213 74.9068 16.8147C76.4258 17.9784 78.5909 17.8744 79.9759 16.4761C81.4895 14.9509 81.4895 12.4745 79.9768 10.9465ZM3.52206 15.3382L2.20078 14.0062L2.71289 13.4892L3.52115 14.3042L5.56139 12.2473L6.0735 12.7633L3.52206 15.3382ZM19.0129 6.29265L18.9373 6.2163L18.8617 6.29265L17.5413 4.96061L18.0534 4.44362L18.129 4.51997L18.2047 4.44362L18.9373 5.1814L20.9019 3.20173L20.9775 3.27809L21.0532 3.20173L21.5653 3.71781L19.0129 6.29265ZM38.1487 15.0319L36.8274 13.6998L37.3396 13.1828L38.1487 13.9979L40.189 11.9409L40.7011 12.457L38.1487 15.0319ZM58.9548 25.3027L57.6344 23.9716L58.1465 23.4546L58.9548 24.2706L60.996 22.2137L61.5081 22.7297L58.9548 25.3027ZM76.875 15.1846L75.5546 13.8525L76.0668 13.3355L76.875 14.1506L78.9162 12.0946L79.4283 12.6106L76.875 15.1846Z" fill="white"/>
</svg>
