<svg width="290" height="285" viewBox="0 0 290 285" fill="none" xmlns="http://www.w3.org/2000/svg">
<path d="M276.82 81.6065C284.418 12.4099 217.332 -11.6305 169.774 6.08644C121.83 23.9475 110.714 -5.66052 43.2972 2.79905C-24.9667 11.3649 9.69186 118.522 9.69186 118.522C9.69186 118.522 20.5531 211.702 33.4217 254.651C46.2209 297.369 168.732 281.914 198.534 280.64C228.165 279.372 253.913 281.819 279.693 234.915C305.426 188.096 269.248 150.574 276.82 81.6065Z" fill="#F4F7FA"/>
<path d="M184.613 258.77C182.313 258.747 177.328 256.668 176.253 255.591C169.094 248.42 154.817 235.865 154.179 225.172C154.07 223.345 161.974 220.699 162.912 218.899C167.542 215.987 169.329 215.265 172.371 210.335C181.351 195.781 154.292 173.676 181.275 161.564C201.04 152.693 219.221 157.703 213.221 126.095C207.221 94.4874 225.585 33.4051 261.882 51.6328C282.714 62.0936 266.332 91.5279 278.648 110.337C290.351 128.209 284.158 144.807 265.335 158.608C246.511 172.409 258.334 179.89 266.347 197.245C275.972 218.093 243.071 225.902 227.574 228.213C215.095 230.073 184.573 243.23 184.613 258.771V258.77Z" fill="url(#paint0_linear_1190_43916)"/>
<mask id="mask0_1190_43916" style="mask-type:luminance" maskUnits="userSpaceOnUse" x="148" y="48" width="137" height="219">
<path d="M148.722 223.038C155.349 237.396 161.501 252.28 168.097 266.775C177.114 266.437 187.713 265.819 188.383 254.603C189.315 239.01 215.118 229.973 227.597 228.18C243.042 225.962 275.98 218.064 266.347 197.24C258.327 179.904 246.512 172.403 265.335 158.606C284.158 144.809 290.347 128.211 278.647 110.335C266.335 91.5239 282.713 62.1039 261.882 51.6318C225.585 33.3857 207.216 94.5211 213.224 126.081C219.232 157.641 201.01 152.83 181.284 161.528C154.353 173.402 181.22 196.373 172.418 210.034C165.518 220.744 158.954 219.72 148.722 223.038Z" fill="white"/>
</mask>
<g mask="url(#mask0_1190_43916)">
<g style="mix-blend-mode:soft-light" opacity="0.8">
<path d="M165.592 241.236C181.893 230.745 196.338 217.901 208.526 203.063C220.237 188.805 229.885 172.69 237.201 155.164C251.404 121.142 256.592 82.3461 252.205 42.9709L251.78 43.0179C261.039 126.123 228.734 200.088 165.361 240.875L165.593 241.235L165.592 241.236Z" fill="#FCFDFE"/>
<path d="M271.346 205.42L271.431 205.001C251.148 200.919 218.481 204.627 198.608 213.268L198.779 213.66C218.583 205.048 251.137 201.352 271.347 205.42H271.346Z" fill="#FCFDFE"/>
<path d="M177.931 233.094C185.405 224.54 188.269 212.562 186.446 197.488C185.116 186.489 181.364 174.121 175.294 160.729L174.904 160.905C180.956 174.258 184.697 186.584 186.022 197.541C187.83 212.488 184.999 224.356 177.609 232.813L177.931 233.094Z" fill="#FCFDFE"/>
<path d="M239.033 150.249C252.04 133.718 273.21 127.192 288.679 124.626L288.608 124.204C273.065 126.781 251.789 133.347 238.697 149.985L239.033 150.249Z" fill="#FCFDFE"/>
<path d="M251.435 103.397C250.329 79.404 234.172 60.0944 224.64 50.7185L224.34 51.024C233.828 60.3549 249.91 79.5695 251.008 103.417L251.435 103.397Z" fill="#FCFDFE"/>
</g>
</g>
<path d="M120.358 236.525C122.349 236.177 126.373 233.665 127.151 232.578C132.336 225.341 142.922 212.424 141.951 203.064C141.785 201.465 134.556 200.297 133.486 198.871C129.057 197.006 127.406 196.634 124.066 192.794C114.207 181.458 134.514 158.441 109.397 151.788C91.0001 146.914 75.9546 153.847 76.6513 125.594C77.348 97.3404 52.7252 47.008 23.8589 67.9817C7.29223 80.0188 25.6875 103.199 17.6917 121.257C10.0944 138.417 17.8266 151.923 36.1105 161.203C54.3945 170.484 45.2127 178.655 40.7392 194.839C35.3668 214.282 64.9993 216.364 78.7618 216.158C89.8448 215.993 118.177 223.048 120.356 236.525H120.358Z" fill="url(#paint1_linear_1190_43916)"/>
<mask id="mask1_1190_43916" style="mask-type:luminance" maskUnits="userSpaceOnUse" x="14" y="62" width="133" height="180">
<path d="M146.378 200.437C142.679 213.828 139.467 227.606 135.815 241.11C127.95 242.102 118.675 243.077 116.496 233.45C113.467 220.065 89.8111 215.909 78.7394 216.133C65.0352 216.411 35.3567 214.259 40.7403 194.835C45.2219 178.664 54.3946 170.477 36.1116 161.201C17.8287 151.924 10.0996 138.418 17.6939 121.254C25.6856 103.193 7.29641 80.0252 23.8611 67.9789C52.7253 46.9899 77.3593 97.3673 76.6493 125.581C75.9393 153.794 91.0483 147.026 109.388 151.755C134.426 158.211 114.41 181.952 123.986 192.54C131.493 200.841 137.037 199.017 146.379 200.436L146.378 200.437Z" fill="white"/>
</mask>
<g mask="url(#mask1_1190_43916)">
<g style="mix-blend-mode:soft-light" opacity="0.8">
<path d="M134.348 218.617C118.722 211.845 104.37 202.77 91.6918 191.645C79.5087 180.955 68.8497 168.361 60.0101 154.211C42.8509 126.743 32.8253 93.853 31.0171 59.0953L31.392 59.0759C35.2086 132.434 73.7532 191.947 134.498 218.272L134.349 218.617H134.348Z" fill="#FCFDFE"/>
<path d="M37.5713 202.639L37.4385 202.288C54.4383 195.859 83.2842 194.418 101.742 199.076L101.65 199.441C83.2556 194.799 54.5098 196.233 37.5713 202.639Z" fill="#FCFDFE"/>
<path d="M122.491 213.317C114.793 206.968 110.603 196.991 110.036 183.666C109.622 173.942 111.111 162.686 114.464 150.212L114.827 150.309C111.483 162.746 109.998 173.964 110.411 183.649C110.974 196.863 115.118 206.748 122.729 213.027L122.49 213.317H122.491Z" fill="#FCFDFE"/>
<path d="M57.7197 150.211C44.0879 137.735 24.8069 135.094 11.0332 135.074V134.698C24.8744 134.718 44.2534 137.377 57.973 149.934L57.7197 150.211Z" fill="#FCFDFE"/>
<path d="M40.2938 111.364C37.8328 90.4083 49.0864 71.3663 56.0136 61.8811L56.317 62.1028C49.4225 71.543 38.22 90.491 40.6656 111.32L40.2928 111.364H40.2938Z" fill="#FCFDFE"/>
</g>
</g>
<mask id="mask2_1190_43916" style="mask-type:luminance" maskUnits="userSpaceOnUse" x="50" y="0" width="95" height="247">
<path d="M84.6094 241.437C97.337 243.325 110.116 244.976 122.936 246.387C123.095 246.591 133.226 225.546 123.706 210.43C104.753 181.006 127.244 165.462 135.368 154.82C147.742 140.066 149.421 118.46 125.902 116.126C103.108 113.417 110.044 75.2156 121.722 47.5281C128.791 34.4337 117.518 13.0861 102.679 4.83496C87.623 -3.92596 69.0019 0.409548 56.3713 26.912C39.9793 57.1114 63.0789 84.3953 69.1654 103.471C75.164 122.203 47.5143 128.421 63.0554 147.83C75.9434 164.824 94.0476 179.471 82.2015 193.106C70.1971 206.507 68.5575 219.711 84.6094 241.438V241.437Z" fill="white"/>
</mask>
<g mask="url(#mask2_1190_43916)">
<path d="M84.6094 241.437C97.337 243.325 110.116 244.976 122.936 246.387C123.095 246.591 133.226 225.546 123.706 210.43C104.753 181.006 127.244 165.462 135.368 154.82C147.661 140.058 148.658 120.685 127.991 114.711C105.171 107.711 109.667 75.049 121.722 47.5281C128.791 34.4337 117.518 13.0861 102.679 4.83496C87.623 -3.92596 69.0019 0.409548 56.3713 26.912C39.9793 57.1114 63.0789 84.3953 69.1654 103.471C75.164 122.203 47.5143 128.421 63.0554 147.83C75.9434 164.824 94.0476 179.471 82.2015 193.106C70.1971 206.507 68.5575 219.711 84.6094 241.438V241.437Z" fill="url(#paint2_linear_1190_43916)"/>
<g style="mix-blend-mode:soft-light" opacity="0.8">
<path d="M100.739 247.287C100.982 245.811 101.519 195.291 94.025 146.44C93.2415 138.308 92.2342 130.064 91.2607 122.092C88.6506 100.723 85.9516 78.6257 87.5156 57.7745C89.2656 34.439 96.299 14.9189 109.019 -1.90112L109.418 -1.66412C81.1727 35.6873 86.2979 77.6562 91.7245 122.089C92.699 130.063 93.7053 138.308 94.4888 146.436C102.308 197.397 101.254 247.211 101.195 247.406L100.742 247.275L100.969 247.34L100.739 247.286V247.287Z" fill="#FCFDFE"/>
<path d="M87.24 80.9568C76.9743 64.5403 65.3387 42.0322 59.0868 29.9399C56.4154 24.7708 54.3048 20.6886 54.0024 20.3934L54.1342 20.2994L54.1547 20.0532C54.4693 20.1012 54.6808 20.4659 59.5117 29.8102C65.7596 41.8973 77.3901 64.3952 87.6476 80.7974L87.24 80.9558V80.9568Z" fill="#FCFDFE"/>
<path d="M87.5485 62.9691L87.3789 62.3142C92.596 51.8432 100.442 43.3203 110.068 37.6649C117.71 33.1762 124.193 31.7991 125.861 31.6704C126.218 31.6438 126.364 31.6653 126.464 31.7624L126.125 32.0055C126.173 32.0515 126.22 32.0596 126.221 32.0606C125.64 31.9544 119.324 32.9974 111.51 37.3391C104.467 41.2527 94.3746 49.2658 87.5475 62.9691H87.5485Z" fill="#FCFDFE"/>
<path d="M97.9492 179.288C99.7257 165.211 107.537 151.701 121.164 139.134C128.261 132.589 136.67 126.578 146.154 121.269C146.65 120.991 147.042 120.771 147.102 120.722L147.444 121.019C147.361 121.089 147.092 121.24 146.437 121.607C133.259 128.985 102.199 149.381 98.414 179.368L97.9502 179.288H97.9492Z" fill="#FCFDFE"/>
<path d="M96.296 163.58C87.0784 140.076 56.8892 130.294 56.3682 130.151C56.3661 130.151 56.3651 130.151 56.3631 130.15L56.3948 129.958L56.2732 130.118L56.168 129.89L56.3866 129.76C56.6665 129.772 87.4043 139.689 96.7373 163.489L96.296 163.581V163.58Z" fill="#FCFDFE"/>
<path d="M100.775 239.119C102.142 233.12 107.463 223.732 125.052 213.073C125.465 212.822 125.823 212.607 125.876 212.559L126.023 212.678L126.299 212.72C126.291 212.796 125.974 213.024 125.347 213.404C107.868 223.996 102.586 233.295 101.234 239.231L100.775 239.119Z" fill="#FCFDFE"/>
<path d="M100.685 227.214C99.9167 216 84.5861 203.675 75.5166 197.326C75.2071 197.11 75.0089 196.97 74.9395 196.916L75.2398 196.638C75.3062 196.691 75.4962 196.824 75.7925 197.03C84.9283 203.425 100.372 215.853 101.152 227.23L100.686 227.215L100.685 227.214Z" fill="#FCFDFE"/>
</g>
</g>
<path d="M97.8036 19.3015L69.3603 255.717C68.9343 259.262 71.3768 262.439 74.7991 262.779L193.269 275.785C200.526 276.237 204.5 272.529 204.947 268.76L234.81 17.4116C235.255 13.6635 231.695 10.2688 224.406 10.2688L104.859 12.787C101.398 12.8452 98.2276 15.7771 97.8026 19.3035L97.8036 19.3015Z" fill="url(#paint3_linear_1190_43916)"/>
<path d="M92.4722 18.8945L63.8725 256.493C63.4434 260.055 65.8952 263.249 69.3297 263.592L192.15 275.82C196 276.203 199.53 273.417 199.98 269.629L230.01 16.9811C230.458 13.2136 227.63 10.1847 223.737 10.2511L99.5557 12.3463C96.0824 12.4045 92.8992 15.3517 92.4722 18.8955V18.8945Z" fill="url(#paint4_linear_1190_43916)"/>
<path d="M94.8024 32.0004L68.2949 252.301C67.8944 255.629 70.1899 258.608 73.4058 258.92L188.914 270.148C192.493 270.497 195.774 267.896 196.194 264.369L223.945 30.9809C224.362 27.4729 221.737 24.6339 218.121 24.6728L101.428 25.915C98.1797 25.9497 95.2029 28.6875 94.8044 31.9994L94.8024 32.0004Z" fill="url(#paint5_linear_1190_43916)"/>
<path d="M156.744 18.7313C156.593 19.996 157.5 21.0083 158.773 20.993C160.047 20.9767 161.203 19.9367 161.355 18.669C161.507 17.4012 160.596 16.3888 159.321 16.4082C158.049 16.4266 156.895 17.4676 156.744 18.7323V18.7313Z" fill="white"/>
<g style="mix-blend-mode:soft-light">
<path d="M114.773 179.88C138.42 136.16 173.745 123.073 184.38 78.0147C190.13 53.6586 186.212 30.3476 179.616 10.994L223.737 10.2493C227.63 10.184 230.458 13.2119 230.011 16.9794L199.981 269.627C199.53 273.416 196.002 276.202 192.15 275.818L95.6014 266.205C94.8873 227.03 104.232 199.366 114.773 179.878V179.88Z" fill="white"/>
</g>
<path d="M133.203 127.446L127.043 130.263C126.062 130.711 125.608 131.852 126.029 132.814L127.564 136.323C126.045 137.343 124.634 138.476 123.344 139.711L120.278 137.482C119.433 136.868 118.233 137.072 117.596 137.938L113.611 143.351C112.974 144.217 113.134 145.425 113.971 146.051L116.994 148.311C116.177 149.931 115.502 151.621 114.972 153.36L111.215 152.94C110.17 152.824 109.214 153.597 109.077 154.67L108.212 161.409C108.073 162.492 108.809 163.476 109.859 163.605L113.608 164.068C113.688 165.894 113.933 167.732 114.336 169.565L110.816 171.1C109.83 171.529 109.362 172.706 109.771 173.731L112.344 180.196C112.759 181.239 113.906 181.739 114.905 181.311L118.477 179.783C119.482 181.411 120.611 182.939 121.859 184.34L119.505 187.546C118.842 188.448 119.015 189.755 119.894 190.466L125.444 194.961C126.34 195.688 127.614 195.535 128.285 194.62L130.689 191.345C132.379 192.268 134.149 193.044 135.976 193.659L135.523 197.841C135.396 199.011 136.215 200.105 137.355 200.286L144.546 201.423C145.706 201.607 146.746 200.793 146.865 199.609L147.296 195.353C149.218 195.296 151.147 195.06 153.068 194.648L154.84 198.7C155.332 199.824 156.609 200.381 157.692 199.943L164.503 197.184C165.598 196.741 166.074 195.467 165.566 194.341L163.718 190.249C165.37 189.184 166.904 187.989 168.298 186.669L171.931 189.385C172.93 190.131 174.306 189.967 175.002 189.016L179.355 183.069C180.051 182.119 179.795 180.752 178.787 180.019L175.084 177.326C175.916 175.581 176.592 173.765 177.096 171.896L181.593 172.451C182.814 172.601 183.881 171.768 183.974 170.589L184.556 163.26C184.648 162.095 183.737 161.04 182.525 160.906L178.05 160.406C177.863 158.514 177.499 156.622 176.966 154.751L181.006 153.022C182.094 152.556 182.553 151.324 182.033 150.272L178.809 143.75C178.299 142.717 177.015 142.26 175.945 142.726L171.967 144.458C170.84 142.901 169.599 141.462 168.253 140.156L170.732 136.777C171.4 135.867 171.165 134.609 170.209 133.969L164.292 130.006C163.355 129.379 162.063 129.6 161.404 130.497L158.96 133.824C157.264 133.053 155.506 132.428 153.711 131.955L154.115 127.953C154.224 126.874 153.408 125.929 152.294 125.841L145.386 125.295C144.291 125.208 143.31 126.002 143.195 127.067L142.771 130.983C140.968 131.132 139.166 131.445 137.382 131.907L135.783 128.367C135.349 127.404 134.194 126.993 133.205 127.445L133.203 127.446ZM153.517 181.756C142.848 186.209 130.63 180.999 126.198 170.409C121.871 160.072 126.535 148.262 136.638 143.757C146.872 139.194 159.144 143.685 164.035 154.069C169.048 164.713 164.331 177.242 153.517 181.756Z" fill="white"/>
<path d="M121.418 65.9787L117.461 68.7635C116.83 69.2079 116.643 70.0333 117.044 70.6084L118.503 72.7057C117.564 73.6118 116.71 74.5762 115.952 75.5916L113.566 74.5772C112.907 74.2973 112.093 74.615 111.747 75.2872L109.573 79.496C109.225 80.1703 109.474 80.9487 110.13 81.2368L112.497 82.2726C112.109 83.475 111.83 84.7019 111.655 85.939L108.98 86.2445C108.237 86.3293 107.654 86.9933 107.679 87.7288L107.835 92.3473C107.861 93.09 108.487 93.6273 109.237 93.5476L111.909 93.2626C112.171 94.4619 112.549 95.6418 113.037 96.7942L110.752 98.3715C110.111 98.8138 109.917 99.6699 110.318 100.285L112.844 104.16C113.251 104.784 114.107 104.93 114.754 104.486L117.067 102.9C117.948 103.815 118.903 104.644 119.924 105.369L118.651 107.867C118.292 108.571 118.559 109.406 119.248 109.733L123.591 111.796C124.291 112.128 125.152 111.821 125.512 111.109L126.804 108.564C128.069 108.898 129.372 109.122 130.694 109.231L130.846 112.051C130.889 112.84 131.571 113.425 132.372 113.358L137.411 112.936C138.221 112.868 138.84 112.168 138.791 111.374L138.616 108.519C139.917 108.173 141.204 107.71 142.462 107.132L144.107 109.495C144.563 110.149 145.487 110.308 146.172 109.848L150.468 106.962C151.157 106.499 151.339 105.594 150.875 104.942L149.185 102.569C150.182 101.615 151.086 100.595 151.881 99.5166L154.615 100.714C155.366 101.043 156.27 100.72 156.633 99.9927L158.903 95.4539C159.266 94.7296 158.948 93.8817 158.195 93.5609L155.426 92.3831C155.796 91.1204 156.051 89.8353 156.188 88.542L159.256 88.2151C160.087 88.1262 160.709 87.4223 160.645 86.6429L160.246 81.7956C160.182 81.0243 159.461 80.4767 158.636 80.5707L155.586 80.9191C155.256 79.7146 154.808 78.5378 154.248 77.3977L156.769 75.6693C157.446 75.2044 157.622 74.3341 157.16 73.7262L154.295 69.9536C153.84 69.355 152.929 69.2446 152.259 69.7074L149.769 71.4267C148.841 70.5757 147.846 69.8177 146.795 69.1619L148.101 66.5865C148.453 65.8929 148.157 65.1042 147.442 64.8254L143.004 63.0928C142.299 62.818 141.446 63.151 141.096 63.8365L139.8 66.3802C138.56 66.1227 137.294 65.9716 136.016 65.9246L135.852 63.2307C135.808 62.5044 135.146 62.0018 134.374 62.106L129.579 62.7577C128.817 62.8609 128.231 63.529 128.27 64.2502L128.413 66.8991C127.189 67.2649 125.982 67.7389 124.803 68.3099L123.305 66.2045C122.897 65.6314 122.052 65.5302 121.418 65.9767V65.9787ZM141.357 98.632C134.577 103.238 125.613 101.759 121.371 95.4743C117.213 89.3153 119.127 80.7709 125.61 76.2536C132.138 71.7046 141.008 72.8262 145.46 78.8964C150.004 85.0911 148.186 93.993 141.357 98.632Z" fill="white"/>
<mask id="mask3_1190_43916" style="mask-type:luminance" maskUnits="userSpaceOnUse" x="3" y="123" width="167" height="157">
<path d="M29.9901 261.463C5.65855 236.606 -8.16116 157.216 16.1663 133.528C40.1261 110.197 145.669 129.194 163.395 158.065C187.578 197.452 136.964 239.222 114.452 262.396C91.6057 285.912 53.8426 285.83 29.9901 261.463Z" fill="white"/>
</mask>
<g mask="url(#mask3_1190_43916)">
<path d="M151.655 175.327C151.655 175.327 150.526 169.724 151.906 168.595C153.286 167.466 157.844 159.605 157.634 161.821C157.425 164.037 156.463 166.881 156.463 166.881C156.463 166.881 160.77 167.298 159.683 169.849C158.597 172.4 155.859 172.541 156.078 173.851C156.297 175.159 151.824 179.884 151.656 175.327H151.655Z" fill="white"/>
<path d="M150.67 174.228C152.803 174.078 154.936 173.93 157.069 173.781C162.101 194.114 158.492 213.838 147.135 221.092C129.391 232.425 96.4174 211.073 89.2716 187.824C86.1354 177.619 86.8494 162.891 93.1178 160.03C94.8575 159.235 97.5575 159.112 103.408 162.397C120.878 172.205 121.337 190.743 130.219 192.313C134.168 193.011 140.545 190.494 150.671 174.228H150.67Z" fill="url(#paint6_linear_1190_43916)"/>
<path d="M79.9862 299.961H103.225C102.13 280.271 102.144 262.02 102.815 245.481C91.9548 247.161 81.0946 248.842 70.2354 250.522C71.7861 271.749 75.9347 287.79 79.5837 298.763C79.7175 299.167 79.8524 299.565 79.9862 299.961Z" fill="url(#paint7_linear_1190_43916)"/>
<path style="mix-blend-mode:multiply" opacity="0.3" d="M79.9862 299.961H93.571C92.1561 292.457 87.4988 287.85 84.9827 282.474C81.8925 275.869 80.7085 265.26 89.0373 247.613C82.77 248.582 76.5027 249.552 70.2344 250.522C71.7851 271.749 75.9337 287.79 79.5827 298.763C79.7165 299.167 79.8514 299.566 79.9852 299.961H79.9862Z" fill="url(#paint8_linear_1190_43916)"/>
<path d="M73.6865 299.961C75.4374 281.13 77.314 262.544 79.3061 244.21C57.8226 242.04 50.0362 249.29 47.5201 252.212C40.3896 260.49 41.8872 274.072 45.9776 299.96H73.6865V299.961Z" fill="url(#paint9_linear_1190_43916)"/>
<path d="M21.9024 169.539C31.3702 163.519 39.8533 158.823 49.9525 156.592C58.9218 154.611 65.7152 155.24 74.1227 155.878C90.4044 157.115 100.584 157.889 107.266 165.557C113.176 172.338 113.305 181.139 113.346 183.013C113.509 190.559 110.574 194.41 108.418 200.665C104.946 210.73 108.459 212.617 109.478 239.38C109.478 239.38 110.49 271.131 102.4 275.967C98.9375 278.037 95.9851 285.151 78.3172 283.4C66.4701 282.225 62.6178 282.008 56.6182 284.039C48.4487 286.803 45.2226 281.504 41.8515 279.994C38.6193 278.546 38.2086 272.966 37.8184 263.238C37.2167 248.233 37.2534 238.032 37.1972 234.381C36.9429 217.63 32.7003 204.84 27.2687 188.459C23.8709 178.214 24.6351 175.368 21.9014 169.54L21.9024 169.539Z" fill="url(#paint10_linear_1190_43916)"/>
<path style="mix-blend-mode:multiply" opacity="0.4" d="M95.5334 267.271C86.844 263.562 86.894 255.889 78.7777 252.687C67.4057 248.2 52.9587 257.075 52.403 255.789C51.786 254.361 73.0131 248.751 79.0393 232.963C81.3296 226.964 81.9241 218.183 77.607 214.48C72.4583 210.063 65.3319 217.166 57.3269 213.212C48.1227 208.666 49.7122 195.407 41.8635 193.186C37.7058 192.01 33.2773 194.604 30.0972 197.085C34.1109 209.621 36.9886 220.675 37.197 234.378C37.2522 238.029 37.2154 248.229 37.8181 263.235C38.2084 272.964 38.6201 278.542 41.8513 279.991C45.2214 281.501 48.1288 284.017 56.2982 281.253C62.2979 279.223 67.1074 280.078 78.9545 281.253C96.6214 283.004 98.9362 278.035 102.398 275.965C104.653 274.618 105.725 272.591 106.443 268.699C102.901 269.081 99.1436 268.811 95.5314 267.27L95.5334 267.271Z" fill="url(#paint11_linear_1190_43916)"/>
<path d="M40.1515 211.492C40.1515 211.492 38.2728 185.956 55.5536 185.134C72.8344 184.312 102.11 173.593 106.444 187.787C110.777 201.979 111.834 257.992 109.803 265.135C107.772 272.277 101.395 287.172 93.189 284.822C84.9828 282.473 39.6499 291.95 37.6466 282.489C35.6433 273.029 29.6324 219.626 40.1515 211.492Z" fill="url(#paint12_linear_1190_43916)"/>
<path d="M72.5321 139.283C72.3421 143.495 71.6945 146.808 71.1285 149.071C70.4798 151.663 70.0763 152.32 69.5798 152.844C68.831 153.634 67.7267 154.269 61.6137 155.443C58.2875 156.082 57.8666 156.037 57.7767 156.358C57.3384 157.929 66.0003 163.823 75.318 163.012C81.0203 162.515 86.3427 159.561 86.1169 157.849C85.8901 156.126 80.1877 156.739 78.6666 153.561C77.6093 151.351 79.0865 148.372 80.7741 145.93C79.4206 143.031 73.8857 142.181 72.5321 139.282V139.283Z" fill="white"/>
<path d="M82.9479 141.509C84.3781 139.806 84.6263 136.713 83.192 134.673C81.9569 132.917 79.8862 132.565 78.6461 132.355C75.0522 131.744 70.4092 133.01 68.645 136.253C67.5999 138.175 69.4152 142.381 69.6941 143.135C70.0108 143.987 70.6493 144.308 71.2203 144.97C72.012 145.888 73.2502 147.347 75.2688 149.785C75.4721 149.108 75.7704 148.273 76.2219 147.375C76.3956 147.029 77.0912 145.68 78.0934 144.584C80.1008 142.387 81.5933 143.123 82.9499 141.51L82.9479 141.509Z" fill="url(#paint13_linear_1190_43916)"/>
<path d="M72.3167 147.667C72.3167 147.667 74.4854 151.694 79.2347 151.639C83.4864 151.589 84.6153 142.12 82.0164 139.958C81.1491 139.237 79.3552 138.861 77.8637 139.195C76.9821 139.392 76.6685 139.738 75.222 140.031C73.8878 140.303 73.5241 140.136 73.1084 140.45C72.5894 140.842 72.1706 141.847 72.852 144.67C72.0868 143.809 71.1337 143.442 70.4288 143.73C70.3164 143.776 70.0151 143.959 69.8353 144.25C69.1845 145.303 70.1029 146.742 72.3177 147.668L72.3167 147.667Z" fill="white"/>
<path d="M72.947 139.871C73.1431 140.035 72.4781 140.763 72.3739 141.84C72.1716 143.93 74.1576 146.557 76.309 146.886C77.5808 147.081 77.9741 146.329 80.099 146.218C81.4147 146.15 82.4956 146.375 83.1728 146.562C83.7143 148.894 82.9675 151.151 81.3749 152.132C79.6607 153.188 77.5859 152.381 76.7186 152.043C76.1384 151.818 74.2791 151.098 73.3822 149.31C72.4485 147.446 73.5181 146.409 72.4005 145.123C71.8366 144.475 71.0683 144.165 70.3696 142.93C70.1796 142.595 70.057 142.3 69.9824 142.102C71.1378 141.002 72.662 139.635 72.947 139.871Z" fill="url(#paint14_linear_1190_43916)"/>
<path d="M81.5892 147.33C81.5892 147.33 80.6484 147.759 79.0721 147.585C78.9955 147.577 78.9097 147.594 78.8974 147.634C78.8535 147.782 79.8321 148.51 80.7802 148.296C81.4534 148.145 82.004 147.544 81.9233 147.379C81.8886 147.309 81.7384 147.31 81.5892 147.329V147.33Z" fill="white"/>
<path d="M50.4468 156.486C50.4468 156.486 61.5645 181.859 59.4366 189.819C57.3077 197.779 51.0465 192.269 50.7962 190.641C50.5459 189.013 37.5874 160.76 37.5874 160.76C37.5874 160.76 42.591 155.379 50.4468 156.486Z" fill="url(#paint15_linear_1190_43916)"/>
<path d="M86.6133 156.992C86.363 157.133 95.8451 180.012 94.7183 185.2C93.5916 190.39 103.221 187.384 102.164 183.064C101.105 178.744 98.2928 160.662 96.3416 158.856C94.3904 157.049 88.21 156.091 86.6133 156.992Z" fill="url(#paint16_linear_1190_43916)"/>
<path d="M63.7251 197.621L95.5631 192.268C95.5631 192.268 99.3041 210.014 84.1911 212.271C69.0781 214.527 64.101 205.887 63.7251 197.621Z" fill="url(#paint17_linear_1190_43916)"/>
<path d="M124.419 184.178L90.582 188.981C90.2101 189.034 89.9077 189.307 89.8178 189.671L78.3579 235.706C78.1935 236.366 79.0761 237.886 79.7421 237.744L112.863 229.737C113.201 229.666 113.47 229.41 113.561 229.077L125.97 185.933C126.144 185.294 125.075 184.085 124.42 184.178H124.419Z" fill="url(#paint18_linear_1190_43916)"/>
<path d="M125.058 185.21L91.2203 190.014C90.8485 190.067 90.5461 190.34 90.4562 190.703L78.9963 236.739C78.8318 237.399 79.4162 238.004 80.0812 237.863L113.502 230.77C113.84 230.699 114.108 230.443 114.199 230.11L126.077 186.364C126.251 185.725 125.714 185.117 125.059 185.21H125.058Z" fill="url(#paint19_linear_1190_43916)"/>
<path d="M115.937 187.814L116.884 184.141C116.97 183.809 116.698 183.494 116.358 183.529L103.992 184.795C103.779 184.816 103.604 184.973 103.561 185.184L102.718 189.226C102.649 189.558 102.929 189.859 103.265 189.815L115.527 188.18C115.725 188.154 115.888 188.01 115.938 187.815L115.937 187.814Z" fill="url(#paint20_linear_1190_43916)"/>
<g style="mix-blend-mode:soft-light" opacity="0.3">
<path d="M98.6216 225.105C100.096 217.723 95.987 213.435 99.1252 207.495C103.564 199.094 115.168 201.27 118.02 194.565C118.789 192.757 118.98 190.16 117.299 186.312L125.059 185.212C125.713 185.119 126.251 185.725 126.077 186.365L114.199 230.111C114.108 230.445 113.84 230.699 113.502 230.771L93.1899 235.082C96.5213 231.518 98.0229 228.106 98.6216 225.106V225.105Z" fill="white"/>
</g>
<path d="M73.2686 222.327C73.2686 222.327 78.2978 220.78 80.1498 219.332C82.0019 217.882 83.8969 215.665 86.8268 215.475C89.7566 215.286 92.8469 216.469 91.5331 216.948C90.2194 217.427 87.974 220.359 86.1577 221.61C84.3413 222.86 79.9537 223.405 79.1283 223.431C78.3039 223.458 75.2698 225.733 75.2698 225.733L73.2676 222.327H73.2686Z" fill="white"/>
<path d="M76.2587 215.85C78.9495 218.105 80.0957 220.32 80.3542 222.371C81.4994 231.458 65.9001 242.954 51.0159 244.204C39.9983 245.128 28.9706 240.452 22.025 233.311C8.47187 219.377 7.67199 193.176 21.9024 169.539C25.5402 171.341 29.1779 173.143 32.8167 174.945C42.9599 179.969 49.077 190.863 47.5079 202.071C46.472 209.467 48.8553 216.143 53.1438 219.186C58.6204 223.07 68.2905 221.795 76.2587 215.85Z" fill="url(#paint21_linear_1190_43916)"/>
</g>
<path d="M155.209 127.361L176.75 120.606L181.67 98.5727L157.844 79.0149C156.397 77.6838 158.73 74.3116 160.688 74.1441C170.241 73.3268 180.099 76.4651 187.594 83.6732C201.09 96.6532 201.728 118.182 189.043 131.954C176.131 145.972 154.301 146.883 140.266 133.983C132.849 127.165 127.932 118.942 127.941 109.604C127.943 107.635 131.439 105.513 132.888 106.846L155.21 127.362L155.209 127.361Z" fill="url(#paint22_linear_1190_43916)"/>
<path d="M188.475 119.596L271.242 190.368C276.558 195.026 276.997 203.147 272.214 208.35C267.433 213.552 259.307 213.799 254.218 208.897L176.685 132.424L188.475 119.596Z" fill="url(#paint23_linear_1190_43916)"/>
<path d="M154.014 128.822L175.556 122.067L180.476 100.034L158.155 79.5176C156.707 78.1865 157.535 75.7726 159.494 75.605C169.047 74.7878 178.905 77.926 186.4 85.1342C199.896 98.1142 200.534 119.643 187.848 133.415C174.937 147.433 153.107 148.344 139.072 135.444C131.654 128.626 127.899 119.315 127.908 109.976C127.91 108.007 130.245 106.974 131.694 108.306L154.015 128.822H154.014Z" fill="url(#paint24_linear_1190_43916)"/>
<path d="M187.283 121.058L270.049 191.83C275.365 196.488 275.804 204.609 271.021 209.812C266.24 215.014 258.114 215.261 253.025 210.359L175.492 133.886L187.283 121.058Z" fill="url(#paint25_linear_1190_43916)"/>
<path d="M183.741 129.589C181.831 131.666 181.967 134.899 184.045 136.808C186.123 138.717 189.354 138.581 191.263 136.503C193.173 134.426 193.037 131.194 190.959 129.285C188.881 127.376 185.65 127.512 183.741 129.589Z" fill="url(#paint26_linear_1190_43916)"/>
<path d="M190.755 140.141L257.93 201.884C259.159 203.014 261.07 202.934 262.2 201.705C263.33 200.476 263.249 198.564 262.02 197.434L194.845 135.691L190.755 140.141Z" fill="url(#paint27_linear_1190_43916)"/>
<defs>
<linearGradient id="paint0_linear_1190_43916" x1="290.213" y1="81.485" x2="36.9767" y2="399.728" gradientUnits="userSpaceOnUse">
<stop stop-color="#FFC444"/>
<stop offset="1" stop-color="#F36F56"/>
</linearGradient>
<linearGradient id="paint1_linear_1190_43916" x1="3.56154" y1="97.9156" x2="268.439" y2="337.667" gradientUnits="userSpaceOnUse">
<stop stop-color="#E38DDD"/>
<stop offset="1" stop-color="#9571F6"/>
</linearGradient>
<linearGradient id="paint2_linear_1190_43916" x1="104.388" y1="9.30634" x2="84.5524" y2="239.993" gradientUnits="userSpaceOnUse">
<stop stop-color="#FF9085"/>
<stop offset="1" stop-color="#FB6FBB"/>
</linearGradient>
<linearGradient id="paint3_linear_1190_43916" x1="69.3122" y1="143.044" x2="234.847" y2="143.044" gradientUnits="userSpaceOnUse">
<stop stop-color="#444B8C"/>
<stop offset="1" stop-color="#26264F"/>
</linearGradient>
<linearGradient id="paint4_linear_1190_43916" x1="63.8234" y1="143.051" x2="230.056" y2="143.051" gradientUnits="userSpaceOnUse">
<stop stop-color="#444B8C"/>
<stop offset="1" stop-color="#26264F"/>
</linearGradient>
<linearGradient id="paint5_linear_1190_43916" x1="122.687" y1="41.3416" x2="200.406" y2="374.117" gradientUnits="userSpaceOnUse">
<stop stop-color="#E38DDD"/>
<stop offset="1" stop-color="#9571F6"/>
</linearGradient>
<linearGradient id="paint6_linear_1190_43916" x1="150.96" y1="190.619" x2="93.223" y2="192.703" gradientUnits="userSpaceOnUse">
<stop stop-color="#FFC444"/>
<stop offset="1" stop-color="#F36F56"/>
</linearGradient>
<linearGradient id="paint7_linear_1190_43916" x1="124.113" y1="358.64" x2="88.8239" y2="266.048" gradientUnits="userSpaceOnUse">
<stop stop-color="#AA80F9"/>
<stop offset="1" stop-color="#6165D7"/>
</linearGradient>
<linearGradient id="paint8_linear_1190_43916" x1="117.742" y1="361.068" x2="82.4547" y2="268.475" gradientUnits="userSpaceOnUse">
<stop stop-color="#AA80F9"/>
<stop offset="1" stop-color="#6165D7"/>
</linearGradient>
<linearGradient id="paint9_linear_1190_43916" x1="108.748" y1="359.151" x2="62.3773" y2="271.579" gradientUnits="userSpaceOnUse">
<stop stop-color="#AA80F9"/>
<stop offset="1" stop-color="#6165D7"/>
</linearGradient>
<linearGradient id="paint10_linear_1190_43916" x1="45.2747" y1="263.408" x2="106.055" y2="122.968" gradientUnits="userSpaceOnUse">
<stop stop-color="#FFC444"/>
<stop offset="1" stop-color="#F36F56"/>
</linearGradient>
<linearGradient id="paint11_linear_1190_43916" x1="54.5595" y1="265.252" x2="118.702" y2="117.042" gradientUnits="userSpaceOnUse">
<stop stop-color="#FF9085"/>
<stop offset="1" stop-color="#FB6FBB"/>
</linearGradient>
<linearGradient id="paint12_linear_1190_43916" x1="34.1181" y1="233.633" x2="110.799" y2="233.633" gradientUnits="userSpaceOnUse">
<stop stop-color="#6165D7"/>
<stop offset="1" stop-color="#AA80F9"/>
</linearGradient>
<linearGradient id="paint13_linear_1190_43916" x1="68.3232" y1="140.994" x2="84.1523" y2="140.994" gradientUnits="userSpaceOnUse">
<stop stop-color="#311944"/>
<stop offset="1" stop-color="#893976"/>
</linearGradient>
<linearGradient id="paint14_linear_1190_43916" x1="69.9824" y1="146.25" x2="83.3486" y2="146.25" gradientUnits="userSpaceOnUse">
<stop stop-color="#311944"/>
<stop offset="1" stop-color="#893976"/>
</linearGradient>
<linearGradient id="paint15_linear_1190_43916" x1="37.5874" y1="175.176" x2="59.7073" y2="175.176" gradientUnits="userSpaceOnUse">
<stop stop-color="#6165D7"/>
<stop offset="1" stop-color="#AA80F9"/>
</linearGradient>
<linearGradient id="paint16_linear_1190_43916" x1="86.6082" y1="172.297" x2="102.244" y2="172.297" gradientUnits="userSpaceOnUse">
<stop stop-color="#6165D7"/>
<stop offset="1" stop-color="#AA80F9"/>
</linearGradient>
<linearGradient id="paint17_linear_1190_43916" x1="63.7251" y1="202.451" x2="95.9738" y2="202.451" gradientUnits="userSpaceOnUse">
<stop stop-color="#6165D7"/>
<stop offset="1" stop-color="#AA80F9"/>
</linearGradient>
<linearGradient id="paint18_linear_1190_43916" x1="118.256" y1="223.201" x2="96.269" y2="206.525" gradientUnits="userSpaceOnUse">
<stop stop-color="#26264F"/>
<stop offset="1" stop-color="#444B8C"/>
</linearGradient>
<linearGradient id="paint19_linear_1190_43916" x1="82.9152" y1="203.552" x2="134.552" y2="224.608" gradientUnits="userSpaceOnUse">
<stop stop-color="#26264F"/>
<stop offset="1" stop-color="#444B8C"/>
</linearGradient>
<linearGradient id="paint20_linear_1190_43916" x1="110.107" y1="212.242" x2="109.736" y2="180.991" gradientUnits="userSpaceOnUse">
<stop stop-color="#AA80F9"/>
<stop offset="1" stop-color="#6165D7"/>
</linearGradient>
<linearGradient id="paint21_linear_1190_43916" x1="57.1554" y1="245.976" x2="-0.156902" y2="102.304" gradientUnits="userSpaceOnUse">
<stop stop-color="#FFC444"/>
<stop offset="1" stop-color="#F36F56"/>
</linearGradient>
<linearGradient id="paint22_linear_1190_43916" x1="174.981" y1="90.8901" x2="106.157" y2="219.391" gradientUnits="userSpaceOnUse">
<stop stop-color="#40447E"/>
<stop offset="1" stop-color="#3C3B6B"/>
</linearGradient>
<linearGradient id="paint23_linear_1190_43916" x1="246.677" y1="129.289" x2="177.846" y2="257.802" gradientUnits="userSpaceOnUse">
<stop stop-color="#40447E"/>
<stop offset="1" stop-color="#3C3B6B"/>
</linearGradient>
<linearGradient id="paint24_linear_1190_43916" x1="173.992" y1="92.4604" x2="105.167" y2="220.961" gradientUnits="userSpaceOnUse">
<stop stop-color="#AA80F9"/>
<stop offset="1" stop-color="#6165D7"/>
</linearGradient>
<linearGradient id="paint25_linear_1190_43916" x1="245.483" y1="130.75" x2="176.652" y2="259.263" gradientUnits="userSpaceOnUse">
<stop stop-color="#AA80F9"/>
<stop offset="1" stop-color="#6165D7"/>
</linearGradient>
<linearGradient id="paint26_linear_1190_43916" x1="170.021" y1="153.974" x2="187.472" y2="133.068" gradientUnits="userSpaceOnUse">
<stop stop-color="#AA80F9"/>
<stop offset="1" stop-color="#6165D7"/>
</linearGradient>
<linearGradient id="paint27_linear_1190_43916" x1="209.727" y1="190.975" x2="227.463" y2="169.728" gradientUnits="userSpaceOnUse">
<stop stop-color="#AA80F9"/>
<stop offset="1" stop-color="#6165D7"/>
</linearGradient>
</defs>
</svg>
