<svg width="290" height="285" viewBox="0 0 290 285" fill="none" xmlns="http://www.w3.org/2000/svg">
<g clip-path="url(#clip0_2194_7798)">
<path d="M276.82 81.6062C284.418 12.4096 217.332 -11.6308 169.774 6.08618C121.83 23.9472 110.714 -5.66078 43.2977 2.79879C-24.9662 11.3646 9.69234 118.522 9.69234 118.522C9.69234 118.522 20.5536 211.702 33.4222 254.651C46.2214 297.369 168.732 281.914 198.534 280.64C228.165 279.372 253.913 281.819 279.693 234.915C305.426 188.096 269.248 150.574 276.82 81.6062Z" fill="#F4F7FA"/>
<path d="M184.613 258.77C182.313 258.747 177.328 256.668 176.253 255.591C169.094 248.42 154.817 235.865 154.179 225.172C154.07 223.345 161.974 220.699 162.912 218.899C167.542 215.987 169.329 215.265 172.371 210.335C181.351 195.781 154.292 173.676 181.275 161.564C201.04 152.693 219.221 157.703 213.221 126.095C207.221 94.4877 225.585 33.4054 261.882 51.633C282.714 62.0938 266.332 91.5281 278.648 110.337C290.351 128.209 284.158 144.807 265.335 158.608C246.511 172.409 258.334 179.89 266.347 197.245C275.972 218.093 243.071 225.902 227.574 228.213C215.095 230.073 184.573 243.23 184.613 258.771V258.77Z" fill="#E1EFFE"/>
<mask id="mask0_2194_7798" style="mask-type:luminance" maskUnits="userSpaceOnUse" x="148" y="48" width="137" height="219">
<path d="M148.722 223.038C155.349 237.396 161.501 252.28 168.097 266.775C177.114 266.437 187.713 265.819 188.383 254.603C189.315 239.01 215.118 229.973 227.597 228.18C243.042 225.962 275.98 218.064 266.347 197.24C258.327 179.904 246.512 172.403 265.335 158.606C284.158 144.809 290.347 128.211 278.647 110.335C266.335 91.5242 282.713 62.1042 261.882 51.6321C225.585 33.386 207.216 94.5214 213.224 126.081C219.232 157.641 201.01 152.83 181.284 161.528C154.353 173.402 181.22 196.373 172.418 210.034C165.518 220.744 158.954 219.72 148.722 223.038Z" fill="white"/>
</mask>
<g mask="url(#mask0_2194_7798)">
<g style="mix-blend-mode:soft-light" opacity="0.8">
<path d="M165.591 241.236C181.892 230.745 196.337 217.901 208.525 203.063C220.236 188.805 229.884 172.69 237.2 155.164C251.403 121.142 256.591 82.3459 252.204 42.9707L251.779 43.0177C261.038 126.123 228.733 200.088 165.36 240.875L165.592 241.235L165.591 241.236Z" fill="#FCFDFE"/>
<path d="M271.345 205.42L271.43 205.001C251.147 200.919 218.48 204.627 198.607 213.268L198.778 213.66C218.582 205.048 251.135 201.352 271.345 205.42Z" fill="#FCFDFE"/>
<path d="M177.93 233.094C185.404 224.54 188.268 212.562 186.445 197.488C185.115 186.489 181.363 174.121 175.293 160.729L174.903 160.905C180.955 174.258 184.696 186.584 186.021 197.541C187.829 212.488 184.998 224.356 177.608 232.813L177.93 233.094Z" fill="#FCFDFE"/>
<path d="M239.032 150.249C252.039 133.718 273.209 127.192 288.678 124.626L288.607 124.204C273.064 126.781 251.788 133.347 238.696 149.985L239.032 150.249Z" fill="#FCFDFE"/>
<path d="M251.435 103.397C250.329 79.4043 234.172 60.0947 224.64 50.7188L224.34 51.0243C233.828 60.3552 249.91 79.5698 251.008 103.417L251.435 103.397Z" fill="#FCFDFE"/>
</g>
</g>
<path d="M120.358 236.525C122.349 236.177 126.373 233.665 127.151 232.578C132.336 225.341 142.922 212.424 141.951 203.064C141.785 201.465 134.556 200.297 133.486 198.871C129.057 197.006 127.406 196.634 124.066 192.794C114.207 181.458 134.514 158.441 109.397 151.788C90.9996 146.914 75.9541 153.847 76.6508 125.594C77.3475 97.3402 52.7247 47.0078 23.8584 67.9815C7.29175 80.0186 25.687 103.199 17.6912 121.257C10.0939 138.417 17.8261 151.923 36.11 161.203C54.394 170.484 45.2122 178.655 40.7387 194.839C35.3663 214.282 64.9988 216.364 78.7613 216.158C89.8443 215.993 118.177 223.048 120.356 236.525H120.358Z" fill="#C6FFF9"/>
<mask id="mask1_2194_7798" style="mask-type:luminance" maskUnits="userSpaceOnUse" x="14" y="62" width="133" height="180">
<path d="M146.378 200.437C142.679 213.828 139.467 227.606 135.815 241.11C127.95 242.102 118.675 243.077 116.496 233.45C113.467 220.065 89.8111 215.909 78.7394 216.133C65.0352 216.411 35.3567 214.259 40.7403 194.835C45.2219 178.664 54.3946 170.477 36.1116 161.201C17.8287 151.924 10.0996 138.418 17.6939 121.254C25.6856 103.193 7.2964 80.0252 23.8611 67.9789C52.7253 46.9899 77.3593 97.3673 76.6493 125.581C75.9393 153.794 91.0483 147.026 109.388 151.755C134.426 158.211 114.41 181.952 123.986 192.54C131.493 200.841 137.037 199.017 146.379 200.436L146.378 200.437Z" fill="white"/>
</mask>
<g mask="url(#mask1_2194_7798)">
<g style="mix-blend-mode:soft-light" opacity="0.8">
<path d="M134.348 218.617C118.722 211.845 104.37 202.77 91.6923 191.645C79.5092 180.955 68.8502 168.361 60.0106 154.211C42.8514 126.743 32.8258 93.8533 31.0176 59.0956L31.3925 59.0762C35.2091 132.434 73.7537 191.947 134.498 218.272L134.348 218.617Z" fill="#FCFDFE"/>
<path d="M37.5713 202.639L37.4385 202.288C54.4383 195.859 83.2842 194.418 101.742 199.076L101.65 199.441C83.2556 194.799 54.5098 196.233 37.5713 202.639Z" fill="#FCFDFE"/>
<path d="M122.491 213.317C114.793 206.968 110.603 196.991 110.036 183.666C109.622 173.942 111.111 162.686 114.464 150.212L114.827 150.309C111.483 162.746 109.998 173.964 110.411 183.649C110.974 196.863 115.118 206.748 122.729 213.027L122.491 213.317Z" fill="#FCFDFE"/>
<path d="M57.7197 150.211C44.0879 137.735 24.8069 135.094 11.0332 135.074V134.698C24.8744 134.718 44.2534 137.377 57.973 149.934L57.7197 150.211Z" fill="#FCFDFE"/>
<path d="M40.2938 111.365C37.8328 90.409 49.0864 71.367 56.0136 61.8818L56.317 62.1035C49.4225 71.5437 38.22 90.4917 40.6656 111.321L40.2938 111.365Z" fill="#FCFDFE"/>
</g>
</g>
<mask id="mask2_2194_7798" style="mask-type:luminance" maskUnits="userSpaceOnUse" x="50" y="0" width="95" height="247">
<path d="M84.6099 241.437C97.3375 243.325 110.116 244.976 122.936 246.387C123.095 246.591 133.226 225.546 123.706 210.43C104.753 181.006 127.244 165.462 135.368 154.82C147.742 140.066 149.421 118.46 125.902 116.126C103.108 113.417 110.044 75.2154 121.722 47.5279C128.791 34.4335 117.518 13.0859 102.679 4.83471C87.6235 -3.92621 69.0024 0.409302 56.3718 26.9118C39.9798 57.1112 63.0794 84.3951 69.1659 103.471C75.1645 122.203 47.5148 128.421 63.0559 147.83C75.9439 164.824 94.0481 179.471 82.202 193.106C70.1976 206.507 68.558 219.711 84.6099 241.438V241.437Z" fill="white"/>
</mask>
<g mask="url(#mask2_2194_7798)">
<path d="M84.6099 241.437C97.3375 243.325 110.116 244.976 122.936 246.387C123.095 246.591 133.226 225.546 123.706 210.43C104.753 181.006 127.244 165.462 135.368 154.82C147.661 140.058 148.658 120.685 127.991 114.711C105.171 107.711 109.667 75.0488 121.722 47.5279C128.791 34.4335 117.518 13.0859 102.679 4.83471C87.6235 -3.92621 69.0024 0.409302 56.3718 26.9118C39.9798 57.1112 63.0794 84.3951 69.1659 103.471C75.1645 122.203 47.5148 128.421 63.0559 147.83C75.9439 164.824 94.0481 179.471 82.202 193.106C70.1976 206.507 68.558 219.711 84.6099 241.438V241.437Z" fill="#A3CDED"/>
<g style="mix-blend-mode:soft-light" opacity="0.8">
<path d="M100.74 247.287C100.983 245.811 101.52 195.291 94.026 146.44C93.2425 138.308 92.2352 130.064 91.2617 122.092C88.6516 100.723 85.9526 78.6255 87.5166 57.7743C89.2666 34.4388 96.3 14.9187 109.02 -1.90137L109.419 -1.66437C81.1737 35.6871 86.2989 77.656 91.7255 122.089C92.7 130.063 93.7063 138.308 94.4898 146.436C102.309 197.397 101.255 247.211 101.196 247.406L100.743 247.275L100.97 247.34L100.74 247.286V247.287Z" fill="#FCFDFE"/>
<path d="M87.2405 80.9563C76.9748 64.5398 65.3392 42.0317 59.0873 29.9394C56.4159 24.7703 54.3053 20.6881 54.0029 20.3929L54.1347 20.2989L54.1552 20.0527C54.4698 20.1007 54.6813 20.4654 59.5122 29.8097C65.7601 41.8968 77.3906 64.3947 87.6481 80.7969L87.2405 80.9563Z" fill="#FCFDFE"/>
<path d="M87.5495 62.9684L87.3799 62.3135C92.597 51.8425 100.443 43.3196 110.069 37.6642C117.711 33.1755 124.194 31.7984 125.862 31.6697C126.219 31.6431 126.365 31.6646 126.465 31.7617L126.126 32.0048C126.174 32.0508 126.221 32.0589 126.222 32.0599C125.641 31.9537 119.325 32.9967 111.511 37.3384C104.468 41.252 94.3766 49.2651 87.5495 62.9684Z" fill="#FCFDFE"/>
<path d="M97.9502 179.288C99.7267 165.211 107.538 151.701 121.165 139.134C128.262 132.589 136.671 126.578 146.155 121.269C146.651 120.991 147.043 120.771 147.103 120.722L147.445 121.019C147.362 121.089 147.093 121.24 146.438 121.607C133.26 128.985 102.2 149.381 98.415 179.368L97.9502 179.288Z" fill="#FCFDFE"/>
<path d="M96.2969 163.58C87.0793 140.076 56.8901 130.294 56.3691 130.151C56.367 130.151 56.366 130.151 56.364 130.15L56.3957 129.958L56.2741 130.118L56.1689 129.89L56.3875 129.76C56.6674 129.772 87.4052 139.689 96.7382 163.489L96.2969 163.58Z" fill="#FCFDFE"/>
<path d="M100.775 239.119C102.142 233.12 107.463 223.732 125.052 213.073C125.465 212.822 125.823 212.607 125.876 212.559L126.023 212.678L126.299 212.72C126.291 212.796 125.974 213.024 125.347 213.404C107.868 223.996 102.586 233.295 101.234 239.231L100.775 239.119Z" fill="#FCFDFE"/>
<path d="M100.686 227.214C99.9176 216 84.587 203.675 75.5175 197.326C75.208 197.11 75.0098 196.97 74.9404 196.916L75.2407 196.638C75.3071 196.691 75.4971 196.824 75.7934 197.03C84.9292 203.425 100.373 215.853 101.153 227.23L100.687 227.215L100.686 227.214Z" fill="#FCFDFE"/>
</g>
</g>
<path d="M97.8041 19.3013L69.3608 255.717C68.9348 259.262 71.3773 262.439 74.7996 262.779L193.269 275.785C200.526 276.237 204.5 272.529 204.947 268.76L234.81 17.4114C235.255 13.6633 231.695 10.2686 224.406 10.2686L104.859 12.7868C101.398 12.845 98.2281 15.7769 97.8031 19.3033L97.8041 19.3013Z" fill="url(#paint0_linear_2194_7798)"/>
<path d="M92.4727 18.8945L63.873 256.493C63.4439 260.055 65.8957 263.249 69.3302 263.592L192.15 275.82C196 276.203 199.53 273.417 199.98 269.629L230.01 16.9811C230.458 13.2136 227.63 10.1847 223.737 10.2511L99.5562 12.3463C96.0829 12.4045 92.8997 15.3507 92.4727 18.8945Z" fill="url(#paint1_linear_2194_7798)"/>
<path d="M94.8029 32.0008L68.2954 252.301C67.8949 255.629 70.1904 258.608 73.4063 258.92L188.914 270.148C192.493 270.497 195.774 267.896 196.194 264.369L223.945 30.9813C224.362 27.4733 221.737 24.6343 218.121 24.6732L101.428 25.9154C98.1802 25.9501 95.2034 28.6879 94.8049 31.9998L94.8029 32.0008Z" fill="url(#paint2_linear_2194_7798)"/>
<path d="M156.744 18.7316C156.593 19.9963 157.5 21.0086 158.773 20.9933C160.047 20.977 161.203 19.937 161.355 18.6693C161.507 17.4015 160.596 16.3891 159.321 16.4085C158.049 16.4269 156.895 17.4669 156.744 18.7316Z" fill="white"/>
<g style="mix-blend-mode:soft-light">
<path d="M114.773 179.88C138.42 136.16 173.745 123.073 184.38 78.0145C190.13 53.6584 186.212 30.3474 179.616 10.9938L223.737 10.2491C227.63 10.1838 230.458 13.2117 230.011 16.9792L199.981 269.627C199.53 273.416 196.002 276.202 192.15 275.818L95.6009 266.205C94.8868 227.03 104.232 199.366 114.773 179.878V179.88Z" fill="white"/>
</g>
<path d="M133.203 127.446L127.043 130.263C126.062 130.711 125.608 131.852 126.029 132.814L127.564 136.323C126.045 137.343 124.634 138.476 123.344 139.711L120.278 137.482C119.433 136.868 118.233 137.072 117.596 137.938L113.611 143.351C112.974 144.217 113.134 145.425 113.971 146.051L116.994 148.311C116.177 149.931 115.502 151.621 114.972 153.36L111.215 152.94C110.17 152.824 109.214 153.597 109.077 154.67L108.212 161.409C108.073 162.492 108.809 163.476 109.859 163.605L113.608 164.068C113.688 165.894 113.933 167.732 114.336 169.565L110.816 171.1C109.83 171.529 109.362 172.706 109.771 173.731L112.344 180.196C112.759 181.239 113.906 181.739 114.905 181.311L118.477 179.783C119.482 181.411 120.611 182.939 121.859 184.34L119.505 187.546C118.842 188.448 119.015 189.755 119.894 190.466L125.444 194.961C126.34 195.688 127.614 195.535 128.285 194.62L130.689 191.345C132.379 192.268 134.149 193.044 135.976 193.659L135.523 197.841C135.396 199.011 136.215 200.105 137.355 200.286L144.546 201.423C145.706 201.607 146.746 200.793 146.865 199.609L147.296 195.353C149.218 195.296 151.147 195.06 153.068 194.648L154.84 198.7C155.332 199.824 156.609 200.381 157.692 199.943L164.503 197.184C165.598 196.741 166.074 195.467 165.566 194.341L163.718 190.249C165.37 189.184 166.904 187.989 168.298 186.669L171.931 189.385C172.93 190.131 174.306 189.967 175.002 189.016L179.355 183.069C180.051 182.119 179.795 180.752 178.787 180.019L175.084 177.326C175.916 175.581 176.592 173.765 177.096 171.896L181.593 172.451C182.814 172.601 183.881 171.768 183.974 170.589L184.556 163.26C184.648 162.095 183.737 161.04 182.525 160.906L178.05 160.406C177.863 158.514 177.499 156.622 176.966 154.751L181.006 153.022C182.094 152.556 182.553 151.324 182.033 150.272L178.809 143.75C178.299 142.717 177.015 142.26 175.945 142.726L171.967 144.458C170.84 142.901 169.599 141.462 168.253 140.156L170.732 136.777C171.4 135.867 171.165 134.609 170.209 133.969L164.292 130.006C163.355 129.379 162.063 129.6 161.404 130.497L158.96 133.824C157.264 133.053 155.506 132.428 153.711 131.955L154.115 127.953C154.224 126.874 153.408 125.929 152.294 125.841L145.386 125.295C144.291 125.208 143.31 126.002 143.195 127.067L142.771 130.983C140.968 131.132 139.166 131.445 137.382 131.907L135.783 128.367C135.349 127.404 134.194 126.993 133.205 127.445L133.203 127.446ZM153.517 181.756C142.848 186.209 130.63 180.999 126.198 170.409C121.871 160.072 126.535 148.262 136.638 143.757C146.872 139.194 159.144 143.685 164.035 154.069C169.048 164.713 164.331 177.242 153.517 181.756Z" fill="white"/>
<path d="M121.418 65.9791L117.461 68.7639C116.83 69.2083 116.643 70.0337 117.044 70.6088L118.503 72.7062C117.564 73.6123 116.71 74.5766 115.952 75.592L113.566 74.5776C112.907 74.2977 112.093 74.6154 111.747 75.2876L109.573 79.4964C109.225 80.1707 109.474 80.9491 110.13 81.2372L112.497 82.273C112.109 83.4754 111.83 84.7023 111.655 85.9394L108.98 86.2449C108.237 86.3297 107.654 86.9937 107.679 87.7292L107.835 92.3477C107.861 93.0904 108.487 93.6277 109.237 93.548L111.909 93.2631C112.171 94.4624 112.549 95.6422 113.037 96.7946L110.752 98.3719C110.111 98.8142 109.917 99.6703 110.318 100.285L112.844 104.16C113.251 104.784 114.107 104.93 114.754 104.486L117.067 102.9C117.948 103.815 118.903 104.644 119.924 105.369L118.651 107.867C118.292 108.571 118.559 109.406 119.248 109.733L123.591 111.796C124.291 112.128 125.152 111.821 125.512 111.109L126.804 108.564C128.069 108.898 129.372 109.122 130.694 109.231L130.846 112.051C130.889 112.84 131.571 113.425 132.372 113.358L137.411 112.936C138.221 112.868 138.84 112.168 138.791 111.374L138.616 108.519C139.917 108.173 141.204 107.71 142.462 107.132L144.107 109.495C144.563 110.149 145.487 110.308 146.172 109.848L150.468 106.962C151.157 106.499 151.339 105.594 150.875 104.942L149.185 102.569C150.182 101.615 151.086 100.595 151.881 99.517L154.615 100.714C155.366 101.043 156.27 100.72 156.633 99.9931L158.903 95.4543C159.266 94.73 158.948 93.8821 158.195 93.5613L155.426 92.3835C155.796 91.1208 156.051 89.8357 156.188 88.5424L159.256 88.2155C160.087 88.1266 160.709 87.4227 160.645 86.6433L160.246 81.796C160.182 81.0247 159.461 80.4771 158.636 80.5711L155.586 80.9195C155.256 79.715 154.808 78.5382 154.248 77.3981L156.769 75.6697C157.446 75.2048 157.622 74.3345 157.16 73.7266L154.295 69.954C153.84 69.3554 152.929 69.245 152.259 69.7078L149.769 71.4271C148.841 70.5761 147.846 69.8182 146.795 69.1624L148.101 66.5869C148.453 65.8933 148.157 65.1046 147.442 64.8258L143.004 63.0932C142.299 62.8184 141.446 63.1514 141.096 63.8369L139.8 66.3807C138.56 66.1232 137.294 65.972 136.016 65.925L135.852 63.2311C135.808 62.5048 135.146 62.0022 134.374 62.1064L129.579 62.7581C128.817 62.8613 128.231 63.5294 128.27 64.2506L128.413 66.8995C127.189 67.2653 125.982 67.7393 124.803 68.3103L123.305 66.2049C122.897 65.6318 122.052 65.5306 121.418 65.9771V65.9791ZM141.357 98.6325C134.577 103.238 125.613 101.759 121.371 95.4747C117.213 89.3157 119.127 80.7713 125.61 76.254C132.138 71.705 141.008 72.8266 145.46 78.8968C150.004 85.0915 148.186 93.9935 141.357 98.6325Z" fill="white"/>
<mask id="mask3_2194_7798" style="mask-type:luminance" maskUnits="userSpaceOnUse" x="3" y="123" width="167" height="157">
<path d="M29.9901 261.463C5.65856 236.606 -8.16115 157.216 16.1663 133.528C40.1261 110.197 145.669 129.194 163.395 158.065C187.578 197.452 136.964 239.222 114.452 262.396C91.6057 285.912 53.8426 285.83 29.9901 261.463Z" fill="white"/>
</mask>
<g mask="url(#mask3_2194_7798)">
<path d="M151.655 175.326C151.655 175.326 150.526 169.723 151.906 168.594C153.286 167.465 157.844 159.604 157.634 161.82C157.425 164.036 156.463 166.88 156.463 166.88C156.463 166.88 160.77 167.297 159.683 169.848C158.597 172.399 155.859 172.54 156.078 173.85C156.297 175.158 151.824 179.883 151.656 175.326H151.655Z" fill="white"/>
<path d="M150.67 174.228C152.803 174.078 154.936 173.93 157.069 173.781C162.101 194.114 158.492 213.838 147.135 221.092C129.391 232.425 96.4179 211.073 89.2721 187.824C86.1359 177.619 86.8499 162.891 93.1183 160.03C94.858 159.235 97.558 159.112 103.408 162.397C120.878 172.205 121.337 190.743 130.219 192.313C134.168 193.011 140.545 190.494 150.671 174.228H150.67Z" fill="url(#paint3_linear_2194_7798)"/>
<path d="M79.9862 299.96H103.225C102.13 280.27 102.144 262.019 102.815 245.48C91.9548 247.16 81.0946 248.841 70.2354 250.521C71.7861 271.748 75.9347 287.789 79.5837 298.762C79.7175 299.166 79.8524 299.564 79.9862 299.96Z" fill="url(#paint4_linear_2194_7798)"/>
<path style="mix-blend-mode:multiply" opacity="0.3" d="M79.9862 299.961H93.571C92.1561 292.457 87.4988 287.85 84.9827 282.474C81.8925 275.869 80.7085 265.26 89.0373 247.613C82.77 248.582 76.5027 249.552 70.2344 250.522C71.7851 271.749 75.9337 287.79 79.5827 298.763C79.7165 299.167 79.8524 299.566 79.9862 299.961Z" fill="url(#paint5_linear_2194_7798)"/>
<path d="M73.6865 299.961C75.4374 281.13 77.314 262.544 79.3061 244.21C57.8226 242.04 50.0362 249.29 47.5201 252.212C40.3896 260.49 41.8872 274.072 45.9776 299.96H73.6865V299.961Z" fill="url(#paint6_linear_2194_7798)"/>
<path d="M21.9024 169.538C31.3702 163.518 39.8533 158.822 49.9525 156.591C58.9218 154.61 65.7152 155.239 74.1227 155.877C90.4044 157.114 100.584 157.888 107.266 165.556C113.176 172.337 113.305 181.138 113.346 183.012C113.509 190.558 110.574 194.409 108.418 200.664C104.946 210.729 108.459 212.616 109.478 239.379C109.478 239.379 110.49 271.13 102.4 275.966C98.9375 278.036 95.9851 285.15 78.3172 283.399C66.4701 282.224 62.6178 282.007 56.6182 284.038C48.4487 286.802 45.2226 281.503 41.8515 279.993C38.6193 278.545 38.2086 272.965 37.8184 263.237C37.2167 248.232 37.2534 238.031 37.1972 234.38C36.9429 217.629 32.7003 204.839 27.2687 188.458C23.8709 178.213 24.6351 175.367 21.9014 169.539L21.9024 169.538Z" fill="url(#paint7_linear_2194_7798)"/>
<path style="mix-blend-mode:multiply" opacity="0.4" d="M95.5339 267.271C86.8445 263.562 86.8945 255.889 78.7782 252.687C67.4062 248.2 52.9592 257.075 52.4035 255.789C51.7865 254.361 73.0136 248.751 79.0398 232.963C81.3301 226.964 81.9246 218.183 77.6075 214.48C72.4588 210.063 65.3324 217.166 57.3274 213.212C48.1232 208.666 49.7127 195.407 41.864 193.186C37.7063 192.01 33.2778 194.604 30.0977 197.085C34.1114 209.621 36.9891 220.675 37.1975 234.378C37.2527 238.029 37.2159 248.229 37.8186 263.235C38.2089 272.964 38.6206 278.542 41.8518 279.991C45.2219 281.501 48.1293 284.017 56.2987 281.253C62.2984 279.223 67.1079 280.078 78.955 281.253C96.6219 283.004 98.9367 278.035 102.398 275.965C104.653 274.618 105.725 272.591 106.443 268.699C102.901 269.081 99.1441 268.811 95.5319 267.27L95.5339 267.271Z" fill="url(#paint8_linear_2194_7798)"/>
<path d="M40.1515 211.492C40.1515 211.492 38.2728 185.956 55.5536 185.134C72.8344 184.312 102.11 173.593 106.444 187.787C110.777 201.979 111.834 257.992 109.803 265.135C107.772 272.277 101.395 287.172 93.189 284.822C84.9828 282.473 39.6499 291.95 37.6466 282.489C35.6433 273.029 29.6324 219.626 40.1515 211.492Z" fill="#2D4675"/>
<path d="M72.5321 139.283C72.3421 143.495 71.6945 146.808 71.1285 149.071C70.4798 151.663 70.0763 152.32 69.5798 152.844C68.831 153.634 67.7267 154.269 61.6137 155.443C58.2875 156.082 57.8666 156.037 57.7767 156.358C57.3384 157.929 66.0003 163.823 75.318 163.012C81.0203 162.515 86.3427 159.561 86.1169 157.849C85.8901 156.126 80.1877 156.739 78.6666 153.561C77.6093 151.351 79.0865 148.372 80.7741 145.93C79.4206 143.031 73.8857 142.181 72.5321 139.282V139.283Z" fill="white"/>
<path d="M82.9484 141.509C84.3786 139.806 84.6268 136.713 83.1925 134.673C81.9574 132.917 79.8867 132.565 78.6466 132.355C75.0527 131.744 70.4097 133.01 68.6455 136.253C67.6004 138.175 69.4157 142.381 69.6946 143.135C70.0113 143.987 70.6498 144.308 71.2208 144.97C72.0125 145.888 73.2507 147.347 75.2693 149.785C75.4726 149.108 75.7709 148.273 76.2224 147.375C76.3961 147.029 77.0917 145.68 78.0939 144.584C80.1013 142.387 81.5938 143.123 82.9504 141.51L82.9484 141.509Z" fill="url(#paint9_linear_2194_7798)"/>
<path d="M72.3162 147.666C72.3162 147.666 74.4849 151.693 79.2342 151.638C83.4859 151.588 84.6148 142.119 82.0159 139.957C81.1486 139.236 79.3547 138.86 77.8632 139.194C76.9816 139.391 76.668 139.737 75.2215 140.03C73.8873 140.302 73.5236 140.135 73.1079 140.449C72.5889 140.841 72.1701 141.846 72.8515 144.669C72.0863 143.808 71.1332 143.441 70.4283 143.729C70.3159 143.775 70.0146 143.958 69.8348 144.249C69.184 145.302 70.1024 146.741 72.3172 147.667L72.3162 147.666Z" fill="white"/>
<path d="M72.947 139.871C73.1431 140.035 72.4781 140.763 72.3739 141.84C72.1716 143.93 74.1576 146.557 76.309 146.886C77.5808 147.081 77.9741 146.329 80.099 146.218C81.4147 146.15 82.4956 146.375 83.1728 146.562C83.7143 148.894 82.9675 151.151 81.3749 152.132C79.6607 153.188 77.5859 152.381 76.7186 152.043C76.1384 151.818 74.2791 151.098 73.3822 149.31C72.4485 147.446 73.5181 146.409 72.4005 145.123C71.8366 144.475 71.0683 144.165 70.3696 142.93C70.1796 142.595 70.057 142.3 69.9824 142.102C71.1378 141.002 72.662 139.635 72.947 139.871Z" fill="url(#paint10_linear_2194_7798)"/>
<path d="M81.5887 147.329C81.5887 147.329 80.6479 147.758 79.0716 147.584C78.995 147.576 78.9092 147.593 78.8969 147.633C78.853 147.781 79.8316 148.509 80.7797 148.295C81.4529 148.144 82.0035 147.543 81.9228 147.378C81.8881 147.308 81.7379 147.309 81.5887 147.328V147.329Z" fill="white"/>
<path d="M50.4463 156.486C50.4463 156.486 61.564 181.859 59.4361 189.819C57.3072 197.779 51.046 192.269 50.7957 190.641C50.5454 189.013 37.5869 160.76 37.5869 160.76C37.5869 160.76 42.5905 155.379 50.4463 156.486Z" fill="#2D4675"/>
<path d="M86.6133 156.992C86.363 157.133 95.8451 180.012 94.7183 185.2C93.5916 190.39 103.221 187.384 102.164 183.064C101.105 178.744 98.2928 160.662 96.3416 158.856C94.3904 157.049 88.21 156.091 86.6133 156.992Z" fill="#2D4675"/>
<path d="M63.7246 197.621L95.5626 192.268C95.5626 192.268 99.3036 210.014 84.1906 212.271C69.0776 214.527 64.1005 205.887 63.7246 197.621Z" fill="url(#paint11_linear_2194_7798)"/>
<path d="M124.419 184.178L90.582 188.981C90.2101 189.034 89.9077 189.307 89.8178 189.671L78.3579 235.706C78.1935 236.366 79.0761 237.886 79.7421 237.744L112.863 229.737C113.201 229.666 113.47 229.41 113.561 229.077L125.97 185.933C126.144 185.294 125.074 184.085 124.419 184.178Z" fill="url(#paint12_linear_2194_7798)"/>
<path d="M125.058 185.21L91.2198 190.014C90.848 190.067 90.5456 190.34 90.4557 190.703L78.9958 236.739C78.8313 237.399 79.4157 238.004 80.0807 237.863L113.502 230.77C113.84 230.699 114.108 230.443 114.199 230.11L126.077 186.364C126.251 185.725 125.713 185.117 125.058 185.21Z" fill="url(#paint13_linear_2194_7798)"/>
<path d="M115.937 187.814L116.884 184.141C116.97 183.809 116.698 183.494 116.358 183.529L103.992 184.795C103.779 184.816 103.604 184.973 103.561 185.184L102.718 189.226C102.649 189.558 102.929 189.859 103.265 189.815L115.527 188.18C115.725 188.154 115.888 188.01 115.938 187.815L115.937 187.814Z" fill="url(#paint14_linear_2194_7798)"/>
<g style="mix-blend-mode:soft-light" opacity="0.3">
<path d="M98.6211 225.105C100.096 217.723 95.9865 213.435 99.1247 207.495C103.564 199.094 115.168 201.27 118.02 194.565C118.789 192.757 118.98 190.16 117.299 186.312L125.059 185.212C125.713 185.119 126.251 185.725 126.077 186.365L114.199 230.111C114.108 230.445 113.84 230.699 113.502 230.771L93.1895 235.082C96.5209 231.518 98.0224 228.106 98.6211 225.106V225.105Z" fill="white"/>
</g>
<path d="M73.2686 222.326C73.2686 222.326 78.2978 220.779 80.1498 219.331C82.0019 217.881 83.8969 215.664 86.8268 215.474C89.7566 215.285 92.8469 216.468 91.5331 216.947C90.2194 217.426 87.974 220.358 86.1577 221.609C84.3413 222.859 79.9537 223.404 79.1283 223.43C78.3039 223.457 75.2698 225.732 75.2698 225.732L73.2686 222.326Z" fill="white"/>
<path d="M76.2587 215.85C78.9495 218.105 80.0957 220.32 80.3542 222.371C81.4994 231.458 65.9001 242.954 51.0159 244.204C39.9983 245.128 28.9706 240.452 22.025 233.311C8.47186 219.377 7.67198 193.176 21.9024 169.539C25.5402 171.341 29.1779 173.143 32.8167 174.945C42.9599 179.969 49.077 190.863 47.5079 202.071C46.472 209.467 48.8553 216.143 53.1438 219.186C58.6204 223.07 68.2905 221.795 76.2587 215.85Z" fill="url(#paint15_linear_2194_7798)"/>
</g>
<path d="M155.209 127.361L176.75 120.606L181.67 98.5727L157.844 79.0149C156.397 77.6838 158.73 74.3116 160.688 74.1441C170.241 73.3268 180.099 76.4651 187.594 83.6732C201.09 96.6532 201.728 118.182 189.043 131.954C176.131 145.972 154.301 146.883 140.266 133.983C132.849 127.165 127.932 118.942 127.941 109.604C127.943 107.635 131.439 105.513 132.888 106.846L155.21 127.362L155.209 127.361Z" fill="url(#paint16_linear_2194_7798)"/>
<path d="M188.475 119.596L271.242 190.368C276.558 195.026 276.997 203.147 272.214 208.35C267.433 213.552 259.307 213.799 254.218 208.897L176.685 132.424L188.475 119.596Z" fill="url(#paint17_linear_2194_7798)"/>
<path d="M154.014 128.822L175.556 122.067L180.476 100.034L158.155 79.5176C156.707 78.1865 157.535 75.7726 159.494 75.605C169.047 74.7878 178.905 77.926 186.4 85.1342C199.896 98.1142 200.534 119.643 187.848 133.415C174.937 147.433 153.107 148.344 139.072 135.444C131.654 128.626 127.899 119.315 127.908 109.976C127.91 108.007 130.245 106.974 131.694 108.306L154.014 128.822Z" fill="#A3CDED"/>
<path d="M187.283 121.058L270.049 191.83C275.365 196.488 275.804 204.609 271.021 209.812C266.24 215.014 258.114 215.261 253.025 210.359L175.492 133.886L187.283 121.058Z" fill="#A3CDED"/>
<path d="M183.741 129.589C181.831 131.666 181.967 134.899 184.045 136.808C186.123 138.717 189.354 138.581 191.263 136.503C193.173 134.426 193.037 131.194 190.959 129.285C188.881 127.376 185.65 127.512 183.741 129.589Z" fill="#4B75C3"/>
<path d="M190.755 140.141L257.93 201.884C259.159 203.014 261.07 202.934 262.2 201.705C263.33 200.476 263.249 198.564 262.02 197.434L194.845 135.691L190.755 140.141Z" fill="#4B75C3"/>
</g>
<defs>
<linearGradient id="paint0_linear_2194_7798" x1="69.3127" y1="143.044" x2="234.847" y2="143.044" gradientUnits="userSpaceOnUse">
<stop stop-color="#444B8C"/>
<stop offset="1" stop-color="#26264F"/>
</linearGradient>
<linearGradient id="paint1_linear_2194_7798" x1="63.8239" y1="143.051" x2="230.056" y2="143.051" gradientUnits="userSpaceOnUse">
<stop stop-color="#444B8C"/>
<stop offset="1" stop-color="#26264F"/>
</linearGradient>
<linearGradient id="paint2_linear_2194_7798" x1="69.0314" y1="23.456" x2="229.207" y2="26.3212" gradientUnits="userSpaceOnUse">
<stop stop-color="#1B9891"/>
<stop offset="0.5" stop-color="#017E7E"/>
<stop offset="1" stop-color="#2D4675"/>
</linearGradient>
<linearGradient id="paint3_linear_2194_7798" x1="87.8184" y1="159.239" x2="161.648" y2="161.552" gradientUnits="userSpaceOnUse">
<stop stop-color="#0B5556"/>
<stop offset="0.5" stop-color="#0B5556"/>
<stop offset="1" stop-color="#2D4675"/>
</linearGradient>
<linearGradient id="paint4_linear_2194_7798" x1="124.113" y1="358.639" x2="88.8239" y2="266.047" gradientUnits="userSpaceOnUse">
<stop stop-color="#AA80F9"/>
<stop offset="1" stop-color="#6165D7"/>
</linearGradient>
<linearGradient id="paint5_linear_2194_7798" x1="117.742" y1="361.068" x2="82.4547" y2="268.475" gradientUnits="userSpaceOnUse">
<stop stop-color="#AA80F9"/>
<stop offset="1" stop-color="#6165D7"/>
</linearGradient>
<linearGradient id="paint6_linear_2194_7798" x1="108.748" y1="359.151" x2="62.3773" y2="271.579" gradientUnits="userSpaceOnUse">
<stop stop-color="#AA80F9"/>
<stop offset="1" stop-color="#6165D7"/>
</linearGradient>
<linearGradient id="paint7_linear_2194_7798" x1="22.3602" y1="154.61" x2="116.409" y2="156.482" gradientUnits="userSpaceOnUse">
<stop stop-color="#0B5556"/>
<stop offset="0.5" stop-color="#0B5556"/>
<stop offset="1" stop-color="#2D4675"/>
</linearGradient>
<linearGradient id="paint8_linear_2194_7798" x1="54.56" y1="265.252" x2="118.702" y2="117.042" gradientUnits="userSpaceOnUse">
<stop stop-color="#FF9085"/>
<stop offset="1" stop-color="#FB6FBB"/>
</linearGradient>
<linearGradient id="paint9_linear_2194_7798" x1="68.3237" y1="140.994" x2="84.1528" y2="140.994" gradientUnits="userSpaceOnUse">
<stop stop-color="#311944"/>
<stop offset="1" stop-color="#893976"/>
</linearGradient>
<linearGradient id="paint10_linear_2194_7798" x1="69.9824" y1="146.25" x2="83.3486" y2="146.25" gradientUnits="userSpaceOnUse">
<stop stop-color="#311944"/>
<stop offset="1" stop-color="#893976"/>
</linearGradient>
<linearGradient id="paint11_linear_2194_7798" x1="63.8864" y1="192.167" x2="96.9979" y2="193.645" gradientUnits="userSpaceOnUse">
<stop stop-color="#1B9891"/>
<stop offset="0.5" stop-color="#017E7E"/>
<stop offset="1" stop-color="#2D4675"/>
</linearGradient>
<linearGradient id="paint12_linear_2194_7798" x1="118.256" y1="223.201" x2="96.269" y2="206.525" gradientUnits="userSpaceOnUse">
<stop stop-color="#26264F"/>
<stop offset="1" stop-color="#444B8C"/>
</linearGradient>
<linearGradient id="paint13_linear_2194_7798" x1="82.9147" y1="203.552" x2="134.552" y2="224.608" gradientUnits="userSpaceOnUse">
<stop stop-color="#26264F"/>
<stop offset="1" stop-color="#444B8C"/>
</linearGradient>
<linearGradient id="paint14_linear_2194_7798" x1="110.107" y1="212.242" x2="109.736" y2="180.991" gradientUnits="userSpaceOnUse">
<stop stop-color="#AA80F9"/>
<stop offset="1" stop-color="#6165D7"/>
</linearGradient>
<linearGradient id="paint15_linear_2194_7798" x1="11.8876" y1="169.168" x2="82.6962" y2="171.007" gradientUnits="userSpaceOnUse">
<stop stop-color="#0B5556"/>
<stop offset="0.5" stop-color="#0B5556"/>
<stop offset="1" stop-color="#2D4675"/>
</linearGradient>
<linearGradient id="paint16_linear_2194_7798" x1="174.981" y1="90.8901" x2="106.157" y2="219.391" gradientUnits="userSpaceOnUse">
<stop stop-color="#40447E"/>
<stop offset="1" stop-color="#3C3B6B"/>
</linearGradient>
<linearGradient id="paint17_linear_2194_7798" x1="246.677" y1="129.289" x2="177.846" y2="257.802" gradientUnits="userSpaceOnUse">
<stop stop-color="#40447E"/>
<stop offset="1" stop-color="#3C3B6B"/>
</linearGradient>
<clipPath id="clip0_2194_7798">
<rect width="290" height="285" fill="white"/>
</clipPath>
</defs>
</svg>
