<svg width="240" height="61" viewBox="0 0 240 61" fill="none" xmlns="http://www.w3.org/2000/svg">
<path d="M61.2031 11.4837V1.27417H63.0849C65.3788 1.27417 66.6565 2.33188 66.6565 4.14509C66.6565 5.95831 65.3788 7.01602 63.3747 7.01602H62.3705V11.4837H61.2031ZM62.3746 5.97056H63.3094C64.7258 5.97056 65.5217 5.32123 65.5217 4.12876C65.5217 2.93628 64.7543 2.3278 63.2277 2.3278H62.3746V5.97056Z" fill="black"/>
<path d="M70.5626 4.98218C72.4607 4.98218 73.971 6.45644 73.971 8.32683C73.971 10.1972 72.4607 11.6592 70.5341 11.6592C68.6074 11.6592 67.1543 10.185 67.1543 8.27374C67.1543 6.55445 68.5707 4.98218 70.5626 4.98218ZM70.5341 10.6709C71.8688 10.6709 72.8403 9.71124 72.8403 8.32683C72.8403 6.94241 71.877 5.97046 70.5463 5.97046C69.2156 5.97046 68.2809 6.98733 68.2809 8.28599C68.2809 9.68265 69.2156 10.6709 70.5341 10.6709Z" fill="black"/>
<path d="M75.7141 5.11701L77.6244 9.42136L79.6286 4.62695L81.6491 9.42136L83.5716 5.11701H84.8207L81.6205 11.9125L79.6286 7.18751L77.6366 11.9125L74.4609 5.11701H75.71H75.7141Z" fill="black"/>
<path d="M86.5107 8.53108C86.5637 9.82974 87.3883 10.671 88.5598 10.671C89.4251 10.671 89.9476 10.332 90.5517 9.34376L91.4864 9.85832C90.7721 11.0631 89.7965 11.6593 88.5189 11.6593C86.6209 11.6593 85.3433 10.279 85.3433 8.34323C85.3433 6.4075 86.5801 4.98633 88.4618 4.98633C90.3435 4.98633 91.5395 6.31357 91.5395 8.34323V8.53108H86.5107ZM90.3721 7.60814C90.1802 6.61986 89.4373 5.97053 88.474 5.97053C87.5107 5.97053 86.7433 6.67294 86.576 7.60814H90.368H90.3721Z" fill="black"/>
<path d="M93.2295 5.11692H94.3438V5.80709C94.6336 5.46813 94.8663 5.25169 95.0459 5.12917C95.25 5.01891 95.499 4.96582 95.8011 4.96582C96.1031 4.96582 96.446 5.05975 96.7889 5.23535L96.2541 6.22364C96.0337 6.07662 95.8296 6.00719 95.6215 6.00719C94.7153 6.00719 94.3438 6.64427 94.3438 8.11853V11.4754H93.2295V5.11284V5.11692Z" fill="black"/>
<path d="M98.4091 8.53108C98.4622 9.82974 99.2867 10.671 100.458 10.671C101.324 10.671 101.846 10.332 102.45 9.34376L103.385 9.85832C102.671 11.0631 101.695 11.6593 100.417 11.6593C98.5193 11.6593 97.2417 10.279 97.2417 8.34323C97.2417 6.4075 98.4785 4.98633 100.36 4.98633C102.242 4.98633 103.438 6.31357 103.438 8.34323V8.53108H98.4091ZM102.271 7.60814C102.079 6.61986 101.336 5.97053 100.372 5.97053C99.4092 5.97053 98.6418 6.67294 98.4744 7.60814H102.266H102.271Z" fill="black"/>
<path d="M110.046 0.310303H111.161V11.4795H110.046V10.5974C109.454 11.2999 108.711 11.6552 107.805 11.6552C106.034 11.6552 104.715 10.2217 104.715 8.29825C104.715 6.37477 106.022 4.98219 107.793 4.98219C108.687 4.98219 109.442 5.32115 110.046 6.02357V0.310303ZM107.956 10.671C109.263 10.671 110.116 9.67041 110.116 8.30234C110.116 6.93426 109.222 5.97456 107.973 5.97456C106.805 5.97456 105.842 6.90975 105.842 8.2615C105.842 9.61324 106.707 10.671 107.956 10.671Z" fill="black"/>
<path d="M118.635 0.310303V6.02357C119.239 5.32115 119.994 4.98219 120.888 4.98219C122.647 4.98219 123.966 6.39111 123.966 8.29825C123.966 10.2054 122.647 11.6552 120.859 11.6552C119.966 11.6552 119.223 11.3039 118.635 10.5974V11.4795H117.521V0.310303H118.635ZM120.737 5.97048C119.472 5.97048 118.553 6.90567 118.553 8.29825C118.553 9.69083 119.459 10.6669 120.708 10.6669C121.957 10.6669 122.839 9.63774 122.839 8.33909C122.839 7.04044 121.933 5.97048 120.737 5.97048Z" fill="black"/>
<path d="M127.439 10.8874L124.472 5.12109H125.762L128.027 9.68272L130.117 5.12109H131.366L126.611 15.0611H125.345L127.435 10.8915L127.439 10.8874Z" fill="black"/>
<path d="M138.954 11.4837H136.934V1.27417H140.04C141.264 1.27417 142.322 1.53145 142.967 2.33188C143.42 2.89953 143.75 3.57744 143.75 4.51264C143.75 6.40753 142.583 7.69393 140.26 7.69393H138.954V11.4837ZM138.954 5.97056H139.779C141.044 5.97056 141.677 5.48459 141.677 4.50855C141.677 3.45085 141.06 3.00571 139.656 3.00571H138.954V5.97056Z" fill="black"/>
<path d="M146.84 4.84741V8.61269C146.84 9.61323 147.293 10.1155 148.199 10.1155C149.105 10.1155 149.575 9.61323 149.575 8.61269V4.84741H151.457V8.92306C151.457 10.6954 150.289 11.6837 148.199 11.6837C146.109 11.6837 144.942 10.6954 144.942 8.92306V4.84741H146.84Z" fill="black"/>
<path d="M155.134 0V5.70101C155.767 4.99859 156.51 4.63105 157.375 4.63105C159.228 4.63105 160.645 6.14615 160.645 8.1513C160.645 10.1565 159.245 11.6838 157.334 11.6838C156.441 11.6838 155.714 11.3326 155.134 10.6138V11.4796H153.236V0H155.134ZM156.828 6.3095C155.755 6.3095 154.93 7.16302 154.93 8.16355C154.93 9.16409 155.783 10.0176 156.828 10.0176C157.873 10.0176 158.71 9.15184 158.71 8.17581C158.71 7.14668 157.898 6.30542 156.828 6.30542V6.3095Z" fill="black"/>
<path d="M163.874 0V8.42083C163.874 9.44996 164.053 10.0462 164.751 10.0462C164.833 10.0462 164.915 10.0339 165.012 10.0176V11.643C164.808 11.6716 164.559 11.6838 164.38 11.6838C162.702 11.6838 161.976 10.5322 161.976 9.00482V0H163.874Z" fill="black"/>
<path d="M167.074 0.935303C167.69 0.935303 168.2 1.43761 168.2 2.0461C168.2 2.65459 167.69 3.1569 167.074 3.1569C166.457 3.1569 165.947 2.65459 165.947 2.0461C165.947 1.43761 166.457 0.935303 167.074 0.935303ZM168.025 4.8476V11.4838H166.127V4.8476H168.025Z" fill="black"/>
<path d="M174.837 6.86495C174.343 6.48516 173.833 6.30955 173.298 6.30955C172.213 6.30955 171.376 7.08139 171.376 8.16361C171.376 9.24582 172.2 10.0177 173.298 10.0177C173.85 10.0177 174.356 9.8298 174.837 9.46226V11.2918C174.262 11.5491 173.682 11.6839 173.107 11.6839C171.004 11.6839 169.425 10.1688 169.425 8.19219C169.425 6.21562 171.017 4.6311 173.135 4.6311C173.752 4.6311 174.315 4.76587 174.837 5.0354V6.86495Z" fill="black"/>
<path d="M177.189 0.935303C177.805 0.935303 178.315 1.43761 178.315 2.0461C178.315 2.65459 177.805 3.1569 177.189 3.1569C176.572 3.1569 176.062 2.65459 176.062 2.0461C176.062 1.43761 176.572 0.935303 177.189 0.935303ZM178.136 4.8476V11.4838H176.238V4.8476H178.136Z" fill="black"/>
<path d="M183.589 6.39112C183.205 6.10525 182.834 5.95823 182.475 5.95823C182.062 5.95823 181.748 6.20326 181.748 6.51363C181.748 6.824 181.928 6.94652 182.822 7.25689C184.389 7.80004 184.871 8.25742 184.871 9.31513C184.871 10.7118 183.703 11.696 182.054 11.696C181.026 11.696 180.173 11.3325 179.499 10.5975L180.475 9.45807C180.997 9.97263 181.532 10.2422 182.067 10.2422C182.548 10.2422 182.92 9.93179 182.92 9.51116C182.92 9.14361 182.769 8.98434 181.891 8.66989C180.254 8.10224 179.928 7.66935 179.928 6.70557C179.928 5.41917 180.985 4.59424 182.332 4.59424C183.156 4.59424 183.883 4.82293 184.532 5.29666L183.597 6.37887L183.589 6.39112Z" fill="black"/>
<path d="M195.802 3.58965C195.292 3.0465 194.728 2.77697 194.112 2.77697C193.328 2.77697 192.655 3.25069 192.655 3.91636C192.655 4.47176 192.985 4.74129 194.235 5.19051C196.667 6.07261 197.214 6.97922 197.214 8.3718C197.214 10.3484 195.728 11.7287 193.602 11.7287C192.132 11.7287 190.949 11.0794 190.042 9.79297L191.349 8.54741C191.83 9.45401 192.557 9.91549 193.532 9.91549C194.439 9.91549 195.141 9.31925 195.141 8.48207C195.141 7.76331 194.867 7.45294 193.137 6.8322C191.185 6.14204 190.581 5.41103 190.581 4.08379C190.581 2.40534 191.928 1.10669 193.81 1.10669C194.965 1.10669 195.965 1.48648 196.847 2.24607L195.802 3.6019V3.58965Z" fill="black"/>
<path d="M203.855 4.84761H205.753V11.4838H203.855V10.618C203.28 11.3368 202.549 11.688 201.655 11.688C199.757 11.688 198.345 10.1566 198.345 8.15551C198.345 6.15443 199.745 4.63525 201.614 4.63525C202.492 4.63525 203.235 4.99871 203.855 5.70521V4.8517V4.84761ZM202.178 6.30962C201.12 6.30962 200.296 7.13455 200.296 8.16367C200.296 9.1928 201.12 10.0177 202.178 10.0177C203.182 10.0177 204.059 9.17646 204.059 8.17592C204.059 7.17539 203.206 6.30554 202.178 6.30554V6.30962Z" fill="black"/>
<path d="M209.431 15.0163H207.533V4.84755H209.431V5.70106C210.007 4.99865 210.737 4.6311 211.631 4.6311C213.529 4.6311 214.942 6.17479 214.942 8.16361C214.942 10.1524 213.513 11.6839 211.672 11.6839C210.795 11.6839 210.052 11.3327 209.431 10.6139V15.0163ZM211.121 6.30955C210.048 6.30955 209.223 7.16307 209.223 8.16361C209.223 9.16414 210.076 10.0177 211.121 10.0177C212.166 10.0177 213.003 9.16414 213.003 8.17586C213.003 7.18757 212.191 6.30547 211.121 6.30547V6.30955Z" fill="black"/>
<path d="M217.305 0.935303C217.921 0.935303 218.431 1.43761 218.431 2.0461C218.431 2.65459 217.921 3.1569 217.305 3.1569C216.688 3.1569 216.178 2.65459 216.178 2.0461C216.178 1.43761 216.688 0.935303 217.305 0.935303ZM218.252 4.8476V11.4838H216.354V4.8476H218.252Z" fill="black"/>
<path d="M221.575 8.46173C221.575 9.57252 222.191 10.2504 223.236 10.2504C223.897 10.2504 224.432 9.95232 224.828 9.35608L226.559 9.64195C225.983 11.01 224.881 11.6879 223.26 11.6879C221.06 11.6879 219.648 10.2913 219.648 8.17994C219.648 6.06861 220.966 4.6311 223.166 4.6311C225.367 4.6311 226.616 6.02777 226.616 8.22078V8.46581H221.575V8.46173ZM224.832 7.28559C224.611 6.40348 224.077 5.95834 223.224 5.95834C222.371 5.95834 221.807 6.43207 221.656 7.28559H224.832Z" fill="black"/>
<path d="M228.061 4.84755H229.959V5.67248C230.51 4.98231 231.208 4.6311 232.061 4.6311C233.42 4.6311 234.563 5.40295 234.563 7.19166V11.4838H232.665V7.84099C232.665 6.73019 232.351 6.21563 231.387 6.21563C230.424 6.21563 229.959 6.79961 229.959 8.04518V11.4838H228.061V4.84755Z" fill="black"/>
<path d="M235.616 6.44417V4.8474H236.359V2.58496H238.257V4.8474H239.576V6.44417H238.257V8.42074C238.257 9.44986 238.38 10.0461 239.082 10.0461C239.204 10.0461 239.331 10.0338 239.425 10.0175V11.6429C239.22 11.6715 238.833 11.6837 238.629 11.6837C237.159 11.6837 236.363 10.6137 236.363 9.08232V6.44009H235.62L235.616 6.44417Z" fill="black"/>
<path d="M28.4872 20.9132C27.2994 19.8106 26.6912 18.4139 26.6912 16.7886V13.7584C26.6912 12.1249 27.3075 10.72 28.5117 9.61331L29.1648 8.89456C30.2015 7.9512 31.471 7.46931 32.9119 7.46931H35.9406C37.5733 7.46931 38.9775 8.08596 40.0837 9.29069C41.0796 10.377 42.5124 11.0549 44.1043 11.0549C47.1208 11.0549 49.5658 8.60869 49.5658 5.59483C49.5658 2.58097 47.1167 0.130682 44.1043 0.130682C42.5124 0.130682 41.0837 0.81268 40.0837 1.89489C38.9775 3.09553 37.5733 3.71628 35.9406 3.71628H32.9119C31.4669 3.71628 30.2015 3.23438 29.1607 2.28694C28.4708 1.38033 27.5075 0.698333 26.3932 0.359376C26.3932 0.359376 23.2747 -0.763674 20.9521 1.6662C20.9521 1.67028 20.9439 1.67437 20.9398 1.67845C20.9072 1.71112 20.8705 1.74379 20.8378 1.78055C19.3438 3.27522 17.654 3.62643 16.6498 3.69177V3.67544H15.7641H13.6211C11.9884 3.67544 10.5842 3.05878 9.47803 1.85405C8.48207 0.771842 7.04934 0.0898438 5.45742 0.0898438C2.44502 0.0898438 0 2.53605 0 5.55399C0 8.57194 2.44502 11.0181 5.45742 11.0181C7.04934 11.0181 8.47798 10.3361 9.47803 9.25393C9.56783 9.15592 9.6658 9.05791 9.75968 8.96807L10.1515 8.62503C11.1353 7.83685 12.3027 7.43663 13.6211 7.43663H16.1274C18.103 7.51423 18.654 7.86135 18.654 7.86135C22.144 9.57247 22.7726 12.2882 22.8665 13.5501C22.8665 13.6236 22.8665 13.693 22.8665 13.7666V16.7967C22.8665 19.8841 19.7643 23.0858 16.6457 23.0858H13.617C11.9843 23.0858 10.5801 22.4692 9.47395 21.2644C8.47798 20.1782 7.04526 19.5002 5.45334 19.5002C2.44502 19.4962 0 21.9424 0 24.9562C0 27.9742 2.44502 30.4204 5.45742 30.4204C7.04934 30.4204 8.47798 29.7384 9.47803 28.6562C10.5842 27.4555 11.9884 26.8348 13.6211 26.8348H16.6498C19.7561 26.8348 22.8706 30.0406 22.8706 33.1239V36.1541C22.8706 39.2823 19.8092 42.4431 16.6498 42.4431H13.6211C11.9884 42.4431 10.5842 41.8265 9.47803 40.6217C8.48207 39.5355 7.04934 38.8575 5.45742 38.8575C2.44502 38.8575 0 41.3037 0 44.3217C0 47.3396 2.44502 49.7818 5.45742 49.7818C7.04934 49.7818 8.47798 49.0998 9.47803 48.0175C10.5842 46.8169 11.9884 46.1962 13.6211 46.1962H16.6498C18.0948 46.1962 19.3602 46.6781 20.397 47.6214C21.3929 48.9323 22.9726 49.7818 24.7441 49.7818H24.7809H24.8135C27.83 49.7818 30.2709 47.3355 30.2709 44.3217C30.2709 42.729 29.5893 41.2997 28.5076 40.2991C27.3075 39.1924 26.6871 37.7876 26.6871 36.1541V33.1239C26.6871 31.4944 27.2994 30.0937 28.4913 28.991L28.5035 28.9788H28.5076L28.5239 28.9584L28.5402 28.942L28.5525 28.9298H28.5566L28.5729 28.9094L28.5892 28.893L28.5974 28.8849L28.6055 28.8767L28.6219 28.8603L28.6382 28.844L28.6464 28.8358L28.6545 28.8277L28.6709 28.8113L28.6872 28.795L28.6953 28.7868L28.7035 28.7787L28.7198 28.7623L28.7362 28.746L28.7443 28.7378L28.7525 28.7297L28.7688 28.7133L28.7851 28.697V28.6888L28.8015 28.6766L28.8178 28.6602L28.8341 28.6439H28.8382L28.8505 28.6276L28.8668 28.6112L28.8831 28.5949L28.8954 28.5786L28.9117 28.5622L28.928 28.5459L28.9403 28.5296L28.9566 28.5132L28.9852 28.4765L29.0015 28.4561L29.0178 28.4397L29.0301 28.4193L29.0464 28.403L29.0627 28.3866L29.079 28.3662L29.0954 28.3458L29.1239 28.309L29.1362 28.2886L29.1484 28.2723C30.1852 27.3289 31.4547 26.847 32.8956 26.847H35.9243C37.557 26.847 38.9612 27.4637 40.0674 28.6684C41.0633 29.7547 42.496 30.4326 44.088 30.4326C47.1044 30.4326 49.5495 27.9864 49.5495 24.9685C49.5495 21.9505 47.1044 19.5084 44.088 19.5084C42.496 19.5084 41.0674 20.1904 40.0674 21.2726C38.9612 22.4733 37.557 23.094 35.9243 23.094H32.8956C31.4506 23.094 30.1852 22.6121 29.1484 21.6687C29.1484 21.6687 28.5892 21.0643 28.4708 20.9296L28.4872 20.9132Z" fill="#5E2FFB"/>
<path d="M67.2525 39.1556C67.2525 42.8351 69.2689 45.0771 72.6772 45.0771C74.8284 45.0771 76.5795 44.0888 77.8775 42.1163L83.5268 43.0597C81.6451 47.5887 78.0571 49.8307 72.767 49.8307C65.5953 49.8307 60.9746 45.2119 60.9746 38.2122C60.9746 31.2125 65.2769 26.459 72.4527 26.459C79.6286 26.459 83.7064 31.0778 83.7064 38.347V39.1556H67.2525ZM77.8775 35.2514C77.1591 32.3356 75.4121 30.8573 72.6323 30.8573C69.8526 30.8573 68.0158 32.4254 67.5219 35.2514H77.8775Z" fill="black"/>
<path d="M102.703 31.4413V49.157H99.1156V31.4413H97.0991V28.0763H99.1156V21.5993C99.1156 16.3966 101.042 14.0198 105.349 14.0198C106.112 14.0198 107.006 14.1995 107.994 14.469V18.1036C107.006 17.7891 106.247 17.6095 105.618 17.6095C103.287 17.6095 102.703 18.5977 102.703 22.4529V28.0763H107.994V31.4413H102.703Z" fill="black"/>
<path d="M119.133 27.627C125.321 27.627 130.252 32.5153 130.252 38.7064C130.252 44.8974 125.321 49.7408 119.043 49.7408C112.765 49.7408 108.014 44.8525 108.014 38.5267C108.014 32.8297 112.63 27.627 119.133 27.627ZM119.043 46.4656C123.39 46.4656 126.574 43.2802 126.574 38.7064C126.574 34.1325 123.435 30.9022 119.088 30.9022C114.741 30.9022 111.691 34.2672 111.691 38.5716C111.691 43.1904 114.741 46.4656 119.043 46.4656Z" fill="black"/>
<path d="M143.134 27.627C149.322 27.627 154.253 32.5153 154.253 38.7064C154.253 44.8974 149.322 49.7408 143.044 49.7408C136.766 49.7408 132.015 44.8525 132.015 38.5267C132.015 32.8297 136.632 27.627 143.134 27.627ZM143.044 46.4656C147.391 46.4656 150.575 43.2802 150.575 38.7064C150.575 34.1325 147.436 30.9022 143.089 30.9022C138.742 30.9022 135.693 34.2672 135.693 38.5716C135.693 43.1904 138.742 46.4656 143.044 46.4656Z" fill="black"/>
<path d="M160.179 31.4412V40.638C160.179 45.0322 161.392 46.4697 164.616 46.4697L163.853 49.7449C159.686 49.7449 156.547 47.5927 156.547 41.2669V31.4453H154.351V28.0803H156.547V21.7258H160.179V28.0803H164.616V31.4453H160.179V31.4412Z" fill="black"/>
<path d="M171.184 60.9999H167.551V28.0762H171.184V31.0819C173.201 28.75 175.621 27.582 178.446 27.582C184.185 27.582 188.577 32.2907 188.577 38.7513C188.577 45.2119 184.409 49.7408 178.536 49.7408C175.621 49.7408 173.201 48.5729 171.184 46.241V60.9958V60.9999ZM178.001 30.8573C174.054 30.8573 170.919 34.0876 170.919 38.7513C170.919 43.1455 173.833 46.4656 178.001 46.4656C182.168 46.4656 184.903 43.0107 184.903 38.886C184.903 34.2672 181.944 30.8573 178.001 30.8573Z" fill="black"/>
<path d="M199.259 27.5823C200.292 27.5823 201.366 27.8967 202.488 28.4807L200.741 31.7559C200.023 31.2618 199.353 31.0372 198.68 31.0372C195.72 31.0372 194.512 33.1444 194.512 38.0327V49.1571H190.879V28.0764H194.512V30.3633C195.508 27.2637 199.263 27.5823 199.263 27.5823H199.259Z" fill="black"/>
<path d="M208.207 28.0762V49.1568H204.574V28.0762H208.207Z" fill="black"/>
<path d="M211.435 28.0762H215.068V30.6326C216.725 28.6152 218.746 27.582 221.077 27.582C223.407 27.582 225.379 28.3457 226.681 29.9139C227.759 31.1717 228.338 33.234 228.338 36.06V49.1568H224.705V36.7339C224.705 34.5368 224.346 33.0543 223.718 32.16C223.044 31.3065 221.926 30.8613 220.264 30.8613C216.587 30.8613 215.064 33.1932 215.064 38.6206V49.1609H211.431V28.0803L211.435 28.0762Z" fill="black"/>
<path d="M235.563 31.4412V40.638C235.563 45.0322 236.776 46.4697 240 46.4697L239.237 49.7449C235.069 49.7449 231.93 47.5927 231.93 41.2669V31.4453H229.734V28.0803H231.93V21.7258H235.563V28.0803H240V31.4453H235.563V31.4412Z" fill="black"/>
<path d="M86.4492 35.1821H95.9518V39.2659H86.4492V35.1821Z" fill="black"/>
<path d="M206.366 25.2953C207.38 25.2953 208.202 24.4725 208.202 23.4576C208.202 22.4426 207.38 21.6199 206.366 21.6199C205.351 21.6199 204.529 22.4426 204.529 23.4576C204.529 24.4725 205.351 25.2953 206.366 25.2953Z" fill="black"/>
</svg>
