<svg width="240" height="61" viewBox="0 0 240 61" fill="none" xmlns="http://www.w3.org/2000/svg">
<g clip-path="url(#clip0_2194_7270)">
<path d="M61.2031 11.484V1.27441H63.0849C65.3788 1.27441 66.6565 2.33212 66.6565 4.14534C66.6565 5.95855 65.3788 7.01626 63.3747 7.01626H62.3705V11.484H61.2031ZM62.3746 5.97081H63.3094C64.7258 5.97081 65.5217 5.32148 65.5217 4.129C65.5217 2.93653 64.7543 2.32804 63.2277 2.32804H62.3746V5.97081Z" fill="black"/>
<path d="M70.5626 4.98242C72.4607 4.98242 73.971 6.45668 73.971 8.32707C73.971 10.1975 72.4607 11.6595 70.5341 11.6595C68.6074 11.6595 67.1543 10.1852 67.1543 8.27398C67.1543 6.55469 68.5707 4.98242 70.5626 4.98242ZM70.5341 10.6712C71.8688 10.6712 72.8403 9.71148 72.8403 8.32707C72.8403 6.94265 71.877 5.97071 70.5463 5.97071C69.2156 5.97071 68.2809 6.98758 68.2809 8.28623C68.2809 9.6829 69.2156 10.6712 70.5341 10.6712Z" fill="black"/>
<path d="M75.7141 5.11701L77.6244 9.42136L79.6286 4.62695L81.6491 9.42136L83.5716 5.11701H84.8207L81.6205 11.9125L79.6286 7.18751L77.6366 11.9125L74.4609 5.11701H75.71H75.7141Z" fill="black"/>
<path d="M86.5102 8.53108C86.5632 9.82974 87.3878 10.671 88.5593 10.671C89.4246 10.671 89.9471 10.332 90.5512 9.34376L91.4859 9.85832C90.7716 11.0631 89.7961 11.6593 88.5184 11.6593C86.6204 11.6593 85.3428 10.279 85.3428 8.34323C85.3428 6.4075 86.5796 4.98633 88.4613 4.98633C90.343 4.98633 91.539 6.31357 91.539 8.34323V8.53108H86.5102ZM90.3716 7.60814C90.1798 6.61986 89.4369 5.97053 88.4735 5.97053C87.5102 5.97053 86.7428 6.67294 86.5755 7.60814H90.3675H90.3716Z" fill="black"/>
<path d="M93.2295 5.11692H94.3438V5.80709C94.6336 5.46813 94.8663 5.25169 95.0459 5.12917C95.25 5.01891 95.499 4.96582 95.8011 4.96582C96.1031 4.96582 96.446 5.05975 96.7889 5.23535L96.2541 6.22364C96.0337 6.07662 95.8296 6.00719 95.6215 6.00719C94.7153 6.00719 94.3438 6.64427 94.3438 8.11853V11.4754H93.2295V5.11284V5.11692Z" fill="black"/>
<path d="M98.4096 8.53108C98.4627 9.82974 99.2872 10.671 100.459 10.671C101.324 10.671 101.847 10.332 102.451 9.34376L103.385 9.85832C102.671 11.0631 101.695 11.6593 100.418 11.6593C98.5198 11.6593 97.2422 10.279 97.2422 8.34323C97.2422 6.4075 98.479 4.98633 100.361 4.98633C102.242 4.98633 103.438 6.31357 103.438 8.34323V8.53108H98.4096ZM102.271 7.60814C102.079 6.61986 101.336 5.97053 100.373 5.97053C99.4096 5.97053 98.6423 6.67294 98.4749 7.60814H102.267H102.271Z" fill="black"/>
<path d="M110.047 0.310547H111.161V11.4798H110.047V10.5977C109.455 11.3001 108.712 11.6554 107.806 11.6554C106.034 11.6554 104.716 10.222 104.716 8.2985C104.716 6.37502 106.022 4.98244 107.794 4.98244C108.687 4.98244 109.443 5.32139 110.047 6.02381V0.310547ZM107.957 10.6712C109.263 10.6712 110.116 9.67066 110.116 8.30258C110.116 6.9345 109.222 5.9748 107.973 5.9748C106.806 5.9748 105.842 6.91 105.842 8.26174C105.842 9.61349 106.708 10.6712 107.957 10.6712Z" fill="black"/>
<path d="M118.635 0.310547V6.02381C119.239 5.32139 119.994 4.98244 120.888 4.98244C122.647 4.98244 123.966 6.39135 123.966 8.2985C123.966 10.2056 122.647 11.6554 120.859 11.6554C119.966 11.6554 119.223 11.3042 118.635 10.5977V11.4798H117.521V0.310547H118.635ZM120.737 5.97072C119.472 5.97072 118.553 6.90591 118.553 8.2985C118.553 9.69108 119.459 10.6671 120.708 10.6671C121.957 10.6671 122.839 9.63799 122.839 8.33933C122.839 7.04068 121.933 5.97072 120.737 5.97072Z" fill="black"/>
<path d="M127.439 10.8874L124.472 5.12109H125.762L128.027 9.68272L130.117 5.12109H131.366L126.611 15.0611H125.345L127.435 10.8915L127.439 10.8874Z" fill="black"/>
<path d="M138.954 11.484H136.934V1.27441H140.04C141.264 1.27441 142.322 1.53169 142.967 2.33212C143.42 2.89977 143.75 3.57769 143.75 4.51288C143.75 6.40777 142.583 7.69418 140.26 7.69418H138.954V11.484ZM138.954 5.97081H139.779C141.044 5.97081 141.677 5.48483 141.677 4.5088C141.677 3.45109 141.06 3.00595 139.656 3.00595H138.954V5.97081Z" fill="black"/>
<path d="M146.84 4.84766V8.61294C146.84 9.61347 147.294 10.1158 148.2 10.1158C149.106 10.1158 149.575 9.61347 149.575 8.61294V4.84766H151.457V8.92331C151.457 10.6957 150.29 11.684 148.2 11.684C146.11 11.684 144.942 10.6957 144.942 8.92331V4.84766H146.84Z" fill="black"/>
<path d="M155.134 0V5.70101C155.767 4.99859 156.51 4.63105 157.375 4.63105C159.228 4.63105 160.645 6.14615 160.645 8.1513C160.645 10.1565 159.245 11.6838 157.334 11.6838C156.441 11.6838 155.714 11.3326 155.134 10.6138V11.4796H153.236V0H155.134ZM156.828 6.3095C155.755 6.3095 154.93 7.16302 154.93 8.16355C154.93 9.16409 155.783 10.0176 156.828 10.0176C157.873 10.0176 158.71 9.15184 158.71 8.17581C158.71 7.14668 157.898 6.30542 156.828 6.30542V6.3095Z" fill="black"/>
<path d="M163.874 0V8.42083C163.874 9.44996 164.053 10.0462 164.751 10.0462C164.833 10.0462 164.915 10.0339 165.012 10.0176V11.643C164.808 11.6716 164.559 11.6838 164.38 11.6838C162.702 11.6838 161.976 10.5322 161.976 9.00482V0H163.874Z" fill="black"/>
<path d="M167.074 0.935547C167.69 0.935547 168.2 1.43786 168.2 2.04635C168.2 2.65483 167.69 3.15714 167.074 3.15714C166.457 3.15714 165.947 2.65483 165.947 2.04635C165.947 1.43786 166.457 0.935547 167.074 0.935547ZM168.025 4.84785V11.4841H166.127V4.84785H168.025Z" fill="black"/>
<path d="M174.837 6.86471C174.343 6.48491 173.833 6.30931 173.298 6.30931C172.213 6.30931 171.376 7.08115 171.376 8.16336C171.376 9.24557 172.2 10.0174 173.298 10.0174C173.85 10.0174 174.356 9.82956 174.837 9.46202V11.2916C174.262 11.5488 173.682 11.6836 173.107 11.6836C171.004 11.6836 169.425 10.1685 169.425 8.19195C169.425 6.21538 171.017 4.63086 173.135 4.63086C173.752 4.63086 174.315 4.76563 174.837 5.03516V6.86471Z" fill="black"/>
<path d="M177.189 0.935547C177.805 0.935547 178.316 1.43786 178.316 2.04635C178.316 2.65483 177.805 3.15714 177.189 3.15714C176.573 3.15714 176.062 2.65483 176.062 2.04635C176.062 1.43786 176.573 0.935547 177.189 0.935547ZM178.136 4.84785V11.4841H176.238V4.84785H178.136Z" fill="black"/>
<path d="M183.589 6.39161C183.205 6.10574 182.834 5.95872 182.475 5.95872C182.062 5.95872 181.748 6.20375 181.748 6.51412C181.748 6.82449 181.928 6.94701 182.822 7.25738C184.389 7.80052 184.871 8.25791 184.871 9.31562C184.871 10.7123 183.703 11.6965 182.054 11.6965C181.026 11.6965 180.173 11.333 179.499 10.5979L180.475 9.45855C180.997 9.97312 181.532 10.2426 182.067 10.2426C182.548 10.2426 182.92 9.93228 182.92 9.51164C182.92 9.1441 182.769 8.98483 181.891 8.67038C180.254 8.10273 179.928 7.66984 179.928 6.70606C179.928 5.41966 180.985 4.59473 182.332 4.59473C183.156 4.59473 183.883 4.82342 184.532 5.29714L183.597 6.37936L183.589 6.39161Z" fill="black"/>
<path d="M195.801 3.58941C195.291 3.04626 194.728 2.77673 194.112 2.77673C193.328 2.77673 192.654 3.25045 192.654 3.91611C192.654 4.47151 192.985 4.74104 194.234 5.19026C196.667 6.07237 197.214 6.97898 197.214 8.37156C197.214 10.3481 195.728 11.7285 193.601 11.7285C192.132 11.7285 190.948 11.0791 190.042 9.79273L191.348 8.54716C191.83 9.45377 192.556 9.91524 193.532 9.91524C194.438 9.91524 195.14 9.31901 195.14 8.48182C195.14 7.76307 194.867 7.4527 193.136 6.83196C191.185 6.14179 190.581 5.41079 190.581 4.08355C190.581 2.4051 191.928 1.10645 193.81 1.10645C194.965 1.10645 195.965 1.48624 196.846 2.24583L195.801 3.60166V3.58941Z" fill="black"/>
<path d="M203.855 4.84712H205.753V11.4833H203.855V10.6176C203.28 11.3363 202.549 11.6875 201.655 11.6875C199.757 11.6875 198.345 10.1561 198.345 8.15502C198.345 6.15395 199.745 4.63477 201.614 4.63477C202.492 4.63477 203.235 4.99823 203.855 5.70473V4.85121V4.84712ZM202.178 6.30913C201.12 6.30913 200.296 7.13406 200.296 8.16318C200.296 9.19231 201.12 10.0172 202.178 10.0172C203.182 10.0172 204.059 9.17597 204.059 8.17544C204.059 7.1749 203.206 6.30505 202.178 6.30505V6.30913Z" fill="black"/>
<path d="M209.431 15.016H207.533V4.8473H209.431V5.70082C210.007 4.9984 210.737 4.63086 211.631 4.63086C213.529 4.63086 214.942 6.17454 214.942 8.16336C214.942 10.1522 213.513 11.6836 211.672 11.6836C210.795 11.6836 210.052 11.3324 209.431 10.6137V15.016ZM211.121 6.30931C210.048 6.30931 209.223 7.16283 209.223 8.16336C209.223 9.1639 210.076 10.0174 211.121 10.0174C212.166 10.0174 213.003 9.1639 213.003 8.17561C213.003 7.18733 212.191 6.30523 211.121 6.30523V6.30931Z" fill="black"/>
<path d="M217.305 0.935547C217.922 0.935547 218.432 1.43786 218.432 2.04635C218.432 2.65483 217.922 3.15714 217.305 3.15714C216.689 3.15714 216.179 2.65483 216.179 2.04635C216.179 1.43786 216.689 0.935547 217.305 0.935547ZM218.252 4.84785V11.4841H216.354V4.84785H218.252Z" fill="black"/>
<path d="M221.575 8.46148C221.575 9.57228 222.191 10.2502 223.236 10.2502C223.898 10.2502 224.432 9.95208 224.828 9.35584L226.559 9.64171C225.983 11.0098 224.881 11.6877 223.261 11.6877C221.061 11.6877 219.648 10.291 219.648 8.1797C219.648 6.06836 220.967 4.63086 223.167 4.63086C225.367 4.63086 226.616 6.02753 226.616 8.22054V8.46557H221.575V8.46148ZM224.832 7.28534C224.612 6.40324 224.077 5.9581 223.224 5.9581C222.371 5.9581 221.808 6.43182 221.657 7.28534H224.832Z" fill="black"/>
<path d="M228.061 4.8473H229.959V5.67223C230.51 4.98207 231.208 4.63086 232.061 4.63086C233.42 4.63086 234.563 5.4027 234.563 7.19141V11.4835H232.665V7.84074C232.665 6.72994 232.351 6.21538 231.387 6.21538C230.424 6.21538 229.959 6.79937 229.959 8.04493V11.4835H228.061V4.8473Z" fill="black"/>
<path d="M235.616 6.44417V4.8474H236.359V2.58496H238.257V4.8474H239.576V6.44417H238.257V8.42074C238.257 9.44986 238.38 10.0461 239.082 10.0461C239.204 10.0461 239.331 10.0338 239.425 10.0175V11.6429C239.22 11.6715 238.833 11.6837 238.629 11.6837C237.159 11.6837 236.363 10.6137 236.363 9.08232V6.44009H235.62L235.616 6.44417Z" fill="black"/>
<path d="M28.4872 20.9132C27.2994 19.8106 26.6912 18.4139 26.6912 16.7886V13.7584C26.6912 12.1249 27.3075 10.72 28.5117 9.61331L29.1648 8.89456C30.2015 7.9512 31.471 7.46931 32.9119 7.46931H35.9406C37.5733 7.46931 38.9775 8.08596 40.0837 9.29069C41.0796 10.377 42.5124 11.0549 44.1043 11.0549C47.1208 11.0549 49.5658 8.60869 49.5658 5.59483C49.5658 2.58097 47.1167 0.130682 44.1043 0.130682C42.5124 0.130682 41.0837 0.81268 40.0837 1.89489C38.9775 3.09553 37.5733 3.71628 35.9406 3.71628H32.9119C31.4669 3.71628 30.2015 3.23438 29.1607 2.28694C28.4708 1.38033 27.5075 0.698333 26.3932 0.359376C26.3932 0.359376 23.2747 -0.763674 20.9521 1.6662C20.9521 1.67028 20.9439 1.67437 20.9398 1.67845C20.9072 1.71112 20.8705 1.74379 20.8378 1.78055C19.3438 3.27522 17.654 3.62643 16.6498 3.69177V3.67544H15.7641H13.6211C11.9884 3.67544 10.5842 3.05878 9.47803 1.85405C8.48207 0.771842 7.04934 0.0898438 5.45742 0.0898438C2.44502 0.0898438 0 2.53605 0 5.55399C0 8.57194 2.44502 11.0181 5.45742 11.0181C7.04934 11.0181 8.47798 10.3361 9.47803 9.25393C9.56784 9.15592 9.6658 9.05791 9.75968 8.96807L10.1515 8.62503C11.1353 7.83685 12.3027 7.43663 13.6211 7.43663H16.1274C18.103 7.51423 18.654 7.86135 18.654 7.86135C22.144 9.57247 22.7726 12.2882 22.8665 13.5501C22.8665 13.6236 22.8665 13.693 22.8665 13.7666V16.7967C22.8665 19.8841 19.7643 23.0858 16.6457 23.0858H13.617C11.9843 23.0858 10.5801 22.4692 9.47395 21.2644C8.47798 20.1782 7.04526 19.5002 5.45334 19.5002C2.44502 19.4962 0 21.9424 0 24.9562C0 27.9742 2.44502 30.4204 5.45742 30.4204C7.04934 30.4204 8.47798 29.7384 9.47803 28.6562C10.5842 27.4555 11.9884 26.8348 13.6211 26.8348H16.6498C19.7561 26.8348 22.8706 30.0406 22.8706 33.1239V36.1541C22.8706 39.2823 19.8092 42.4431 16.6498 42.4431H13.6211C11.9884 42.4431 10.5842 41.8265 9.47803 40.6218C8.48207 39.5355 7.04934 38.8575 5.45742 38.8575C2.44502 38.8575 0 41.3037 0 44.3217C0 47.3396 2.44502 49.7818 5.45742 49.7818C7.04934 49.7818 8.47798 49.0998 9.47803 48.0175C10.5842 46.8169 11.9884 46.1962 13.6211 46.1962H16.6498C18.0948 46.1962 19.3602 46.6781 20.397 47.6214C21.3929 48.9323 22.9726 49.7818 24.7441 49.7818H24.7809H24.8135C27.83 49.7818 30.2709 47.3355 30.2709 44.3217C30.2709 42.729 29.5893 41.2997 28.5076 40.2991C27.3075 39.1924 26.6871 37.7876 26.6871 36.1541V33.1239C26.6871 31.4944 27.2994 30.0937 28.4913 28.991L28.5035 28.9788H28.5076L28.5239 28.9584L28.5402 28.942L28.5525 28.9298H28.5566L28.5729 28.9094L28.5892 28.893L28.5974 28.8849L28.6055 28.8767L28.6219 28.8604L28.6382 28.844L28.6464 28.8358L28.6545 28.8277L28.6709 28.8113L28.6872 28.795L28.6953 28.7868L28.7035 28.7787L28.7198 28.7623L28.7362 28.746L28.7443 28.7378L28.7525 28.7297L28.7688 28.7133L28.7851 28.697V28.6888L28.8015 28.6766L28.8178 28.6602L28.8341 28.6439H28.8382L28.8505 28.6276L28.8668 28.6112L28.8831 28.5949L28.8954 28.5786L28.9117 28.5622L28.928 28.5459L28.9403 28.5296L28.9566 28.5132L28.9852 28.4765L29.0015 28.4561L29.0178 28.4397L29.0301 28.4193L29.0464 28.403L29.0627 28.3866L29.079 28.3662L29.0954 28.3458L29.1239 28.309L29.1362 28.2886L29.1484 28.2723C30.1852 27.3289 31.4547 26.847 32.8956 26.847H35.9243C37.557 26.847 38.9612 27.4637 40.0674 28.6684C41.0633 29.7547 42.496 30.4326 44.088 30.4326C47.1044 30.4326 49.5495 27.9864 49.5495 24.9685C49.5495 21.9505 47.1044 19.5084 44.088 19.5084C42.496 19.5084 41.0674 20.1904 40.0674 21.2726C38.9612 22.4733 37.557 23.094 35.9243 23.094H32.8956C31.4506 23.094 30.1852 22.6121 29.1484 21.6687C29.1484 21.6687 28.5892 21.0643 28.4708 20.9296L28.4872 20.9132Z" fill="#44E0D9"/>
<path d="M67.2525 39.1556C67.2525 42.8351 69.2689 45.0771 72.6772 45.0771C74.8284 45.0771 76.5795 44.0888 77.8775 42.1163L83.5268 43.0597C81.6451 47.5887 78.0571 49.8307 72.767 49.8307C65.5953 49.8307 60.9746 45.2119 60.9746 38.2122C60.9746 31.2125 65.2769 26.459 72.4527 26.459C79.6286 26.459 83.7064 31.0778 83.7064 38.347V39.1556H67.2525ZM77.8775 35.2514C77.1591 32.3356 75.4121 30.8573 72.6323 30.8573C69.8526 30.8573 68.0158 32.4254 67.5219 35.2514H77.8775Z" fill="black"/>
<path d="M102.703 31.4411V49.1567H99.1151V31.4411H97.0986V28.076H99.1151V21.5991C99.1151 16.3963 101.042 14.0195 105.348 14.0195C106.111 14.0195 107.005 14.1992 107.993 14.4688V18.1034C107.005 17.7889 106.246 17.6092 105.617 17.6092C103.287 17.6092 102.703 18.5975 102.703 22.4526V28.076H107.993V31.4411H102.703Z" fill="black"/>
<path d="M119.133 27.627C125.321 27.627 130.252 32.5153 130.252 38.7064C130.252 44.8974 125.321 49.7408 119.043 49.7408C112.765 49.7408 108.014 44.8525 108.014 38.5267C108.014 32.8297 112.63 27.627 119.133 27.627ZM119.043 46.4656C123.39 46.4656 126.574 43.2802 126.574 38.7064C126.574 34.1325 123.435 30.9022 119.088 30.9022C114.741 30.9022 111.691 34.2672 111.691 38.5716C111.691 43.1904 114.741 46.4656 119.043 46.4656Z" fill="black"/>
<path d="M143.134 27.627C149.322 27.627 154.253 32.5153 154.253 38.7064C154.253 44.8974 149.322 49.7408 143.044 49.7408C136.766 49.7408 132.015 44.8525 132.015 38.5267C132.015 32.8297 136.631 27.627 143.134 27.627ZM143.044 46.4656C147.391 46.4656 150.575 43.2802 150.575 38.7064C150.575 34.1325 147.436 30.9022 143.089 30.9022C138.742 30.9022 135.692 34.2672 135.692 38.5716C135.692 43.1904 138.742 46.4656 143.044 46.4656Z" fill="black"/>
<path d="M160.179 31.441V40.6378C160.179 45.0319 161.392 46.4694 164.616 46.4694L163.853 49.7447C159.686 49.7447 156.547 47.5925 156.547 41.2667V31.4451H154.351V28.08H156.547V21.7256H160.179V28.08H164.616V31.4451H160.179V31.441Z" fill="black"/>
<path d="M171.185 60.9999H167.552V28.0762H171.185V31.0819C173.201 28.75 175.622 27.582 178.446 27.582C184.185 27.582 188.577 32.2907 188.577 38.7513C188.577 45.2119 184.41 49.7408 178.536 49.7408C175.622 49.7408 173.201 48.5729 171.185 46.241V60.9958V60.9999ZM178.001 30.8573C174.054 30.8573 170.919 34.0876 170.919 38.7513C170.919 43.1455 173.834 46.4656 178.001 46.4656C182.169 46.4656 184.904 43.0107 184.904 38.886C184.904 34.2672 181.944 30.8573 178.001 30.8573Z" fill="black"/>
<path d="M199.259 27.5815C200.292 27.5815 201.365 27.896 202.488 28.48L200.741 31.7552C200.022 31.261 199.353 31.0364 198.679 31.0364C195.72 31.0364 194.512 33.1437 194.512 38.032V49.1563H190.879V28.0757H194.512V30.3626C195.508 27.263 199.263 27.5815 199.263 27.5815H199.259Z" fill="black"/>
<path d="M208.207 28.0762V49.1568H204.574V28.0762H208.207Z" fill="black"/>
<path d="M211.436 28.0762H215.069V30.6326C216.726 28.6152 218.746 27.582 221.077 27.582C223.408 27.582 225.379 28.3457 226.681 29.9139C227.759 31.1717 228.339 33.234 228.339 36.06V49.1568H224.706V36.7339C224.706 34.5368 224.347 33.0543 223.718 32.16C223.044 31.3065 221.926 30.8613 220.265 30.8613C216.587 30.8613 215.064 33.1932 215.064 38.6206V49.1609H211.432V28.0803L211.436 28.0762Z" fill="black"/>
<path d="M235.563 31.441V40.6378C235.563 45.0319 236.776 46.4694 240 46.4694L239.237 49.7447C235.069 49.7447 231.93 47.5925 231.93 41.2667V31.4451H229.734V28.08H231.93V21.7256H235.563V28.08H240V31.4451H235.563V31.441Z" fill="black"/>
<path d="M86.4492 35.1816H95.9518V39.2655H86.4492V35.1816Z" fill="black"/>
<path d="M206.366 25.2946C207.381 25.2946 208.203 24.4718 208.203 23.4569C208.203 22.4419 207.381 21.6191 206.366 21.6191C205.352 21.6191 204.529 22.4419 204.529 23.4569C204.529 24.4718 205.352 25.2946 206.366 25.2946Z" fill="black"/>
</g>
<defs>
<clipPath id="clip0_2194_7270">
<rect width="240" height="61" fill="white"/>
</clipPath>
</defs>
</svg>
