<svg width="292" height="290" viewBox="0 0 292 290" fill="none" xmlns="http://www.w3.org/2000/svg">
<path d="M256.432 249.529C248.856 257.338 242.078 261.929 236.887 265.394C186.271 299.191 128.41 289.45 110.522 286.121C81.6606 280.749 57.2973 276.959 36.3645 258.048C-11.2005 215.075 -8.88669 125.431 27.4585 69.9005C31.7674 63.3166 68.0585 9.52308 126.043 1.94308C127.461 1.75817 128.52 1.65193 129.446 1.55386C138.417 0.603808 194.003 -4.40798 239.329 33.5656C245.817 39.0013 256.258 48.8063 265.94 63.7599C301.344 118.437 301.456 203.121 256.432 249.53V249.529Z" fill="#F4F7FA"/>
<path d="M146.564 192.115C138.683 183.073 141.274 165.05 146.485 153.802C152.57 140.668 159.785 142.04 163.722 131.459C171.053 111.757 149.047 98.9211 154.864 78.4663C159.619 61.7444 176.131 63.9775 180.554 45.2195C183.747 31.6838 176.684 24.016 183.344 13.1506C183.913 12.222 190.198 2.29243 200.054 2.01661C210.002 1.73772 217.77 11.4569 221.051 18.5598C227.117 31.6889 218.758 37.8398 220.237 56.043C222.25 80.8251 238.937 84.0941 236.648 102.649C234.758 117.97 222.944 119.276 221.186 136.305C219.553 152.119 229.147 156.741 227.029 167.274C222.157 191.506 162.636 210.559 146.564 192.115Z" fill="url(#paint0_linear_1190_44009)"/>
<mask id="mask0_1190_44009" style="mask-type:luminance" maskUnits="userSpaceOnUse" x="141" y="2" width="96" height="198">
<path d="M146.564 192.115C138.683 183.073 141.274 165.05 146.485 153.802C152.57 140.668 159.785 142.04 163.722 131.459C171.053 111.757 149.047 98.9211 154.864 78.4663C159.619 61.7444 176.131 63.9775 180.554 45.2195C183.747 31.6838 176.684 24.016 183.344 13.1506C183.913 12.222 190.198 2.29243 200.054 2.01661C210.002 1.73772 217.77 11.4569 221.051 18.5598C227.117 31.6889 218.758 37.8398 220.237 56.043C222.25 80.8251 238.937 84.0941 236.648 102.649C234.758 117.97 222.944 119.276 221.186 136.305C219.553 152.119 229.147 156.741 227.029 167.274C222.157 191.506 162.636 210.559 146.564 192.115Z" fill="white"/>
</mask>
<g mask="url(#mask0_1190_44009)">
<g style="mix-blend-mode:soft-light" opacity="0.7">
<path d="M157.621 206.605C157.535 206.605 157.456 206.549 157.43 206.463C157.398 206.358 157.457 206.246 157.563 206.215C167.702 203.167 176.758 198.133 184.48 191.252C191.793 184.734 199.356 177.994 201.359 167.836C202.873 160.157 200.305 155.192 197.053 148.906C193.885 142.782 189.942 135.16 188.948 122.562C188.381 115.369 187.674 106.416 192.218 96.9606C194.865 91.4513 197.929 88.7288 200.632 86.3261C203.458 83.8131 205.691 81.8292 206.398 77.5121C207.551 70.4664 204.906 65.0919 201.843 58.8696C199.951 55.0244 197.994 51.0475 196.612 46.147C192.722 32.3549 196.498 16.0242 207.835 -2.39255C207.892 -2.48551 208.016 -2.51616 208.109 -2.45793C208.203 -2.40072 208.232 -2.27711 208.174 -2.18415C196.898 16.1335 193.137 32.3569 196.995 46.0377C198.367 50.9024 200.316 54.863 202.201 58.6918C205.293 64.9755 207.965 70.403 206.79 77.5744C206.06 82.0305 203.667 84.1584 200.895 86.6214C198.221 88.9985 195.189 91.6934 192.577 97.1312C188.08 106.49 188.782 115.383 189.346 122.528C190.333 135.046 194.256 142.629 197.408 148.72C200.695 155.074 203.292 160.094 201.75 167.91C199.722 178.2 192.108 184.985 184.745 191.546C176.98 198.466 167.873 203.529 157.678 206.594C157.659 206.6 157.639 206.602 157.621 206.602V206.605Z" fill="white"/>
</g>
<g style="mix-blend-mode:soft-light" opacity="0.7">
<path d="M190.575 101.826C190.511 101.826 190.449 101.796 190.41 101.74C178.495 84.4128 174.422 70.0271 173.103 61.0098C171.671 51.2232 173.086 45.4534 173.101 45.3962C173.127 45.29 173.236 45.2246 173.343 45.2522C173.45 45.2787 173.514 45.387 173.487 45.4943C173.473 45.5505 172.076 51.263 173.501 60.9791C174.817 69.9495 178.875 84.2626 190.738 101.514C190.8 101.605 190.777 101.728 190.687 101.791C190.652 101.814 190.612 101.825 190.575 101.825V101.826Z" fill="white"/>
</g>
<g style="mix-blend-mode:soft-light" opacity="0.7">
<path d="M190.727 132.853C190.652 132.853 190.582 132.811 190.547 132.74C190.5 132.641 190.542 132.521 190.641 132.474C200.707 127.663 208.981 121.444 215.236 113.99C220.238 108.029 223.968 101.27 226.32 93.898C230.327 81.3481 228.93 71.253 228.916 71.1518C228.901 71.0425 228.976 70.9414 229.085 70.9261C229.192 70.9107 229.294 70.9853 229.31 71.0946C229.325 71.1958 230.733 81.3818 226.7 94.0185C224.331 101.44 220.577 108.246 215.542 114.246C209.25 121.744 200.93 127.998 190.813 132.834C190.785 132.847 190.755 132.853 190.727 132.853Z" fill="white"/>
</g>
<g style="mix-blend-mode:soft-light" opacity="0.7">
<path d="M192.776 184.554C192.742 184.554 192.709 184.544 192.677 184.527C171.808 172.453 163.003 157.596 159.29 147.26C155.264 136.051 156.194 127.578 156.203 127.494C156.216 127.385 156.317 127.307 156.424 127.319C156.533 127.333 156.612 127.432 156.598 127.54C156.588 127.624 155.671 136.021 159.672 147.147C163.364 157.415 172.122 172.175 192.876 184.183C192.971 184.238 193.004 184.359 192.949 184.455C192.912 184.519 192.844 184.555 192.776 184.555V184.554Z" fill="white"/>
</g>
<g style="mix-blend-mode:soft-light" opacity="0.7">
<path d="M196.611 43.8384C196.547 43.8384 196.483 43.8067 196.445 43.7495C196.383 43.6575 196.409 43.5339 196.501 43.4737C212.473 32.8545 217.499 18.9459 218.903 9.14812C220.425 -1.47819 218.135 -9.70075 218.112 -9.78248C218.082 -9.88872 218.144 -9.99905 218.249 -10.0287C218.356 -10.0583 218.464 -9.99701 218.495 -9.89179C218.518 -9.80904 220.829 -1.51905 219.299 9.18795C217.887 19.0716 212.823 33.1007 196.721 43.8057C196.688 43.8281 196.649 43.8394 196.611 43.8394V43.8384Z" fill="white"/>
</g>
</g>
<path d="M195.358 267.399C192.977 267.543 187.672 265.76 186.481 264.724C178.554 257.835 162.873 245.899 161.43 234.889C161.184 233.008 169.163 229.692 170 227.763C174.574 224.414 176.369 223.536 179.152 218.215C187.372 202.509 157.775 181.636 184.787 167.138C204.573 156.518 223.738 160.366 215.22 128.126C206.702 95.8851 221.214 31.3856 260.079 47.5733C282.383 56.8634 267.601 88.4961 281.712 107.041C295.121 124.662 289.935 142.276 271.482 157.924C253.03 173.572 265.802 180.441 275.358 197.798C286.836 218.647 253.392 229.133 237.538 232.656C224.771 235.493 194.178 251.331 195.358 267.397V267.399Z" fill="url(#paint1_linear_1190_44009)"/>
<mask id="mask1_1190_44009" style="mask-type:luminance" maskUnits="userSpaceOnUse" x="161" y="45" width="129" height="223">
<path d="M195.358 267.399C192.977 267.543 187.672 265.76 186.481 264.724C178.554 257.835 162.873 245.899 161.43 234.889C161.184 233.008 169.163 229.692 170 227.763C174.574 224.414 176.369 223.536 179.152 218.215C187.372 202.509 157.775 181.636 184.787 167.138C204.573 156.518 223.738 160.366 215.22 128.126C206.702 95.8851 221.214 31.3856 260.079 47.5733C282.383 56.8634 267.601 88.4961 281.712 107.041C295.121 124.662 289.935 142.276 271.482 157.924C253.03 173.572 265.802 180.441 275.358 197.798C286.836 218.647 253.392 229.133 237.538 232.656C224.771 235.493 194.178 251.331 195.358 267.397V267.399Z" fill="white"/>
</mask>
<g mask="url(#mask1_1190_44009)">
<path d="M174.425 250.69L174.122 250.284C236.648 203.479 264.629 124.65 248.97 39.4152L249.468 39.3232C256.889 79.7179 254.366 120.216 242.171 156.437C229.352 194.518 205.925 227.109 174.425 250.69Z" fill="#FCFDFE"/>
<path d="M281.122 205.919C259.933 203.194 226.555 209.398 206.714 219.75L206.48 219.3C226.398 208.908 259.912 202.68 281.187 205.416L281.123 205.919H281.122Z" fill="#FCFDFE"/>
<path d="M186.594 241.361L186.19 241.054C193.205 231.776 195.26 219.307 192.299 203.995C190.127 192.767 185.358 180.3 178.125 166.94L178.571 166.699C185.829 180.105 190.615 192.62 192.797 203.899C195.788 219.359 193.701 231.964 186.595 241.362L186.594 241.361Z" fill="#FCFDFE"/>
<path d="M243.703 151.229L243.283 150.944C255.607 132.775 277.132 124.426 293.019 120.62L293.137 121.114C277.338 124.898 255.936 133.194 243.703 151.228V151.229Z" fill="#FCFDFE"/>
<path d="M253.099 101.857L252.596 101.916C249.715 77.3509 231.686 58.6685 221.197 49.7196L221.526 49.3335C232.072 58.3314 250.198 77.12 253.099 101.857Z" fill="#FCFDFE"/>
</g>
<path d="M165.652 18.2228L194.735 259.952C195.171 263.577 192.673 266.825 189.174 267.173L68.0409 280.471C60.6203 280.933 56.5575 277.142 56.0999 273.288L25.5664 16.289C25.1108 12.4561 28.7516 8.98584 36.2039 8.98584L158.439 11.5602C161.978 11.6194 165.219 14.6177 165.653 18.2228H165.652Z" fill="url(#paint2_linear_1190_44009)"/>
<path d="M171.104 17.806L200.347 260.745C200.785 264.388 198.279 267.654 194.767 268.003L69.186 280.506C65.2489 280.898 61.6407 278.05 61.18 274.175L30.4749 15.8486C30.0172 11.9963 32.9093 8.89997 36.8893 8.96739L163.862 11.1096C167.414 11.1699 170.669 14.1825 171.105 17.806H171.104Z" fill="url(#paint3_linear_1190_44009)"/>
<path d="M168.722 31.2069L195.826 256.46C196.236 259.862 193.888 262.909 190.601 263.227L72.4961 274.708C68.8358 275.063 65.482 272.405 65.0529 268.799L36.677 30.1649C36.25 26.5782 38.9346 23.6749 42.6327 23.7148L161.949 24.9856C165.271 25.0213 168.315 27.8204 168.722 31.2069Z" fill="url(#paint4_linear_1190_44009)"/>
<path d="M105.387 17.6394C105.542 18.9327 104.614 19.9675 103.312 19.9512C102.01 19.9348 100.827 18.8714 100.673 17.575C100.517 16.2786 101.449 15.2438 102.752 15.2632C104.053 15.2826 105.232 16.3461 105.387 17.6394Z" fill="url(#paint5_linear_1190_44009)"/>
<g style="mix-blend-mode:soft-light">
<path d="M148.302 182.41C124.124 137.708 88.0043 124.326 77.1297 78.2559C71.2517 53.3522 75.2562 29.5171 82.0016 9.72943L36.8883 8.96837C32.9083 8.90094 30.0163 11.9973 30.4739 15.8496L61.179 274.176C61.6398 278.05 65.2479 280.898 69.185 280.506L167.904 270.678C168.634 230.622 159.08 202.337 148.302 182.41Z" fill="#C1BAA4"/>
</g>
<g style="mix-blend-mode:soft-light">
<path d="M140.498 85.8501C142.651 105.624 129.678 121.654 111.523 121.654C93.3675 121.654 76.904 105.625 74.7505 85.8501C72.5981 66.0768 85.5709 50.0464 103.726 50.0464C121.881 50.0464 138.345 66.0757 140.498 85.8501Z" fill="#C1BAA4"/>
</g>
<path d="M123.531 85.8501C124.573 95.4181 118.296 103.175 109.51 103.175C100.725 103.175 92.7585 95.4181 91.7175 85.8501C90.6755 76.2821 96.9531 68.5254 105.739 68.5254C114.524 68.5254 122.49 76.2821 123.531 85.8501Z" fill="white"/>
<path d="M156.646 281.712C156.646 281.712 146.525 286.313 146.359 287.046C146.194 287.781 152.868 286.8 155.592 286.906C158.317 287.012 160.558 286.206 160.311 285.053C160.065 283.899 159.111 280.996 159.111 280.996L156.645 281.712H156.646Z" fill="url(#paint6_linear_1190_44009)"/>
<path d="M156.274 277.98L156.89 282.536C156.89 282.536 158.492 283.106 159.569 282.432L160.029 277.434L156.275 277.979L156.274 277.98Z" fill="url(#paint7_linear_1190_44009)"/>
<path d="M203.935 278.089L205.112 279.979C205.441 280.507 205.539 281.144 205.382 281.746C204.97 283.317 204.148 286.38 203.789 287.179C203.301 288.267 196.752 288.913 196.752 288.913C196.752 288.913 196.167 288.091 197.527 287.098C198.887 286.106 199.761 285.95 200.24 284.485C200.721 283.02 201.04 278.877 201.04 278.877L203.933 278.09L203.935 278.089Z" fill="url(#paint8_linear_1190_44009)"/>
<path d="M199.035 273.287C199.465 273.63 201.569 280.014 201.569 280.014C201.569 280.014 202.25 280.884 203.543 279.6C204.837 278.315 204.129 279.024 204.129 279.024L203.887 272.744L199.036 273.287H199.035Z" fill="url(#paint9_linear_1190_44009)"/>
<path d="M150.706 186.435C150.172 200.027 150.15 214.795 150.933 230.571C151.814 248.336 153.583 264.756 155.813 279.64C156.641 279.666 157.513 279.67 158.423 279.645C159.037 279.627 159.633 279.598 160.209 279.558C161.366 276.472 162.734 272.413 163.959 267.565C165.247 262.467 166.024 257.895 166.577 253.522C168.526 238.128 166.242 236.784 167.823 225.375C169.224 215.271 171.216 214.877 173.554 200.53C176.092 184.963 174.203 182.628 173.285 181.785C169.374 178.193 160.189 180.639 150.707 186.435H150.706Z" fill="url(#paint10_linear_1190_44009)"/>
<path style="mix-blend-mode:multiply" opacity="0.3" d="M173.284 181.785C169.555 178.36 161.026 180.434 152.018 185.662C162.38 196.859 163.51 204.122 162.268 208.835C160.863 214.162 156.595 215.696 156.612 221.52C156.632 228.677 163.091 230.573 162.954 238.147C162.864 243.155 160.025 243.104 159.354 249.289C158.562 256.609 162.27 259.13 161.069 264.545C160.552 266.875 159.077 269.919 154.877 273.055C155.179 275.279 155.49 277.48 155.814 279.64C156.642 279.666 157.514 279.671 158.424 279.645C159.038 279.628 159.633 279.598 160.209 279.558C161.367 276.472 162.735 272.413 163.96 267.566C165.248 262.468 166.024 257.896 166.578 253.524C168.527 238.129 166.243 236.785 167.824 225.376C169.225 215.272 171.217 214.877 173.555 200.531C176.093 184.964 174.204 182.629 173.285 181.786L173.284 181.785Z" fill="url(#paint11_linear_1190_44009)"/>
<path d="M157.126 186.207C166.049 199.263 175.673 215.512 184.281 234.962C190.785 249.66 195.503 263.46 198.967 275.76C199.436 275.976 200.541 276.41 201.954 276.223C203.88 275.968 205.036 274.738 205.337 274.394C206.747 265.577 206.592 258.11 206.113 252.721C205.806 249.27 205.265 243.524 203.064 236.431C200.601 228.485 198.907 228.039 195.694 219.632C192.358 210.907 193.166 208.729 189.971 197.809C188.659 193.324 186.462 186.648 182.837 178.663C174.266 181.177 165.695 183.691 157.125 186.206L157.126 186.207Z" fill="url(#paint12_linear_1190_44009)"/>
<path d="M114.92 93.2668C114.92 93.2668 113.188 91.1941 112.085 89.6505C110.981 88.1069 105.893 83.8123 105.893 83.8123C105.893 83.8123 105.528 84.5192 106.627 85.6143C107.726 86.7094 110.029 88.5758 109.527 89.3982C109.024 90.2205 107.577 90.9673 108.666 92.4741C109.756 93.9819 111.57 92.896 112.535 94.1035C113.502 95.311 114.493 96.6288 114.493 96.6288L114.92 93.2668Z" fill="url(#paint13_linear_1190_44009)"/>
<path d="M115.163 91.0898C114.008 92.5394 112.852 93.989 111.697 95.4386C113.174 101.83 116.322 111.461 123.644 120.815C131.405 130.731 147.957 145.581 158.261 140.713C164.541 137.746 173.02 127.564 169.974 122.654C167.045 117.934 154.369 120.166 145.664 118.199C137.131 116.271 126.055 110.061 115.162 91.0898H115.163Z" fill="url(#paint14_linear_1190_44009)"/>
<path d="M194.725 128.785C194.725 128.785 201.477 151.766 197.294 160.608C193.111 169.451 179.772 159.74 179.772 159.74L194.725 128.785Z" fill="url(#paint15_linear_1190_44009)"/>
<path style="mix-blend-mode:multiply" opacity="0.3" d="M193.476 128.812C193.476 128.812 200.227 151.793 196.045 160.636C191.862 169.479 178.523 159.768 178.523 159.768L193.476 128.812Z" fill="url(#paint16_linear_1190_44009)"/>
<path d="M173.729 120.286C165.056 120.129 158.376 120.412 154.683 124.266C150.782 128.338 154.91 132.748 154.271 143.191C153.293 159.177 143.21 163.297 142.798 179.503C142.659 184.963 143.68 189.402 144.455 192.071C146.747 194.802 150.485 198.644 155.948 201.807C163.896 206.408 168.427 205.477 179.759 208.315C198.296 212.956 200.067 218.927 209.171 217.198C218.372 215.45 226.305 207.502 225.233 203.255C224.591 200.713 220.884 201.518 216.513 197.712C210.879 192.809 212.905 187.967 208.588 182.66C202.386 175.037 194.086 179.961 188.798 173.352C183.45 166.667 185.22 153.225 189.445 145.828C192.204 140.996 193.308 135.381 195.635 130.326C195.828 129.906 196.049 129.22 195.926 128.37C195.46 125.121 189.992 123.473 185.852 122.267C179.537 120.427 174.442 120.299 173.729 120.286Z" fill="url(#paint17_linear_1190_44009)"/>
<path d="M165.286 120.111L166.984 119.549C166.984 119.549 167.481 121.853 172.982 122.022C176.033 121.955 177.966 120.203 177.966 120.203L179.152 121.029C179.152 121.029 176.66 124.286 172.584 124.293C167.323 124.302 165.285 120.111 165.285 120.111H165.286Z" fill="url(#paint18_linear_1190_44009)"/>
<path d="M166.678 112.672C166.213 110.152 167.627 107.986 167.937 107.52C169.238 105.569 169.548 105.314 170.112 105.007L170.892 104.618C170.892 104.618 170.937 104.605 170.983 104.594C171.472 104.468 173.091 104.567 173.411 104.667C174.436 104.985 175.159 109.343 174.292 115.333C174.334 115.803 174.374 116.272 174.416 116.743C176.748 116.421 177.423 116.643 177.543 116.956C177.803 117.632 176.178 121.585 173.958 122.362C171.172 123.338 167.291 120.793 167.058 119.873C166.964 119.501 166.98 119.821 168.877 118.722C169.052 118.172 169.594 116.68 169.769 116.129C169.367 115.872 167.021 114.531 166.679 112.674L166.678 112.672Z" fill="url(#paint19_linear_1190_44009)"/>
<path d="M169.857 110.645C170.371 110.058 171.121 110.721 171.051 111.534C170.982 112.348 170.118 113.12 169.369 112.89C168.62 112.66 169.166 111.433 169.858 110.645H169.857Z" fill="url(#paint20_linear_1190_44009)"/>
<path d="M252.421 84.0585C241.107 77.6584 222.4 86.4326 213.93 97.2234C209.994 102.237 208.705 107.079 202.872 109.328C198.437 111.038 190.705 111.652 185.346 107.976C184.671 107.514 181.932 105.542 178.019 103.203C176.294 102.172 174.605 101.227 172.561 101.548C172.042 101.629 170.312 101.891 169.566 103.303C168.962 104.447 169.228 106.013 169.835 107.008C170.198 107.602 170.422 107.606 170.528 108.038C170.83 109.25 168.835 110.462 169.147 111.021C169.371 111.42 170.445 110.902 170.81 111.375C171.212 111.894 170.139 112.797 170.084 114.444C169.304 115.43 169.208 117.288 169.705 119.573C170.434 122.933 171.613 125.475 172.872 127.27C178.933 135.911 183.267 142.091 189.646 144.269C198.09 147.153 202.716 140.493 219.802 134.175C243.2 125.525 251.704 131.663 258.459 123.417C266.895 113.122 264.168 90.7017 252.421 84.0564V84.0585Z" fill="#26264F"/>
<g style="mix-blend-mode:multiply" opacity="0.3">
<path d="M202.656 203.474C193.934 197.679 186.039 204.308 179.873 199.202C174.794 194.997 178.958 189.515 173.464 182.114C167.44 173.999 159.081 176.075 157.089 170.011C155.029 163.744 163.291 159.49 163.497 150.787C163.602 146.345 161.608 140.561 153.643 133.624C154.073 136.155 154.513 139.24 154.271 143.19C153.293 159.176 143.21 163.296 142.798 179.502C142.659 184.962 143.68 189.401 144.455 192.07C146.747 194.801 150.485 198.643 155.948 201.806C163.896 206.407 168.427 205.476 179.759 208.314C198.296 212.955 200.067 218.926 209.171 217.197C211.823 216.693 214.368 215.673 216.623 214.376C213.972 213.964 211.996 213.062 210.489 212.019C206.506 209.261 207.205 206.497 202.657 203.475L202.656 203.474Z" fill="url(#paint21_linear_1190_44009)"/>
</g>
<path d="M109.239 236.277C113.733 238.56 119.379 236.464 121.85 231.598C124.321 226.732 122.68 220.937 118.186 218.655C117.953 218.537 117.716 218.438 117.477 218.343C118.311 215.65 118.942 212.937 119.363 210.221C119.621 210.221 119.879 210.216 120.142 210.193C125.269 209.736 129.339 205.025 129.231 199.669C129.123 194.314 124.88 190.343 119.753 190.799C119.485 190.824 119.221 190.866 118.96 190.912C118.425 188.258 117.69 185.665 116.765 183.156C117.001 183.018 117.236 182.875 117.464 182.715C121.851 179.642 123.254 173.576 120.596 169.167C117.939 164.758 112.23 163.675 107.843 166.748C107.619 166.905 107.407 167.076 107.198 167.248C105.465 165.333 103.565 163.558 101.509 161.938C101.653 161.701 101.795 161.461 101.922 161.209C104.392 156.343 107.622 151.027 103.092 148.816C92.6148 143.701 88.1179 148.08 85.6478 152.946C85.5201 153.199 85.4098 153.454 85.3035 153.711C82.7823 153.007 80.2284 152.519 77.6592 152.252C77.6755 151.981 77.6878 151.71 77.6827 151.436C77.5754 146.081 79.1639 143.182 74.0173 143.082C62.7944 142.864 59.0075 147.736 59.1147 153.091C59.1198 153.37 59.1433 153.644 59.1719 153.916C56.5996 154.649 54.0743 155.586 51.6154 156.72C51.499 156.481 51.3774 156.244 51.2385 156.013C48.5814 151.604 42.8719 150.521 38.4853 153.595C34.0987 156.669 32.6961 162.734 35.3532 167.143C35.489 167.369 35.6382 167.58 35.7894 167.789C33.8464 169.732 32.027 171.841 30.3465 174.104C30.1289 173.968 29.9082 173.834 29.6753 173.716C25.1815 171.434 19.5353 173.529 17.0641 178.396C14.5929 183.262 16.2336 189.057 20.7274 191.338C20.9604 191.456 21.1984 191.555 21.4364 191.65C20.6018 194.343 19.9715 197.057 19.5496 199.772C19.2921 199.772 19.0337 199.777 18.7711 199.801C13.6439 200.258 9.57401 204.97 9.68127 210.325C9.78854 215.68 14.0321 219.65 19.1593 219.193C19.427 219.169 19.6906 219.126 19.9521 219.08C20.4874 221.734 21.2219 224.327 22.1474 226.836C21.9114 226.974 21.6765 227.117 21.4476 227.277C17.061 230.35 15.6584 236.416 18.3155 240.825C20.9726 245.235 29.7673 247.283 34.1538 244.21C34.3786 244.053 31.5049 242.917 31.7133 242.744C33.4459 244.659 35.346 246.435 37.4024 248.054C37.2584 248.291 37.1164 248.531 36.9887 248.783C34.5175 253.649 36.1582 259.444 40.652 261.726C45.1459 264.008 50.792 261.913 53.2632 257.046C53.3909 256.794 53.5012 256.538 53.6075 256.282C56.1287 256.986 58.6826 257.473 61.2518 257.74C61.2355 258.011 61.2232 258.282 61.2283 258.557C61.3356 263.912 65.5792 267.883 70.7064 267.425C75.8336 266.968 79.9035 262.256 79.7963 256.901C79.7901 256.621 79.7677 256.347 79.7391 256.075C82.3114 255.342 84.8367 254.405 87.2956 253.271C87.412 253.51 87.5336 253.747 87.6725 253.978C90.3296 258.387 96.0391 259.47 100.426 256.397C104.812 253.323 106.215 247.258 103.558 242.849C103.422 242.623 103.273 242.412 103.122 242.204C105.065 240.261 106.884 238.151 108.565 235.888C108.782 236.024 109.003 236.158 109.236 236.276L109.239 236.277ZM53.2152 236.988C36.8978 228.704 30.942 207.665 39.9134 189.998C48.8838 172.33 69.3835 164.723 85.6999 173.007C102.017 181.292 107.973 202.33 99.0017 219.998C90.0313 237.666 69.5316 245.272 53.2142 236.988H53.2152Z" fill="url(#paint22_linear_1190_44009)"/>
<path d="M120.143 210.194C125.27 209.736 129.34 205.025 129.232 199.67C129.125 194.315 124.881 190.344 119.754 190.8C119.486 190.824 119.223 190.867 118.961 190.913C118.426 188.259 117.691 185.667 116.766 183.157C117.002 183.019 117.237 182.876 117.466 182.716C121.852 179.643 127.279 172.216 124.184 168.103C118.31 160.297 112.231 163.676 107.844 166.749C107.62 166.906 107.408 167.077 107.199 167.249C105.466 165.334 103.566 163.559 101.51 161.939C101.654 161.702 101.796 161.462 101.924 161.21C103.268 158.561 103.386 155.641 102.499 153.159C98.2612 160.616 94.082 168.105 89.9763 175.634C102.993 185.173 107.138 203.97 99.0008 219.997C92.1063 233.577 78.4 241.202 65.0165 240.247C64.4199 241.796 63.8335 243.352 63.194 244.885C61.4594 249.046 59.4888 253.121 57.5151 257.191C58.7563 257.425 60.0027 257.609 61.253 257.739C61.2367 258.01 61.2244 258.281 61.2295 258.556C61.3368 263.911 64.5884 268.461 73.8806 267.967C79.0211 267.695 79.9047 262.256 79.7975 256.9C79.7913 256.62 79.7689 256.346 79.7413 256.074C82.3136 255.341 84.8389 254.404 87.2978 253.27C87.4143 253.509 87.5358 253.746 87.6747 253.977C90.3318 258.386 99.5474 260.26 103.934 257.186C108.321 254.112 106.217 247.256 103.56 242.847C103.424 242.621 103.275 242.41 103.124 242.201C105.067 240.258 106.886 238.149 108.567 235.886C108.784 236.023 109.005 236.156 109.238 236.273C113.732 238.555 119.378 236.46 121.849 231.594C124.319 226.728 122.68 220.932 118.186 218.651C117.953 218.533 117.715 218.434 117.477 218.339C118.311 215.646 118.942 212.933 119.364 210.217C119.621 210.217 119.88 210.212 120.142 210.189L120.143 210.194Z" fill="url(#paint23_linear_1190_44009)"/>
<path d="M114.073 236.828C118.566 239.11 124.213 237.015 126.684 232.148C129.155 227.282 127.514 221.487 123.021 219.206C122.788 219.088 122.55 218.988 122.312 218.893C123.146 216.201 123.776 213.487 124.198 210.772C124.456 210.772 124.714 210.767 124.977 210.743C130.104 210.287 134.174 205.575 134.067 200.219C133.959 194.864 129.716 190.893 124.589 191.35C124.321 191.374 124.057 191.416 123.796 191.462C123.261 188.808 122.526 186.216 121.601 183.707C121.837 183.569 122.071 183.426 122.3 183.265C126.687 180.193 128.09 174.126 125.432 169.717C122.775 165.308 117.066 164.225 112.679 167.298C112.454 167.456 112.243 167.626 112.034 167.799C110.301 165.883 108.401 164.109 106.345 162.489C106.489 162.252 106.631 162.012 106.758 161.759C109.229 156.894 107.589 151.098 103.095 148.817C98.6011 146.535 92.9549 148.63 90.4837 153.497C90.356 153.749 90.2457 154.005 90.1395 154.261C87.6182 153.557 85.0643 153.07 82.4951 152.802C82.5114 152.532 82.5237 152.261 82.5186 151.986C82.4113 146.631 78.1677 142.66 73.0405 143.118C67.9133 143.575 63.8434 148.287 63.9507 153.642C63.9568 153.922 63.9793 154.196 64.0079 154.468C61.4356 155.201 58.9103 156.138 56.4514 157.272C56.3349 157.033 56.2133 156.796 56.0744 156.565C53.4173 152.156 47.7078 151.073 43.3212 154.147C38.9346 157.221 37.532 163.286 40.1891 167.695C40.325 167.92 40.4741 168.132 40.6253 168.34C38.6823 170.283 36.8629 172.393 35.1824 174.656C34.9648 174.519 34.7442 174.386 34.5112 174.267C30.0174 171.985 24.3712 174.08 21.9 178.947C19.4289 183.813 21.0695 189.608 25.5634 191.889C25.7963 192.008 26.0343 192.107 26.2723 192.202C25.4377 194.895 24.8074 197.608 24.3855 200.323C24.1281 200.323 23.8696 200.329 23.6071 200.352C18.4799 200.81 14.4099 205.521 14.5172 210.876C14.6245 216.231 18.868 220.202 23.9953 219.744C24.2629 219.721 24.5265 219.678 24.788 219.632C25.3233 222.286 26.0578 224.879 26.9833 227.388C26.7474 227.526 26.5124 227.669 26.2836 227.829C21.897 230.902 20.4944 236.968 23.1515 241.377C25.8086 245.786 31.5181 246.869 35.9047 243.796C36.1294 243.639 36.3409 243.468 36.5503 243.295C38.2829 245.211 40.183 246.986 42.2394 248.606C42.0953 248.843 41.9533 249.083 41.8256 249.335C39.3545 254.201 40.9951 259.996 45.489 262.277C49.9828 264.559 55.629 262.464 58.1002 257.597C58.2279 257.345 58.3382 257.09 58.4444 256.833C60.9657 257.537 63.5196 258.023 66.0888 258.292C66.0724 258.563 66.0602 258.833 66.0653 259.108C66.1726 264.463 70.4161 268.434 75.5434 267.976C80.6706 267.52 84.7405 262.807 84.6322 257.452C84.6271 257.172 84.6036 256.899 84.575 256.627C87.1473 255.893 89.6726 254.957 92.1315 253.823C92.248 254.062 92.3695 254.299 92.5085 254.53C95.1656 258.939 100.875 260.022 105.262 256.949C109.648 253.875 111.051 247.81 108.395 243.401C108.259 243.175 108.11 242.964 107.958 242.755C109.901 240.812 111.72 238.703 113.4 236.44C113.618 236.576 113.839 236.709 114.071 236.828H114.073ZM58.0491 237.538C41.7317 229.253 35.7759 208.215 44.7473 190.547C53.7177 172.879 74.2174 165.273 90.5348 173.556C106.852 181.841 112.807 202.879 103.837 220.547C94.8662 238.215 74.3665 245.822 58.0491 237.538Z" fill="url(#paint24_linear_1190_44009)"/>
<defs>
<linearGradient id="paint0_linear_1190_44009" x1="158.595" y1="19.1206" x2="188.16" y2="123.11" gradientUnits="userSpaceOnUse">
<stop stop-color="#E38DDD"/>
<stop offset="1" stop-color="#9571F6"/>
</linearGradient>
<linearGradient id="paint1_linear_1190_44009" x1="206.184" y1="57.5294" x2="268.577" y2="456.398" gradientUnits="userSpaceOnUse">
<stop stop-color="#FF9085"/>
<stop offset="1" stop-color="#FB6FBB"/>
</linearGradient>
<linearGradient id="paint2_linear_1190_44009" x1="108.651" y1="138.496" x2="60.9135" y2="143.703" gradientUnits="userSpaceOnUse">
<stop stop-color="#444B8C"/>
<stop offset="1" stop-color="#26264F"/>
</linearGradient>
<linearGradient id="paint3_linear_1190_44009" x1="150.713" y1="18.1635" x2="32.6712" y2="420.027" gradientUnits="userSpaceOnUse">
<stop stop-color="#444B8C"/>
<stop offset="1" stop-color="#26264F"/>
</linearGradient>
<linearGradient id="paint4_linear_1190_44009" x1="98.7553" y1="114.864" x2="211.941" y2="334.162" gradientUnits="userSpaceOnUse">
<stop stop-color="#FFC444"/>
<stop offset="1" stop-color="#F36F56"/>
</linearGradient>
<linearGradient id="paint5_linear_1190_44009" x1="106.48" y1="8.26448" x2="-32.2511" y2="383.995" gradientUnits="userSpaceOnUse">
<stop stop-color="#FFC444"/>
<stop offset="1" stop-color="#F36F56"/>
</linearGradient>
<linearGradient id="paint6_linear_1190_44009" x1="151.742" y1="265.755" x2="154.256" y2="297.752" gradientUnits="userSpaceOnUse">
<stop stop-color="#26264F"/>
<stop offset="1" stop-color="#444B8C"/>
</linearGradient>
<linearGradient id="paint7_linear_1190_44009" x1="158.233" y1="283.569" x2="157.775" y2="250.429" gradientUnits="userSpaceOnUse">
<stop stop-color="#AB316D"/>
<stop offset="1" stop-color="#792D3D"/>
</linearGradient>
<linearGradient id="paint8_linear_1190_44009" x1="199.253" y1="262.022" x2="201.767" y2="294.019" gradientUnits="userSpaceOnUse">
<stop stop-color="#26264F"/>
<stop offset="1" stop-color="#444B8C"/>
</linearGradient>
<linearGradient id="paint9_linear_1190_44009" x1="201.774" y1="282.968" x2="201.317" y2="249.828" gradientUnits="userSpaceOnUse">
<stop stop-color="#AB316D"/>
<stop offset="1" stop-color="#792D3D"/>
</linearGradient>
<linearGradient id="paint10_linear_1190_44009" x1="150.323" y1="229.882" x2="174.826" y2="229.882" gradientUnits="userSpaceOnUse">
<stop stop-color="#311944"/>
<stop offset="1" stop-color="#6B3976"/>
</linearGradient>
<linearGradient id="paint11_linear_1190_44009" x1="152.018" y1="229.884" x2="174.826" y2="229.884" gradientUnits="userSpaceOnUse">
<stop stop-color="#26264F"/>
<stop offset="1" stop-color="#444B8C"/>
</linearGradient>
<linearGradient id="paint12_linear_1190_44009" x1="157.126" y1="227.466" x2="206.453" y2="227.466" gradientUnits="userSpaceOnUse">
<stop stop-color="#311944"/>
<stop offset="1" stop-color="#6B3976"/>
</linearGradient>
<linearGradient id="paint13_linear_1190_44009" x1="107.682" y1="81.5304" x2="122.092" y2="121.808" gradientUnits="userSpaceOnUse">
<stop stop-color="#AB316D"/>
<stop offset="1" stop-color="#792D3D"/>
</linearGradient>
<linearGradient id="paint14_linear_1190_44009" x1="142.594" y1="115.427" x2="167.82" y2="210.837" gradientUnits="userSpaceOnUse">
<stop stop-color="#EBEFF2"/>
<stop offset="1" stop-color="white"/>
</linearGradient>
<linearGradient id="paint15_linear_1190_44009" x1="179.486" y1="146.841" x2="198.534" y2="146.425" gradientUnits="userSpaceOnUse">
<stop stop-color="#EBEFF2"/>
<stop offset="1" stop-color="white"/>
</linearGradient>
<linearGradient id="paint16_linear_1190_44009" x1="178.237" y1="146.868" x2="197.283" y2="146.452" gradientUnits="userSpaceOnUse">
<stop stop-color="#F36F56"/>
<stop offset="1" stop-color="#FFC444"/>
</linearGradient>
<linearGradient id="paint17_linear_1190_44009" x1="161.754" y1="110.362" x2="186.979" y2="205.77" gradientUnits="userSpaceOnUse">
<stop stop-color="#EBEFF2"/>
<stop offset="1" stop-color="white"/>
</linearGradient>
<linearGradient id="paint18_linear_1190_44009" x1="167.211" y1="113.001" x2="174.995" y2="124.793" gradientUnits="userSpaceOnUse">
<stop stop-color="#FF9085"/>
<stop offset="1" stop-color="#FB6FBB"/>
</linearGradient>
<linearGradient id="paint19_linear_1190_44009" x1="173.409" y1="108.792" x2="169.39" y2="125.053" gradientUnits="userSpaceOnUse">
<stop stop-color="#AB316D"/>
<stop offset="1" stop-color="#792D3D"/>
</linearGradient>
<linearGradient id="paint20_linear_1190_44009" x1="170.07" y1="107.735" x2="170.01" y2="122.956" gradientUnits="userSpaceOnUse">
<stop stop-color="#AB316D"/>
<stop offset="1" stop-color="#792D3D"/>
</linearGradient>
<linearGradient id="paint21_linear_1190_44009" x1="156.356" y1="111.789" x2="181.582" y2="207.198" gradientUnits="userSpaceOnUse">
<stop stop-color="#F36F56"/>
<stop offset="1" stop-color="#FFC444"/>
</linearGradient>
<linearGradient id="paint22_linear_1190_44009" x1="217.706" y1="246.39" x2="77.3772" y2="206.68" gradientUnits="userSpaceOnUse">
<stop stop-color="#311944"/>
<stop offset="1" stop-color="#A03976"/>
</linearGradient>
<linearGradient id="paint23_linear_1190_44009" x1="217.339" y1="247.689" x2="77.0086" y2="207.979" gradientUnits="userSpaceOnUse">
<stop stop-color="#311944"/>
<stop offset="1" stop-color="#A03976"/>
</linearGradient>
<linearGradient id="paint24_linear_1190_44009" x1="73.6994" y1="157.709" x2="75.8938" y2="334.914" gradientUnits="userSpaceOnUse">
<stop stop-color="#FF9085"/>
<stop offset="1" stop-color="#FB6FBB"/>
</linearGradient>
</defs>
</svg>
