<svg width="25" height="25" viewBox="0 0 25 25" fill="none" xmlns="http://www.w3.org/2000/svg">
<path d="M14.1249 10.3699C13.5359 9.82313 13.2344 9.13062 13.2344 8.32471V6.82224C13.2344 6.01228 13.54 5.31572 14.137 4.76697L14.4609 4.41059C14.9749 3.94284 15.6044 3.70391 16.3188 3.70391H17.8206C18.6301 3.70391 19.3263 4.00966 19.8748 4.60701C20.3687 5.14563 21.0791 5.48176 21.8684 5.48176C23.364 5.48176 24.5764 4.26885 24.5764 2.77448C24.5764 1.28011 23.362 0.0651708 21.8684 0.0651708C21.0791 0.0651708 20.3707 0.403328 19.8748 0.939925C19.3263 1.53524 18.6301 1.84303 17.8206 1.84303H16.3188C15.6023 1.84303 14.9749 1.60409 14.4588 1.13431C14.1168 0.684788 13.6391 0.346631 13.0866 0.178565C13.0866 0.178565 11.5404 -0.378281 10.3887 0.826531C10.3887 0.828556 10.3847 0.830581 10.3827 0.832606C10.3665 0.848805 10.3483 0.865004 10.3321 0.883228C9.59132 1.62434 8.75342 1.79848 8.25554 1.83088V1.82278H7.81635H6.7538C5.94423 1.82278 5.24801 1.51702 4.69953 0.919676C4.20569 0.383079 3.4953 0.0449219 2.70597 0.0449219C1.21232 0.0449219 0 1.25783 0 2.75423C0 4.25063 1.21232 5.46354 2.70597 5.46354C3.4953 5.46354 4.20367 5.12538 4.69953 4.58878C4.74405 4.54019 4.79263 4.49159 4.83918 4.44704L5.03347 4.27695C5.52123 3.88615 6.10007 3.68771 6.7538 3.68771H7.99648C8.97605 3.72618 9.24928 3.89829 9.24928 3.89829C10.9797 4.74673 11.2914 6.09328 11.338 6.71897C11.338 6.75542 11.338 6.78984 11.338 6.82629V8.32876C11.338 9.85958 9.79979 11.4471 8.25352 11.4471H6.75177C5.94221 11.4471 5.24598 11.1413 4.6975 10.544C4.20367 10.0054 3.49327 9.66924 2.70395 9.66924C1.21232 9.66722 0 10.8801 0 12.3745C0 13.8709 1.21232 15.0838 2.70597 15.0838C3.4953 15.0838 4.20367 14.7456 4.69953 14.2091C5.24801 13.6137 5.94423 13.306 6.7538 13.306H8.25554C9.79574 13.306 11.34 14.8955 11.34 16.4243V17.9268C11.34 19.4778 9.82205 21.0451 8.25554 21.0451H6.7538C5.94423 21.0451 5.24801 20.7393 4.69953 20.142C4.20569 19.6034 3.4953 19.2672 2.70597 19.2672C1.21232 19.2672 0 20.4801 0 21.9765C0 23.4729 1.21232 24.6838 2.70597 24.6838C3.4953 24.6838 4.20367 24.3457 4.69953 23.8091C5.24801 23.2138 5.94423 22.906 6.7538 22.906H8.25554C8.97201 22.906 9.59942 23.1449 10.1135 23.6127C10.6073 24.2627 11.3906 24.6838 12.269 24.6838H12.2872H12.3034C13.799 24.6838 15.0093 23.4709 15.0093 21.9765C15.0093 21.1868 14.6713 20.4781 14.135 19.982C13.54 19.4333 13.2323 18.7367 13.2323 17.9268V16.4243C13.2323 15.6164 13.5359 14.9218 14.1269 14.3751L14.133 14.369H14.135L14.1431 14.3589L14.1512 14.3508L14.1573 14.3447H14.1593L14.1674 14.3346L14.1755 14.3265L14.1795 14.3224L14.1836 14.3184L14.1917 14.3103L14.1998 14.3022L14.2038 14.2981L14.2079 14.2941L14.216 14.286L14.2241 14.2779L14.2281 14.2738L14.2322 14.2698L14.2403 14.2617L14.2483 14.2536L14.2524 14.2496L14.2564 14.2455L14.2645 14.2374L14.2726 14.2293V14.2253L14.2807 14.2192L14.2888 14.2111L14.2969 14.203H14.2989L14.305 14.1949L14.3131 14.1868L14.3212 14.1787L14.3273 14.1706L14.3354 14.1625L14.3435 14.1544L14.3495 14.1463L14.3576 14.1382L14.3718 14.12L14.3799 14.1098L14.388 14.1017L14.3941 14.0916L14.4022 14.0835L14.4103 14.0754L14.4184 14.0653L14.4265 14.0552L14.4406 14.0369L14.4467 14.0268L14.4528 14.0187C14.9668 13.551 15.5963 13.312 16.3107 13.312H17.8125C18.622 13.312 19.3182 13.6178 19.8667 14.2151C20.3606 14.7537 21.071 15.0899 21.8603 15.0899C23.356 15.0899 24.5683 13.877 24.5683 12.3806C24.5683 10.8842 23.356 9.67329 21.8603 9.67329C21.071 9.67329 20.3626 10.0114 19.8667 10.548C19.3182 11.1434 18.622 11.4511 17.8125 11.4511H16.3107C15.5942 11.4511 14.9668 11.2122 14.4528 10.7445C14.4528 10.7445 14.1755 10.4448 14.1168 10.378L14.1249 10.3699Z" fill="#44E0D9"/>
</svg>
