<svg width="281" height="285" viewBox="0 0 281 285" fill="none" xmlns="http://www.w3.org/2000/svg">
<g clip-path="url(#clip0_2194_7725)">
<path d="M247.889 244.817C242.147 250.862 236.715 254.759 232.423 257.839C181.971 294.038 122.274 283.487 109.587 280.91C90.8519 277.105 54.6374 269.75 28.4548 238.959C-11.1574 192.375 -4.98915 118.985 25.7364 70.5382C31.357 61.6762 61.0447 12.493 121.385 4.60448C157.903 -0.16928 200.471 9.45895 231.296 35.2851C296.003 89.4964 291.396 199.015 247.889 244.817Z" fill="url(#paint0_linear_2194_7725)"/>
<path d="M94.9971 26.3348C88.6798 26.8844 83.8366 32.175 83.8182 38.5159C83.7078 77.2944 83.527 211.053 86.0544 258.396C86.322 263.412 90.4338 267.352 95.4568 267.406C120.298 267.674 191.752 268.165 232.318 265.571C240.767 265.03 247.342 258.032 247.332 249.566C247.283 208.866 246.632 94.4046 241.057 42.0852C240.389 35.8169 235.35 30.9236 229.065 30.4343C201.972 28.3237 130.027 23.2885 94.9982 26.3358L94.9971 26.3348Z" fill="#232D48"/>
<path d="M93.7898 48.6784C93.3015 81.8506 91.9132 192.199 94.3374 232.928C94.6919 238.88 99.3155 243.58 105.026 243.78C128.534 244.599 188.819 246.184 223.169 242.405C229.354 241.724 234.081 236.363 234.247 229.871C235.106 196.02 237.427 93.2421 235.07 52.97C234.694 46.5454 229.785 41.4192 223.633 41.0044C198.178 39.2892 132.816 35.3337 103.604 37.7661C98.1202 38.2227 93.8736 42.9372 93.7888 48.6794L93.7898 48.6784Z" fill="#78B0E2"/>
<path d="M150.589 32.1019C150.609 33.0182 151.34 33.7589 152.256 33.7865C156.779 33.9244 169.522 34.3136 175.218 34.5189C176.34 34.5598 177.198 33.5321 176.961 32.4339C176.942 32.3992 176.796 30.9904 175.358 30.8913C171.505 30.6237 159.881 29.9015 152.2 30.3448C150.623 30.4357 150.537 32.2296 150.588 32.1029L150.589 32.1019Z" fill="#4B75C3"/>
<g opacity="0.3">
<path d="M43.3643 76.9859C42.6942 77.178 41.974 76.8378 41.7063 76.1768C41.122 74.7323 40.5928 73.2419 40.1321 71.7453C39.9084 71.0169 40.316 70.2456 41.0443 70.0209C41.0535 70.0188 41.0617 70.0158 41.0699 70.0137C41.7901 69.8074 42.546 70.214 42.7677 70.9331C43.2049 72.3552 43.7086 73.771 44.2633 75.143C44.5483 75.8489 44.2081 76.6529 43.5012 76.9389C43.4563 76.9573 43.4113 76.9726 43.3643 76.9859ZM40.1331 65.4147C40.081 65.43 40.0279 65.4412 39.9737 65.4504C39.2219 65.573 38.5129 65.0632 38.3903 64.3114C38.138 62.7678 37.95 61.1976 37.8295 59.6449C37.7712 58.8858 38.3362 58.2249 39.0983 58.1636C39.8573 58.1054 40.5203 58.6734 40.5795 59.4324C40.6929 60.9075 40.8727 62.399 41.1128 63.867C41.2262 64.5637 40.7961 65.2236 40.1341 65.4147H40.1331ZM39.5304 53.4195C39.3833 53.4613 39.226 53.4797 39.0635 53.4705C38.3035 53.4225 37.7253 52.7677 37.7733 52.0077C37.8703 50.4498 38.0369 48.8766 38.2677 47.3309C38.3811 46.578 39.0829 46.0591 39.8358 46.1715C40.5887 46.2838 41.1087 46.9867 40.9953 47.7396C40.7757 49.2065 40.6173 50.7001 40.5254 52.1803C40.4876 52.7779 40.0749 53.2632 39.5304 53.4205V53.4195ZM41.6246 41.5887C41.3804 41.6592 41.1148 41.6623 40.8533 41.5846C40.1229 41.3681 39.7061 40.6009 39.9227 39.8705C40.367 38.3729 40.8809 36.8763 41.4499 35.4226C41.7278 34.7146 42.5276 34.3642 43.2376 34.6421C43.9466 34.92 44.296 35.7199 44.0181 36.4298C43.4767 37.81 42.9884 39.232 42.5675 40.655C42.4286 41.1239 42.0618 41.4631 41.6246 41.5887ZM46.3054 30.5221C45.9632 30.6202 45.5842 30.5865 45.2491 30.3985C44.5851 30.0257 44.3491 29.1849 44.722 28.5209C45.4851 27.1622 46.3176 25.8168 47.1962 24.5235C47.6232 23.8932 48.4813 23.7287 49.1116 24.1568C49.7419 24.5848 49.9054 25.4419 49.4784 26.0722C48.6438 27.3022 47.852 28.5801 47.1267 29.8714C46.9418 30.2003 46.6415 30.4251 46.3054 30.5211V30.5221ZM53.3164 20.7672C52.873 20.8949 52.3765 20.7969 52.0098 20.4659C51.4449 19.9551 51.401 19.0837 51.9107 18.5177C52.9568 17.3593 54.0662 16.2315 55.2083 15.166C55.7651 14.646 56.6375 14.6767 57.1575 15.2334C57.6774 15.7902 57.6468 16.6626 57.09 17.1826C56.0051 18.1949 54.9519 19.2666 53.9569 20.3668C53.7781 20.565 53.5554 20.6988 53.3164 20.7672ZM100.979 3.66013C100.796 3.71325 100.598 3.72755 100.398 3.69793C98.9322 3.48136 97.4377 3.32506 95.9554 3.23516C95.1954 3.18919 94.6161 2.53539 94.6631 1.77535C94.7091 1.01531 95.3629 0.436079 96.1229 0.48205C97.6839 0.577055 99.2591 0.740503 100.802 0.968312C101.556 1.07966 102.076 1.78148 101.964 2.53437C101.883 3.08704 101.484 3.51405 100.98 3.65911L100.979 3.66013ZM62.3102 12.8133C61.7606 12.9717 61.1477 12.7745 60.8004 12.2791C60.3631 11.6549 60.5133 10.7958 61.1375 10.3585C62.4154 9.46159 63.7476 8.60961 65.0981 7.82607C65.758 7.44707 66.6008 7.66772 66.9829 8.32663C67.3649 8.98554 67.1412 9.82935 66.4823 10.2114C65.2002 10.9551 63.9345 11.7642 62.7209 12.6152C62.5922 12.7051 62.4532 12.7715 62.3102 12.8123V12.8133ZM88.973 3.25457C88.8852 3.28011 88.7942 3.29646 88.7003 3.30463C87.2221 3.42109 85.7296 3.60395 84.2646 3.84606C83.5128 3.96967 82.8028 3.46195 82.6792 2.71008C82.5556 1.95923 83.0623 1.24516 83.8152 1.12461C85.3577 0.870242 86.9279 0.678189 88.4827 0.55458C89.2417 0.494308 89.9067 1.06127 89.966 1.8203C90.0191 2.48533 89.59 3.07682 88.973 3.25457ZM72.8538 7.06807C72.1847 7.26012 71.4645 6.92096 71.1968 6.26205C70.9097 5.55615 71.2499 4.75218 71.9548 4.46512C73.3993 3.87773 74.8887 3.34549 76.3823 2.88272C76.3915 2.87966 76.4006 2.87659 76.4098 2.87455C77.129 2.66819 77.884 3.07376 78.1067 3.79191C78.3324 4.51927 77.9258 5.29259 77.1975 5.51733C75.7795 5.95763 74.3647 6.4633 72.9917 7.02108C72.9457 7.03947 72.8987 7.05581 72.8517 7.06909L72.8538 7.06807Z" fill="#91B3FA"/>
<path d="M110.391 5.93799C110.131 6.01256 109.845 6.01256 109.568 5.91756C108.895 5.68873 108.206 5.47011 107.52 5.26682C106.789 5.05127 106.372 4.28408 106.588 3.55366C106.804 2.82324 107.571 2.4044 108.301 2.62199C109.022 2.8355 109.748 3.06535 110.456 3.30644C111.177 3.55162 111.562 4.33516 111.317 5.05638C111.166 5.50076 110.811 5.81744 110.391 5.93799Z" fill="#91B3FA"/>
</g>
<g opacity="0.3">
<path d="M141.746 33.9486C141.107 34.1324 140.41 33.8301 140.119 33.2079C139.817 32.5643 139.497 31.9157 139.167 31.2813C138.815 30.605 139.078 29.7724 139.753 29.421C140.431 29.0686 141.262 29.3321 141.613 30.0074C141.961 30.6755 142.299 31.3579 142.617 32.0352C142.94 32.7247 142.643 33.5461 141.954 33.8699C141.886 33.9016 141.817 33.9271 141.747 33.9475L141.746 33.9486Z" fill="#91B3FA"/>
<path d="M108.016 108.401C107.406 108.576 106.791 108.741 106.171 108.897C105.432 109.082 104.682 108.634 104.497 107.895C104.312 107.157 104.763 106.404 105.499 106.222C106.93 105.862 108.344 105.445 109.717 104.978C110.439 104.732 111.221 105.117 111.467 105.838C111.713 106.559 111.328 107.343 110.606 107.589C109.758 107.879 108.886 108.151 108.016 108.401ZM99.0045 110.183C98.931 110.205 98.8534 110.22 98.7737 110.228C97.2444 110.398 95.6906 110.504 94.1562 110.545C93.3951 110.566 92.7618 109.965 92.7413 109.204C92.7209 108.443 93.3226 107.806 94.0837 107.789C95.5414 107.75 97.0166 107.649 98.4703 107.488C99.2272 107.404 99.9086 107.949 99.9924 108.706C100.067 109.385 99.6379 110.002 99.0045 110.183ZM117.296 104.774C116.67 104.954 115.987 104.67 115.685 104.068C115.342 103.388 115.617 102.559 116.298 102.216C117.599 101.563 118.89 100.843 120.137 100.078C120.786 99.6813 121.635 99.8836 122.034 100.532C122.432 101.181 122.229 102.03 121.579 102.429C120.267 103.234 118.908 103.991 117.537 104.68C117.458 104.719 117.376 104.751 117.296 104.774ZM87.1789 110.185C87.0104 110.233 86.8306 110.249 86.6457 110.228C85.1174 110.058 83.5789 109.82 82.0721 109.522C81.3254 109.373 80.8401 108.648 80.9872 107.901C81.1353 107.154 81.8607 106.668 82.6074 106.816C84.0386 107.099 85.4995 107.326 86.9511 107.488C87.7081 107.571 88.2536 108.254 88.1688 109.011C88.1055 109.583 87.6999 110.034 87.1789 110.185ZM127.2 98.3318C126.687 98.4789 126.113 98.3196 125.753 97.8813C125.27 97.2929 125.355 96.4235 125.943 95.9403C127.069 95.0158 128.17 94.031 129.217 93.0115C129.763 92.4803 130.636 92.4915 131.167 93.0381C131.699 93.5836 131.686 94.457 131.141 94.9872C130.039 96.0609 128.878 97.0978 127.693 98.0713C127.543 98.1949 127.374 98.2807 127.2 98.3318ZM135.451 89.8712C135.041 89.9887 134.583 89.9152 134.221 89.6332C133.62 89.1643 133.514 88.298 133.983 87.6973C134.882 86.546 135.742 85.3426 136.541 84.1229C136.957 83.4854 137.812 83.3067 138.45 83.7235C139.088 84.1403 139.266 84.9953 138.85 85.6328C138.009 86.9169 137.104 88.1826 136.158 89.3942C135.972 89.6322 135.723 89.7936 135.453 89.8712H135.451ZM141.661 79.8129C141.349 79.9028 141.005 79.8834 140.689 79.7332C140.002 79.4063 139.709 78.584 140.036 77.8965C140.663 76.5756 141.241 75.2149 141.755 73.8501C142.023 73.137 142.817 72.7764 143.531 73.0451C144.244 73.3137 144.605 74.1085 144.336 74.8216C143.796 76.2579 143.187 77.6901 142.527 79.0794C142.35 79.4513 142.029 79.7077 141.662 79.8129H141.661ZM145.529 68.6411C145.313 68.7034 145.079 68.7136 144.844 68.6605C144.101 68.492 143.636 67.7534 143.804 67.0107C144.127 65.5856 144.393 64.1309 144.594 62.6864C144.699 61.9325 145.397 61.4054 146.15 61.5106C146.905 61.6158 147.431 62.3125 147.326 63.0664C147.114 64.5875 146.834 66.1199 146.494 67.6195C146.379 68.1283 145.996 68.5073 145.529 68.6411ZM146.85 56.888C146.729 56.9227 146.6 56.9411 146.468 56.9411C145.707 56.9411 145.089 56.3231 145.09 55.561C145.09 54.1032 145.03 52.6271 144.907 51.1714C144.844 50.4123 145.41 49.7463 146.166 49.6819C146.925 49.6186 147.592 50.1825 147.655 50.9415C147.784 52.4738 147.849 54.0287 147.848 55.5631C147.848 56.1923 147.426 56.7225 146.849 56.888H146.85ZM145.559 45.14C145.532 45.1482 145.504 45.1543 145.476 45.1615C144.733 45.327 143.996 44.8581 143.831 44.1144C143.598 43.0652 143.329 42.011 143.033 40.9792C142.926 40.6063 142.814 40.2345 142.7 39.8657C142.474 39.1384 142.88 38.365 143.607 38.1393C144.338 37.8961 145.107 38.3191 145.333 39.0464C145.454 39.4346 145.571 39.8248 145.684 40.2181C145.995 41.303 146.277 42.4125 146.524 43.5168C146.683 44.2319 146.255 44.9419 145.559 45.1411V45.14Z" fill="#91B3FA"/>
<path d="M75.6129 107.57C75.3494 107.646 75.0613 107.644 74.7824 107.548C74.0765 107.304 73.3635 107.04 72.6606 106.764C71.9517 106.486 71.6023 105.686 71.8812 104.977C72.1601 104.268 72.9589 103.918 73.6689 104.197C74.336 104.459 75.0143 104.709 75.6834 104.941C76.4026 105.189 76.7847 105.975 76.5364 106.695C76.3842 107.136 76.0297 107.45 75.6129 107.57Z" fill="#91B3FA"/>
</g>
<path d="M72.9866 91.682C73.2123 91.8383 73.5127 91.8353 73.7343 91.6728L80.0629 87.038C83.4698 88.3854 87.1158 89.1986 90.8813 89.3927L94.7142 96.231C94.849 96.4711 95.1208 96.5988 95.3915 96.5498L104.651 94.8765C104.922 94.8274 105.131 94.6119 105.173 94.3412L106.37 86.5936C109.829 85.095 112.96 83.057 115.681 80.6021L123.231 82.729C123.496 82.8036 123.779 82.7025 123.935 82.4757L129.299 74.7455C129.457 74.5198 129.452 74.2194 129.29 73.9977L124.655 67.6692C126.003 64.2622 126.816 60.6163 127.01 56.8508L133.849 53.0179C134.089 52.883 134.217 52.6113 134.168 52.3416L132.495 43.0822C132.446 42.8115 132.231 42.602 131.958 42.5601L124.211 41.3629C122.712 37.9039 120.674 34.7728 118.219 32.0523L120.346 24.501C120.421 24.2364 120.319 23.9534 120.093 23.7971L112.363 18.4329C112.137 18.2755 111.837 18.2796 111.615 18.4421L105.286 23.0769C101.879 21.7294 98.2335 20.9163 94.468 20.7222L90.6351 13.8828C90.5002 13.6428 90.2285 13.5151 89.9578 13.5641L80.6983 15.2374C80.4276 15.2864 80.2182 15.501 80.1763 15.7737L78.979 23.5213C75.52 25.0199 72.3889 27.0579 69.6685 29.5127L62.1181 27.3858C61.8536 27.3113 61.5706 27.4124 61.4143 27.6392L56.05 35.3694C55.8938 35.5951 55.8968 35.8955 56.0593 36.1172L60.6941 42.4457C59.3466 45.8526 58.5335 49.4986 58.3394 53.2641L51.5 57.097C51.2599 57.2308 51.1322 57.5036 51.1813 57.7743L52.8546 67.0337C52.9036 67.3045 53.1182 67.5139 53.3899 67.5558L61.1374 68.753C62.6361 72.2121 64.6741 75.3431 67.1289 78.0636L65.002 85.6139C64.9274 85.8785 65.0286 86.1615 65.2554 86.3178L72.9855 91.682H72.9866Z" fill="#A3CDED"/>
<path d="M95.2807 64.1513C90.8492 65.4242 86.0233 63.2881 84.063 58.9669C81.9075 54.2177 84.018 48.6011 88.7672 46.4456C91.0678 45.4006 93.6381 45.3158 96.002 46.2045C98.3669 47.0933 100.244 48.8493 101.288 51.1499C103.444 55.8992 101.333 61.5157 96.5843 63.6712C96.1562 63.8653 95.72 64.0257 95.2807 64.1513ZM90.6878 48.0822C90.3456 48.1802 90.0085 48.3038 89.6785 48.454C86.0376 50.1059 84.4195 54.4138 86.0713 58.0547C87.7242 61.6955 92.0301 63.3157 95.672 61.6618C99.3129 60.0099 100.931 55.702 99.2791 52.0611C98.4782 50.2969 97.0389 48.9505 95.2256 48.2691C93.7515 47.7154 92.1742 47.6551 90.6878 48.0822Z" fill="#BDD0FB"/>
<path d="M99.238 77.2265C98.4769 77.4451 97.7005 77.627 96.9109 77.77C96.6626 77.8149 96.4134 77.8558 96.1631 77.8926C94.9301 78.0744 93.6858 78.1582 92.4466 78.1418C92.4293 78.1418 92.4129 78.1418 92.3956 78.1418C92.3475 78.1418 92.2995 78.1398 92.2515 78.1387C92.1585 78.1367 92.0646 78.1336 91.9716 78.1306C91.7264 78.1224 91.5242 77.9559 91.4598 77.7322C91.4445 77.678 91.4363 77.6198 91.4383 77.5606C91.4486 77.2561 91.7039 77.0181 92.0084 77.0283C93.5755 77.0814 95.1579 76.965 96.7127 76.684C104.437 75.2896 110.506 70.0224 113.282 63.2464C114.827 59.4779 115.351 55.2414 114.574 50.9447C114.438 50.1908 114.265 49.4502 114.056 48.7239C112.653 43.8387 109.636 39.6197 105.404 36.6827C100.542 33.3085 94.6583 32.0305 88.8354 33.0827C76.8096 35.2566 68.8015 46.8013 70.9734 58.822C71.1072 59.5637 71.2778 60.2951 71.4852 61.0143C72.3811 64.1301 73.9482 67.016 76.0853 69.4585C76.1404 69.5219 76.1782 69.5934 76.2007 69.669C76.2579 69.8682 76.2007 70.0909 76.0342 70.2359C75.8043 70.4362 75.457 70.4137 75.2558 70.1838C73.0124 67.6197 71.3657 64.5898 70.4258 61.3187C70.2092 60.5638 70.0294 59.7966 69.8885 59.0182C67.6083 46.3978 76.024 34.2759 88.6393 31.9968C94.7523 30.8925 100.929 32.2348 106.033 35.7766C110.477 38.8596 113.643 43.2881 115.117 48.4174C115.335 49.1795 115.517 49.9569 115.66 50.7476C116.764 56.8606 115.422 63.038 111.881 68.1417C108.797 72.5855 104.367 75.7534 99.238 77.2265Z" fill="#BDD0FB"/>
<g opacity="0.3">
<path d="M8.16542 124.908C7.81094 125.01 7.41865 124.872 7.21128 124.546C6.8241 123.935 6.45021 123.304 6.09981 122.671C5.87201 122.259 6.02116 121.741 6.43285 121.514C6.84454 121.284 7.36247 121.435 7.59028 121.847C7.92433 122.45 8.28086 123.051 8.65066 123.634C8.90299 124.031 8.78449 124.557 8.38812 124.81C8.31763 124.855 8.24305 124.888 8.16644 124.909L8.16542 124.908Z" fill="#91B3FA"/>
<path d="M5.17994 119.075C4.76519 119.195 4.31877 118.982 4.15532 118.574C3.69153 117.418 3.2829 116.225 2.93864 115.03C2.8661 114.778 2.79664 114.524 2.72921 114.27C2.60969 113.814 2.90901 113.359 3.335 113.228C3.78959 113.107 4.25543 113.379 4.37597 113.833C4.44033 114.077 4.50673 114.319 4.5762 114.559C4.90412 115.7 5.29436 116.837 5.73567 117.939C5.91138 118.376 5.6989 118.872 5.26269 119.047C5.23511 119.057 5.20752 119.067 5.17994 119.075ZM2.9182 110.526C2.87938 110.537 2.83954 110.546 2.79868 110.551C2.33285 110.615 1.90277 110.29 1.83841 109.823C1.63205 108.327 1.51764 106.806 1.49619 105.303C1.48903 104.832 1.86803 104.446 2.33591 104.439C2.80685 104.433 3.193 104.808 3.19913 105.279C3.21854 106.714 3.32887 108.165 3.52501 109.591C3.58324 110.016 3.31763 110.41 2.91718 110.526H2.9182ZM2.79868 101.683C2.69448 101.713 2.58313 101.723 2.46973 101.711C2.00186 101.659 1.66577 101.237 1.71787 100.77C1.88438 99.2727 2.14692 97.769 2.49834 96.301C2.60765 95.8433 3.06633 95.5614 3.52501 95.6707C3.98267 95.78 4.26462 96.2397 4.15532 96.6974C3.82024 98.0969 3.56996 99.5302 3.41162 100.958C3.37178 101.311 3.12149 101.59 2.7997 101.682L2.79868 101.683ZM4.85611 93.081C4.68653 93.1301 4.5006 93.126 4.32285 93.0606C3.88256 92.8951 3.65884 92.4037 3.82433 91.9634C4.35452 90.5496 4.97665 89.1572 5.67336 87.823C5.89197 87.4062 6.40684 87.2459 6.82262 87.4634C7.23942 87.681 7.40082 88.1959 7.18221 88.6127C6.51717 89.8835 5.92364 91.2126 5.41797 92.561C5.3199 92.8236 5.10537 93.0095 4.85509 93.081H4.85611ZM8.95156 85.2426C8.71456 85.311 8.44997 85.2753 8.23135 85.1251C7.84418 84.8585 7.74713 84.3272 8.01478 83.9401C8.87187 82.6999 9.81273 81.4996 10.8129 80.3748C11.1255 80.0224 11.6638 79.9907 12.0152 80.3033C12.3667 80.6159 12.3983 81.1543 12.0868 81.5057C11.1326 82.5794 10.2347 83.7235 9.41739 84.9075C9.30093 85.0761 9.13442 85.1894 8.95156 85.2415V85.2426ZM14.8256 78.6371C14.5191 78.725 14.1748 78.6371 13.9501 78.3807C13.6395 78.0273 13.6743 77.4899 14.0277 77.1794C15.1606 76.1844 16.3661 75.2507 17.6103 74.4048C18.0016 74.1412 18.5298 74.2424 18.7933 74.6306C19.0579 75.0198 18.9568 75.55 18.5675 75.8135C17.3805 76.6206 16.2312 77.5104 15.1514 78.4584C15.0534 78.5442 14.942 78.6034 14.8245 78.6371H14.8256ZM22.1338 73.6683C21.7497 73.7786 21.3299 73.6059 21.1409 73.2372C20.9263 72.8183 21.0929 72.3055 21.5107 72.091C22.8489 71.4065 24.2464 70.7966 25.6674 70.2787C26.1128 70.1245 26.5991 70.3461 26.7595 70.7885C26.9209 71.2298 26.6931 71.7191 26.2507 71.8805C24.8951 72.3739 23.562 72.9552 22.286 73.608C22.236 73.6335 22.1849 73.654 22.1328 73.6683H22.1338ZM34.8145 69.914C34.7675 69.9273 34.7174 69.9375 34.6674 69.9426C33.4323 70.0713 32.1829 70.2705 30.953 70.5341C30.766 70.5729 30.5842 70.6138 30.4024 70.6557C29.9437 70.7619 29.486 70.4769 29.3798 70.0182C29.2725 69.5595 29.5575 69.0876 30.0172 68.9956C30.2113 68.9507 30.4054 68.9078 30.6005 68.8669C31.8857 68.5921 33.1953 68.3837 34.4907 68.2489C34.9585 68.1998 35.3774 68.539 35.4264 69.0079C35.4703 69.4247 35.2047 69.8027 34.8155 69.915L34.8145 69.914Z" fill="#91B3FA"/>
</g>
<g opacity="0.3">
<path d="M48.9236 140.057C48.4772 140.186 48.0083 139.931 47.8734 139.484C47.7376 139.034 47.993 138.559 48.4435 138.423C49.7991 138.014 51.1424 137.52 52.4337 136.952C52.8638 136.768 53.3674 136.958 53.5564 137.389C53.7454 137.82 53.5493 138.323 53.1192 138.512C51.7646 139.106 50.3569 139.625 48.9359 140.053C48.9318 140.054 48.9287 140.055 48.9246 140.056L48.9236 140.057ZM44.6831 141.06C44.6535 141.069 44.6239 141.076 44.5932 141.081C43.1324 141.336 41.6419 141.505 40.1617 141.582C39.6917 141.607 39.2913 141.246 39.2668 140.776C39.2412 140.305 39.6049 139.906 40.0718 139.88C41.4836 139.806 42.9066 139.646 44.301 139.402C44.7638 139.322 45.2051 139.631 45.2858 140.095C45.3614 140.528 45.0958 140.942 44.6831 141.06ZM56.8857 136.558C56.523 136.663 56.1216 136.514 55.9193 136.175C55.6792 135.772 55.812 135.249 56.2155 135.009C57.4332 134.283 58.6162 133.478 59.7328 132.615C60.1067 132.328 60.6399 132.397 60.927 132.768C61.2151 133.14 61.1456 133.676 60.7737 133.964C59.603 134.869 58.3618 135.713 57.0859 136.472C57.0215 136.51 56.9551 136.539 56.8857 136.558ZM35.9927 141.513C35.8997 141.54 35.8006 141.551 35.6974 141.544C34.2172 141.44 32.7288 141.243 31.273 140.96C30.8113 140.87 30.5099 140.423 30.5998 139.961C30.6897 139.5 31.1372 139.199 31.5989 139.288C32.9872 139.559 34.4062 139.746 35.817 139.845C36.2859 139.877 36.6403 140.285 36.6066 140.754C36.5811 141.121 36.3267 141.417 35.9916 141.513H35.9927ZM63.7649 131.239C63.4748 131.322 63.1499 131.249 62.9231 131.019C62.5921 130.684 62.5952 130.145 62.9293 129.815C63.9345 128.822 64.8896 127.757 65.7671 126.647C66.0593 126.277 66.5956 126.216 66.9644 126.508C67.3332 126.8 67.3955 127.337 67.1034 127.706C66.1819 128.867 65.1818 129.985 64.1275 131.027C64.0223 131.131 63.8967 131.201 63.7649 131.239ZM69.1679 124.424C68.9463 124.488 68.7001 124.462 68.4876 124.332C68.0861 124.087 67.9604 123.562 68.2056 123.162C68.9452 121.953 69.6184 120.689 70.2058 119.406C70.402 118.978 70.9077 118.79 71.3347 118.986C71.7627 119.182 71.9507 119.687 71.7545 120.114C71.1385 121.461 70.4337 122.786 69.6583 124.051C69.5429 124.24 69.3651 124.368 69.1669 124.425L69.1679 124.424ZM72.7832 116.511C72.6269 116.556 72.4574 116.557 72.2909 116.504C71.8424 116.362 71.5942 115.883 71.7372 115.434C72.1672 114.085 72.5166 112.697 72.7771 111.308C72.8639 110.847 73.3094 110.542 73.7711 110.629C74.2339 110.716 74.5383 111.161 74.4515 111.624C74.1777 113.079 73.8109 114.534 73.3615 115.951C73.2716 116.233 73.0489 116.436 72.7843 116.512L72.7832 116.511Z" fill="#91B3FA"/>
<path d="M27.414 139.84C27.2557 139.885 27.083 139.886 26.9155 139.831C26.2218 139.605 25.5333 139.358 24.8662 139.095C24.429 138.923 24.2124 138.429 24.3841 137.991C24.5567 137.555 25.0501 137.338 25.4884 137.51C26.1248 137.76 26.7827 137.996 27.4436 138.211C27.8911 138.357 28.1352 138.839 27.9892 139.285C27.8982 139.564 27.6766 139.764 27.414 139.84Z" fill="#91B3FA"/>
</g>
<path d="M25.0569 129.068C25.2081 129.173 25.4093 129.17 25.5575 129.062L29.7929 125.961C32.072 126.862 34.5125 127.406 37.0317 127.536L39.5968 132.113C39.6867 132.273 39.8686 132.359 40.0494 132.326L46.2451 131.206C46.426 131.174 46.5669 131.03 46.5945 130.848L47.3954 125.663C49.7103 124.66 51.8055 123.296 53.6249 121.655L58.6776 123.078C58.8543 123.128 59.0443 123.059 59.1485 122.908L62.7383 117.735C62.8435 117.584 62.8404 117.383 62.7322 117.234L59.6307 112.999C60.5327 110.72 61.0762 108.279 61.2059 105.76L65.7825 103.196C65.9429 103.106 66.0287 102.924 65.996 102.744L64.8764 96.5478C64.8437 96.367 64.6997 96.226 64.5178 96.1984L59.3334 95.3975C58.3302 93.0827 56.9664 90.9875 55.3248 89.1681L56.7478 84.1154C56.7979 83.9387 56.7295 83.7487 56.5783 83.6445L51.4051 80.0547C51.2539 79.9495 51.0526 79.9525 50.9045 80.0608L46.6691 83.1623C44.39 82.2602 41.9495 81.7168 39.4303 81.587L36.8652 77.0104C36.7753 76.85 36.5934 76.7642 36.4126 76.7969L30.2168 77.9166C30.036 77.9492 29.895 78.0933 29.8674 78.2751L29.0665 83.4596C26.7517 84.4627 24.6565 85.8265 22.836 87.4682L17.7834 86.0451C17.6066 85.9951 17.4166 86.0635 17.3124 86.2147L13.7227 91.3879C13.6174 91.5391 13.6205 91.7403 13.7288 91.8885L16.8303 96.1239C15.9282 98.404 15.3847 100.843 15.255 103.363L10.6784 105.927C10.518 106.017 10.4322 106.199 10.4649 106.379L11.5845 112.575C11.6172 112.756 11.7613 112.897 11.9431 112.924L17.1275 113.725C18.1307 116.04 19.4945 118.136 21.1361 119.955L19.7131 125.008C19.663 125.184 19.7315 125.374 19.8827 125.478L25.0569 129.068Z" fill="#A3CDED"/>
<path d="M39.9978 110.758C38.6769 111.137 37.2753 111.084 35.9657 110.592C34.3547 109.987 33.0757 108.79 32.3647 107.223C30.8967 103.989 32.334 100.163 35.5683 98.6938C38.8097 97.2299 42.6304 98.6642 44.0984 101.899C44.8094 103.466 44.8686 105.217 44.2628 106.827C43.6581 108.438 42.4618 109.717 40.8937 110.428C40.6005 110.561 40.3012 110.671 39.9978 110.758ZM36.926 100.005C36.7053 100.068 36.4877 100.148 36.2732 100.245C33.894 101.326 32.8366 104.14 33.9164 106.519C34.4395 107.672 35.3803 108.552 36.5654 108.996C37.7504 109.442 39.0375 109.398 40.1909 108.876C41.3432 108.353 42.2238 107.412 42.6692 106.227C43.1146 105.042 43.0717 103.754 42.5476 102.602C41.5659 100.437 39.1468 99.366 36.926 100.005Z" fill="#BDD0FB"/>
<path d="M42.74 119.863C42.2221 120.012 41.6919 120.136 41.1515 120.234C40.0768 120.428 38.9807 120.514 37.8917 120.487C37.8426 120.485 37.7936 120.484 37.7446 120.482C37.3666 120.47 37.054 120.212 36.9539 119.867C36.9294 119.783 36.9181 119.693 36.9212 119.602C36.9365 119.133 37.3319 118.766 37.8008 118.78C38.8172 118.815 39.8418 118.739 40.846 118.557C40.9012 118.547 40.9564 118.537 41.0115 118.527C43.3846 118.074 45.5554 117.048 47.3759 115.556C48.3637 114.746 49.2484 113.798 50.0054 112.728C50.0115 112.719 50.0176 112.711 50.0238 112.703C50.0422 112.676 50.0616 112.65 50.08 112.623C52.2641 109.476 53.0915 105.666 52.4101 101.897C52.3223 101.408 52.2099 100.929 52.0751 100.459C51.1659 97.2969 49.2137 94.5663 46.4738 92.6642C43.3264 90.4801 39.517 89.6536 35.7484 90.334C31.9819 91.0164 28.6996 93.1238 26.5155 96.2702C24.3314 99.4176 23.504 103.227 24.1854 106.996C24.2712 107.477 24.3825 107.95 24.5164 108.415C25.0966 110.433 26.111 112.3 27.4942 113.882C27.579 113.979 27.6382 114.09 27.672 114.208C27.7598 114.515 27.672 114.859 27.4145 115.084C27.06 115.393 26.5227 115.359 26.2121 115.003C24.6645 113.234 23.5285 111.144 22.8798 108.887C22.7296 108.366 22.606 107.836 22.509 107.3C21.7469 103.082 22.6735 98.82 25.117 95.2987C27.5606 91.7784 31.226 89.4166 35.4461 88.6576C39.6641 87.8955 43.925 88.8209 47.4464 91.2655C50.5121 93.3924 52.6962 96.4479 53.7137 99.9866C53.8648 100.512 53.9905 101.049 54.0886 101.594C55.5637 109.76 50.5509 117.623 42.741 119.866L42.74 119.863Z" fill="#BDD0FB"/>
<path d="M159.429 241.234C159.339 240.117 158.199 239.152 156.268 238.377C158.366 237.22 159.527 235.98 159.429 234.763C159.132 231.084 147.477 229.02 133.398 230.155C119.319 231.29 108.145 235.193 108.442 238.874C108.532 239.991 109.672 240.956 111.603 241.731C109.505 242.889 108.344 244.128 108.442 245.345C108.532 246.461 109.672 247.427 111.603 248.202C109.505 249.358 108.344 250.599 108.442 251.815C108.532 252.932 109.672 253.897 111.603 254.673C109.505 255.83 108.344 257.069 108.442 258.286C108.573 259.913 110.929 261.224 114.731 262.082C114.682 263.284 114.71 264.603 114.827 266.058C115.378 272.839 123.006 278.156 133.094 278.156C143.182 278.156 151.914 270.907 152.013 264.104C152.038 262.436 151.966 260.969 151.816 259.665C156.643 258.053 159.583 256.084 159.429 254.174C159.339 253.057 158.199 252.092 156.268 251.317C158.366 250.159 159.527 248.92 159.429 247.703C159.339 246.587 158.199 245.622 156.268 244.846C158.366 243.689 159.527 242.451 159.429 241.234Z" fill="#44E0D9"/>
<path d="M126.882 263.546C122.701 263.546 118.875 263.238 115.714 262.633C115.53 262.598 115.41 262.42 115.445 262.237C115.48 262.054 115.656 261.934 115.84 261.969C120.787 262.916 127.394 263.124 134.444 262.556C140.213 262.091 145.609 261.16 150.046 259.865C150.226 259.813 150.413 259.915 150.465 260.095C150.517 260.275 150.415 260.462 150.235 260.514C145.754 261.821 140.312 262.761 134.498 263.229C131.88 263.441 129.32 263.545 126.881 263.545L126.882 263.546Z" fill="url(#paint1_linear_2194_7725)"/>
<path d="M126.953 257.069C121.52 257.069 116.665 256.558 113.241 255.583C113.061 255.532 112.957 255.345 113.008 255.165C113.059 254.985 113.246 254.881 113.425 254.932C118.305 256.321 126.163 256.753 134.445 256.084C142.637 255.424 150.277 253.761 154.883 251.638C155.052 251.56 155.253 251.634 155.331 251.803C155.409 251.973 155.335 252.174 155.165 252.252C150.492 254.407 142.766 256.092 134.499 256.759C131.92 256.967 129.378 257.068 126.953 257.068V257.069Z" fill="url(#paint2_linear_2194_7725)"/>
<path d="M126.883 250.605C121.018 250.605 115.884 250.005 112.429 248.865C112.252 248.807 112.156 248.616 112.214 248.438C112.272 248.26 112.463 248.164 112.641 248.222C117.449 249.808 125.6 250.328 134.445 249.616C142.637 248.956 150.277 247.293 154.882 245.169C155.052 245.091 155.253 245.165 155.331 245.334C155.409 245.504 155.335 245.705 155.165 245.783C150.492 247.938 142.766 249.623 134.499 250.29C131.88 250.501 129.318 250.605 126.883 250.605Z" fill="url(#paint3_linear_2194_7725)"/>
<path d="M126.928 244.131C122.275 244.131 118.043 243.755 114.752 243.024C114.571 242.983 114.455 242.803 114.496 242.62C114.537 242.437 114.718 242.323 114.9 242.364C119.847 243.463 126.971 243.748 134.445 243.145C142.563 242.49 150.165 240.847 154.778 238.746C154.948 238.669 155.149 238.744 155.226 238.914C155.303 239.083 155.228 239.285 155.058 239.361C150.377 241.492 142.692 243.158 134.499 243.818C131.911 244.027 129.362 244.131 126.928 244.131Z" fill="url(#paint4_linear_2194_7725)"/>
<path d="M98.9912 208.574C97.2811 202.517 94.3768 196.856 90.4652 191.926C82.0833 181.362 68.4096 159.88 66.7261 130.558C64.2784 87.9092 102.103 66.5565 136.619 69.4547C171.134 72.3539 205.192 98.0523 201.464 137.729C199.169 162.142 185.506 180.659 175.332 191.294C168.872 198.046 164.263 206.318 161.769 215.324C158.715 226.348 151.45 240.085 134.179 240.922C111.833 242.006 102.551 221.176 98.9922 208.571L98.9912 208.574Z" fill="url(#paint5_linear_2194_7725)"/>
<path d="M139.887 232.419L151.964 153.87C152.213 152.247 153.012 151.157 153.747 151.435C154.483 151.714 154.877 153.255 154.628 154.878C154.621 154.921 154.613 154.975 154.605 155.017L140.848 232.837C140.745 233.422 140.448 233.792 140.184 233.662C139.929 233.536 139.8 232.986 139.887 232.419Z" fill="#44E0D9"/>
<path d="M127.35 233.043L115.273 154.494C115.024 152.872 114.225 151.782 113.49 152.06C112.754 152.338 112.36 153.879 112.609 155.502C112.616 155.545 112.624 155.599 112.632 155.641L126.389 233.461C126.492 234.046 126.789 234.416 127.053 234.286C127.308 234.161 127.437 233.61 127.35 233.043Z" fill="#44E0D9"/>
<path opacity="0.71" d="M151.877 147.125C151.571 146.632 150.861 146.448 150.292 146.714L143.567 149.856L141.232 143.205C141.109 142.857 140.823 142.55 140.415 142.382C139.642 142.064 138.716 142.349 138.348 143.019L138.336 143.04L132.805 153.124L127.673 138.77L127.665 138.747C127.539 138.396 127.275 138.082 126.889 137.871C126.028 137.401 124.891 137.625 124.349 138.372L116.618 149.015C116.303 149.452 116.411 150.036 116.891 150.359C117.401 150.703 118.138 150.623 118.534 150.18L125.342 142.587L131.471 156.242L131.476 156.252C131.575 156.471 131.759 156.661 132.017 156.781C132.592 157.051 133.31 156.865 133.621 156.366L139.536 146.875L141.762 151.675L141.781 151.718C141.797 151.753 141.816 151.787 141.836 151.821C142.143 152.313 142.852 152.498 143.421 152.232L151.403 148.502C151.972 148.237 152.185 147.622 151.878 147.128L151.877 147.125Z" fill="#E6FAFC"/>
<path opacity="0.49" d="M175.593 181.8C175.145 181.8 174.692 181.662 174.305 181.374C173.346 180.662 173.145 179.307 173.857 178.348C175.9 175.596 177.77 172.752 179.42 169.898C180.018 168.863 181.341 168.509 182.376 169.107C183.411 169.704 183.765 171.027 183.167 172.062C181.436 175.06 179.473 178.042 177.332 180.927C176.907 181.499 176.254 181.8 175.593 181.8Z" fill="white"/>
<path opacity="0.49" d="M185.529 164.751C185.242 164.751 184.95 164.692 184.668 164.571C183.572 164.095 183.069 162.821 183.545 161.724C196.195 132.59 185.304 108.177 185.193 107.934C184.696 106.848 185.172 105.564 186.259 105.066C187.348 104.569 188.63 105.045 189.127 106.131C189.614 107.196 200.926 132.56 187.515 163.448C187.161 164.263 186.365 164.751 185.529 164.751Z" fill="white"/>
<g opacity="0.3">
<path d="M183.394 76.9138C183.831 76.64 184.414 76.7351 184.739 77.1508C185.45 78.059 186.131 79.0121 186.765 79.9816C187.074 80.4535 186.941 81.0869 186.469 81.3944C186.463 81.3985 186.458 81.4016 186.452 81.4046C185.982 81.6988 185.36 81.564 185.055 81.0982C184.453 80.1757 183.805 79.2716 183.13 78.4084C182.782 77.964 182.86 77.3225 183.304 76.9751C183.333 76.9527 183.363 76.9322 183.392 76.9138H183.394ZM188.06 84.4857C188.093 84.4642 188.129 84.4448 188.166 84.4274C188.676 84.1863 189.285 84.4039 189.526 84.9137C190.021 85.9608 190.477 87.0396 190.879 88.1194C191.076 88.6475 190.809 89.2339 190.28 89.4331C189.751 89.6303 189.163 89.3616 188.966 88.8334C188.583 87.8068 188.151 86.7821 187.68 85.7871C187.456 85.3142 187.628 84.7574 188.06 84.4857ZM190.943 92.8972C191.039 92.8369 191.147 92.792 191.264 92.7654C191.815 92.6439 192.359 92.9912 192.482 93.5418C192.731 94.6706 192.935 95.824 193.087 96.9702C193.16 97.529 192.767 98.0418 192.208 98.1164C191.649 98.1899 191.136 97.7966 191.062 97.2378C190.918 96.1489 190.725 95.0537 190.488 93.9821C190.392 93.549 190.587 93.1199 190.943 92.8972ZM191.873 101.743C192.033 101.643 192.22 101.586 192.423 101.587C192.987 101.591 193.44 102.053 193.435 102.616C193.426 103.772 193.366 104.943 193.258 106.093C193.205 106.654 192.708 107.067 192.147 107.015C191.586 106.962 191.173 106.464 191.225 105.903C191.328 104.81 191.385 103.699 191.393 102.6C191.396 102.238 191.587 101.921 191.873 101.743ZM190.807 110.575C191.03 110.435 191.307 110.381 191.583 110.446C192.132 110.576 192.472 111.126 192.342 111.674C192.076 112.797 191.76 113.925 191.4 115.025C191.225 115.561 190.648 115.853 190.112 115.678C189.577 115.502 189.283 114.926 189.459 114.39C189.801 113.344 190.103 112.272 190.355 111.205C190.419 110.933 190.587 110.712 190.807 110.575ZM187.813 118.95C188.103 118.769 188.475 118.736 188.804 118.898C189.311 119.146 189.52 119.757 189.273 120.264C188.766 121.301 188.207 122.331 187.613 123.323C187.323 123.807 186.696 123.964 186.213 123.674C185.729 123.384 185.572 122.757 185.861 122.273C186.426 121.331 186.956 120.352 187.439 119.367C187.525 119.189 187.657 119.048 187.812 118.951L187.813 118.95ZM157.401 140.872C157.52 140.797 157.658 140.745 157.807 140.725C158.894 140.58 159.99 140.385 161.063 140.145C161.613 140.023 162.159 140.369 162.282 140.92C162.404 141.47 162.058 142.016 161.507 142.138C160.377 142.391 159.223 142.596 158.079 142.749C157.52 142.824 157.006 142.431 156.932 141.873C156.876 141.463 157.072 141.077 157.401 140.872ZM183.042 126.448C183.4 126.223 183.877 126.239 184.225 126.519C184.664 126.873 184.732 127.516 184.378 127.954C183.653 128.853 182.878 129.732 182.078 130.566C181.686 130.971 181.042 130.986 180.635 130.596C180.228 130.205 180.215 129.559 180.605 129.152C181.365 128.36 182.1 127.526 182.789 126.672C182.863 126.581 182.948 126.507 183.042 126.448ZM166.026 138.705C166.083 138.669 166.144 138.638 166.209 138.614C167.237 138.229 168.262 137.794 169.255 137.321C169.764 137.079 170.373 137.295 170.615 137.805C170.858 138.314 170.643 138.925 170.131 139.166C169.086 139.662 168.008 140.12 166.927 140.526C166.398 140.724 165.81 140.457 165.612 139.929C165.438 139.467 165.622 138.957 166.025 138.705H166.026ZM176.714 132.693C177.15 132.419 177.733 132.514 178.058 132.928C178.406 133.371 178.329 134.013 177.886 134.362C176.978 135.075 176.028 135.759 175.059 136.394C175.053 136.398 175.047 136.402 175.041 136.406C174.571 136.701 173.951 136.567 173.645 136.101C173.336 135.629 173.468 134.997 173.939 134.687C174.858 134.084 175.761 133.435 176.623 132.756C176.653 132.734 176.683 132.712 176.713 132.693H176.714Z" fill="#BDD0FB"/>
<path d="M150.237 141.178C150.408 141.072 150.611 141.014 150.828 141.024C151.354 141.049 151.888 141.064 152.418 141.068C152.982 141.072 153.436 141.533 153.432 142.097C153.427 142.66 152.967 143.115 152.403 143.11C151.846 143.106 151.283 143.091 150.73 143.064C150.167 143.037 149.731 142.558 149.759 141.995C149.775 141.648 149.964 141.35 150.237 141.178Z" fill="#BDD0FB"/>
</g>
<g opacity="0.3">
<path d="M122.198 127.661C122.616 127.399 123.173 127.472 123.508 127.855C123.854 128.251 124.215 128.646 124.58 129.031C124.968 129.439 124.951 130.086 124.543 130.474C124.132 130.864 123.488 130.846 123.099 130.437C122.715 130.033 122.335 129.616 121.971 129.199C121.6 128.774 121.643 128.13 122.067 127.759C122.108 127.722 122.152 127.69 122.197 127.662L122.198 127.661Z" fill="#BDD0FB"/>
<path d="M130.967 67.7871C131.365 67.5379 131.769 67.2937 132.178 67.0567C132.665 66.7738 133.291 66.9392 133.574 67.4276C133.857 67.9148 133.69 68.5432 133.204 68.8231C132.259 69.3717 131.338 69.957 130.458 70.571C129.994 70.8928 129.359 70.7793 129.037 70.3176C128.714 69.8548 128.827 69.2185 129.29 68.8956C129.835 68.5156 130.4 68.1427 130.968 67.7871H130.967ZM137.013 64.6756C137.061 64.6449 137.113 64.6183 137.168 64.5958C138.221 64.1626 139.305 63.7683 140.387 63.4261C140.925 63.2555 141.499 63.5538 141.669 64.0911C141.838 64.6285 141.541 65.2047 141.003 65.3723C139.975 65.6981 138.945 66.0719 137.944 66.4836C137.423 66.6982 136.826 66.4489 136.612 65.9279C136.42 65.4611 136.599 64.934 137.013 64.6745V64.6756ZM125.106 72.2667C125.514 72.0113 126.058 72.0737 126.397 72.4394C126.78 72.8542 126.754 73.4997 126.34 73.8828C125.547 74.6143 124.776 75.3907 124.047 76.1896C123.666 76.6054 123.02 76.6349 122.604 76.2549C122.187 75.8738 122.159 75.2282 122.539 74.8124C123.307 73.9717 124.12 73.1544 124.955 72.3842C125.003 72.3403 125.054 72.3015 125.107 72.2688L125.106 72.2667ZM145.427 62.2554C145.537 62.1869 145.662 62.1379 145.797 62.1144C146.918 61.9234 148.062 61.7773 149.195 61.6813C149.757 61.6343 150.251 62.0511 150.299 62.6119C150.347 63.1738 149.93 63.6683 149.367 63.7153C148.291 63.8062 147.205 63.9441 146.14 64.126C145.584 64.221 145.057 63.847 144.962 63.2912C144.891 62.8714 145.087 62.4669 145.427 62.2533V62.2554ZM119.377 78.8762C119.712 78.6668 120.152 78.6627 120.499 78.9007C120.963 79.2205 121.08 79.8569 120.76 80.3207C120.148 81.2085 119.566 82.1351 119.03 83.0749C118.75 83.5643 118.127 83.7348 117.636 83.4549C117.147 83.175 116.976 82.5519 117.256 82.0626C117.821 81.0737 118.434 80.0981 119.078 79.1634C119.159 79.0449 119.262 78.9488 119.376 78.8772L119.377 78.8762ZM115.238 86.584C115.505 86.4165 115.846 86.3745 116.161 86.5012C116.684 86.7116 116.938 87.3062 116.727 87.8292C116.324 88.8324 115.957 89.8642 115.638 90.8959C115.473 91.4353 114.902 91.7367 114.361 91.5702C113.823 91.4037 113.52 90.8326 113.687 90.2932C114.022 89.2073 114.408 88.1214 114.833 87.0661C114.917 86.8587 115.061 86.6932 115.238 86.5829V86.584ZM112.876 95.0108C113.079 94.8831 113.328 94.827 113.584 94.8689C114.139 94.9608 114.516 95.4858 114.424 96.0426C114.249 97.1101 114.115 98.197 114.029 99.2738C113.984 99.8356 113.493 100.255 112.93 100.209C112.368 100.164 111.949 99.6723 111.994 99.1104C112.085 97.9785 112.225 96.8343 112.41 95.7106C112.46 95.4102 112.636 95.161 112.876 95.0108ZM112.409 103.751C112.55 103.663 112.714 103.608 112.892 103.598C113.455 103.565 113.937 103.996 113.97 104.559C114.031 105.639 114.139 106.729 114.293 107.797C114.372 108.355 113.983 108.873 113.426 108.953C112.868 109.032 112.351 108.644 112.271 108.086C112.111 106.961 111.996 105.813 111.931 104.676C111.909 104.291 112.103 103.943 112.409 103.751ZM113.873 112.383C113.952 112.333 114.039 112.294 114.134 112.267C114.676 112.111 115.242 112.425 115.397 112.966C115.694 114.003 116.041 115.041 116.425 116.053C116.625 116.58 116.359 117.17 115.833 117.369C115.306 117.57 114.717 117.305 114.515 116.778C114.111 115.713 113.746 114.621 113.434 113.529C113.305 113.082 113.497 112.618 113.872 112.382L113.873 112.383ZM117.196 120.479C117.213 120.468 117.232 120.458 117.25 120.447C117.746 120.178 118.366 120.36 118.635 120.856C119.016 121.555 119.423 122.25 119.845 122.924C119.997 123.168 120.152 123.409 120.31 123.648C120.619 124.119 120.488 124.752 120.018 125.062C119.547 125.385 118.913 125.24 118.604 124.77C118.438 124.518 118.276 124.264 118.114 124.007C117.671 123.3 117.243 122.567 116.842 121.833C116.583 121.357 116.742 120.764 117.196 120.48V120.479Z" fill="#BDD0FB"/>
<path d="M154.192 61.7494C154.364 61.6411 154.57 61.5839 154.787 61.5951C155.339 61.6248 155.901 61.6656 156.458 61.7187C157.02 61.7719 157.431 62.2694 157.378 62.8312C157.325 63.3931 156.828 63.8048 156.266 63.7517C155.738 63.7016 155.204 63.6628 154.68 63.6342C154.117 63.6046 153.685 63.1244 153.715 62.5605C153.733 62.2152 153.92 61.919 154.192 61.7494Z" fill="#BDD0FB"/>
</g>
<path d="M159.311 72.5165C159.118 72.4512 158.905 72.5155 158.781 72.6759L155.226 77.2687C152.526 77.0072 149.766 77.1738 147.047 77.8072L142.921 73.7249C142.776 73.5819 142.556 73.5462 142.375 73.6361L136.129 76.7202C135.946 76.8101 135.841 77.0063 135.866 77.2086L136.6 82.9661C134.445 84.7406 132.634 86.8306 131.201 89.1332L125.393 89.1649C125.19 89.166 125.009 89.2956 124.944 89.4887L122.708 96.0871C122.643 96.2801 122.707 96.4926 122.868 96.6172L127.46 100.172C127.198 102.872 127.365 105.633 127.998 108.351L123.916 112.477C123.773 112.622 123.737 112.842 123.827 113.024L126.912 119.27C127.002 119.452 127.198 119.558 127.4 119.531L133.158 118.798C134.932 120.952 137.023 122.763 139.325 124.197L139.357 130.004C139.358 130.207 139.488 130.388 139.681 130.454L146.279 132.689C146.472 132.754 146.684 132.69 146.809 132.529L150.364 127.937C153.064 128.198 155.824 128.032 158.543 127.398L162.669 131.48C162.814 131.623 163.034 131.659 163.215 131.569L169.461 128.484C169.644 128.394 169.749 128.198 169.724 127.996L168.99 122.238C171.145 120.464 172.956 118.374 174.389 116.071L180.197 116.039C180.4 116.039 180.581 115.909 180.646 115.716L182.882 109.117C182.947 108.924 182.883 108.712 182.722 108.587L178.13 105.032C178.392 102.332 178.225 99.5716 177.592 96.8532L181.674 92.7271C181.817 92.5821 181.853 92.3624 181.763 92.1806L178.679 85.9347C178.589 85.7518 178.393 85.6467 178.191 85.6722L172.433 86.4056C170.659 84.2511 168.568 82.4399 166.266 81.0066L166.234 75.1992C166.233 74.9959 166.103 74.8151 165.91 74.7497L159.312 72.5145L159.311 72.5165Z" fill="#A3CDED"/>
<path d="M149.081 96.6659C151.974 94.8536 155.844 95.3869 158.123 98.0593C160.628 100.998 160.275 105.426 157.337 107.931C155.914 109.145 154.103 109.731 152.239 109.583C150.374 109.435 148.679 108.57 147.466 107.146C144.961 104.208 145.314 99.7786 148.252 97.2737C148.516 97.048 148.794 96.8457 149.081 96.6659ZM155.635 107.16C155.859 107.02 156.074 106.863 156.278 106.689C158.531 104.768 158.8 101.373 156.881 99.1197C154.96 96.8671 151.564 96.5954 149.312 98.517C147.059 100.438 146.79 103.834 148.709 106.086C149.64 107.177 150.939 107.841 152.369 107.955C153.531 108.047 154.666 107.767 155.636 107.159L155.635 107.16Z" fill="url(#paint6_linear_2194_7725)"/>
<path d="M143.59 88.1706C144.087 87.859 144.603 87.5709 145.135 87.3084C145.303 87.2256 145.472 87.1449 145.642 87.0683C146.481 86.6863 147.351 86.3727 148.234 86.1305C148.247 86.1275 148.259 86.1244 148.27 86.1203C148.305 86.1111 148.339 86.1019 148.373 86.0927C148.44 86.0754 148.507 86.058 148.574 86.0406C148.749 85.9967 148.928 86.0733 149.019 86.2194C149.041 86.2552 149.058 86.295 149.069 86.3369C149.124 86.5555 148.99 86.7772 148.773 86.8324C147.647 87.1153 146.545 87.5219 145.496 88.0398C140.285 90.6121 137.044 95.6015 136.456 100.992C136.128 103.989 136.621 107.11 138.053 110.008C138.304 110.517 138.579 111.008 138.875 111.482C140.873 114.67 143.883 117.056 147.494 118.28C151.643 119.685 156.091 119.391 160.019 117.452C168.13 113.446 171.467 103.593 167.462 95.484C167.215 94.9844 166.944 94.4982 166.65 94.0293C165.375 91.9953 163.67 90.2628 161.65 88.9623C161.597 88.9286 161.556 88.8857 161.525 88.8356C161.443 88.7059 161.439 88.5353 161.528 88.3974C161.651 88.2084 161.903 88.1522 162.093 88.2748C164.214 89.6406 166.005 91.459 167.343 93.5941C167.651 94.0865 167.936 94.5962 168.196 95.1213C172.4 103.635 168.891 113.981 160.382 118.184C156.258 120.221 151.588 120.528 147.232 119.053C143.44 117.769 140.282 115.265 138.183 111.917C137.872 111.42 137.584 110.904 137.32 110.371C135.284 106.247 134.975 101.577 136.451 97.2206C137.736 93.4276 140.242 90.2679 143.59 88.1706Z" fill="url(#paint7_linear_2194_7725)"/>
<path d="M74.7685 281.125C75.3181 281.125 75.7645 280.68 75.7645 280.129V158.692C75.7645 158.142 75.3191 157.696 74.7685 157.696C74.2179 157.696 73.7725 158.141 73.7725 158.692V280.129C73.7725 280.679 74.2179 281.125 74.7685 281.125Z" fill="#A4CAFE"/>
<path d="M95.0487 281.125C95.5983 281.125 96.0448 280.68 96.0448 280.129V158.692C96.0448 158.142 95.5994 157.696 95.0487 157.696C94.4981 157.696 94.0527 158.141 94.0527 158.692V280.129C94.0527 280.679 94.4981 281.125 95.0487 281.125Z" fill="#91B3FA"/>
<path d="M12.0816 280.821C11.864 280.821 11.6454 280.767 11.4513 280.666C10.7791 280.318 10.5166 279.487 10.865 278.816L72.9086 159.151C73.2569 158.479 74.0864 158.217 74.7586 158.564C75.4308 158.912 75.6934 159.743 75.345 160.414L13.3014 280.079C13.0644 280.537 12.5975 280.821 12.0816 280.821Z" fill="#A4CAFE"/>
<path d="M41.5165 281.819C41.3275 281.819 41.1436 281.78 40.9689 281.704C40.6328 281.558 40.3734 281.29 40.2395 280.948C40.1057 280.607 40.1118 280.234 40.2579 279.898L93.2893 158.05C93.5917 157.357 94.4018 157.038 95.0954 157.339C95.7901 157.642 96.1088 158.452 95.8064 159.145L42.775 280.993C42.5564 281.495 42.064 281.819 41.5165 281.819Z" fill="#A4CAFE"/>
<path d="M84.5273 182.34H63.0173C62.5433 182.34 62.1592 181.956 62.1592 181.482C62.1592 181.008 62.5433 180.624 63.0173 180.624H84.5273C85.0013 180.624 85.3854 181.008 85.3854 181.482C85.3854 181.956 85.0013 182.34 84.5273 182.34Z" fill="#A4CAFE"/>
<path d="M78.7803 195.666H57.2702C56.7962 195.666 56.4121 195.282 56.4121 194.808C56.4121 194.334 56.7962 193.95 57.2702 193.95H78.7803C79.2543 193.95 79.6384 194.334 79.6384 194.808C79.6384 195.282 79.2543 195.666 78.7803 195.666Z" fill="#A4CAFE"/>
<path d="M71.199 211.622H48.3191C47.845 211.622 47.4609 211.238 47.4609 210.764C47.4609 210.29 47.845 209.906 48.3191 209.906H71.199C71.673 209.906 72.0571 210.29 72.0571 210.764C72.0571 211.238 71.673 211.622 71.199 211.622Z" fill="#A4CAFE"/>
<path d="M90.2446 169.415H69.7224C69.2484 169.415 68.8643 169.031 68.8643 168.557C68.8643 168.083 69.2484 167.699 69.7224 167.699H90.2446C90.7186 167.699 91.1027 168.083 91.1027 168.557C91.1027 169.031 90.7186 169.415 90.2446 169.415Z" fill="#A4CAFE"/>
<path d="M63.6495 229.981H38.7888C38.3148 229.981 37.9307 229.597 37.9307 229.123C37.9307 228.649 38.3148 228.264 38.7888 228.264H63.6495C64.1235 228.264 64.5077 228.649 64.5077 229.123C64.5077 229.597 64.1235 229.981 63.6495 229.981Z" fill="#A4CAFE"/>
<path d="M57.8081 244.221H31.1433C30.6693 244.221 30.2852 243.837 30.2852 243.363C30.2852 242.889 30.6693 242.505 31.1433 242.505H57.8081C58.2821 242.505 58.6662 242.889 58.6662 243.363C58.6662 243.837 58.2821 244.221 57.8081 244.221Z" fill="#A4CAFE"/>
<path d="M103.36 119.775C103.36 119.775 104.289 118.777 106.01 119.091C107.73 119.404 109.262 120.002 110.334 119.091C111.406 118.179 111.783 119.402 111.783 119.402L108.573 121.843L103.36 119.775Z" fill="url(#paint8_linear_2194_7725)"/>
<path d="M52.5644 226.908C49.8185 224.517 43.9189 222.603 43.9189 222.603L40.369 222.68C39.468 223.694 39.0604 225.658 38.8867 226.889C39.5548 227.29 40.8073 227.64 43.1048 227.75C47.3575 227.953 50.789 227.331 52.5644 226.908Z" fill="url(#paint9_linear_2194_7725)"/>
<path d="M52.5645 226.908C50.789 227.331 47.3565 227.953 43.1048 227.749C40.8083 227.64 39.5559 227.29 38.8867 226.888C38.8724 226.987 38.8602 227.082 38.8489 227.171C38.7856 227.676 39.0982 228.151 39.5845 228.3C42.8269 229.294 49.9595 228.974 52.7402 228.802C53.3347 228.765 53.6453 228.067 53.2642 227.609C53.066 227.371 52.829 227.137 52.5645 226.907V226.908Z" fill="url(#paint10_linear_2194_7725)"/>
<path d="M40.6592 219.616V222.438C40.6592 222.982 41.0382 223.451 41.5694 223.565C42.119 223.684 42.8495 223.76 43.5574 223.584C44.0008 223.475 44.3246 223.094 44.3777 222.641L44.7342 219.616H40.6592Z" fill="url(#paint11_linear_2194_7725)"/>
<path d="M58.6091 205.152C57.5078 202.701 57.8225 201.598 55.6425 201.843C55.3799 201.872 55.1623 201.922 54.9785 201.988C54.8405 202.392 54.8324 202.84 54.9795 203.265C55.5311 204.851 56.6824 207.56 58.796 210.228C59.2404 210.788 59.9198 211.113 60.6348 211.125L63.0386 211.165C60.7595 209.343 59.5213 207.185 58.6081 205.151L58.6091 205.152Z" fill="url(#paint12_linear_2194_7725)"/>
<path d="M63.1918 207.531C61.3469 206.232 60.6584 200.927 60.6584 200.927L57.8154 199.48L55.6711 201.034C55.3391 201.28 55.1051 201.616 54.9795 201.988C55.1634 201.922 55.381 201.871 55.6435 201.843C57.8235 201.598 57.5089 202.701 58.6101 205.152C59.5234 207.186 60.7615 209.344 63.0407 211.166L64.6925 211.194C65.4352 211.206 65.8632 210.358 65.4137 209.768C64.8488 209.027 64.0775 208.154 63.1929 207.532L63.1918 207.531Z" fill="url(#paint13_linear_2194_7725)"/>
<path d="M59.5315 196.809L57.8153 199.48C57.5987 199.817 57.6723 200.263 57.9879 200.511C58.5385 200.945 59.4917 201.428 60.6593 200.927L63.4175 199.037L59.5315 196.809Z" fill="url(#paint14_linear_2194_7725)"/>
<path d="M46.6472 168.624C46.6472 168.624 45.7442 171.169 44.4345 180.11C43.1249 189.05 42.2627 195.552 41.5486 199.098C40.8958 202.34 39.8661 214.016 39.9264 219.123C39.9345 219.81 40.5015 220.356 41.187 220.335L44.5653 220.23C45.0873 220.213 45.5245 219.834 45.6124 219.319C46.5063 214.061 52.6867 186.933 56.4124 179.129C56.4124 179.129 66.3266 181.931 68.7978 183.059C68.7978 183.059 65.6023 184.338 59.0541 196.615C59.0541 196.615 61.8818 198.863 63.8851 199.33C63.8851 199.33 78.2156 187.445 79.7295 186.201C81.2435 184.958 82.6226 182.815 78.7591 178.91C74.8955 175.006 63.0382 168.85 63.0382 168.85L46.6472 168.627V168.624Z" fill="#233876"/>
<path d="M55.8636 179.405C55.8391 179.405 55.8135 179.4 55.79 179.388L52.2544 178.026C50.7343 177.301 49.7475 175.746 49.7383 174.062C49.7383 173.967 49.8139 173.89 49.9089 173.889C50.0192 173.889 50.0805 173.965 50.0815 174.06C50.0897 175.613 50.9999 177.048 52.4015 177.716L55.9371 179.079C56.023 179.12 56.0587 179.222 56.0178 179.308C55.9882 179.369 55.9269 179.406 55.8626 179.406L55.8636 179.405Z" fill="url(#paint15_linear_2194_7725)"/>
<path d="M78.7061 167.871C78.7061 167.871 82.4297 165.053 84.1244 165.582C85.8192 166.111 87.0686 167.7 87.0686 167.7H83.3246C83.3246 167.7 82.4317 169.416 83.3246 169.416H84.6465C84.6465 169.416 81.1507 173.077 78.7061 167.871Z" fill="url(#paint16_linear_2194_7725)"/>
<path d="M72.4003 141.29C72.4003 141.29 76.7705 158.568 82.6884 165.516C82.6884 165.516 81.0856 167.343 78.7053 167.871C78.7053 167.871 69.6196 159.908 66.8532 154.374C64.0857 148.841 72.4003 141.291 72.4003 141.291V141.29Z" fill="url(#paint17_linear_2194_7725)"/>
<path d="M66.5594 124.843L62.2188 132.784H69.0694C69.0694 132.784 69.6201 129.153 71.4221 126.969L66.5594 124.843Z" fill="url(#paint18_linear_2194_7725)"/>
<path d="M73.1387 115.388C73.1387 115.388 75.3136 120.384 75.4597 123.007C75.6058 125.629 76.1707 127.331 73.1387 127.859C70.1067 128.387 67.5528 126.876 66.1686 124.264C66.1686 124.264 64.0008 120.239 64.4871 118.59C64.9734 116.941 73.1387 115.388 73.1387 115.388Z" fill="url(#paint19_linear_2194_7725)"/>
<path d="M67.2046 122.385H67.5877C67.5877 122.385 66.0084 119.146 67.3956 118.577C68.7829 118.008 74.28 116.887 75.466 114.936C76.6091 113.055 75.5896 110.627 74.0644 109.947C73.9684 109.904 73.854 109.949 73.8049 110.043L73.6783 110.282C73.5914 110.445 73.3503 110.421 73.2982 110.243C73.2492 110.074 73.0214 110.038 72.9295 110.187C72.5668 110.77 71.583 111.718 68.9464 112.205C65.2054 112.896 62.7322 114.41 62.6709 116.996C62.6668 117.159 62.4921 117.25 62.3522 117.164C62.0764 116.996 61.634 116.917 61.0436 117.413C60.0159 118.278 60.4368 120.518 62.6883 122.361C62.7955 122.449 62.7945 122.615 62.6781 122.691C62.2694 122.956 61.6616 123.589 63.2379 124.431C64.8509 125.294 65.8061 125.2 66.1657 125.108C66.2627 125.083 66.3281 124.994 66.322 124.894L66.18 122.603C66.1728 122.484 66.2668 122.384 66.3853 122.384H67.2026L67.2046 122.385Z" fill="url(#paint20_linear_2194_7725)"/>
<path d="M67.2979 122.865C67.2979 122.865 66.4684 119.674 65.0372 120.569C63.606 121.464 65.7799 124.144 66.9302 124.264L67.2979 122.865Z" fill="url(#paint21_linear_2194_7725)"/>
<path d="M101.142 121.423C101.142 121.423 101.78 118.76 103.699 119.124C105.619 119.489 109.977 121.859 111.1 121.423C112.223 120.987 113.659 119.942 114.397 120.31L113.099 121.925C113.099 121.925 116.436 120 117.01 121.183L111.458 124.307C111.458 124.307 103.334 123.494 101.142 121.423Z" fill="url(#paint22_linear_2194_7725)"/>
<path d="M61.2554 132.163C61.2554 132.163 63.1913 128.982 75.8505 129.761C82.4314 130.167 97.2318 124.432 100.527 121.547C100.527 121.547 102.675 121.533 104.655 123.605C104.655 123.605 90.9839 138.032 75.0465 139.876C75.0465 139.876 62.9512 164.803 63.036 168.848C63.036 168.848 55.8564 173.666 46.1158 170.218C46.1158 170.218 45.8175 163.289 49.6188 153.719C54.555 141.291 61.2544 132.164 61.2544 132.164L61.2554 132.163Z" fill="url(#paint23_linear_2194_7725)"/>
<path d="M66.9955 140.762C66.9066 140.762 66.832 140.694 66.8249 140.605C66.8167 140.51 66.8872 140.427 66.9822 140.42C67.0435 140.415 73.1197 139.92 74.0677 139.814C74.1607 139.805 74.2465 139.871 74.2578 139.965C74.268 140.059 74.2005 140.144 74.1066 140.155C73.1534 140.263 67.0721 140.757 67.0108 140.762C67.0057 140.762 67.0006 140.762 66.9955 140.762Z" fill="#91B3FA"/>
</g>
<defs>
<linearGradient id="paint0_linear_2194_7725" x1="316.652" y1="367.237" x2="66.7011" y2="56.8135" gradientUnits="userSpaceOnUse">
<stop stop-color="#DAE3FE"/>
<stop offset="1" stop-color="#E1EFFE"/>
</linearGradient>
<linearGradient id="paint1_linear_2194_7725" x1="156.718" y1="120.012" x2="144.275" y2="193.984" gradientUnits="userSpaceOnUse">
<stop stop-color="#4F52FF"/>
<stop offset="1" stop-color="#4042E2"/>
</linearGradient>
<linearGradient id="paint2_linear_2194_7725" x1="156.653" y1="120.001" x2="144.209" y2="193.975" gradientUnits="userSpaceOnUse">
<stop stop-color="#4F52FF"/>
<stop offset="1" stop-color="#4042E2"/>
</linearGradient>
<linearGradient id="paint3_linear_2194_7725" x1="155.187" y1="119.755" x2="142.743" y2="193.728" gradientUnits="userSpaceOnUse">
<stop stop-color="#4F52FF"/>
<stop offset="1" stop-color="#4042E2"/>
</linearGradient>
<linearGradient id="paint4_linear_2194_7725" x1="155.246" y1="119.764" x2="142.802" y2="193.737" gradientUnits="userSpaceOnUse">
<stop stop-color="#4F52FF"/>
<stop offset="1" stop-color="#4042E2"/>
</linearGradient>
<linearGradient id="paint5_linear_2194_7725" x1="67.2913" y1="68.343" x2="206.248" y2="71.4256" gradientUnits="userSpaceOnUse">
<stop stop-color="#1B9891"/>
<stop offset="0.5" stop-color="#017E7E"/>
<stop offset="1" stop-color="#2D4675"/>
</linearGradient>
<linearGradient id="paint6_linear_2194_7725" x1="145.796" y1="102.605" x2="159.794" y2="102.605" gradientUnits="userSpaceOnUse">
<stop stop-color="#DAE3FE"/>
<stop offset="1" stop-color="#E9EFFD"/>
</linearGradient>
<linearGradient id="paint7_linear_2194_7725" x1="135.532" y1="103.001" x2="169.975" y2="103.001" gradientUnits="userSpaceOnUse">
<stop stop-color="#DAE3FE"/>
<stop offset="1" stop-color="#E9EFFD"/>
</linearGradient>
<linearGradient id="paint8_linear_2194_7725" x1="111.866" y1="115.102" x2="106.72" y2="120.478" gradientUnits="userSpaceOnUse">
<stop stop-color="#A22B25"/>
<stop offset="1" stop-color="#C0423C"/>
</linearGradient>
<linearGradient id="paint9_linear_2194_7725" x1="48.089" y1="209.472" x2="46.716" y2="219.594" gradientUnits="userSpaceOnUse">
<stop stop-color="#09005D"/>
<stop offset="1" stop-color="#1A0F91"/>
</linearGradient>
<linearGradient id="paint10_linear_2194_7725" x1="46.1776" y1="227.387" x2="43.0036" y2="247.546" gradientUnits="userSpaceOnUse">
<stop stop-color="#09005D"/>
<stop offset="1" stop-color="#1A0F91"/>
</linearGradient>
<linearGradient id="paint11_linear_2194_7725" x1="40.6592" y1="221.652" x2="44.7342" y2="221.652" gradientUnits="userSpaceOnUse">
<stop stop-color="#A22B25"/>
<stop offset="1" stop-color="#C0423C"/>
</linearGradient>
<linearGradient id="paint12_linear_2194_7725" x1="58.1187" y1="207.322" x2="48.6989" y2="215.2" gradientUnits="userSpaceOnUse">
<stop stop-color="#09005D"/>
<stop offset="1" stop-color="#1A0F91"/>
</linearGradient>
<linearGradient id="paint13_linear_2194_7725" x1="42.0169" y1="205.336" x2="52.634" y2="205.336" gradientUnits="userSpaceOnUse">
<stop stop-color="#09005D"/>
<stop offset="1" stop-color="#1A0F91"/>
</linearGradient>
<linearGradient id="paint14_linear_2194_7725" x1="57.6906" y1="198.975" x2="63.4165" y2="198.975" gradientUnits="userSpaceOnUse">
<stop stop-color="#A22B25"/>
<stop offset="1" stop-color="#C0423C"/>
</linearGradient>
<linearGradient id="paint15_linear_2194_7725" x1="61.285" y1="153.301" x2="45.557" y2="197.028" gradientUnits="userSpaceOnUse">
<stop stop-color="#4F52FF"/>
<stop offset="1" stop-color="#4042E2"/>
</linearGradient>
<linearGradient id="paint16_linear_2194_7725" x1="78.7061" y1="168.091" x2="87.0686" y2="168.091" gradientUnits="userSpaceOnUse">
<stop stop-color="#A22B25"/>
<stop offset="1" stop-color="#C0423C"/>
</linearGradient>
<linearGradient id="paint17_linear_2194_7725" x1="66.3713" y1="141.158" x2="83.2382" y2="141.452" gradientUnits="userSpaceOnUse">
<stop stop-color="#0B5556"/>
<stop offset="0.5" stop-color="#0B5556"/>
<stop offset="1" stop-color="#2D4675"/>
</linearGradient>
<linearGradient id="paint18_linear_2194_7725" x1="70.612" y1="123.881" x2="64.0434" y2="135.461" gradientUnits="userSpaceOnUse">
<stop stop-color="#A22B25"/>
<stop offset="1" stop-color="#C0423C"/>
</linearGradient>
<linearGradient id="paint19_linear_2194_7725" x1="63.9467" y1="107.076" x2="72.4155" y2="126.088" gradientUnits="userSpaceOnUse">
<stop stop-color="#A22B25"/>
<stop offset="1" stop-color="#C0423C"/>
</linearGradient>
<linearGradient id="paint20_linear_2194_7725" x1="64.8601" y1="112.276" x2="76.1188" y2="126.771" gradientUnits="userSpaceOnUse">
<stop stop-color="#09005D"/>
<stop offset="1" stop-color="#1A0F91"/>
</linearGradient>
<linearGradient id="paint21_linear_2194_7725" x1="59.9713" y1="108.847" x2="68.4401" y2="127.859" gradientUnits="userSpaceOnUse">
<stop stop-color="#A22B25"/>
<stop offset="1" stop-color="#C0423C"/>
</linearGradient>
<linearGradient id="paint22_linear_2194_7725" x1="101.142" y1="121.699" x2="117.009" y2="121.699" gradientUnits="userSpaceOnUse">
<stop stop-color="#A22B25"/>
<stop offset="1" stop-color="#C0423C"/>
</linearGradient>
<linearGradient id="paint23_linear_2194_7725" x1="46.4041" y1="121.299" x2="106.57" y2="123.289" gradientUnits="userSpaceOnUse">
<stop stop-color="#0B5556"/>
<stop offset="0.5" stop-color="#0B5556"/>
<stop offset="1" stop-color="#2D4675"/>
</linearGradient>
<clipPath id="clip0_2194_7725">
<rect width="281" height="285" fill="white"/>
</clipPath>
</defs>
</svg>
