<svg width="281" height="285" viewBox="0 0 281 285" fill="none" xmlns="http://www.w3.org/2000/svg">
<path d="M247.889 244.817C242.147 250.862 236.715 254.759 232.423 257.839C181.971 294.038 122.274 283.487 109.587 280.91C90.8519 277.105 54.6374 269.75 28.4548 238.959C-11.1574 192.375 -4.98916 118.985 25.7364 70.5387C31.357 61.6767 61.0447 12.4935 121.385 4.60497C157.903 -0.168793 200.471 9.45944 231.296 35.2856C296.003 89.4969 291.397 199.015 247.89 244.817H247.889Z" fill="url(#paint0_linear_1190_43823)"/>
<path d="M94.9971 26.3348C88.6798 26.8844 83.8366 32.175 83.8182 38.5159C83.7078 77.2944 83.527 211.053 86.0544 258.396C86.322 263.412 90.4338 267.352 95.4568 267.406C120.298 267.674 191.752 268.165 232.318 265.571C240.767 265.03 247.342 258.032 247.332 249.566C247.283 208.866 246.632 94.4046 241.057 42.0852C240.389 35.8169 235.35 30.9236 229.065 30.4343C201.972 28.3237 130.027 23.2885 94.9982 26.3358L94.9971 26.3348Z" fill="url(#paint1_linear_1190_43823)"/>
<path d="M93.7898 48.6784C93.3015 81.8506 91.9132 192.199 94.3374 232.928C94.6919 238.88 99.3155 243.58 105.026 243.78C128.534 244.599 188.819 246.184 223.169 242.405C229.354 241.724 234.081 236.363 234.247 229.871C235.106 196.02 237.427 93.2421 235.07 52.97C234.694 46.5454 229.785 41.4192 223.633 41.0044C198.178 39.2892 132.816 35.3337 103.604 37.7661C98.1202 38.2227 93.8736 42.9372 93.7888 48.6794L93.7898 48.6784Z" fill="url(#paint2_linear_1190_43823)"/>
<path d="M150.589 32.1014C150.609 33.0177 151.34 33.7584 152.256 33.786C156.779 33.9239 169.522 34.3131 175.218 34.5184C176.34 34.5593 177.198 33.5316 176.961 32.4334C176.942 32.3987 176.796 30.9899 175.358 30.8908C171.505 30.6232 159.881 29.901 152.2 30.3443C150.623 30.4352 150.537 32.2291 150.588 32.1024L150.589 32.1014Z" fill="url(#paint3_linear_1190_43823)"/>
<g opacity="0.3">
<path d="M43.3643 76.9859C42.6942 77.178 41.974 76.8378 41.7063 76.1768C41.122 74.7323 40.5928 73.2419 40.1321 71.7453C39.9084 71.0169 40.316 70.2456 41.0443 70.0209C41.0535 70.0188 41.0617 70.0158 41.0699 70.0137C41.7901 69.8074 42.546 70.214 42.7677 70.9331C43.2049 72.3552 43.7086 73.771 44.2633 75.143C44.5483 75.8489 44.2081 76.6529 43.5012 76.9389C43.4563 76.9573 43.4103 76.9726 43.3633 76.9859H43.3643ZM40.1331 65.4147C40.081 65.43 40.0279 65.4412 39.9737 65.4504C39.2219 65.573 38.5129 65.0632 38.3903 64.3114C38.138 62.7678 37.95 61.1976 37.8295 59.6449C37.7712 58.8858 38.3362 58.2249 39.0983 58.1636C39.8573 58.1054 40.5203 58.6734 40.5795 59.4324C40.6929 60.9075 40.8727 62.399 41.1128 63.867C41.2262 64.5637 40.7961 65.2236 40.1341 65.4147H40.1331ZM39.5304 53.4195C39.3833 53.4613 39.226 53.4797 39.0635 53.4705C38.3035 53.4225 37.7253 52.7677 37.7733 52.0077C37.8703 50.4498 38.0369 48.8766 38.2677 47.3309C38.3811 46.578 39.0829 46.0591 39.8358 46.1715C40.5887 46.2838 41.1087 46.9867 40.9953 47.7396C40.7757 49.2065 40.6173 50.7001 40.5254 52.1803C40.4876 52.7779 40.0749 53.2632 39.5304 53.4205V53.4195ZM41.6246 41.5887C41.3804 41.6592 41.1148 41.6623 40.8533 41.5846C40.1229 41.3681 39.7061 40.6009 39.9227 39.8705C40.367 38.3729 40.8809 36.8763 41.4499 35.4226C41.7278 34.7146 42.5276 34.3642 43.2376 34.6421C43.9466 34.92 44.296 35.7199 44.0181 36.4298C43.4767 37.81 42.9884 39.232 42.5675 40.655C42.4286 41.1239 42.0618 41.4631 41.6246 41.5887ZM46.3054 30.5221C45.9632 30.6202 45.5842 30.5865 45.2491 30.3985C44.5851 30.0257 44.3491 29.1849 44.722 28.5209C45.4851 27.1622 46.3176 25.8168 47.1962 24.5235C47.6232 23.8932 48.4813 23.7287 49.1116 24.1568C49.7419 24.5848 49.9054 25.4419 49.4784 26.0722C48.6438 27.3022 47.852 28.5801 47.1267 29.8714C46.9418 30.2003 46.6415 30.4251 46.3054 30.5211V30.5221ZM53.3164 20.7672C52.873 20.8949 52.3765 20.7969 52.0098 20.4659C51.4449 19.9551 51.401 19.0837 51.9107 18.5177C52.9568 17.3593 54.0662 16.2315 55.2083 15.166C55.7651 14.646 56.6375 14.6767 57.1575 15.2334C57.6774 15.7902 57.6468 16.6626 57.09 17.1826C56.0051 18.1949 54.9519 19.2666 53.9569 20.3668C53.7781 20.565 53.5544 20.6988 53.3154 20.7672H53.3164ZM100.979 3.66013C100.796 3.71325 100.598 3.72755 100.398 3.69793C98.9322 3.48136 97.4377 3.32506 95.9554 3.23516C95.1954 3.18919 94.6161 2.53539 94.6631 1.77535C94.7091 1.01531 95.3629 0.436079 96.1229 0.48205C97.6839 0.577055 99.2591 0.740503 100.802 0.968312C101.556 1.07966 102.076 1.78148 101.964 2.53437C101.883 3.08704 101.484 3.51405 100.98 3.65911L100.979 3.66013ZM62.3102 12.8133C61.7606 12.9717 61.1477 12.7745 60.8004 12.2791C60.3631 11.6549 60.5133 10.7958 61.1375 10.3585C62.4154 9.46159 63.7476 8.60961 65.0981 7.82607C65.758 7.44707 66.6008 7.66772 66.9829 8.32663C67.3649 8.98554 67.1412 9.82935 66.4823 10.2114C65.2002 10.9551 63.9345 11.7642 62.7209 12.6152C62.5922 12.7051 62.4532 12.7715 62.3102 12.8123V12.8133ZM88.973 3.25457C88.8852 3.28011 88.7942 3.29646 88.7003 3.30463C87.2221 3.42109 85.7296 3.60395 84.2646 3.84606C83.5128 3.96967 82.8028 3.46195 82.6792 2.71008C82.5556 1.95923 83.0623 1.24516 83.8152 1.12461C85.3577 0.870242 86.9279 0.678189 88.4827 0.55458C89.2417 0.494308 89.9067 1.06127 89.966 1.8203C90.0191 2.48533 89.59 3.07682 88.973 3.25457ZM72.8538 7.06807C72.1847 7.26012 71.4645 6.92096 71.1968 6.26205C70.9097 5.55615 71.2499 4.75218 71.9548 4.46512C73.3993 3.87773 74.8887 3.34549 76.3823 2.88272C76.3915 2.87966 76.4006 2.87659 76.4098 2.87455C77.129 2.66819 77.884 3.07376 78.1067 3.79191C78.3324 4.51927 77.9258 5.29259 77.1975 5.51733C75.7795 5.95763 74.3647 6.4633 72.9917 7.02108C72.9457 7.03947 72.8987 7.05581 72.8517 7.06909L72.8538 7.06807Z" fill="#91B3FA"/>
<path d="M110.391 5.93823C110.131 6.0128 109.845 6.0128 109.568 5.9178C108.895 5.68897 108.206 5.47035 107.52 5.26706C106.789 5.05151 106.372 4.28432 106.588 3.5539C106.804 2.82348 107.571 2.40464 108.301 2.62223C109.022 2.83574 109.748 3.06559 110.456 3.30668C111.177 3.55186 111.562 4.3354 111.317 5.05662C111.166 5.501 110.81 5.81768 110.39 5.93823H110.391Z" fill="#91B3FA"/>
</g>
<g opacity="0.3">
<path d="M141.746 33.9484C141.107 34.1322 140.41 33.8299 140.119 33.2077C139.817 32.5641 139.497 31.9155 139.167 31.2811C138.815 30.6048 139.078 29.7722 139.753 29.4208C140.431 29.0684 141.262 29.3319 141.613 30.0072C141.961 30.6753 142.299 31.3577 142.617 32.035C142.94 32.7245 142.643 33.5459 141.954 33.8697C141.886 33.9014 141.817 33.9269 141.747 33.9473L141.746 33.9484Z" fill="#91B3FA"/>
<path d="M108.016 108.401C107.406 108.576 106.791 108.741 106.171 108.897C105.432 109.082 104.682 108.634 104.497 107.895C104.312 107.157 104.763 106.404 105.499 106.222C106.93 105.862 108.344 105.445 109.717 104.978C110.439 104.732 111.221 105.117 111.467 105.838C111.713 106.559 111.328 107.343 110.606 107.589C109.758 107.879 108.886 108.152 108.016 108.402V108.401ZM99.0045 110.183C98.931 110.205 98.8534 110.22 98.7737 110.228C97.2444 110.398 95.6906 110.504 94.1562 110.545C93.3951 110.566 92.7618 109.965 92.7413 109.204C92.7209 108.443 93.3226 107.806 94.0837 107.789C95.5414 107.75 97.0166 107.649 98.4703 107.488C99.2272 107.404 99.9086 107.949 99.9924 108.706C100.067 109.385 99.6379 110.002 99.0045 110.183ZM117.296 104.774C116.67 104.954 115.987 104.67 115.685 104.068C115.342 103.388 115.617 102.559 116.298 102.216C117.599 101.563 118.89 100.843 120.137 100.078C120.786 99.6808 121.635 99.8831 122.034 100.532C122.432 101.181 122.229 102.03 121.579 102.429C120.267 103.234 118.908 103.991 117.537 104.68C117.458 104.719 117.377 104.751 117.297 104.774H117.296ZM87.1789 110.185C87.0104 110.233 86.8306 110.249 86.6457 110.228C85.1174 110.058 83.5789 109.82 82.0721 109.522C81.3254 109.373 80.8401 108.648 80.9872 107.901C81.1353 107.154 81.8607 106.668 82.6074 106.816C84.0386 107.099 85.4995 107.326 86.9511 107.488C87.7081 107.571 88.2536 108.254 88.1688 109.011C88.1055 109.583 87.6999 110.034 87.1789 110.185ZM127.2 98.3313C126.687 98.4784 126.113 98.3191 125.753 97.8808C125.27 97.2924 125.355 96.423 125.943 95.9398C127.069 95.0153 128.17 94.0305 129.217 93.011C129.763 92.4798 130.636 92.491 131.167 93.0376C131.699 93.5831 131.686 94.4565 131.141 94.9867C130.039 96.0604 128.878 97.0973 127.693 98.0708C127.543 98.1944 127.374 98.2802 127.2 98.3313ZM135.451 89.8707C135.041 89.9882 134.583 89.9147 134.221 89.6327C133.62 89.1638 133.514 88.2975 133.983 87.6968C134.882 86.5455 135.742 85.3421 136.541 84.1224C136.957 83.4849 137.812 83.3062 138.45 83.723C139.088 84.1398 139.266 84.9948 138.85 85.6323C138.009 86.9164 137.104 88.1821 136.158 89.3937C135.972 89.6317 135.723 89.7931 135.453 89.8707H135.451ZM141.661 79.8124C141.349 79.9023 141.005 79.8829 140.689 79.7327C140.002 79.4058 139.709 78.5835 140.036 77.896C140.663 76.5751 141.241 75.2144 141.755 73.8496C142.023 73.1365 142.817 72.7759 143.531 73.0446C144.244 73.3132 144.605 74.108 144.336 74.8211C143.796 76.2574 143.187 77.6896 142.527 79.0789C142.35 79.4508 142.029 79.7072 141.662 79.8124H141.661ZM145.529 68.6406C145.313 68.7029 145.079 68.7131 144.844 68.66C144.101 68.4915 143.636 67.7529 143.804 67.0102C144.127 65.5851 144.393 64.1304 144.594 62.6859C144.699 61.932 145.397 61.4049 146.15 61.5101C146.905 61.6153 147.431 62.312 147.326 63.0659C147.114 64.587 146.834 66.1194 146.494 67.619C146.379 68.1278 145.996 68.5058 145.529 68.6396V68.6406ZM146.85 56.8875C146.729 56.9222 146.6 56.9406 146.468 56.9406C145.707 56.9406 145.089 56.3226 145.09 55.5605C145.09 54.1027 145.03 52.6266 144.907 51.1709C144.844 50.4118 145.41 49.7458 146.166 49.6814C146.925 49.6181 147.592 50.182 147.655 50.941C147.784 52.4733 147.849 54.0282 147.848 55.5626C147.848 56.1918 147.426 56.722 146.849 56.8875H146.85ZM145.559 45.1395C145.532 45.1477 145.504 45.1538 145.476 45.161C144.733 45.3265 143.996 44.8576 143.831 44.1139C143.598 43.0647 143.329 42.0105 143.033 40.9787C142.926 40.6058 142.814 40.234 142.7 39.8652C142.474 39.1379 142.88 38.3645 143.607 38.1388C144.338 37.8956 145.107 38.3186 145.333 39.0459C145.454 39.4341 145.571 39.8243 145.684 40.2176C145.995 41.3025 146.277 42.412 146.524 43.5163C146.683 44.2314 146.255 44.9414 145.559 45.1406V45.1395Z" fill="#91B3FA"/>
<path d="M75.6129 107.569C75.3494 107.645 75.0613 107.643 74.7824 107.547C74.0765 107.303 73.3635 107.039 72.6606 106.763C71.9517 106.485 71.6023 105.685 71.8812 104.976C72.1601 104.267 72.9589 103.917 73.6689 104.196C74.336 104.458 75.0143 104.708 75.6834 104.94C76.4026 105.188 76.7847 105.974 76.5364 106.694C76.3842 107.135 76.0297 107.449 75.6129 107.569Z" fill="#91B3FA"/>
</g>
<path d="M72.9866 91.682C73.2123 91.8383 73.5127 91.8353 73.7343 91.6728L80.0629 87.038C83.4698 88.3854 87.1158 89.1986 90.8813 89.3927L94.7142 96.231C94.849 96.4711 95.1208 96.5988 95.3915 96.5498L104.651 94.8765C104.922 94.8274 105.131 94.6119 105.173 94.3412L106.37 86.5936C109.829 85.095 112.96 83.057 115.681 80.6021L123.231 82.729C123.496 82.8036 123.779 82.7025 123.935 82.4757L129.299 74.7455C129.457 74.5198 129.452 74.2194 129.29 73.9977L124.655 67.6692C126.003 64.2622 126.816 60.6163 127.01 56.8508L133.849 53.0179C134.089 52.883 134.217 52.6113 134.168 52.3416L132.495 43.0822C132.446 42.8115 132.231 42.602 131.958 42.5601L124.211 41.3629C122.712 37.9039 120.674 34.7728 118.219 32.0523L120.346 24.501C120.421 24.2364 120.319 23.9534 120.093 23.7971L112.363 18.4329C112.137 18.2755 111.837 18.2796 111.615 18.4421L105.286 23.0769C101.879 21.7294 98.2335 20.9163 94.468 20.7222L90.6351 13.8828C90.5002 13.6428 90.2285 13.5151 89.9578 13.5641L80.6983 15.2374C80.4276 15.2864 80.2182 15.501 80.1763 15.7737L78.979 23.5213C75.52 25.0199 72.3889 27.0579 69.6685 29.5127L62.1181 27.3858C61.8536 27.3113 61.5706 27.4124 61.4143 27.6392L56.05 35.3694C55.8938 35.5951 55.8968 35.8955 56.0593 36.1172L60.6941 42.4457C59.3466 45.8526 58.5335 49.4986 58.3394 53.2641L51.5 57.097C51.2599 57.2308 51.1322 57.5036 51.1813 57.7743L52.8546 67.0337C52.9036 67.3045 53.1182 67.5139 53.3899 67.5558L61.1374 68.753C62.6361 72.2121 64.6741 75.3431 67.1289 78.0636L65.002 85.6139C64.9274 85.8785 65.0286 86.1615 65.2554 86.3178L72.9855 91.682H72.9866Z" fill="#91B3FA"/>
<path d="M95.2802 64.1508C90.8487 65.4237 86.0228 63.2876 84.0625 58.9664C81.907 54.2172 84.0175 48.6006 88.7667 46.4451C91.0673 45.4001 93.6376 45.3153 96.0015 46.204C98.3664 47.0928 100.244 48.8488 101.288 51.1494C103.444 55.8987 101.333 61.5152 96.5838 63.6707C96.1557 63.8648 95.7195 64.0252 95.2802 64.1508ZM90.6873 48.0817C90.3451 48.1797 90.008 48.3033 89.678 48.4535C86.0371 50.1054 84.419 54.4133 86.0708 58.0542C87.7237 61.695 92.0296 63.3152 95.6715 61.6613C99.3124 60.0094 100.931 55.7015 99.2786 52.0606C98.4777 50.2964 97.0384 48.95 95.2251 48.2686C93.751 47.7149 92.1737 47.6546 90.6873 48.0817Z" fill="#BDD0FB"/>
<path d="M99.2375 77.2268C98.4764 77.4454 97.7 77.6273 96.9104 77.7703C96.6621 77.8152 96.4129 77.8561 96.1626 77.8929C94.9296 78.0747 93.6853 78.1585 92.4461 78.1421C92.4288 78.1421 92.4124 78.1421 92.3951 78.1421C92.347 78.1421 92.299 78.1401 92.251 78.139C92.158 78.137 92.0641 78.1339 91.9711 78.1309C91.7259 78.1227 91.5237 77.9562 91.4593 77.7325C91.444 77.6783 91.4358 77.6201 91.4378 77.5609C91.4481 77.2564 91.7034 77.0184 92.0079 77.0286C93.575 77.0817 95.1574 76.9653 96.7122 76.6843C104.437 75.2899 110.506 70.0227 113.282 63.2467C114.827 59.4782 115.351 55.2417 114.574 50.945C114.438 50.1911 114.265 49.4505 114.056 48.7242C112.653 43.839 109.636 39.62 105.404 36.683C100.542 33.3088 94.6578 32.0308 88.8349 33.083C76.8091 35.2569 68.801 46.8016 70.9729 58.8223C71.1067 59.564 71.2773 60.2954 71.4847 61.0146C72.3806 64.1304 73.9477 67.0163 76.0848 69.4588C76.1399 69.5222 76.1777 69.5937 76.2002 69.6693C76.2574 69.8685 76.2002 70.0912 76.0337 70.2362C75.8038 70.4365 75.4565 70.414 75.2553 70.1841C73.0119 67.62 71.3652 64.5901 70.4253 61.319C70.2087 60.5641 70.0289 59.7969 69.888 59.0185C67.6078 46.3981 76.0235 34.2762 88.6388 31.9971C94.7518 30.8928 100.929 32.2351 106.033 35.7769C110.477 38.8599 113.643 43.2884 115.117 48.4177C115.335 49.1798 115.517 49.9572 115.66 50.7479C116.764 56.8609 115.422 63.0383 111.881 68.142C108.797 72.5858 104.367 75.7527 99.2375 77.2258V77.2268Z" fill="#BDD0FB"/>
<g opacity="0.3">
<path d="M8.16542 124.907C7.81094 125.009 7.41865 124.871 7.21128 124.545C6.8241 123.934 6.45021 123.303 6.09981 122.67C5.87201 122.258 6.02116 121.74 6.43285 121.513C6.84454 121.283 7.36247 121.434 7.59028 121.846C7.92433 122.449 8.28086 123.05 8.65066 123.633C8.90299 124.03 8.78449 124.556 8.38812 124.809C8.31763 124.854 8.24305 124.887 8.16644 124.908L8.16542 124.907Z" fill="#91B3FA"/>
<path d="M5.17946 119.075C4.76471 119.195 4.31829 118.982 4.15484 118.574C3.69105 117.418 3.28242 116.225 2.93816 115.03C2.86562 114.778 2.79616 114.524 2.72873 114.27C2.60921 113.814 2.90853 113.359 3.33452 113.228C3.78911 113.107 4.25495 113.379 4.37549 113.833C4.43985 114.077 4.50625 114.319 4.57572 114.559C4.90364 115.7 5.29388 116.837 5.73519 117.939C5.9109 118.376 5.69842 118.872 5.26221 119.047C5.23463 119.057 5.20704 119.067 5.17946 119.075ZM2.91772 110.526C2.8789 110.537 2.83906 110.546 2.7982 110.551C2.33237 110.615 1.90229 110.29 1.83793 109.823C1.63157 108.327 1.51716 106.806 1.49571 105.303C1.48855 104.832 1.86755 104.446 2.33543 104.439C2.80637 104.433 3.19252 104.808 3.19865 105.279C3.21806 106.714 3.32839 108.165 3.52453 109.591C3.58276 110.016 3.31715 110.41 2.9167 110.526H2.91772ZM2.7982 101.683C2.694 101.713 2.58265 101.723 2.46925 101.711C2.00138 101.659 1.66529 101.237 1.71739 100.77C1.8839 99.2722 2.14644 97.7685 2.49786 96.3005C2.60717 95.8428 3.06585 95.5609 3.52453 95.6702C3.98219 95.7795 4.26414 96.2392 4.15484 96.6969C3.81976 98.0964 3.56948 99.5297 3.41114 100.958C3.3713 101.311 3.12101 101.59 2.79922 101.682L2.7982 101.683ZM4.85563 93.0805C4.68605 93.1296 4.50012 93.1255 4.32237 93.0601C3.88208 92.8946 3.65836 92.4032 3.82385 91.9629C4.35404 90.5491 4.97617 89.1567 5.67288 87.8225C5.89149 87.4057 6.40636 87.2454 6.82214 87.4629C7.23894 87.6805 7.40034 88.1954 7.18173 88.6122C6.51669 89.883 5.92316 91.2121 5.41749 92.5605C5.31942 92.8231 5.10489 93.009 4.85461 93.0805H4.85563ZM8.95108 85.2421C8.71408 85.3105 8.44949 85.2748 8.23087 85.1246C7.8437 84.858 7.74665 84.3267 8.0143 83.9396C8.87139 82.6994 9.81225 81.4991 10.8124 80.3743C11.125 80.0219 11.6633 79.9902 12.0147 80.3028C12.3662 80.6154 12.3978 81.1538 12.0863 81.5052C11.1321 82.5789 10.2342 83.723 9.41691 84.907C9.30045 85.0756 9.13394 85.1889 8.95108 85.241V85.2421ZM14.8251 78.6366C14.5186 78.7245 14.1743 78.6366 13.9496 78.3802C13.639 78.0268 13.6738 77.4894 14.0272 77.1789C15.1601 76.1839 16.3656 75.2502 17.6098 74.4043C18.0011 74.1407 18.5293 74.2419 18.7928 74.6301C19.0574 75.0193 18.9563 75.5495 18.567 75.813C17.38 76.6201 16.2307 77.5099 15.1509 78.4579C15.0529 78.5437 14.9415 78.6029 14.824 78.6366H14.8251ZM22.1333 73.6678C21.7492 73.7781 21.3294 73.6054 21.1404 73.2367C20.9258 72.8178 21.0924 72.305 21.5102 72.0905C22.8484 71.406 24.2459 70.7961 25.6669 70.2782C26.1123 70.124 26.5986 70.3456 26.759 70.788C26.9204 71.2293 26.6926 71.7186 26.2502 71.88C24.8946 72.3734 23.5615 72.9547 22.2855 73.6075C22.2355 73.633 22.1844 73.6535 22.1323 73.6678H22.1333ZM34.814 69.9135C34.767 69.9268 34.7169 69.937 34.6669 69.9421C33.4318 70.0708 32.1824 70.27 30.9525 70.5336C30.7655 70.5724 30.5837 70.6133 30.4019 70.6552C29.9432 70.7614 29.4855 70.4764 29.3793 70.0177C29.272 69.559 29.557 69.0871 30.0167 68.9951C30.2108 68.9502 30.4049 68.9073 30.6 68.8664C31.8852 68.5916 33.1948 68.3832 34.4902 68.2484C34.958 68.1993 35.3769 68.5385 35.4259 69.0074C35.4698 69.4242 35.2042 69.8022 34.815 69.9145L34.814 69.9135Z" fill="#91B3FA"/>
</g>
<g opacity="0.3">
<path d="M48.9241 140.057C48.4777 140.186 48.0088 139.931 47.8739 139.484C47.7381 139.034 47.9935 138.559 48.444 138.423C49.7996 138.014 51.1429 137.52 52.4342 136.952C52.8643 136.768 53.3679 136.958 53.5569 137.389C53.7459 137.82 53.5498 138.323 53.1197 138.512C51.7651 139.106 50.3574 139.625 48.9364 140.053C48.9323 140.054 48.9292 140.055 48.9251 140.056L48.9241 140.057ZM44.6836 141.06C44.654 141.069 44.6244 141.076 44.5937 141.081C43.1329 141.336 41.6424 141.505 40.1622 141.582C39.6922 141.607 39.2918 141.246 39.2673 140.776C39.2417 140.305 39.6054 139.906 40.0723 139.88C41.4841 139.806 42.9071 139.646 44.3015 139.402C44.7643 139.322 45.2056 139.631 45.2863 140.095C45.3619 140.528 45.0963 140.942 44.6836 141.06ZM56.8862 136.558C56.5235 136.663 56.1221 136.514 55.9198 136.175C55.6797 135.772 55.8125 135.249 56.216 135.009C57.4337 134.283 58.6167 133.478 59.7333 132.615C60.1072 132.328 60.6404 132.397 60.9275 132.768C61.2156 133.14 61.1461 133.676 60.7742 133.964C59.6035 134.869 58.3623 135.713 57.0864 136.472C57.022 136.51 56.9546 136.539 56.8852 136.558H56.8862ZM35.9932 141.513C35.9002 141.54 35.8011 141.551 35.6979 141.544C34.2177 141.44 32.7293 141.243 31.2735 140.96C30.8118 140.87 30.5104 140.423 30.6003 139.961C30.6902 139.5 31.1377 139.199 31.5994 139.288C32.9877 139.559 34.4067 139.746 35.8175 139.845C36.2864 139.877 36.6408 140.285 36.6071 140.754C36.5816 141.121 36.3272 141.417 35.9921 141.513H35.9932ZM63.7654 131.239C63.4753 131.322 63.1504 131.249 62.9236 131.019C62.5926 130.684 62.5957 130.145 62.9298 129.815C63.935 128.822 64.8901 127.757 65.7676 126.647C66.0598 126.277 66.5961 126.216 66.9649 126.508C67.3337 126.8 67.396 127.337 67.1039 127.706C66.1824 128.867 65.1823 129.985 64.128 131.027C64.0228 131.131 63.8972 131.201 63.7654 131.239ZM69.1684 124.424C68.9468 124.488 68.7006 124.462 68.4881 124.332C68.0866 124.087 67.9609 123.562 68.2061 123.162C68.9457 121.953 69.6189 120.689 70.2063 119.406C70.4025 118.978 70.9082 118.79 71.3352 118.986C71.7632 119.182 71.9512 119.687 71.755 120.114C71.139 121.461 70.4342 122.786 69.6588 124.051C69.5434 124.24 69.3656 124.368 69.1674 124.425L69.1684 124.424ZM72.7837 116.511C72.6274 116.556 72.4579 116.557 72.2914 116.504C71.8429 116.362 71.5947 115.883 71.7377 115.434C72.1677 114.085 72.5171 112.697 72.7776 111.308C72.8644 110.847 73.3099 110.542 73.7716 110.629C74.2344 110.716 74.5388 111.161 74.452 111.624C74.1782 113.079 73.8114 114.534 73.362 115.951C73.2721 116.233 73.0494 116.436 72.7848 116.512L72.7837 116.511Z" fill="#91B3FA"/>
<path d="M27.414 139.84C27.2557 139.885 27.083 139.886 26.9155 139.831C26.2218 139.605 25.5333 139.358 24.8662 139.095C24.429 138.923 24.2124 138.429 24.3841 137.991C24.5567 137.555 25.0501 137.338 25.4884 137.51C26.1248 137.76 26.7827 137.996 27.4436 138.211C27.8911 138.357 28.1352 138.839 27.9892 139.285C27.8982 139.564 27.6766 139.764 27.414 139.84Z" fill="#91B3FA"/>
</g>
<path d="M25.0569 129.068C25.2081 129.173 25.4093 129.17 25.5575 129.062L29.7929 125.961C32.072 126.862 34.5125 127.406 37.0317 127.536L39.5968 132.113C39.6867 132.273 39.8686 132.359 40.0494 132.326L46.2451 131.206C46.426 131.174 46.5669 131.03 46.5945 130.848L47.3954 125.663C49.7103 124.66 51.8055 123.296 53.6249 121.655L58.6776 123.078C58.8543 123.128 59.0443 123.059 59.1485 122.908L62.7383 117.735C62.8435 117.584 62.8404 117.383 62.7322 117.234L59.6307 112.999C60.5327 110.72 61.0762 108.279 61.2059 105.76L65.7825 103.196C65.9429 103.106 66.0287 102.924 65.996 102.744L64.8764 96.5478C64.8437 96.367 64.6997 96.226 64.5178 96.1984L59.3334 95.3975C58.3302 93.0827 56.9664 90.9875 55.3248 89.1681L56.7478 84.1154C56.7979 83.9387 56.7295 83.7487 56.5783 83.6445L51.4051 80.0547C51.2539 79.9495 51.0526 79.9525 50.9045 80.0608L46.6691 83.1623C44.39 82.2602 41.9495 81.7168 39.4303 81.587L36.8652 77.0104C36.7753 76.85 36.5934 76.7642 36.4126 76.7969L30.2168 77.9166C30.036 77.9492 29.895 78.0933 29.8674 78.2751L29.0665 83.4596C26.7517 84.4627 24.6565 85.8265 22.836 87.4682L17.7834 86.0451C17.6066 85.9951 17.4166 86.0635 17.3124 86.2147L13.7227 91.3879C13.6174 91.5391 13.6205 91.7403 13.7288 91.8885L16.8303 96.1239C15.9282 98.404 15.3847 100.843 15.255 103.363L10.6784 105.927C10.518 106.017 10.4322 106.199 10.4649 106.379L11.5845 112.575C11.6172 112.756 11.7613 112.897 11.9431 112.924L17.1275 113.725C18.1307 116.04 19.4945 118.136 21.1361 119.955L19.7131 125.008C19.663 125.184 19.7315 125.374 19.8827 125.478L25.0559 129.068H25.0569Z" fill="#91B3FA"/>
<path d="M39.9973 110.758C38.6764 111.137 37.2748 111.084 35.9652 110.592C34.3542 109.987 33.0752 108.79 32.3642 107.223C30.8962 103.989 32.3335 100.163 35.5678 98.694C38.8092 97.2301 42.6299 98.6644 44.0979 101.899C44.8089 103.466 44.8681 105.217 44.2623 106.827C43.6576 108.438 42.4613 109.717 40.8932 110.428C40.6 110.561 40.3007 110.671 39.9973 110.758ZM36.9255 100.005C36.7048 100.068 36.4872 100.148 36.2727 100.245C33.8935 101.326 32.8361 104.14 33.9159 106.519C34.439 107.672 35.3798 108.552 36.5649 108.996C37.7499 109.442 39.037 109.398 40.1904 108.876C41.3427 108.353 42.2233 107.412 42.6687 106.227C43.1141 105.042 43.0712 103.754 42.5471 102.602C41.5654 100.437 39.1463 99.3662 36.9255 100.005Z" fill="#BDD0FB"/>
<path d="M42.74 119.863C42.2221 120.012 41.6919 120.136 41.1515 120.234C40.0768 120.428 38.9807 120.514 37.8917 120.487C37.8426 120.485 37.7936 120.484 37.7446 120.482C37.3666 120.47 37.054 120.212 36.9539 119.867C36.9294 119.783 36.9181 119.693 36.9212 119.602C36.9365 119.133 37.3319 118.766 37.8008 118.78C38.8172 118.815 39.8418 118.739 40.846 118.557C40.9012 118.547 40.9564 118.537 41.0115 118.527C43.3846 118.074 45.5554 117.048 47.3759 115.556C48.3637 114.746 49.2484 113.798 50.0054 112.728C50.0115 112.719 50.0176 112.711 50.0238 112.703C50.0422 112.676 50.0616 112.65 50.08 112.623C52.2641 109.476 53.0915 105.666 52.4101 101.897C52.3223 101.408 52.2099 100.929 52.0751 100.459C51.1659 97.2967 49.2137 94.566 46.4738 92.6639C43.3264 90.4798 39.517 89.6533 35.7484 90.3337C31.9819 91.0161 28.6996 93.1236 26.5155 96.27C24.3314 99.4174 23.504 103.227 24.1854 106.996C24.2712 107.477 24.3825 107.95 24.5164 108.415C25.0966 110.433 26.111 112.3 27.4942 113.882C27.579 113.979 27.6382 114.09 27.672 114.208C27.7598 114.515 27.672 114.859 27.4145 115.084C27.06 115.393 26.5227 115.359 26.2121 115.003C24.6645 113.234 23.5285 111.144 22.8798 108.887C22.7296 108.366 22.606 107.836 22.509 107.3C21.7469 103.082 22.6735 98.8198 25.117 95.2985C27.5606 91.7782 31.226 89.4163 35.4461 88.6573C39.6641 87.8952 43.925 88.8207 47.4464 91.2653C50.5121 93.3922 52.6962 96.4477 53.7137 99.9864C53.8648 100.512 53.9905 101.049 54.0886 101.594C55.5637 109.76 50.5509 117.623 42.741 119.866L42.74 119.863Z" fill="#BDD0FB"/>
<path d="M159.429 241.234C159.339 240.117 158.199 239.152 156.268 238.377C158.366 237.22 159.527 235.98 159.429 234.763C159.132 231.084 147.477 229.02 133.398 230.155C119.319 231.29 108.145 235.193 108.442 238.874C108.532 239.991 109.672 240.956 111.603 241.731C109.505 242.889 108.344 244.128 108.442 245.345C108.532 246.461 109.672 247.427 111.603 248.202C109.505 249.358 108.344 250.599 108.442 251.815C108.532 252.932 109.672 253.897 111.603 254.673C109.505 255.83 108.344 257.069 108.442 258.286C108.573 259.913 110.929 261.224 114.731 262.082C114.682 263.284 114.71 264.603 114.827 266.058C115.378 272.839 123.006 278.156 133.094 278.156C143.182 278.156 151.914 270.907 152.013 264.104C152.038 262.436 151.966 260.969 151.816 259.665C156.643 258.053 159.583 256.084 159.429 254.174C159.339 253.057 158.199 252.092 156.268 251.317C158.366 250.159 159.527 248.92 159.429 247.703C159.339 246.587 158.199 245.622 156.268 244.846C158.366 243.689 159.527 242.45 159.429 241.233V241.234Z" fill="#7D97F4"/>
<path d="M126.882 263.546C122.701 263.546 118.875 263.238 115.714 262.633C115.53 262.598 115.41 262.42 115.445 262.237C115.48 262.054 115.656 261.934 115.84 261.969C120.787 262.916 127.394 263.124 134.444 262.556C140.213 262.091 145.609 261.16 150.046 259.865C150.226 259.813 150.413 259.915 150.465 260.095C150.517 260.275 150.415 260.462 150.235 260.514C145.754 261.821 140.312 262.761 134.498 263.229C131.88 263.441 129.32 263.545 126.881 263.545L126.882 263.546Z" fill="url(#paint4_linear_1190_43823)"/>
<path d="M126.953 257.069C121.52 257.069 116.665 256.558 113.241 255.583C113.061 255.532 112.957 255.345 113.008 255.165C113.059 254.985 113.246 254.881 113.425 254.932C118.305 256.321 126.163 256.753 134.445 256.084C142.637 255.424 150.277 253.761 154.883 251.638C155.052 251.56 155.253 251.634 155.331 251.803C155.409 251.973 155.335 252.174 155.165 252.252C150.492 254.407 142.766 256.092 134.499 256.759C131.92 256.967 129.378 257.068 126.953 257.068V257.069Z" fill="url(#paint5_linear_1190_43823)"/>
<path d="M126.883 250.605C121.018 250.605 115.884 250.005 112.429 248.865C112.252 248.807 112.156 248.616 112.214 248.438C112.272 248.26 112.463 248.164 112.641 248.222C117.449 249.808 125.6 250.328 134.445 249.616C142.637 248.956 150.277 247.293 154.882 245.169C155.052 245.091 155.253 245.165 155.331 245.334C155.409 245.504 155.335 245.705 155.165 245.783C150.492 247.938 142.766 249.623 134.499 250.29C131.88 250.501 129.318 250.605 126.883 250.605Z" fill="url(#paint6_linear_1190_43823)"/>
<path d="M126.928 244.131C122.275 244.131 118.043 243.755 114.752 243.024C114.571 242.983 114.455 242.803 114.496 242.62C114.537 242.437 114.718 242.323 114.9 242.364C119.847 243.463 126.971 243.748 134.445 243.145C142.563 242.49 150.165 240.847 154.778 238.746C154.948 238.669 155.149 238.744 155.226 238.914C155.303 239.083 155.228 239.285 155.058 239.361C150.377 241.492 142.692 243.158 134.499 243.818C131.911 244.027 129.362 244.13 126.928 244.13V244.131Z" fill="url(#paint7_linear_1190_43823)"/>
<path d="M98.9917 208.574C97.2816 202.517 94.3773 196.856 90.4657 191.926C82.0838 181.362 68.4101 159.88 66.7266 130.558C64.2789 87.9095 102.103 66.5568 136.619 69.455C171.134 72.3542 205.192 98.0526 201.464 137.729C199.169 162.142 185.506 180.659 175.332 191.294C168.872 198.046 164.263 206.318 161.769 215.324C158.715 226.348 151.45 240.085 134.179 240.922C111.833 242.006 102.551 221.176 98.9927 208.571L98.9917 208.574Z" fill="url(#paint8_linear_1190_43823)"/>
<path d="M139.887 232.419L151.964 153.87C152.213 152.247 153.012 151.157 153.747 151.435C154.483 151.714 154.877 153.255 154.628 154.878C154.621 154.921 154.613 154.975 154.605 155.017L140.848 232.837C140.745 233.422 140.448 233.792 140.184 233.662C139.929 233.536 139.8 232.986 139.887 232.419Z" fill="url(#paint9_linear_1190_43823)"/>
<path d="M127.35 233.043L115.273 154.494C115.024 152.872 114.225 151.782 113.49 152.06C112.754 152.338 112.36 153.879 112.609 155.502C112.616 155.545 112.624 155.599 112.632 155.641L126.389 233.461C126.492 234.046 126.789 234.416 127.053 234.286C127.308 234.161 127.437 233.61 127.35 233.043Z" fill="url(#paint10_linear_1190_43823)"/>
<path opacity="0.71" d="M151.877 147.125C151.571 146.632 150.861 146.448 150.292 146.714L143.567 149.856L141.232 143.205C141.109 142.857 140.823 142.55 140.415 142.382C139.642 142.064 138.716 142.349 138.348 143.019L138.336 143.04L132.805 153.124L127.673 138.77L127.665 138.747C127.539 138.396 127.275 138.082 126.889 137.871C126.028 137.401 124.891 137.625 124.349 138.372L116.618 149.015C116.303 149.452 116.411 150.036 116.891 150.359C117.401 150.703 118.138 150.623 118.534 150.18L125.342 142.587L131.471 156.242L131.476 156.252C131.575 156.471 131.759 156.661 132.017 156.781C132.592 157.051 133.31 156.865 133.621 156.366L139.536 146.875L141.762 151.675L141.781 151.718C141.797 151.753 141.816 151.787 141.836 151.821C142.143 152.313 142.852 152.498 143.421 152.232L151.403 148.502C151.972 148.237 152.185 147.622 151.878 147.128L151.877 147.125Z" fill="white"/>
<path opacity="0.49" d="M175.593 181.8C175.145 181.8 174.692 181.662 174.305 181.374C173.346 180.662 173.145 179.307 173.857 178.348C175.9 175.596 177.77 172.752 179.42 169.898C180.018 168.863 181.341 168.509 182.376 169.107C183.411 169.704 183.765 171.027 183.167 172.062C181.436 175.06 179.473 178.042 177.332 180.927C176.907 181.499 176.254 181.801 175.593 181.801V181.8Z" fill="white"/>
<path opacity="0.49" d="M185.529 164.751C185.242 164.751 184.95 164.692 184.668 164.571C183.572 164.095 183.069 162.821 183.545 161.724C196.195 132.59 185.304 108.177 185.193 107.934C184.696 106.848 185.172 105.564 186.259 105.066C187.348 104.569 188.63 105.045 189.127 106.131C189.614 107.196 200.926 132.56 187.515 163.448C187.161 164.263 186.365 164.752 185.529 164.752V164.751Z" fill="white"/>
<g opacity="0.3">
<path d="M183.394 76.9135C183.831 76.6397 184.414 76.7348 184.739 77.1505C185.45 78.0587 186.131 79.0118 186.765 79.9813C187.074 80.4532 186.941 81.0866 186.469 81.3941C186.463 81.3982 186.458 81.4013 186.452 81.4043C185.982 81.6985 185.36 81.5637 185.055 81.0979C184.453 80.1754 183.805 79.2713 183.13 78.4081C182.782 77.9637 182.86 77.3222 183.304 76.9748C183.333 76.9524 183.363 76.9319 183.392 76.9135H183.394ZM188.06 84.4854C188.093 84.4639 188.129 84.4445 188.166 84.4271C188.676 84.186 189.285 84.4036 189.526 84.9134C190.021 85.9605 190.477 87.0393 190.879 88.1191C191.076 88.6472 190.809 89.2336 190.28 89.4328C189.751 89.63 189.163 89.3613 188.966 88.8331C188.583 87.8065 188.151 86.7818 187.68 85.7868C187.456 85.3139 187.628 84.7571 188.06 84.4854ZM190.943 92.8969C191.039 92.8366 191.147 92.7917 191.264 92.7651C191.815 92.6436 192.359 92.9909 192.482 93.5415C192.731 94.6703 192.935 95.8237 193.087 96.9699C193.16 97.5287 192.767 98.0415 192.208 98.1161C191.649 98.1896 191.136 97.7963 191.062 97.2375C190.918 96.1486 190.725 95.0534 190.488 93.9818C190.392 93.5487 190.587 93.1186 190.943 92.8959V92.8969ZM191.873 101.743C192.033 101.643 192.22 101.586 192.423 101.587C192.987 101.591 193.44 102.053 193.435 102.616C193.426 103.772 193.366 104.943 193.258 106.093C193.205 106.654 192.708 107.067 192.147 107.015C191.586 106.962 191.173 106.464 191.225 105.903C191.328 104.81 191.385 103.699 191.393 102.6C191.396 102.238 191.587 101.921 191.873 101.743ZM190.807 110.575C191.03 110.435 191.307 110.381 191.583 110.446C192.132 110.576 192.472 111.126 192.342 111.674C192.076 112.797 191.76 113.925 191.4 115.025C191.225 115.561 190.648 115.853 190.112 115.678C189.577 115.502 189.283 114.926 189.459 114.39C189.801 113.344 190.103 112.272 190.355 111.205C190.419 110.933 190.587 110.712 190.807 110.575ZM187.813 118.95C188.103 118.769 188.475 118.736 188.804 118.898C189.311 119.146 189.52 119.757 189.273 120.264C188.766 121.301 188.207 122.331 187.613 123.323C187.323 123.807 186.696 123.964 186.213 123.674C185.729 123.384 185.572 122.757 185.861 122.273C186.426 121.331 186.956 120.352 187.439 119.367C187.525 119.189 187.657 119.048 187.812 118.951L187.813 118.95ZM157.401 140.872C157.52 140.797 157.658 140.745 157.807 140.725C158.894 140.58 159.99 140.385 161.063 140.145C161.613 140.023 162.159 140.369 162.282 140.92C162.404 141.47 162.058 142.016 161.507 142.138C160.377 142.391 159.223 142.596 158.079 142.749C157.52 142.824 157.006 142.431 156.932 141.873C156.876 141.463 157.073 141.077 157.402 140.872H157.401ZM183.042 126.448C183.4 126.223 183.877 126.239 184.225 126.519C184.664 126.873 184.732 127.516 184.378 127.954C183.653 128.853 182.878 129.732 182.078 130.566C181.686 130.971 181.042 130.986 180.635 130.596C180.228 130.205 180.215 129.559 180.605 129.152C181.365 128.36 182.1 127.526 182.789 126.672C182.863 126.581 182.948 126.506 183.042 126.447V126.448ZM166.026 138.705C166.083 138.669 166.144 138.638 166.209 138.614C167.237 138.229 168.262 137.794 169.255 137.321C169.764 137.079 170.373 137.295 170.615 137.805C170.858 138.314 170.643 138.925 170.131 139.166C169.086 139.662 168.008 140.12 166.927 140.526C166.398 140.724 165.81 140.457 165.612 139.929C165.438 139.467 165.622 138.957 166.025 138.705H166.026ZM176.714 132.693C177.15 132.419 177.733 132.514 178.058 132.928C178.406 133.371 178.329 134.013 177.886 134.362C176.978 135.075 176.028 135.759 175.059 136.394C175.053 136.398 175.047 136.402 175.041 136.406C174.571 136.701 173.951 136.567 173.645 136.101C173.336 135.629 173.468 134.997 173.939 134.687C174.858 134.084 175.761 133.435 176.623 132.756C176.653 132.734 176.683 132.712 176.713 132.693H176.714Z" fill="#BDD0FB"/>
<path d="M150.237 141.177C150.408 141.071 150.611 141.013 150.828 141.023C151.354 141.048 151.888 141.063 152.418 141.067C152.982 141.071 153.436 141.532 153.432 142.096C153.427 142.659 152.967 143.114 152.403 143.109C151.846 143.105 151.283 143.09 150.73 143.063C150.167 143.036 149.731 142.557 149.759 141.994C149.775 141.647 149.964 141.349 150.237 141.177Z" fill="#BDD0FB"/>
</g>
<g opacity="0.3">
<path d="M122.198 127.661C122.616 127.399 123.173 127.472 123.508 127.855C123.854 128.251 124.215 128.646 124.58 129.031C124.968 129.439 124.951 130.086 124.543 130.474C124.132 130.864 123.488 130.846 123.099 130.437C122.715 130.033 122.335 129.616 121.971 129.199C121.6 128.774 121.643 128.13 122.067 127.759C122.108 127.722 122.152 127.69 122.197 127.662L122.198 127.661Z" fill="#BDD0FB"/>
<path d="M130.967 67.7867C131.365 67.5375 131.769 67.2933 132.178 67.0563C132.665 66.7734 133.291 66.9388 133.574 67.4272C133.857 67.9144 133.69 68.5427 133.204 68.8226C132.259 69.3712 131.338 69.9565 130.458 70.5705C129.994 70.8923 129.359 70.7789 129.037 70.3172C128.714 69.8544 128.827 69.218 129.29 68.8951C129.835 68.5151 130.4 68.1423 130.968 67.7867H130.967ZM137.013 64.6751C137.061 64.6444 137.113 64.6179 137.168 64.5954C138.221 64.1622 139.305 63.7679 140.387 63.4257C140.925 63.2551 141.499 63.5534 141.669 64.0907C141.838 64.6281 141.541 65.2042 141.003 65.3718C139.975 65.6976 138.945 66.0715 137.944 66.4832C137.423 66.6978 136.826 66.4485 136.612 65.9275C136.42 65.4607 136.599 64.9335 137.013 64.674V64.6751ZM125.106 72.2663C125.514 72.0109 126.058 72.0732 126.397 72.4389C126.78 72.8537 126.754 73.4993 126.34 73.8824C125.547 74.6139 124.776 75.3902 124.047 76.1891C123.666 76.6049 123.02 76.6345 122.604 76.2545C122.187 75.8734 122.159 75.2278 122.539 74.812C123.307 73.9713 124.12 73.154 124.955 72.3838C125.003 72.3399 125.054 72.301 125.107 72.2683L125.106 72.2663ZM145.427 62.255C145.537 62.1865 145.662 62.1375 145.797 62.114C146.918 61.923 148.062 61.7769 149.195 61.6809C149.757 61.6339 150.251 62.0507 150.299 62.6115C150.347 63.1734 149.93 63.6678 149.367 63.7148C148.291 63.8057 147.205 63.9436 146.14 64.1255C145.584 64.2205 145.057 63.8466 144.962 63.2908C144.891 62.871 145.087 62.4665 145.427 62.2529V62.255ZM119.377 78.8758C119.712 78.6664 120.152 78.6623 120.499 78.9003C120.963 79.2201 121.08 79.8565 120.76 80.3203C120.148 81.2081 119.566 82.1346 119.03 83.0744C118.75 83.5638 118.127 83.7344 117.636 83.4545C117.147 83.1746 116.976 82.5514 117.256 82.0621C117.821 81.0732 118.434 80.0976 119.078 79.1629C119.159 79.0444 119.262 78.9484 119.376 78.8768L119.377 78.8758ZM115.238 86.5835C115.505 86.416 115.846 86.3741 116.161 86.5008C116.684 86.7112 116.938 87.3058 116.727 87.8288C116.324 88.832 115.957 89.8638 115.638 90.8955C115.473 91.4349 114.902 91.7363 114.361 91.5698C113.823 91.4033 113.52 90.8322 113.687 90.2928C114.022 89.2069 114.408 88.121 114.833 87.0657C114.917 86.8583 115.061 86.6928 115.238 86.5825V86.5835ZM112.876 95.0104C113.079 94.8827 113.328 94.8265 113.584 94.8684C114.139 94.9603 114.516 95.4854 114.424 96.0422C114.249 97.1097 114.115 98.1966 114.029 99.2734C113.984 99.8352 113.493 100.255 112.93 100.209C112.368 100.164 111.949 99.6718 111.994 99.1099C112.085 97.978 112.225 96.8339 112.41 95.7102C112.46 95.4098 112.636 95.1606 112.876 95.0104ZM112.409 103.751C112.55 103.663 112.714 103.608 112.892 103.598C113.455 103.565 113.937 103.996 113.97 104.559C114.031 105.639 114.139 106.729 114.293 107.797C114.372 108.355 113.983 108.873 113.426 108.953C112.868 109.032 112.351 108.644 112.271 108.086C112.111 106.961 111.996 105.813 111.931 104.676C111.909 104.291 112.103 103.944 112.409 103.752V103.751ZM113.873 112.383C113.952 112.333 114.039 112.294 114.134 112.267C114.676 112.111 115.242 112.425 115.397 112.966C115.694 114.003 116.041 115.041 116.425 116.053C116.625 116.58 116.359 117.17 115.833 117.369C115.306 117.57 114.717 117.305 114.515 116.778C114.111 115.713 113.746 114.621 113.434 113.529C113.305 113.082 113.497 112.618 113.872 112.382L113.873 112.383ZM117.196 120.479C117.213 120.468 117.232 120.458 117.25 120.447C117.746 120.178 118.366 120.36 118.635 120.856C119.016 121.555 119.423 122.25 119.845 122.924C119.997 123.168 120.152 123.409 120.31 123.648C120.619 124.119 120.488 124.752 120.018 125.062C119.547 125.385 118.913 125.24 118.604 124.77C118.438 124.518 118.276 124.264 118.114 124.007C117.671 123.3 117.243 122.567 116.842 121.833C116.583 121.357 116.742 120.764 117.196 120.48V120.479Z" fill="#BDD0FB"/>
<path d="M154.192 61.7494C154.364 61.6411 154.57 61.5839 154.787 61.5951C155.339 61.6248 155.901 61.6656 156.458 61.7187C157.02 61.7719 157.431 62.2694 157.378 62.8312C157.325 63.3931 156.828 63.8048 156.266 63.7517C155.738 63.7016 155.204 63.6628 154.68 63.6342C154.117 63.6046 153.685 63.1244 153.715 62.5605C153.733 62.2152 153.921 61.919 154.193 61.7494H154.192Z" fill="#BDD0FB"/>
</g>
<path d="M159.311 72.5167C159.118 72.4514 158.905 72.5157 158.781 72.6761L155.226 77.269C152.526 77.0075 149.766 77.174 147.047 77.8074L142.921 73.7252C142.776 73.5822 142.556 73.5465 142.375 73.6364L136.129 76.7205C135.946 76.8104 135.841 77.0065 135.866 77.2088L136.6 82.9663C134.445 84.7408 132.634 86.8309 131.201 89.1335L125.393 89.1651C125.19 89.1662 125.009 89.2959 124.944 89.489L122.708 96.0873C122.643 96.2803 122.707 96.4928 122.868 96.6174L127.46 100.172C127.198 102.872 127.365 105.633 127.998 108.351L123.916 112.477C123.773 112.622 123.737 112.842 123.827 113.024L126.912 119.27C127.002 119.452 127.198 119.558 127.4 119.531L133.158 118.798C134.932 120.952 137.023 122.763 139.325 124.197L139.357 130.004C139.358 130.207 139.488 130.388 139.681 130.454L146.279 132.689C146.472 132.754 146.684 132.69 146.809 132.529L150.364 127.937C153.064 128.198 155.824 128.032 158.543 127.398L162.669 131.48C162.814 131.623 163.034 131.659 163.215 131.569L169.461 128.484C169.644 128.394 169.749 128.198 169.724 127.996L168.99 122.238C171.145 120.464 172.956 118.374 174.389 116.071L180.197 116.039C180.4 116.039 180.581 115.909 180.646 115.716L182.882 109.117C182.947 108.924 182.883 108.712 182.722 108.587L178.13 105.032C178.392 102.332 178.225 99.5718 177.592 96.8534L181.674 92.7273C181.817 92.5823 181.853 92.3626 181.763 92.1808L178.679 85.935C178.589 85.7521 178.393 85.6469 178.191 85.6724L172.433 86.4059C170.659 84.2514 168.568 82.4402 166.266 81.0069L166.234 75.1994C166.233 74.9961 166.103 74.8153 165.91 74.7499L159.312 72.5147L159.311 72.5167Z" fill="#BDD0FB"/>
<path d="M149.081 96.6664C151.974 94.8541 155.844 95.3874 158.123 98.0598C160.628 100.998 160.275 105.426 157.337 107.931C155.914 109.145 154.103 109.731 152.239 109.583C150.374 109.435 148.679 108.57 147.466 107.146C144.961 104.208 145.314 99.7791 148.252 97.2742C148.516 97.0485 148.794 96.8452 149.081 96.6654V96.6664ZM155.635 107.16C155.859 107.02 156.074 106.863 156.278 106.689C158.531 104.768 158.8 101.373 156.881 99.1202C154.96 96.8676 151.564 96.5959 149.312 98.5175C147.059 100.438 146.79 103.834 148.709 106.086C149.64 107.177 150.939 107.841 152.369 107.955C153.531 108.047 154.666 107.767 155.636 107.159L155.635 107.16Z" fill="url(#paint11_linear_1190_43823)"/>
<path d="M143.59 88.1711C144.087 87.8595 144.603 87.5714 145.135 87.3089C145.303 87.2261 145.472 87.1454 145.642 87.0688C146.481 86.6868 147.351 86.3732 148.234 86.131C148.247 86.128 148.259 86.1249 148.27 86.1208C148.305 86.1116 148.339 86.1024 148.373 86.0932C148.44 86.0759 148.507 86.0585 148.574 86.0411C148.749 85.9972 148.928 86.0738 149.019 86.2199C149.041 86.2557 149.058 86.2955 149.069 86.3374C149.124 86.556 148.99 86.7777 148.773 86.8329C147.647 87.1158 146.545 87.5224 145.496 88.0403C140.285 90.6126 137.044 95.602 136.456 100.992C136.128 103.989 136.621 107.11 138.053 110.008C138.304 110.517 138.579 111.008 138.875 111.482C140.873 114.67 143.883 117.056 147.494 118.28C151.643 119.685 156.091 119.391 160.019 117.452C168.13 113.446 171.467 103.593 167.462 95.4845C167.215 94.9849 166.944 94.4987 166.65 94.0298C165.375 91.9958 163.67 90.2633 161.65 88.9628C161.597 88.9291 161.556 88.8862 161.525 88.8361C161.443 88.7064 161.439 88.5358 161.528 88.3979C161.651 88.2089 161.903 88.1527 162.093 88.2753C164.214 89.6411 166.005 91.4595 167.343 93.5946C167.651 94.087 167.936 94.5967 168.196 95.1218C172.4 103.635 168.891 113.981 160.382 118.184C156.258 120.221 151.588 120.528 147.232 119.053C143.44 117.769 140.282 115.265 138.183 111.917C137.872 111.42 137.584 110.904 137.32 110.371C135.284 106.247 134.975 101.577 136.451 97.2211C137.736 93.4281 140.241 90.2684 143.589 88.1711H143.59Z" fill="url(#paint12_linear_1190_43823)"/>
<path d="M74.7685 281.125C75.3181 281.125 75.7645 280.68 75.7645 280.129V158.692C75.7645 158.142 75.3191 157.696 74.7685 157.696C74.2179 157.696 73.7725 158.141 73.7725 158.692V280.129C73.7725 280.679 74.2179 281.125 74.7685 281.125Z" fill="#91B3FA"/>
<path d="M95.0492 281.125C95.5988 281.125 96.0453 280.68 96.0453 280.129V158.692C96.0453 158.142 95.5999 157.696 95.0492 157.696C94.4986 157.696 94.0532 158.141 94.0532 158.692V280.129C94.0532 280.679 94.4986 281.125 95.0492 281.125Z" fill="#91B3FA"/>
<path d="M12.0811 280.821C11.8635 280.821 11.6449 280.767 11.4508 280.666C10.7786 280.318 10.5161 279.487 10.8645 278.816L72.9081 159.151C73.2564 158.479 74.0859 158.217 74.7581 158.564C75.4303 158.912 75.6929 159.743 75.3445 160.414L13.3009 280.079C13.0639 280.537 12.597 280.821 12.0811 280.821Z" fill="#91B3FA"/>
<path d="M41.5165 281.819C41.3275 281.819 41.1436 281.78 40.9689 281.704C40.6328 281.558 40.3734 281.29 40.2395 280.948C40.1057 280.607 40.1118 280.234 40.2579 279.898L93.2893 158.05C93.5917 157.357 94.4018 157.038 95.0954 157.339C95.7901 157.642 96.1088 158.452 95.8064 159.145L42.775 280.993C42.5564 281.495 42.063 281.819 41.5155 281.819H41.5165Z" fill="#91B3FA"/>
<path d="M84.5273 182.34H63.0173C62.5433 182.34 62.1592 181.956 62.1592 181.482C62.1592 181.008 62.5433 180.624 63.0173 180.624H84.5273C85.0013 180.624 85.3854 181.008 85.3854 181.482C85.3854 181.956 85.0013 182.34 84.5273 182.34Z" fill="#91B3FA"/>
<path d="M78.7803 195.666H57.2702C56.7962 195.666 56.4121 195.282 56.4121 194.808C56.4121 194.334 56.7962 193.95 57.2702 193.95H78.7803C79.2543 193.95 79.6384 194.334 79.6384 194.808C79.6384 195.282 79.2543 195.666 78.7803 195.666Z" fill="#91B3FA"/>
<path d="M71.199 211.622H48.3191C47.845 211.622 47.4609 211.238 47.4609 210.764C47.4609 210.29 47.845 209.906 48.3191 209.906H71.199C71.673 209.906 72.0571 210.29 72.0571 210.764C72.0571 211.238 71.673 211.622 71.199 211.622Z" fill="#91B3FA"/>
<path d="M90.2441 169.415H69.7219C69.2479 169.415 68.8638 169.031 68.8638 168.557C68.8638 168.083 69.2479 167.699 69.7219 167.699H90.2441C90.7181 167.699 91.1022 168.083 91.1022 168.557C91.1022 169.031 90.7181 169.415 90.2441 169.415Z" fill="#91B3FA"/>
<path d="M63.6495 229.981H38.7888C38.3148 229.981 37.9307 229.597 37.9307 229.123C37.9307 228.649 38.3148 228.264 38.7888 228.264H63.6495C64.1235 228.264 64.5077 228.649 64.5077 229.123C64.5077 229.597 64.1235 229.981 63.6495 229.981Z" fill="#91B3FA"/>
<path d="M57.8081 244.221H31.1433C30.6693 244.221 30.2852 243.837 30.2852 243.363C30.2852 242.889 30.6693 242.505 31.1433 242.505H57.8081C58.2821 242.505 58.6662 242.889 58.6662 243.363C58.6662 243.837 58.2821 244.221 57.8081 244.221Z" fill="#91B3FA"/>
<path d="M103.36 119.775C103.36 119.775 104.289 118.777 106.01 119.091C107.73 119.404 109.262 120.002 110.334 119.091C111.406 118.179 111.783 119.402 111.783 119.402L108.573 121.843L103.36 119.775Z" fill="url(#paint13_linear_1190_43823)"/>
<path d="M52.5644 226.908C49.8185 224.517 43.9189 222.603 43.9189 222.603L40.369 222.68C39.468 223.694 39.0604 225.658 38.8867 226.889C39.5548 227.29 40.8073 227.64 43.1048 227.75C47.3575 227.953 50.789 227.332 52.5644 226.909V226.908Z" fill="url(#paint14_linear_1190_43823)"/>
<path d="M52.5645 226.908C50.789 227.331 47.3565 227.953 43.1048 227.749C40.8083 227.64 39.5559 227.29 38.8867 226.888C38.8724 226.987 38.8602 227.082 38.8489 227.171C38.7856 227.676 39.0982 228.151 39.5845 228.3C42.8269 229.294 49.9595 228.974 52.7402 228.802C53.3347 228.765 53.6453 228.067 53.2642 227.609C53.066 227.371 52.829 227.137 52.5645 226.907V226.908Z" fill="url(#paint15_linear_1190_43823)"/>
<path d="M40.6592 219.616V222.438C40.6592 222.982 41.0382 223.451 41.5694 223.565C42.119 223.684 42.8495 223.76 43.5574 223.584C44.0008 223.475 44.3246 223.094 44.3777 222.641L44.7342 219.616H40.6582H40.6592Z" fill="url(#paint16_linear_1190_43823)"/>
<path d="M58.6091 205.152C57.5078 202.701 57.8225 201.598 55.6425 201.843C55.3799 201.872 55.1623 201.922 54.9785 201.988C54.8405 202.392 54.8324 202.84 54.9795 203.265C55.5311 204.851 56.6824 207.56 58.796 210.228C59.2404 210.788 59.9198 211.113 60.6348 211.125L63.0386 211.165C60.7595 209.343 59.5213 207.185 58.6081 205.151L58.6091 205.152Z" fill="url(#paint17_linear_1190_43823)"/>
<path d="M63.1918 207.531C61.3469 206.232 60.6584 200.927 60.6584 200.927L57.8154 199.48L55.6711 201.034C55.3391 201.28 55.1051 201.616 54.9795 201.988C55.1634 201.922 55.381 201.871 55.6435 201.843C57.8235 201.598 57.5089 202.701 58.6101 205.152C59.5234 207.186 60.7615 209.344 63.0407 211.166L64.6925 211.194C65.4352 211.206 65.8632 210.358 65.4137 209.768C64.8488 209.027 64.0775 208.154 63.1929 207.532L63.1918 207.531Z" fill="url(#paint18_linear_1190_43823)"/>
<path d="M59.5315 196.809L57.8153 199.48C57.5987 199.817 57.6723 200.263 57.9879 200.511C58.5385 200.945 59.4917 201.428 60.6593 200.927L63.4175 199.037L59.5325 196.809H59.5315Z" fill="url(#paint19_linear_1190_43823)"/>
<path d="M46.6467 168.624C46.6467 168.624 45.7437 171.169 44.434 180.11C43.1244 189.05 42.2622 195.552 41.5481 199.098C40.8953 202.34 39.8656 214.016 39.9259 219.123C39.934 219.81 40.501 220.356 41.1865 220.335L44.5648 220.23C45.0868 220.213 45.524 219.834 45.6119 219.319C46.5058 214.061 52.6862 186.933 56.4119 179.129C56.4119 179.129 66.3261 181.931 68.7973 183.059C68.7973 183.059 65.6018 184.338 59.0536 196.615C59.0536 196.615 61.8813 198.863 63.8846 199.33C63.8846 199.33 78.2151 187.445 79.729 186.201C81.243 184.958 82.6221 182.815 78.7586 178.91C74.895 175.006 63.0377 168.85 63.0377 168.85L46.6467 168.627V168.624Z" fill="url(#paint20_linear_1190_43823)"/>
<path d="M55.8631 179.405C55.8386 179.405 55.813 179.4 55.7895 179.388L52.2539 178.026C50.7338 177.301 49.747 175.746 49.7378 174.062C49.7378 173.967 49.8134 173.89 49.9084 173.889C50.0187 173.889 50.08 173.965 50.081 174.06C50.0892 175.613 50.9994 177.048 52.401 177.716L55.9366 179.079C56.0225 179.12 56.0582 179.222 56.0173 179.308C55.9877 179.369 55.9264 179.406 55.8621 179.406L55.8631 179.405Z" fill="url(#paint21_linear_1190_43823)"/>
<path d="M78.7056 167.871C78.7056 167.871 82.4292 165.053 84.1239 165.582C85.8187 166.111 87.0681 167.7 87.0681 167.7H83.3241C83.3241 167.7 82.4312 169.416 83.3241 169.416H84.646C84.646 169.416 81.1502 173.078 78.7056 167.872V167.871Z" fill="url(#paint22_linear_1190_43823)"/>
<path d="M72.4003 141.29C72.4003 141.29 76.7705 158.568 82.6884 165.516C82.6884 165.516 81.0856 167.343 78.7053 167.871C78.7053 167.871 69.6196 159.908 66.8532 154.374C64.0857 148.841 72.4003 141.291 72.4003 141.291V141.29Z" fill="url(#paint23_linear_1190_43823)"/>
<path d="M66.5599 124.843L62.2192 132.784H69.0698C69.0698 132.784 69.6205 129.153 71.4225 126.969L66.5609 124.843H66.5599Z" fill="url(#paint24_linear_1190_43823)"/>
<path d="M73.1387 115.388C73.1387 115.388 75.3136 120.384 75.4597 123.007C75.6058 125.629 76.1707 127.331 73.1387 127.859C70.1067 128.387 67.5528 126.876 66.1686 124.264C66.1686 124.264 64.0008 120.239 64.4871 118.59C64.9734 116.941 73.1387 115.388 73.1387 115.388Z" fill="url(#paint25_linear_1190_43823)"/>
<path d="M67.2046 122.385H67.5877C67.5877 122.385 66.0084 119.146 67.3956 118.577C68.7829 118.008 74.28 116.887 75.466 114.936C76.6091 113.055 75.5896 110.627 74.0644 109.947C73.9684 109.904 73.854 109.949 73.8049 110.043L73.6783 110.282C73.5914 110.445 73.3503 110.421 73.2982 110.243C73.2492 110.074 73.0214 110.038 72.9295 110.187C72.5668 110.77 71.583 111.718 68.9464 112.205C65.2054 112.896 62.7322 114.41 62.6709 116.996C62.6668 117.159 62.4921 117.25 62.3522 117.164C62.0764 116.996 61.634 116.917 61.0436 117.413C60.0159 118.278 60.4368 120.518 62.6883 122.361C62.7955 122.449 62.7945 122.615 62.6781 122.691C62.2694 122.956 61.6616 123.589 63.2379 124.431C64.8509 125.294 65.8061 125.2 66.1657 125.108C66.2627 125.083 66.3281 124.994 66.322 124.894L66.18 122.603C66.1728 122.484 66.2668 122.384 66.3853 122.384H67.2026L67.2046 122.385Z" fill="url(#paint26_linear_1190_43823)"/>
<path d="M67.2984 122.865C67.2984 122.865 66.4689 119.674 65.0377 120.569C63.6065 121.464 65.7804 124.144 66.9307 124.264L67.2984 122.865Z" fill="url(#paint27_linear_1190_43823)"/>
<path d="M101.142 121.423C101.142 121.423 101.78 118.76 103.699 119.124C105.619 119.489 109.977 121.859 111.1 121.423C112.223 120.987 113.659 119.942 114.397 120.31L113.099 121.925C113.099 121.925 116.436 120 117.01 121.183L111.458 124.307C111.458 124.307 103.335 123.494 101.143 121.423H101.142Z" fill="url(#paint28_linear_1190_43823)"/>
<path d="M61.2559 132.163C61.2559 132.163 63.1918 128.982 75.851 129.761C82.4319 130.167 97.2323 124.432 100.527 121.547C100.527 121.547 102.675 121.533 104.655 123.605C104.655 123.605 90.9844 138.032 75.047 139.876C75.047 139.876 62.9517 164.803 63.0365 168.848C63.0365 168.848 55.8569 173.666 46.1163 170.218C46.1163 170.218 45.818 163.289 49.6193 153.719C54.5555 141.291 61.2549 132.164 61.2549 132.164L61.2559 132.163Z" fill="url(#paint29_linear_1190_43823)"/>
<path d="M66.9955 140.762C66.9066 140.762 66.832 140.694 66.8249 140.605C66.8167 140.51 66.8872 140.427 66.9822 140.42C67.0435 140.415 73.1197 139.92 74.0677 139.814C74.1607 139.805 74.2465 139.871 74.2578 139.965C74.268 140.059 74.2005 140.144 74.1066 140.155C73.1534 140.263 67.0721 140.757 67.0108 140.762C67.0057 140.762 67.0016 140.762 66.9965 140.762H66.9955Z" fill="#91B3FA"/>
<defs>
<linearGradient id="paint0_linear_1190_43823" x1="316.652" y1="367.237" x2="66.7011" y2="56.814" gradientUnits="userSpaceOnUse">
<stop stop-color="#DAE3FE"/>
<stop offset="1" stop-color="#E9EFFD"/>
</linearGradient>
<linearGradient id="paint1_linear_1190_43823" x1="83.2115" y1="147.811" x2="246.107" y2="144.257" gradientUnits="userSpaceOnUse">
<stop stop-color="#09005D"/>
<stop offset="1" stop-color="#1A0F91"/>
</linearGradient>
<linearGradient id="paint2_linear_1190_43823" x1="134.951" y1="177.563" x2="428.079" y2="-206.131" gradientUnits="userSpaceOnUse">
<stop stop-color="#4F52FF"/>
<stop offset="1" stop-color="#4042E2"/>
</linearGradient>
<linearGradient id="paint3_linear_1190_43823" x1="150.579" y1="32.3619" x2="177.001" y2="32.3619" gradientUnits="userSpaceOnUse">
<stop stop-color="#4F52FF"/>
<stop offset="1" stop-color="#4042E2"/>
</linearGradient>
<linearGradient id="paint4_linear_1190_43823" x1="156.718" y1="120.012" x2="144.275" y2="193.984" gradientUnits="userSpaceOnUse">
<stop stop-color="#4F52FF"/>
<stop offset="1" stop-color="#4042E2"/>
</linearGradient>
<linearGradient id="paint5_linear_1190_43823" x1="156.653" y1="120.001" x2="144.209" y2="193.975" gradientUnits="userSpaceOnUse">
<stop stop-color="#4F52FF"/>
<stop offset="1" stop-color="#4042E2"/>
</linearGradient>
<linearGradient id="paint6_linear_1190_43823" x1="155.187" y1="119.755" x2="142.743" y2="193.728" gradientUnits="userSpaceOnUse">
<stop stop-color="#4F52FF"/>
<stop offset="1" stop-color="#4042E2"/>
</linearGradient>
<linearGradient id="paint7_linear_1190_43823" x1="155.246" y1="119.764" x2="142.802" y2="193.737" gradientUnits="userSpaceOnUse">
<stop stop-color="#4F52FF"/>
<stop offset="1" stop-color="#4042E2"/>
</linearGradient>
<linearGradient id="paint8_linear_1190_43823" x1="131.191" y1="65.4627" x2="139.486" y2="242.783" gradientUnits="userSpaceOnUse">
<stop stop-color="#FF928E"/>
<stop offset="1" stop-color="#FE7062"/>
</linearGradient>
<linearGradient id="paint9_linear_1190_43823" x1="146.749" y1="176.39" x2="151.708" y2="333.968" gradientUnits="userSpaceOnUse">
<stop stop-color="#E1473D"/>
<stop offset="1" stop-color="#E9605A"/>
</linearGradient>
<linearGradient id="paint10_linear_1190_43823" x1="119.429" y1="177.25" x2="124.389" y2="334.829" gradientUnits="userSpaceOnUse">
<stop stop-color="#E1473D"/>
<stop offset="1" stop-color="#E9605A"/>
</linearGradient>
<linearGradient id="paint11_linear_1190_43823" x1="145.796" y1="102.605" x2="159.794" y2="102.605" gradientUnits="userSpaceOnUse">
<stop stop-color="#DAE3FE"/>
<stop offset="1" stop-color="#E9EFFD"/>
</linearGradient>
<linearGradient id="paint12_linear_1190_43823" x1="135.532" y1="103.001" x2="169.975" y2="103.001" gradientUnits="userSpaceOnUse">
<stop stop-color="#DAE3FE"/>
<stop offset="1" stop-color="#E9EFFD"/>
</linearGradient>
<linearGradient id="paint13_linear_1190_43823" x1="111.866" y1="115.102" x2="106.72" y2="120.478" gradientUnits="userSpaceOnUse">
<stop stop-color="#A22B25"/>
<stop offset="1" stop-color="#C0423C"/>
</linearGradient>
<linearGradient id="paint14_linear_1190_43823" x1="48.089" y1="209.472" x2="46.716" y2="219.594" gradientUnits="userSpaceOnUse">
<stop stop-color="#09005D"/>
<stop offset="1" stop-color="#1A0F91"/>
</linearGradient>
<linearGradient id="paint15_linear_1190_43823" x1="46.1776" y1="227.387" x2="43.0036" y2="247.546" gradientUnits="userSpaceOnUse">
<stop stop-color="#09005D"/>
<stop offset="1" stop-color="#1A0F91"/>
</linearGradient>
<linearGradient id="paint16_linear_1190_43823" x1="40.6592" y1="221.652" x2="44.7342" y2="221.652" gradientUnits="userSpaceOnUse">
<stop stop-color="#A22B25"/>
<stop offset="1" stop-color="#C0423C"/>
</linearGradient>
<linearGradient id="paint17_linear_1190_43823" x1="58.1187" y1="207.322" x2="48.6989" y2="215.2" gradientUnits="userSpaceOnUse">
<stop stop-color="#09005D"/>
<stop offset="1" stop-color="#1A0F91"/>
</linearGradient>
<linearGradient id="paint18_linear_1190_43823" x1="42.0169" y1="205.336" x2="52.634" y2="205.336" gradientUnits="userSpaceOnUse">
<stop stop-color="#09005D"/>
<stop offset="1" stop-color="#1A0F91"/>
</linearGradient>
<linearGradient id="paint19_linear_1190_43823" x1="57.6906" y1="198.975" x2="63.4165" y2="198.975" gradientUnits="userSpaceOnUse">
<stop stop-color="#A22B25"/>
<stop offset="1" stop-color="#C0423C"/>
</linearGradient>
<linearGradient id="paint20_linear_1190_43823" x1="70.0395" y1="172.922" x2="28.2617" y2="209.982" gradientUnits="userSpaceOnUse">
<stop stop-color="#09005D"/>
<stop offset="1" stop-color="#1A0F91"/>
</linearGradient>
<linearGradient id="paint21_linear_1190_43823" x1="61.2845" y1="153.301" x2="45.5565" y2="197.028" gradientUnits="userSpaceOnUse">
<stop stop-color="#4F52FF"/>
<stop offset="1" stop-color="#4042E2"/>
</linearGradient>
<linearGradient id="paint22_linear_1190_43823" x1="78.7056" y1="168.091" x2="87.0681" y2="168.091" gradientUnits="userSpaceOnUse">
<stop stop-color="#A22B25"/>
<stop offset="1" stop-color="#C0423C"/>
</linearGradient>
<linearGradient id="paint23_linear_1190_43823" x1="97.1425" y1="187.294" x2="58.7092" y2="132.391" gradientUnits="userSpaceOnUse">
<stop stop-color="#53D8FF"/>
<stop offset="1" stop-color="#3840F7"/>
</linearGradient>
<linearGradient id="paint24_linear_1190_43823" x1="70.6124" y1="123.881" x2="64.0438" y2="135.461" gradientUnits="userSpaceOnUse">
<stop stop-color="#A22B25"/>
<stop offset="1" stop-color="#C0423C"/>
</linearGradient>
<linearGradient id="paint25_linear_1190_43823" x1="63.9467" y1="107.076" x2="72.4155" y2="126.088" gradientUnits="userSpaceOnUse">
<stop stop-color="#A22B25"/>
<stop offset="1" stop-color="#C0423C"/>
</linearGradient>
<linearGradient id="paint26_linear_1190_43823" x1="64.8601" y1="112.276" x2="76.1188" y2="126.771" gradientUnits="userSpaceOnUse">
<stop stop-color="#09005D"/>
<stop offset="1" stop-color="#1A0F91"/>
</linearGradient>
<linearGradient id="paint27_linear_1190_43823" x1="59.9718" y1="108.847" x2="68.4406" y2="127.859" gradientUnits="userSpaceOnUse">
<stop stop-color="#A22B25"/>
<stop offset="1" stop-color="#C0423C"/>
</linearGradient>
<linearGradient id="paint28_linear_1190_43823" x1="101.142" y1="121.699" x2="117.009" y2="121.699" gradientUnits="userSpaceOnUse">
<stop stop-color="#A22B25"/>
<stop offset="1" stop-color="#C0423C"/>
</linearGradient>
<linearGradient id="paint29_linear_1190_43823" x1="62.301" y1="125.349" x2="123.983" y2="226.992" gradientUnits="userSpaceOnUse">
<stop stop-color="#4F52FF"/>
<stop offset="1" stop-color="#4042E2"/>
</linearGradient>
</defs>
</svg>
