<svg width="21" height="21" viewBox="0 0 21 21" fill="none" xmlns="http://www.w3.org/2000/svg">
<path d="M4.18008 15.2123C5.03008 14.5623 5.98008 14.0498 7.03008 13.6748C8.08008 13.2998 9.18008 13.1123 10.3301 13.1123C11.4801 13.1123 12.5801 13.2998 13.6301 13.6748C14.6801 14.0498 15.6301 14.5623 16.4801 15.2123C17.0634 14.529 17.5176 13.754 17.8426 12.8873C18.1676 12.0206 18.3301 11.0956 18.3301 10.1123C18.3301 7.89564 17.5509 6.00814 15.9926 4.4498C14.4342 2.89147 12.5467 2.1123 10.3301 2.1123C8.11341 2.1123 6.22591 2.89147 4.66758 4.4498C3.10924 6.00814 2.33008 7.89564 2.33008 10.1123C2.33008 11.0956 2.49258 12.0206 2.81758 12.8873C3.14258 13.754 3.59674 14.529 4.18008 15.2123ZM10.3301 11.1123C9.34674 11.1123 8.51758 10.7748 7.84258 10.0998C7.16758 9.4248 6.83008 8.59564 6.83008 7.6123C6.83008 6.62897 7.16758 5.7998 7.84258 5.1248C8.51758 4.4498 9.34674 4.1123 10.3301 4.1123C11.3134 4.1123 12.1426 4.4498 12.8176 5.1248C13.4926 5.7998 13.8301 6.62897 13.8301 7.6123C13.8301 8.59564 13.4926 9.4248 12.8176 10.0998C12.1426 10.7748 11.3134 11.1123 10.3301 11.1123ZM10.3301 20.1123C8.94674 20.1123 7.64674 19.8498 6.43008 19.3248C5.21341 18.7998 4.15508 18.0873 3.25508 17.1873C2.35508 16.2873 1.64258 15.229 1.11758 14.0123C0.592578 12.7956 0.330078 11.4956 0.330078 10.1123C0.330078 8.72897 0.592578 7.42897 1.11758 6.2123C1.64258 4.99564 2.35508 3.9373 3.25508 3.0373C4.15508 2.1373 5.21341 1.4248 6.43008 0.899805C7.64674 0.374805 8.94674 0.112305 10.3301 0.112305C11.7134 0.112305 13.0134 0.374805 14.2301 0.899805C15.4467 1.4248 16.5051 2.1373 17.4051 3.0373C18.3051 3.9373 19.0176 4.99564 19.5426 6.2123C20.0676 7.42897 20.3301 8.72897 20.3301 10.1123C20.3301 11.4956 20.0676 12.7956 19.5426 14.0123C19.0176 15.229 18.3051 16.2873 17.4051 17.1873C16.5051 18.0873 15.4467 18.7998 14.2301 19.3248C13.0134 19.8498 11.7134 20.1123 10.3301 20.1123ZM10.3301 18.1123C11.2134 18.1123 12.0467 17.9831 12.8301 17.7248C13.6134 17.4665 14.3301 17.0956 14.9801 16.6123C14.3301 16.129 13.6134 15.7581 12.8301 15.4998C12.0467 15.2415 11.2134 15.1123 10.3301 15.1123C9.44674 15.1123 8.61341 15.2415 7.83008 15.4998C7.04674 15.7581 6.33008 16.129 5.68008 16.6123C6.33008 17.0956 7.04674 17.4665 7.83008 17.7248C8.61341 17.9831 9.44674 18.1123 10.3301 18.1123ZM10.3301 9.1123C10.7634 9.1123 11.1217 8.97064 11.4051 8.6873C11.6884 8.40397 11.8301 8.04564 11.8301 7.6123C11.8301 7.17897 11.6884 6.82064 11.4051 6.5373C11.1217 6.25397 10.7634 6.1123 10.3301 6.1123C9.89674 6.1123 9.53841 6.25397 9.25508 6.5373C8.97174 6.82064 8.83008 7.17897 8.83008 7.6123C8.83008 8.04564 8.97174 8.40397 9.25508 8.6873C9.53841 8.97064 9.89674 9.1123 10.3301 9.1123Z" fill="#BDBDBD"/>
</svg>
