<svg width="19" height="20" viewBox="0 0 19 20" fill="none" xmlns="http://www.w3.org/2000/svg">
<path fill-rule="evenodd" clip-rule="evenodd" d="M3.49609 8.99658L8.99609 -0.00341797L14.4961 8.99658H3.49609ZM10.9261 6.99658L8.99609 3.83658L7.05609 6.99658H10.9261ZM14.4961 10.9966C12.0061 10.9966 9.99609 13.0066 9.99609 15.4966C9.99609 17.9866 12.0061 19.9966 14.4961 19.9966C16.9861 19.9966 18.9961 17.9866 18.9961 15.4966C18.9961 13.0066 16.9861 10.9966 14.4961 10.9966ZM11.9961 15.4966C11.9961 16.8766 13.1161 17.9966 14.4961 17.9966C15.8761 17.9966 16.9961 16.8766 16.9961 15.4966C16.9961 14.1166 15.8761 12.9966 14.4961 12.9966C13.1161 12.9966 11.9961 14.1166 11.9961 15.4966ZM-0.00390625 19.4966H7.99609V11.4966H-0.00390625V19.4966ZM5.99609 13.4966H1.99609V17.4966H5.99609V13.4966Z" fill="#BDBDBD"/>
</svg>
