<svg width="26" height="25" viewBox="0 0 26 25" fill="none" xmlns="http://www.w3.org/2000/svg">
<path d="M12.4461 18.9966C12.7961 18.9966 13.0919 18.8757 13.3336 18.6341C13.5753 18.3924 13.6961 18.0966 13.6961 17.7466C13.6961 17.3966 13.5753 17.1007 13.3336 16.8591C13.0919 16.6174 12.7961 16.4966 12.4461 16.4966C12.0961 16.4966 11.8003 16.6174 11.5586 16.8591C11.3169 17.1007 11.1961 17.3966 11.1961 17.7466C11.1961 18.0966 11.3169 18.3924 11.5586 18.6341C11.8003 18.8757 12.0961 18.9966 12.4461 18.9966ZM11.5461 15.1466H13.3961C13.3961 14.5966 13.4586 14.1632 13.5836 13.8466C13.7086 13.5299 14.0628 13.0966 14.6461 12.5466C15.0794 12.1132 15.4211 11.7007 15.6711 11.3091C15.9211 10.9174 16.0461 10.4466 16.0461 9.89658C16.0461 8.96325 15.7044 8.24658 15.0211 7.74658C14.3378 7.24658 13.5294 6.99658 12.5961 6.99658C11.6461 6.99658 10.8753 7.24658 10.2836 7.74658C9.69193 8.24658 9.27943 8.84658 9.04609 9.54658L10.6961 10.1966C10.7794 9.89658 10.9669 9.57158 11.2586 9.22158C11.5503 8.87158 11.9961 8.69658 12.5961 8.69658C13.1294 8.69658 13.5294 8.84242 13.7961 9.13408C14.0628 9.42575 14.1961 9.74658 14.1961 10.0966C14.1961 10.4299 14.0961 10.7424 13.8961 11.0341C13.6961 11.3257 13.4461 11.5966 13.1461 11.8466C12.4128 12.4966 11.9628 12.9882 11.7961 13.3216C11.6294 13.6549 11.5461 14.2632 11.5461 15.1466ZM12.4961 22.9966C11.1128 22.9966 9.81276 22.7341 8.59609 22.2091C7.37943 21.6841 6.32109 20.9716 5.42109 20.0716C4.52109 19.1716 3.80859 18.1132 3.28359 16.8966C2.75859 15.6799 2.49609 14.3799 2.49609 12.9966C2.49609 11.6132 2.75859 10.3132 3.28359 9.09658C3.80859 7.87992 4.52109 6.82158 5.42109 5.92158C6.32109 5.02158 7.37943 4.30908 8.59609 3.78408C9.81276 3.25908 11.1128 2.99658 12.4961 2.99658C13.8794 2.99658 15.1794 3.25908 16.3961 3.78408C17.6128 4.30908 18.6711 5.02158 19.5711 5.92158C20.4711 6.82158 21.1836 7.87992 21.7086 9.09658C22.2336 10.3132 22.4961 11.6132 22.4961 12.9966C22.4961 14.3799 22.2336 15.6799 21.7086 16.8966C21.1836 18.1132 20.4711 19.1716 19.5711 20.0716C18.6711 20.9716 17.6128 21.6841 16.3961 22.2091C15.1794 22.7341 13.8794 22.9966 12.4961 22.9966ZM12.4961 20.9966C14.7294 20.9966 16.6211 20.2216 18.1711 18.6716C19.7211 17.1216 20.4961 15.2299 20.4961 12.9966C20.4961 10.7632 19.7211 8.87158 18.1711 7.32158C16.6211 5.77158 14.7294 4.99658 12.4961 4.99658C10.2628 4.99658 8.37109 5.77158 6.82109 7.32158C5.27109 8.87158 4.49609 10.7632 4.49609 12.9966C4.49609 15.2299 5.27109 17.1216 6.82109 18.6716C8.37109 20.2216 10.2628 20.9966 12.4961 20.9966Z" fill="#BDBDBD"/>
</svg>
