<svg width="25" height="25" viewBox="0 0 26 25" fill="none" xmlns="http://www.w3.org/2000/svg">
<path d="M13.0058 19.5079C14.9511 19.5079 16.6019 18.8252 17.9583 17.4596C19.3147 16.0941 19.9976 14.4375 20.007 12.4896V5.48548H13.0028C11.055 5.49484 9.39831 6.17771 8.03279 7.5341C6.66727 8.89049 5.98451 10.5414 5.98451 12.4867C5.98451 14.4365 6.66657 16.0941 8.0307 17.4596C9.39483 18.8252 11.0532 19.5079 13.0058 19.5079ZM11.8001 16.9115L16.4873 12.7149C16.6378 12.5801 16.6816 12.4191 16.6188 12.2319C16.5561 12.0448 16.4201 11.9338 16.2109 11.8991L12.539 11.5465L14.7525 8.52171C14.8051 8.44825 14.8288 8.37057 14.8236 8.28866C14.8185 8.20675 14.7857 8.12863 14.7252 8.05428C14.6486 7.97861 14.5609 7.94186 14.4619 7.94405C14.363 7.94622 14.2738 7.98272 14.1944 8.05356L9.53974 12.2428C9.3896 12.3773 9.34424 12.5399 9.40367 12.7304C9.4631 12.9209 9.59742 13.0336 9.80664 13.0683L13.4785 13.4142L11.259 16.4457C11.2064 16.5191 11.1836 16.5968 11.1905 16.6787C11.1974 16.7606 11.2364 16.8387 11.3074 16.9131C11.3739 16.983 11.4528 17.0179 11.5439 17.0179C11.6351 17.0179 11.7204 16.9824 11.8001 16.9115ZM13.0058 20.8167C11.9684 20.8167 10.9912 20.6414 10.0743 20.2908C9.15733 19.9402 8.33027 19.452 7.5931 18.8261L5.79622 20.623C5.7253 20.6933 5.6522 20.7432 5.5769 20.7726C5.50162 20.802 5.41908 20.8167 5.32927 20.8167C5.14823 20.8167 4.99405 20.7528 4.86674 20.625C4.73944 20.4972 4.67578 20.3424 4.67578 20.1606C4.67578 20.0705 4.69047 19.9881 4.71984 19.9136C4.74924 19.839 4.7991 19.7666 4.86943 19.6962L6.6663 17.8993C6.04042 17.1622 5.5522 16.3351 5.20164 15.4182C4.85107 14.5012 4.67578 13.5241 4.67578 12.4867C4.67578 10.1723 5.48518 8.2087 7.10398 6.59592C8.7228 4.98315 10.6896 4.17676 13.0044 4.17676H21.3157V12.4881C21.3157 14.8028 20.5093 16.7696 18.8965 18.3885C17.2837 20.0073 15.3201 20.8167 13.0058 20.8167Z" fill="#BDBDBD"/>
</svg>
