<svg width="52" height="52" viewBox="0 0 52 52" fill="none" xmlns="http://www.w3.org/2000/svg">
<g clip-path="url(#clip0_1179_43245)">
<path d="M29.8859 21.789C28.6419 20.6363 28.0028 19.1732 28.0028 17.4749V14.3032C28.0028 12.5946 28.6504 11.123 29.9115 9.96517L30.5968 9.21318C31.6853 8.22587 33.0148 7.71943 34.5288 7.71943H37.7073C39.4212 7.71943 40.8942 8.3657 42.0546 9.62414C43.1021 10.7598 44.6041 11.4726 46.272 11.4726C49.435 11.4726 52 8.91307 52 5.75675C52 2.60043 49.435 0.0409247 46.272 0.0409247C44.6041 0.0409247 43.1021 0.751992 42.0546 1.88936C40.8942 3.14779 39.4212 3.79406 37.7073 3.79406H34.5288C33.0131 3.79406 31.6836 3.28762 30.5951 2.30031C29.8722 1.35222 28.8606 0.637744 27.69 0.284768C27.69 0.284768 24.4193 -0.891818 21.9808 1.65234C21.9774 1.65745 21.9723 1.66086 21.9688 1.66427C21.933 1.69838 21.8971 1.73419 21.8629 1.77C20.2959 3.33196 18.5238 3.70369 17.4712 3.76849V3.75143H16.5433H14.2944C12.5822 3.75143 11.1075 3.10516 9.94716 1.84673C8.89793 0.711067 7.39586 0 5.72803 0C2.56497 0 0 2.5595 0 5.71582C0 8.87214 2.56497 11.4316 5.72803 11.4316C7.39757 11.4316 8.89793 10.7189 9.94545 9.58321C10.0411 9.47919 10.1403 9.38029 10.2411 9.2831L10.6495 8.9233C11.6816 8.09969 12.9086 7.6768 14.291 7.6768H16.9192C18.9903 7.75694 19.5713 8.12015 19.5713 8.12015C23.2317 9.91061 23.893 12.7515 23.9921 14.0747C23.9938 14.1497 23.9955 14.2248 23.9955 14.2998V17.4715C23.9955 20.7028 20.7402 24.0535 17.4695 24.0535H14.291C12.5788 24.0535 11.104 23.4072 9.94374 22.1488C8.89622 21.0131 7.39586 20.3004 5.72632 20.3004C2.56497 20.3038 0 22.8633 0 26.0196C0 29.1759 2.56497 31.7354 5.72803 31.7354C7.39757 31.7354 8.89793 31.0227 9.94545 29.887C11.104 28.6286 12.5788 27.9823 14.2927 27.9823H17.4712C20.7316 27.9823 23.9972 31.3364 23.9972 34.5644V37.736C23.9972 41.0117 20.7829 44.3181 17.4712 44.3181H14.2927C12.5788 44.3181 11.1058 43.6718 9.94545 42.4134C8.89793 41.2777 7.39757 40.5649 5.72803 40.5649C2.56497 40.5684 0 43.1279 0 46.2842C0 49.4405 2.56497 52 5.72803 52C7.39757 52 8.89793 51.2889 9.94545 50.1516C11.1058 48.8931 12.5788 48.2469 14.2927 48.2469H17.4712C18.9869 48.2469 20.3147 48.7516 21.4032 49.7406C22.449 51.1133 24.1032 52 25.9658 52H26.0034H26.0359C29.1989 52 31.7639 49.4405 31.7639 46.2842C31.7639 44.6182 31.0513 43.121 29.9115 42.0757C28.6504 40.9179 28.0028 39.448 28.0028 37.7377V34.5661C28.0028 32.8626 28.6453 31.3961 29.8979 30.2417L29.9115 30.2297L29.9167 30.2263L29.9355 30.2093L29.9543 30.1922L29.9662 30.1803L29.9713 30.1752L29.9884 30.1581L30.0072 30.1411L30.0175 30.1308L30.0243 30.124L30.0414 30.107L30.0585 30.0899L30.0688 30.0797L30.0773 30.0712L30.0944 30.0541L30.1115 30.0371L30.12 30.0285L30.1286 30.02L30.1456 30.003L30.1627 29.9842L30.1696 29.9774L30.1798 29.9671L30.1969 29.9484L30.214 29.9313L30.2208 29.9245L30.2311 29.9126L30.2482 29.8938L30.2653 29.8751L30.2704 29.8699L30.2824 29.8563L30.2994 29.8375L30.3165 29.8188L30.3199 29.8154L30.3319 29.8017L30.349 29.783L30.3661 29.7642L30.3695 29.7608L30.3832 29.7455L30.3986 29.7267L30.4276 29.6909L30.443 29.6704L30.4584 29.6517L30.4737 29.6329L30.4891 29.6142L30.5045 29.5954L30.5199 29.5749L30.5353 29.5562L30.566 29.517L30.5814 29.4982L30.5951 29.4812V29.4777H30.5968C31.6853 28.4904 33.0148 27.984 34.5305 27.984H37.709C39.4229 27.984 40.896 28.6303 42.0563 29.8887C43.1038 31.0244 44.6041 31.7354 46.2737 31.7354C49.4367 31.7354 52.0017 29.1759 52.0017 26.0196C52.0017 22.8633 49.4367 20.3038 46.2737 20.3038C44.6059 20.3038 43.1038 21.0149 42.0563 22.1522C40.896 23.4107 39.4229 24.0569 37.709 24.0569H34.5305C33.0148 24.0569 31.687 23.5505 30.5985 22.5632C30.5985 22.5632 30.0141 21.9288 29.8876 21.789H29.8859Z" fill="#F7AB27"/>
</g>
<defs>
<clipPath id="clip0_1179_43245">
<rect width="52" height="52" fill="white"/>
</clipPath>
</defs>
</svg>
