<svg width="21" height="20" viewBox="0 0 21 20" fill="none" xmlns="http://www.w3.org/2000/svg">
<path d="M7.74629 19.9966L7.34629 16.7966C7.12962 16.7132 6.92546 16.6132 6.73379 16.4966C6.54212 16.3799 6.35462 16.2549 6.17129 16.1216L3.19629 17.3716L0.446289 12.6216L3.02129 10.6716C3.00462 10.5549 2.99629 10.4424 2.99629 10.3341V9.65908C2.99629 9.55075 3.00462 9.43825 3.02129 9.32158L0.446289 7.37158L3.19629 2.62158L6.17129 3.87158C6.35462 3.73825 6.54629 3.61325 6.74629 3.49658C6.94629 3.37992 7.14629 3.27992 7.34629 3.19658L7.74629 -0.00341797H13.2463L13.6463 3.19658C13.863 3.27992 14.0671 3.37992 14.2588 3.49658C14.4505 3.61325 14.638 3.73825 14.8213 3.87158L17.7963 2.62158L20.5463 7.37158L17.9713 9.32158C17.988 9.43825 17.9963 9.55075 17.9963 9.65908V10.3341C17.9963 10.4424 17.9796 10.5549 17.9463 10.6716L20.5213 12.6216L17.7713 17.3716L14.8213 16.1216C14.638 16.2549 14.4463 16.3799 14.2463 16.4966C14.0463 16.6132 13.8463 16.7132 13.6463 16.7966L13.2463 19.9966H7.74629ZM9.49629 17.9966H11.4713L11.8213 15.3466C12.338 15.2132 12.8171 15.0174 13.2588 14.7591C13.7005 14.5007 14.1046 14.1882 14.4713 13.8216L16.9463 14.8466L17.9213 13.1466L15.7713 11.5216C15.8546 11.2882 15.913 11.0424 15.9463 10.7841C15.9796 10.5257 15.9963 10.2632 15.9963 9.99658C15.9963 9.72992 15.9796 9.46742 15.9463 9.20908C15.913 8.95075 15.8546 8.70492 15.7713 8.47158L17.9213 6.84658L16.9463 5.14658L14.4713 6.19658C14.1046 5.81325 13.7005 5.49242 13.2588 5.23408C12.8171 4.97575 12.338 4.77992 11.8213 4.64658L11.4963 1.99658H9.52129L9.17129 4.64658C8.65462 4.77992 8.17546 4.97575 7.73379 5.23408C7.29212 5.49242 6.88796 5.80492 6.52129 6.17158L4.04629 5.14658L3.07129 6.84658L5.22129 8.44658C5.13796 8.69658 5.07962 8.94658 5.04629 9.19658C5.01296 9.44658 4.99629 9.71325 4.99629 9.99658C4.99629 10.2632 5.01296 10.5216 5.04629 10.7716C5.07962 11.0216 5.13796 11.2716 5.22129 11.5216L3.07129 13.1466L4.04629 14.8466L6.52129 13.7966C6.88796 14.1799 7.29212 14.5007 7.73379 14.7591C8.17546 15.0174 8.65462 15.2132 9.17129 15.3466L9.49629 17.9966ZM10.5463 13.4966C11.513 13.4966 12.338 13.1549 13.0213 12.4716C13.7046 11.7882 14.0463 10.9632 14.0463 9.99658C14.0463 9.02992 13.7046 8.20492 13.0213 7.52158C12.338 6.83825 11.513 6.49658 10.5463 6.49658C9.56296 6.49658 8.73379 6.83825 8.05879 7.52158C7.38379 8.20492 7.04629 9.02992 7.04629 9.99658C7.04629 10.9632 7.38379 11.7882 8.05879 12.4716C8.73379 13.1549 9.56296 13.4966 10.5463 13.4966Z" fill="#BDBDBD"/>
</svg>
