<svg width="80" height="80" viewBox="0 0 24 40" fill="none" xmlns="http://www.w3.org/2000/svg">
    <path
        d="M3.59637 39.1663C2.71407 39.1663 1.97743 38.8709 1.38646 38.2799C0.795486 37.6889 0.5 36.9523 0.5 36.07V3.92938C0.5 3.04708 0.795486 2.31044 1.38646 1.71947C1.97743 1.12849 2.71407 0.833008 3.59637 0.833008H20.4036C21.2859 0.833008 22.0226 1.12849 22.6135 1.71947C23.2045 2.31044 23.5 3.04708 23.5 3.92938V36.07C23.5 36.9523 23.2045 37.6889 22.6135 38.2799C22.0226 38.8709 21.2859 39.1663 20.4036 39.1663H3.59637ZM2.41667 30.6151V36.07C2.41667 36.3651 2.53949 36.6355 2.78515 36.8812C3.0308 37.1268 3.30121 37.2497 3.59637 37.2497H20.4036C20.6988 37.2497 20.9692 37.1268 21.2149 36.8812C21.4605 36.6355 21.5833 36.3651 21.5833 36.07V30.6151H2.41667ZM12 35.4068C12.3955 35.4068 12.7402 35.26 13.034 34.9664C13.3276 34.6726 13.4744 34.3279 13.4744 33.9324C13.4744 33.5366 13.3276 33.1919 13.034 32.8984C12.7402 32.6048 12.3955 32.458 12 32.458C11.6045 32.458 11.2598 32.6048 10.966 32.8984C10.6724 33.1919 10.5256 33.5366 10.5256 33.9324C10.5256 34.3279 10.6724 34.6726 10.966 34.9664C11.2598 35.26 11.6045 35.4068 12 35.4068ZM2.41667 28.6985H21.5833V7.54134H2.41667V28.6985ZM2.41667 5.62467H21.5833V3.92938C21.5833 3.63422 21.4605 3.36381 21.2149 3.11815C20.9692 2.8725 20.6988 2.74967 20.4036 2.74967H3.59637C3.30121 2.74967 3.0308 2.8725 2.78515 3.11815C2.53949 3.36381 2.41667 3.63422 2.41667 3.92938V5.62467Z"
        fill="#5E2FFB"/>
</svg>
