<svg width="80" height="80" viewBox="0 0 38 38" fill="none" xmlns="http://www.w3.org/2000/svg">
    <path
        d="M18.9998 32.3367C18.3177 32.3367 17.7412 32.1013 17.2704 31.6305C16.7994 31.1595 16.5639 30.5829 16.5639 29.9007C16.5639 29.2188 16.7994 28.6423 17.2704 28.1713C17.7412 27.7005 18.3177 27.4651 18.9998 27.4651C19.682 27.4651 20.2584 27.7005 20.7292 28.1713C21.2003 28.6423 21.4358 29.2188 21.4358 29.9007C21.4358 30.5829 21.2003 31.1595 20.7292 31.6305C20.2584 32.1013 19.682 32.3367 18.9998 32.3367ZM10.054 24.3044L8.43424 22.6664C9.80831 21.2921 11.3938 20.2157 13.1906 19.4372C14.9874 18.6588 16.9255 18.2695 19.005 18.2695C21.0842 18.2695 23.0204 18.6602 24.8138 19.4416C26.6075 20.2232 28.1913 21.3043 29.5654 22.6847L27.9457 24.3044C26.7845 23.1433 25.4387 22.2329 23.9082 21.5732C22.3776 20.9134 20.7415 20.5836 18.9998 20.5836C17.2582 20.5836 15.622 20.9134 14.0915 21.5732C12.5609 22.2329 11.2151 23.1433 10.054 24.3044ZM3.32483 17.5752L1.70508 15.9555C3.90961 13.7388 6.48252 11.987 9.42383 10.7C12.3651 9.41303 15.5571 8.76953 18.9998 8.76953C22.4425 8.76953 25.6345 9.41303 28.5758 10.7C31.5171 11.987 34.09 13.7388 36.2946 15.9555L34.6748 17.5752C32.6429 15.5433 30.2877 13.9534 27.6092 12.8054C24.9307 11.6575 22.0609 11.0836 18.9998 11.0836C15.9387 11.0836 13.0689 11.6575 10.3905 12.8054C7.71198 13.9534 5.35677 15.5433 3.32483 17.5752Z"
        fill="#5E2FFB"/>
</svg>
