<svg width="80" height="80" viewBox="0 0 34 34" fill="none" xmlns="http://www.w3.org/2000/svg">
    <path
        d="M11.9997 23.0575L13.4742 21.571L8.9028 16.9997L13.4341 12.4684L11.9596 10.982L5.94186 16.9997L11.9997 23.0575ZM21.9997 23.0575L28.0575 16.9997L21.9997 10.9419L20.5252 12.4283L25.0966 16.9997L20.5252 21.571L21.9997 23.0575ZM3.69863 33.6663C2.7396 33.6663 1.93891 33.3452 1.29655 32.7028C0.654188 32.0604 0.333008 31.2597 0.333008 30.3007V3.69863C0.333008 2.7396 0.654188 1.93891 1.29655 1.29655C1.93891 0.654188 2.7396 0.333008 3.69863 0.333008H30.3007C31.2597 0.333008 32.0604 0.654188 32.7028 1.29655C33.3452 1.93891 33.6663 2.7396 33.6663 3.69863V30.3007C33.6663 31.2597 33.3452 32.0604 32.7028 32.7028C32.0604 33.3452 31.2597 33.6663 30.3007 33.6663H3.69863ZM3.69863 31.583H30.3007C30.6216 31.583 30.9155 31.4495 31.1825 31.1825C31.4495 30.9155 31.583 30.6216 31.583 30.3007V3.69863C31.583 3.3778 31.4495 3.08388 31.1825 2.81686C30.9155 2.54985 30.6216 2.41634 30.3007 2.41634H3.69863C3.3778 2.41634 3.08388 2.54985 2.81686 2.81686C2.54985 3.08388 2.41634 3.3778 2.41634 3.69863V30.3007C2.41634 30.6216 2.54985 30.9155 2.81686 31.1825C3.08388 31.4495 3.3778 31.583 3.69863 31.583Z"
        fill="#5E2FFB"/>
</svg>
