<svg width="57" height="70" viewBox="0 0 57 70" fill="none" xmlns="http://www.w3.org/2000/svg">
<g clip-path="url(#clip0_709_17341)">
<path fill-rule="evenodd" clip-rule="evenodd" d="M41.408 4.48145C34.048 4.48145 28.0732 10.4562 28.0732 17.8162C28.0732 25.1762 34.048 31.1509 41.408 31.1509C48.768 31.1509 54.7427 25.1762 54.7427 17.8162C54.7427 10.4562 48.768 4.48145 41.408 4.48145ZM41.408 6.23002C47.8023 6.23002 52.9942 11.4219 52.9942 17.8162C52.9942 24.2105 47.8023 29.4024 41.408 29.4024C35.0137 29.4024 29.8218 24.2105 29.8218 17.8162C29.8218 11.4219 35.0137 6.23002 41.408 6.23002Z" fill="#5E2FFB"/>
<path fill-rule="evenodd" clip-rule="evenodd" d="M39.5977 11.6468V19.9537C39.5977 20.4376 39.9881 20.828 40.472 20.828H46.7022C47.1861 20.828 47.5765 20.4376 47.5765 19.9537C47.5765 19.4699 47.1861 19.0795 46.7022 19.0795H41.3463V11.6468C41.3463 11.1629 40.9559 10.7725 40.472 10.7725C39.9881 10.7725 39.5977 11.1629 39.5977 11.6468Z" fill="#5E2FFB"/>
<path fill-rule="evenodd" clip-rule="evenodd" d="M14.3429 47.7257L29.0131 51.3097C30.3904 51.6457 31.8376 51.56 33.1676 51.063C37.1996 49.5528 47.0574 45.862 52.1866 43.9423C53.2384 43.5468 54.0731 42.7242 54.4791 41.676C54.8869 40.6295 54.8274 39.457 54.3181 38.456L54.3146 38.4508C53.5534 36.958 51.8384 36.216 50.2284 36.6832L39.2839 39.8595C39.2786 39.5147 39.2314 39.1683 39.1404 38.8305C38.8359 37.6895 38.0728 36.727 37.0316 36.1722C33.7451 34.4205 28.7086 31.736 25.7843 30.1785C24.0851 29.272 22.0743 29.1512 20.2771 29.8495L14.5739 32.065V31.855C14.5739 31.1585 14.2973 30.49 13.8056 29.9983C13.3121 29.5065 12.6454 29.23 11.9489 29.23H4.87012C4.17362 29.23 3.50686 29.5065 3.01336 29.9983C2.52161 30.49 2.24512 31.1585 2.24512 31.855C2.24512 35.3497 2.24512 43.1565 2.24512 46.6513C2.24512 47.3478 2.52161 48.0145 3.01336 48.508C3.50686 48.9998 4.17362 49.2763 4.87012 49.2763H11.9489C12.6454 49.2763 13.3121 48.9998 13.8056 48.508C14.0331 48.2805 14.2134 48.0145 14.3429 47.7257ZM38.8464 41.8073C38.7834 41.9368 38.7134 42.0628 38.6364 42.187L38.6346 42.1887C37.6616 43.7445 35.6894 44.3395 34.0181 43.5835L24.1306 39.1105C23.6896 38.911 23.4936 38.393 23.6931 37.952C23.8926 37.5127 24.4106 37.3168 24.8516 37.5163L34.7391 41.9893C35.6124 42.383 36.6431 42.0732 37.1506 41.2612L37.1524 41.2578C37.5216 40.668 37.6301 39.9523 37.4499 39.282C37.2714 38.61 36.8216 38.043 36.2074 37.7157L24.9618 31.722C23.7106 31.0552 22.2318 30.9677 20.9106 31.4805L14.5739 33.941V45.981C14.6071 45.988 14.6404 45.9967 14.6754 46.0055L29.4278 49.6088C30.4656 49.8625 31.5541 49.7977 32.5534 49.4232L51.5724 42.3025C52.1586 42.0837 52.6223 41.6252 52.8481 41.0425C53.0756 40.4597 53.0424 39.8088 52.7589 39.2505L52.7554 39.2453C52.3756 38.4998 51.5199 38.1305 50.7166 38.3633L38.8464 41.8073ZM12.8239 31.855V46.6513C12.8239 46.884 12.7311 47.1063 12.5666 47.2708C12.4039 47.4335 12.1799 47.5263 11.9489 47.5263H4.87012C4.63737 47.5263 4.41511 47.4335 4.25061 47.2708C4.08786 47.1063 3.99512 46.884 3.99512 46.6513V31.855C3.99512 31.6222 4.08786 31.4 4.25061 31.2355C4.41511 31.071 4.63737 30.98 4.87012 30.98H11.9489C12.1799 30.98 12.4039 31.071 12.5666 31.2355C12.7311 31.4 12.8239 31.6222 12.8239 31.855Z" fill="#5E2FFB"/>
</g>
<defs>
<clipPath id="clip0_709_17341">
<rect width="56" height="70" fill="white" transform="translate(0.496094 -0.00341797)"/>
</clipPath>
</defs>
</svg>
