<svg width="100" height="100" viewBox="0 0 55 22" fill="none" xmlns="http://www.w3.org/2000/svg">
    <path
        d="M54.064 8.24408C52.8142 6.99133 50.7861 6.99057 49.5363 8.24332C48.4387 9.34429 48.3062 11.0456 49.1366 12.2938C45.7864 15.2486 42.7735 16.9597 40.0008 17.7443C39.8479 17.2988 39.6055 16.8774 39.2502 16.5218C38.0012 15.269 35.9723 15.2675 34.7225 16.5218C34.2881 16.9567 34.0141 17.4891 33.8824 18.0494C29.8637 17.3094 26.2733 14.8084 22.6777 11.9789C23.3824 10.7518 23.225 9.16306 22.1778 8.11419C20.9514 6.88259 18.9775 6.86748 17.7232 8.0553C14.4107 5.53469 10.9709 3.3705 7.14195 2.79434C7.05386 2.11699 6.76251 1.46079 6.2438 0.940508C4.99407 -0.312999 2.9659 -0.313754 1.71617 0.939753C1.05141 1.60728 0.751774 2.4938 0.793934 3.36748C0.818246 3.8719 0.860274 4.03728 1.01527 4.42239C1.17111 4.8075 1.40449 5.16845 1.71617 5.48032C2.96665 6.73383 4.99407 6.73307 6.2438 5.47881C6.69927 5.02196 6.9846 4.46014 7.10807 3.8719C10.66 4.43598 13.8867 6.47331 17.0863 8.91161C16.4615 10.1213 16.6406 11.6399 17.651 12.654C18.8457 13.8509 20.7399 13.8917 21.9971 12.8013C25.6861 15.704 29.497 18.359 33.8176 19.1217C33.8906 19.83 34.182 20.5186 34.7225 21.0593C35.973 22.3143 37.9997 22.3128 39.2494 21.0593C39.8728 20.4341 40.1845 19.6155 40.1867 18.7954C43.1341 17.9814 46.336 16.1857 49.8751 13.061C51.1301 14.0163 52.9189 13.9309 54.0632 12.7831C55.3137 11.5311 55.3137 9.49834 54.064 8.24408ZM3.69616 4.4239L3.63368 4.36123L3.57119 4.4239L2.48031 3.33048L2.90342 2.9061L2.9659 2.96877L3.02839 2.9061L3.63368 3.51171L5.25682 1.88668L5.3193 1.94936L5.38179 1.88668L5.80489 2.31031L3.69616 4.4239ZM19.506 11.5976L18.4143 10.5042L18.8374 10.0798L19.506 10.7488L21.1916 9.06037L21.6147 9.48399L19.506 11.5976ZM36.6958 20.0286L35.6049 18.9359L36.028 18.5115L36.6958 19.1813L38.3821 17.4928L38.8052 17.9165L36.6958 20.0286ZM51.5013 11.7229L50.4104 10.6295L50.8335 10.2051L51.5013 10.8742L53.1876 9.18647L53.6108 9.6101L51.5013 11.7229Z"
        fill="#5E2FFB"/>
</svg>
