<svg width="24" height="24" viewBox="0 0 24 24" fill="none" xmlns="http://www.w3.org/2000/svg">
<path d="M16.707 10.293C16.5195 10.1055 16.2652 10.0002 16 10.0002C15.7348 10.0002 15.4805 10.1055 15.293 10.293L13 12.586V4C13 3.73478 12.8946 3.48043 12.7071 3.29289C12.5196 3.10536 12.2652 3 12 3C11.7348 3 11.4804 3.10536 11.2929 3.29289C11.1054 3.48043 11 3.73478 11 4V12.586L8.707 10.293C8.61475 10.1975 8.50441 10.1213 8.3824 10.0689C8.2604 10.0165 8.12918 9.9889 7.9964 9.98775C7.86362 9.9866 7.73194 10.0119 7.60905 10.0622C7.48615 10.1125 7.3745 10.1867 7.2806 10.2806C7.18671 10.3745 7.11246 10.4861 7.06218 10.609C7.0119 10.7319 6.9866 10.8636 6.98775 10.9964C6.9889 11.1292 7.01649 11.2604 7.0689 11.3824C7.12131 11.5044 7.19749 11.6148 7.293 11.707L11.293 15.707C11.3859 15.8001 11.4962 15.874 11.6177 15.9244C11.7392 15.9748 11.8695 16.0008 12.001 16.0008C12.1325 16.0008 12.2628 15.9748 12.3843 15.9244C12.5058 15.874 12.6161 15.8001 12.709 15.707L16.709 11.707C16.8962 11.5192 17.0012 11.2648 17.0008 10.9996C17.0004 10.7344 16.8947 10.4803 16.707 10.293Z" fill="#374151"/>
<path d="M17 21H7C6.20435 21 5.44129 20.6839 4.87868 20.1213C4.31607 19.5587 4 18.7956 4 18V15C4 14.7348 4.10536 14.4804 4.29289 14.2929C4.48043 14.1054 4.73478 14 5 14C5.26522 14 5.51957 14.1054 5.70711 14.2929C5.89464 14.4804 6 14.7348 6 15V18C6 18.2652 6.10536 18.5196 6.29289 18.7071C6.48043 18.8946 6.73478 19 7 19H17C17.2652 19 17.5196 18.8946 17.7071 18.7071C17.8946 18.5196 18 18.2652 18 18V15C18 14.7348 18.1054 14.4804 18.2929 14.2929C18.4804 14.1054 18.7348 14 19 14C19.2652 14 19.5196 14.1054 19.7071 14.2929C19.8946 14.4804 20 14.7348 20 15V18C20 18.7956 19.6839 19.5587 19.1213 20.1213C18.5587 20.6839 17.7956 21 17 21Z" fill="#374151"/>
</svg>
