<svg width="24" height="24" viewBox="0 0 24 24" fill="none" xmlns="http://www.w3.org/2000/svg">
<path fill-rule="evenodd" clip-rule="evenodd" d="M12.0014 6.5642C13.4422 6.56475 14.8441 7.02474 15.9971 7.87529C17.15 8.72583 17.992 9.92114 18.3969 11.2822C18.8017 12.6432 18.7477 14.0967 18.2428 15.425C17.738 16.7533 16.8095 17.8848 15.5965 18.6502C14.3834 19.4155 12.9511 19.7734 11.5141 19.6703C10.077 19.5672 8.71261 19.0086 7.62516 18.0782C6.53771 17.1478 5.78578 15.8957 5.48199 14.5094C5.1782 13.1231 5.33891 11.6772 5.94003 10.3884C6.00546 10.2317 6.00678 10.0561 5.9437 9.89851C5.88063 9.74087 5.75806 9.61336 5.60164 9.54266C5.44522 9.47195 5.26707 9.46353 5.10449 9.51917C4.94191 9.5748 4.80749 9.69017 4.72937 9.84113C4.00805 11.3878 3.81528 13.1229 4.17994 14.7865C4.5446 16.4501 5.44706 17.9527 6.75213 19.0691C8.05721 20.1855 9.69464 20.8556 11.4192 20.9792C13.1437 21.1028 14.8625 20.6731 16.3181 19.7545C17.7737 18.8359 18.8877 17.4778 19.4933 15.8837C20.0989 14.2897 20.1634 12.5454 19.6773 10.9121C19.1912 9.27892 18.1805 7.84468 16.7967 6.82425C15.4129 5.80382 13.7305 5.25215 12.0014 5.25186V6.5642Z" fill="#374151"/>
<path d="M12.0014 8.4881V3.32796C12.0013 3.26562 11.9833 3.20458 11.9493 3.15198C11.9153 3.09938 11.8668 3.0574 11.8094 3.03097C11.752 3.00453 11.6882 2.99472 11.6254 3.0027C11.5626 3.01067 11.5034 3.03609 11.4547 3.07599L8.30803 5.65606C8.27052 5.68685 8.24034 5.72538 8.21963 5.76892C8.19892 5.81247 8.18818 5.85996 8.18818 5.90803C8.18818 5.95611 8.19892 6.0036 8.21963 6.04714C8.24034 6.09068 8.27052 6.12921 8.30803 6.16L11.4547 8.74007C11.5034 8.77997 11.5626 8.8054 11.6254 8.81337C11.6882 8.82134 11.752 8.81154 11.8094 8.7851C11.8668 8.75866 11.9153 8.71668 11.9493 8.66409C11.9833 8.61149 12.0013 8.55044 12.0014 8.4881Z" fill="#374151"/>
<path fill-rule="evenodd" clip-rule="evenodd" d="M12.0014 6.5642C13.4422 6.56475 14.8441 7.02474 15.9971 7.87529C17.15 8.72583 17.992 9.92114 18.3969 11.2822C18.8017 12.6432 18.7477 14.0967 18.2428 15.425C17.738 16.7533 16.8095 17.8848 15.5965 18.6502C14.3834 19.4155 12.9511 19.7734 11.5141 19.6703C10.077 19.5672 8.71261 19.0086 7.62516 18.0782C6.53771 17.1478 5.78578 15.8957 5.48199 14.5094C5.1782 13.1231 5.33891 11.6772 5.94003 10.3884C6.00546 10.2317 6.00678 10.0561 5.9437 9.89851C5.88063 9.74087 5.75806 9.61336 5.60164 9.54266C5.44522 9.47195 5.26707 9.46353 5.10449 9.51917C4.94191 9.5748 4.80749 9.69017 4.72937 9.84113C4.00805 11.3878 3.81528 13.1229 4.17994 14.7865C4.5446 16.4501 5.44706 17.9527 6.75213 19.0691C8.05721 20.1855 9.69464 20.8556 11.4192 20.9792C13.1437 21.1028 14.8625 20.6731 16.3181 19.7545C17.7737 18.8359 18.8877 17.4778 19.4933 15.8837C20.0989 14.2897 20.1634 12.5454 19.6773 10.9121C19.1912 9.27892 18.1805 7.84468 16.7967 6.82425C15.4129 5.80382 13.7305 5.25215 12.0014 5.25186V6.5642Z" stroke="#374151"/>
<path d="M12.0014 8.4881V3.32796C12.0013 3.26562 11.9833 3.20458 11.9493 3.15198C11.9153 3.09938 11.8668 3.0574 11.8094 3.03097C11.752 3.00453 11.6882 2.99472 11.6254 3.0027C11.5626 3.01067 11.5034 3.03609 11.4547 3.07599L8.30803 5.65606C8.27052 5.68685 8.24034 5.72538 8.21963 5.76892C8.19892 5.81247 8.18818 5.85996 8.18818 5.90803C8.18818 5.95611 8.19892 6.0036 8.21963 6.04714C8.24034 6.09068 8.27052 6.12921 8.30803 6.16L11.4547 8.74007C11.5034 8.77997 11.5626 8.8054 11.6254 8.81337C11.6882 8.82134 11.752 8.81154 11.8094 8.7851C11.8668 8.75866 11.9153 8.71668 11.9493 8.66409C11.9833 8.61149 12.0013 8.55044 12.0014 8.4881Z" stroke="#374151"/>
</svg>
