<svg width="24" height="24" viewBox="0 0 24 24" fill="none" xmlns="http://www.w3.org/2000/svg">
<path d="M20 13.7952H15V14.308C14.9973 14.8496 14.8536 15.3807 14.584 15.8464H20V19.9488H4V15.8464H9.416C9.14635 15.3807 9.00275 14.8496 9 14.308V13.7952H4C3.46957 13.7952 2.96086 14.0113 2.58579 14.396C2.21071 14.7807 2 15.3024 2 15.8464V19.9488C2 20.4928 2.21071 21.0145 2.58579 21.3992C2.96086 21.7839 3.46957 22 4 22H20C20.5304 22 21.0391 21.7839 21.4142 21.3992C21.7893 21.0145 22 20.4928 22 19.9488V15.8464C22 15.3024 21.7893 14.7807 21.4142 14.396C21.0391 14.0113 20.5304 13.7952 20 13.7952Z" fill="#374151"/>
<path d="M8.707 7.8539L11 5.5022V14.308C11 14.58 11.1054 14.8409 11.2929 15.0332C11.4804 15.2255 11.7348 15.3336 12 15.3336C12.2652 15.3336 12.5196 15.2255 12.7071 15.0332C12.8946 14.8409 13 14.58 13 14.308V5.5022L15.293 7.8539C15.4816 8.04073 15.7342 8.1441 15.9964 8.14176C16.2586 8.13943 16.5094 8.03157 16.6948 7.84141C16.8802 7.65126 16.9854 7.39402 16.9877 7.12511C16.99 6.85621 16.8892 6.59714 16.707 6.40371L12.707 2.30131C12.6141 2.2058 12.5038 2.13002 12.3823 2.07832C12.2608 2.02661 12.1305 2 11.999 2C11.8675 2 11.7372 2.02661 11.6157 2.07832C11.4942 2.13002 11.3839 2.2058 11.291 2.30131L7.291 6.40371C7.10349 6.59629 6.99826 6.85737 6.99844 7.12953C6.99863 7.40169 7.10423 7.66262 7.292 7.85493C7.47977 8.04724 7.73434 8.15517 7.99971 8.15498C8.26507 8.15478 8.51949 8.04648 8.707 7.8539Z" fill="#374151"/>
<path d="M17 18.9232C17.5523 18.9232 18 18.464 18 17.8976C18 17.3312 17.5523 16.872 17 16.872C16.4477 16.872 16 17.3312 16 17.8976C16 18.464 16.4477 18.9232 17 18.9232Z" fill="#374151"/>
</svg>
